<svg width="118" height="135" viewBox="0 0 118 135" fill="none" xmlns="http://www.w3.org/2000/svg">
<path d="M102.913 123.731C102.913 125.193 102.913 126.656 102.913 128.119C102.913 128.516 102.922 128.913 102.898 129.309C102.874 129.7 102.697 129.978 102.256 130.001C101.815 130.024 101.587 129.846 101.507 129.379C101.474 129.185 101.468 128.984 101.468 128.787C101.466 124.786 101.466 120.785 101.466 116.784C101.466 115.827 101.616 115.669 102.593 115.683C103.954 115.703 105.328 115.635 106.672 115.803C108.535 116.037 109.858 117.63 109.89 119.427C109.926 121.524 108.788 123.119 106.932 123.506C106.443 123.608 105.928 123.579 105.423 123.604C105.23 123.613 105.037 123.606 104.725 123.606C105.087 123.989 105.355 124.277 105.628 124.562C106.937 125.933 108.249 127.303 109.559 128.673C109.643 128.762 109.731 128.848 109.807 128.943C110.022 129.212 110.095 129.558 109.829 129.764C109.629 129.919 109.273 129.943 109.001 129.908C108.826 129.885 108.664 129.663 108.518 129.509C106.807 127.698 105.099 125.882 103.391 124.067C103.268 123.935 103.155 123.793 103.036 123.657C102.995 123.681 102.953 123.706 102.913 123.73V123.731ZM102.929 122.392C103.874 122.392 104.773 122.408 105.673 122.388C107.61 122.345 108.53 121.352 108.431 119.438C108.36 118.077 107.54 117.165 106.177 117.056C105.158 116.975 104.129 117.006 103.106 116.99C103.051 116.99 102.995 117.028 102.929 117.051V122.391V122.392Z" fill="white"/>
<path d="M44.722 120.882C46.2975 118.458 50.5264 118.861 51.7846 121.857C52.6086 123.82 52.582 125.782 51.6209 127.697C50.2404 130.447 46.5376 130.719 44.9005 128.749C44.872 128.715 44.8306 128.691 44.7248 128.605C44.7138 128.811 44.6981 128.965 44.6981 129.118C44.6963 130.476 44.7 131.835 44.6935 133.193C44.6926 133.42 44.6733 133.652 44.6255 133.874C44.5556 134.198 44.3266 134.356 43.9964 134.367C43.6478 134.379 43.394 134.23 43.3075 133.889C43.256 133.686 43.2514 133.467 43.2514 133.255C43.2487 128.966 43.2487 124.677 43.2496 120.388C43.2496 119.598 43.4584 119.298 43.9817 119.307C44.4811 119.316 44.6779 119.611 44.6954 120.375C44.6981 120.508 44.7083 120.641 44.7202 120.882H44.722ZM50.7977 124.661C50.7618 123.746 50.6377 122.844 50.1898 122.019C49.6683 121.059 48.8884 120.517 47.7608 120.505C46.613 120.494 45.7705 121.009 45.284 122.007C44.425 123.77 44.4277 125.577 45.2969 127.335C45.7705 128.294 46.5882 128.802 47.6973 128.812C48.824 128.822 49.6232 128.305 50.1613 127.354C50.6312 126.522 50.7609 125.605 50.7986 124.662L50.7977 124.661Z" fill="white"/>
<path d="M18.9055 130.002C18.5532 130.025 18.3583 129.765 18.2286 129.431C17.9471 128.707 17.6593 127.985 17.3962 127.253C17.2997 126.986 17.1718 126.876 16.8692 126.884C14.8035 126.937 12.7369 126.978 10.6703 127.002C10.342 127.006 10.182 127.114 10.0725 127.421C9.84351 128.066 9.58415 128.703 9.31743 129.335C9.15188 129.728 8.93023 130.071 8.40507 130.002C8.04086 129.956 7.8376 129.773 7.86887 129.401C7.88451 129.207 7.93969 129.011 8.00867 128.828C9.54552 124.781 11.087 120.736 12.6257 116.69C12.7921 116.253 12.9862 115.832 13.493 115.702C14.0788 115.551 14.5332 115.837 14.8173 116.552C15.188 117.488 15.5338 118.432 15.8916 119.373C17.0835 122.508 18.2764 125.642 19.4684 128.776C19.5281 128.933 19.5934 129.091 19.621 129.254C19.7057 129.744 19.4619 130.015 18.9064 130.002H18.9055ZM16.7809 125.603C15.7619 122.878 14.7806 120.254 13.7983 117.63L13.6907 117.647C12.7112 120.308 11.7326 122.968 10.7632 125.603H16.7819H16.7809Z" fill="white"/>
<path d="M62.559 120.859C62.594 120.454 62.605 120.15 62.6491 119.85C62.7052 119.469 62.9646 119.307 63.3307 119.309C63.7022 119.31 63.9349 119.5 64.0085 119.864C64.0324 119.983 64.0333 120.107 64.0333 120.23C64.0342 123.176 64.0352 126.123 64.0324 129.069C64.0324 129.235 64.0186 129.407 63.9726 129.565C63.8779 129.891 63.6286 130.008 63.3031 130.003C62.971 130 62.7292 129.856 62.6639 129.528C62.6022 129.216 62.5949 128.894 62.5618 128.559C62.5195 128.572 62.467 128.572 62.4505 128.597C61.1822 130.491 58.2382 130.271 56.8476 129.173C55.8865 128.414 55.3567 127.416 55.1065 126.247C54.7598 124.626 54.8987 123.056 55.6878 121.58C56.6645 119.754 58.6796 118.854 60.5789 119.472C61.1758 119.666 61.6798 120.148 62.2196 120.507C62.3272 120.579 62.4045 120.697 62.559 120.859ZM62.5921 124.72C62.582 123.721 62.467 122.816 62.0026 121.997C61.4682 121.055 60.6929 120.502 59.557 120.505C58.4405 120.507 57.6422 121.04 57.1547 121.983C56.258 123.718 56.258 125.507 57.0894 127.264C57.5631 128.263 58.3899 128.802 59.5387 128.812C60.692 128.822 61.4774 128.26 62.0145 127.296C62.4735 126.473 62.5811 125.568 62.5912 124.72H62.5921Z" fill="white"/>
<path d="M78.7829 125.298C78.7847 127.55 80.8302 129.728 83.5912 128.443C84.0933 128.209 84.5293 127.821 84.9689 127.47C85.392 127.134 85.8013 127.064 86.0744 127.345C86.3191 127.598 86.2878 128.048 85.9567 128.426C85.14 129.357 84.0658 129.833 82.8637 129.948C82.1435 130.017 81.3848 129.99 80.6784 129.842C79.4497 129.583 78.5106 128.833 77.9395 127.72C76.9011 125.696 76.8735 123.626 77.9533 121.621C78.8353 119.982 80.2719 119.188 82.1592 119.324C84.074 119.46 85.3386 120.502 85.9889 122.258C86.2179 122.876 86.3062 123.559 86.3678 124.22C86.4441 125.036 86.1618 125.296 85.3386 125.298C83.318 125.302 81.2965 125.299 79.2759 125.299C79.1112 125.299 78.9466 125.299 78.7829 125.299V125.298ZM84.831 124.077C84.7206 122.827 84.3895 121.713 83.3254 120.975C82.4351 120.356 81.4455 120.307 80.5074 120.827C79.263 121.517 78.8675 122.711 78.747 124.078H84.831V124.077Z" fill="white"/>
<path d="M93.5287 127.702C94.0833 126.111 94.5891 124.661 95.0941 123.21C95.8905 120.92 96.6797 118.628 97.4936 116.345C97.5782 116.107 97.7668 115.832 97.9792 115.739C98.1705 115.654 98.5421 115.715 98.6874 115.858C98.8429 116.013 98.9367 116.374 98.8686 116.585C98.4207 117.962 97.9277 119.324 97.4384 120.686C96.4433 123.455 95.4417 126.222 94.4392 128.988C94.362 129.202 94.2755 129.418 94.1587 129.613C93.8313 130.16 93.2059 130.153 92.8739 129.602C92.7727 129.433 92.6918 129.248 92.6246 129.064C91.1825 125.077 89.7432 121.091 88.3047 117.104C88.2688 117.004 88.2357 116.902 88.2054 116.8C88.0306 116.214 88.1428 115.852 88.5392 115.717C89.0157 115.555 89.3559 115.762 89.562 116.352C90.1754 118.108 90.7852 119.865 91.3959 121.622C92.0425 123.48 92.6881 125.337 93.3347 127.195C93.3788 127.32 93.4294 127.443 93.5278 127.701L93.5287 127.702Z" fill="white"/>
<path d="M36.3838 130.005C35.1367 130.01 34.0781 129.712 33.1556 129.014C32.9285 128.842 32.739 128.612 32.5652 128.384C32.2948 128.029 32.4548 127.715 32.7326 127.457C33.002 127.205 33.2927 127.272 33.5667 127.471C34.0229 127.802 34.4561 128.174 34.9399 128.459C35.7244 128.921 36.5733 128.91 37.4222 128.639C37.608 128.581 37.7883 128.48 37.9483 128.367C39.0023 127.617 38.9471 126.275 37.7947 125.698C36.9228 125.262 35.993 124.943 35.0926 124.564C34.7274 124.411 34.3623 124.251 34.0119 124.067C32.315 123.172 32.5413 121.018 33.736 120.164C34.2317 119.81 34.8295 119.511 35.4218 119.398C36.7315 119.149 38.0099 119.376 39.1927 120.018C39.3913 120.126 39.5771 120.272 39.7381 120.431C40.0103 120.699 40.0526 121.177 39.8236 121.432C39.5569 121.73 39.2203 121.7 38.903 121.528C38.6353 121.383 38.3916 121.195 38.1341 121.03C37.2686 120.472 36.348 120.337 35.3777 120.708C34.813 120.924 34.3899 121.295 34.3825 121.946C34.3752 122.59 34.7624 122.975 35.3363 123.208C36.4252 123.652 37.5307 124.061 38.593 124.561C39.8714 125.163 40.38 126.095 40.2228 127.388C40.1087 128.326 39.5569 128.974 38.7604 129.429C37.997 129.864 37.1601 130.014 36.3857 130.007L36.3838 130.005Z" fill="white"/>
<path d="M71.8933 130.09C69.9784 130.023 68.403 128.989 67.692 127.151C66.7981 124.841 67.0022 122.643 68.6908 120.738C69.9702 119.295 72.1002 118.889 73.8753 119.646C74.0151 119.706 74.1512 119.78 74.2754 119.867C74.6874 120.156 74.7729 120.503 74.5393 120.891C74.3407 121.22 73.9443 121.29 73.5249 121.115C73.0917 120.935 72.6539 120.715 72.1986 120.65C71.0518 120.484 70.1477 120.972 69.5535 121.93C68.4471 123.714 68.4793 125.554 69.5278 127.344C70.2249 128.534 71.4399 128.952 72.779 128.569C73.1 128.477 73.3979 128.279 73.7217 128.227C73.9571 128.191 74.2983 128.238 74.4427 128.389C74.5697 128.522 74.5826 128.912 74.4749 129.081C74.3158 129.332 74.0188 129.538 73.7557 129.668C73.168 129.958 72.6162 130.05 71.8933 130.091V130.09Z" fill="white"/>
<path d="M27.7422 120.497C27.3789 120.497 27.0763 120.503 26.7728 120.495C26.4049 120.486 26.1943 120.275 26.1832 119.926C26.1713 119.556 26.3718 119.319 26.7645 119.305C27.068 119.294 27.3724 119.303 27.7422 119.303C27.7422 118.625 27.7376 117.99 27.7449 117.355C27.7477 117.097 27.7615 116.838 27.7974 116.582C27.8525 116.189 28.1018 115.992 28.4927 115.998C28.9203 116.003 29.1457 116.27 29.1705 116.661C29.2064 117.239 29.1889 117.82 29.1935 118.399C29.1953 118.671 29.1935 118.945 29.1935 119.299C29.5227 119.299 29.8217 119.294 30.1196 119.3C30.5188 119.307 30.7634 119.495 30.7561 119.912C30.7487 120.332 30.4921 120.501 30.0957 120.501C29.8217 120.501 29.5476 120.501 29.1935 120.501C29.1935 120.706 29.1935 120.88 29.1935 121.054C29.1935 123.663 29.1953 126.271 29.1898 128.879C29.1898 129.119 29.21 129.408 29.0905 129.588C28.9617 129.78 28.6766 129.976 28.4623 129.972C28.2489 129.968 27.9657 129.764 27.8479 129.567C27.7275 129.366 27.7468 129.067 27.7459 128.81C27.7394 126.248 27.7422 123.685 27.7422 121.123C27.7422 120.941 27.7422 120.76 27.7422 120.498V120.497Z" fill="white"/>
<path d="M22.2772 122.235C22.2772 120.053 22.2772 117.87 22.2781 115.689C22.2781 115.476 22.2763 115.259 22.3094 115.05C22.3692 114.662 22.6046 114.469 23.0075 114.474C23.3901 114.479 23.6117 114.67 23.6715 115.035C23.7055 115.245 23.7101 115.461 23.7101 115.673C23.712 120.052 23.712 124.432 23.7101 128.811C23.7101 128.994 23.7009 129.177 23.6835 129.359C23.6439 129.769 23.4259 129.999 22.9992 130.002C22.5752 130.007 22.3425 129.79 22.2956 129.328C22.2754 129.132 22.2763 128.932 22.2763 128.734C22.2754 126.567 22.2763 124.4 22.2763 122.235H22.2772Z" fill="white"/>
<path d="M26 100.5H91.5" stroke="white" stroke-width="4" stroke-linecap="round"/>
<path d="M2 99L57.6397 3.47697C58.0246 2.8162 58.9785 2.81437 59.366 3.47366L115.5 99" stroke="white" stroke-width="4" stroke-linecap="round"/>
</svg>
