<svg width="758" height="618" viewBox="0 0 758 618" fill="none" xmlns="http://www.w3.org/2000/svg">
<path d="M758 0H562.075L377.387 180.309L196.148 0H0V618H169.668L378.611 469.22L588.22 618H758V0ZM211.613 339.489L147.083 581.763H36.8264V77.6195L211.613 339.489ZM240.54 372.552L346.902 446.996L191.92 557.021L240.651 372.552H240.54ZM180.683 36.237L516.348 370.69L566.08 557.349L254.113 338.066L53.1813 36.237H180.683ZM721.285 77.729V581.763H611.14L546.388 340.146L721.174 77.729H721.285ZM403.31 206.036L577.206 36.237H704.819L516.348 318.579L403.199 206.036H403.31Z" fill="white" fill-opacity="0.05"/>
</svg>
