<svg width="1123" height="1123" viewBox="0 0 1123 1123" fill="none" xmlns="http://www.w3.org/2000/svg">
<path d="M561.491 486.842C520.325 486.842 486.842 520.338 486.842 561.491C486.842 602.645 520.338 636.141 561.491 636.141C602.645 636.141 636.141 602.645 636.141 561.491C636.141 520.338 602.658 486.842 561.491 486.842ZM561.491 625.049C526.446 625.049 497.947 596.537 497.947 561.504C497.947 526.471 526.459 497.96 561.491 497.96C596.524 497.96 625.036 526.471 625.036 561.504C625.036 596.537 596.524 625.049 561.491 625.049Z" fill="#F9F9F9" fill-opacity="0.1"/>
<path d="M561.491 461.209C506.198 461.209 461.209 506.198 461.209 561.491C461.209 616.784 506.198 661.773 561.491 661.773C616.784 661.773 661.773 616.784 661.773 561.491C661.773 506.198 616.784 461.209 561.491 461.209ZM561.491 650.655C512.319 650.655 472.315 610.65 472.315 561.478C472.315 512.306 512.319 472.302 561.491 472.302C610.663 472.302 650.667 512.306 650.667 561.478C650.667 610.65 610.663 650.655 561.491 650.655Z" fill="#F9F9F9" fill-opacity="0.1"/>
<path d="M561.491 435.59C492.071 435.59 435.59 492.071 435.59 561.491C435.59 630.911 492.071 687.392 561.491 687.392C630.911 687.392 687.392 630.911 687.392 561.491C687.392 492.071 630.911 435.59 561.491 435.59ZM561.491 676.287C498.192 676.287 446.695 624.79 446.695 561.491C446.695 498.192 498.192 446.695 561.491 446.695C624.79 446.695 676.287 498.192 676.287 561.491C676.287 624.79 624.79 676.287 561.491 676.287Z" fill="#F9F9F9" fill-opacity="0.1"/>
<path d="M561.491 409.971C477.944 409.971 409.971 477.944 409.971 561.491C409.971 645.037 477.944 713.011 561.491 713.011C645.037 713.011 713.011 645.037 713.011 561.491C713.011 477.944 645.037 409.971 561.491 409.971ZM561.491 701.906C484.065 701.906 421.076 638.916 421.076 561.491C421.076 484.065 484.065 421.076 561.491 421.076C638.916 421.076 701.906 484.065 701.906 561.491C701.906 638.916 638.916 701.906 561.491 701.906Z" fill="#F9F9F9" fill-opacity="0.1"/>
<path d="M561.491 384.352C463.818 384.352 384.339 463.818 384.339 561.491C384.339 659.164 463.805 738.643 561.491 738.643C659.177 738.643 738.63 659.177 738.63 561.491C738.63 463.805 659.164 384.352 561.491 384.352ZM561.491 727.538C469.938 727.538 395.444 653.056 395.444 561.504C395.444 469.951 469.926 395.47 561.491 395.47C653.056 395.47 727.525 469.951 727.525 561.504C727.525 653.056 653.043 727.538 561.491 727.538Z" fill="#F9F9F9" fill-opacity="0.1"/>
<path d="M561.49 358.719C449.691 358.719 358.719 449.678 358.719 561.49C358.719 673.303 449.678 764.262 561.49 764.262C673.303 764.262 764.262 673.303 764.262 561.49C764.262 449.678 673.303 358.719 561.49 358.719ZM561.49 753.157C455.811 753.157 369.824 667.182 369.824 561.49C369.824 455.798 455.798 369.824 561.49 369.824C667.182 369.824 753.157 455.798 753.157 561.49C753.157 667.182 667.182 753.157 561.49 753.157Z" fill="#F9F9F9" fill-opacity="0.1"/>
<path d="M561.491 333.1C435.552 333.1 333.101 435.551 333.101 561.491C333.101 687.43 435.552 789.881 561.491 789.881C687.431 789.881 789.882 687.43 789.882 561.491C789.882 435.551 687.431 333.1 561.491 333.1ZM561.491 778.776C441.686 778.776 344.206 681.297 344.206 561.491C344.206 441.685 441.686 344.205 561.491 344.205C681.297 344.205 778.777 441.685 778.777 561.491C778.777 681.297 681.297 778.776 561.491 778.776Z" fill="#F9F9F9" fill-opacity="0.1"/>
<path d="M561.491 307.481C421.424 307.481 307.481 421.437 307.481 561.491C307.481 701.544 421.424 815.5 561.491 815.5C701.557 815.5 815.5 701.544 815.5 561.491C815.5 421.437 701.557 307.481 561.491 307.481ZM561.491 804.408C427.545 804.408 318.586 695.436 318.586 561.503C318.586 427.571 427.558 318.599 561.491 318.599C695.423 318.599 804.395 427.571 804.395 561.503C804.395 695.436 695.423 804.408 561.491 804.408Z" fill="#F9F9F9" fill-opacity="0.1"/>
<path d="M561.49 281.863C407.297 281.863 281.849 407.312 281.849 561.504C281.849 715.697 407.297 841.146 561.49 841.146C715.683 841.146 841.119 715.697 841.119 561.504C841.119 407.312 715.67 281.863 561.49 281.863ZM561.49 830.028C413.418 830.028 292.954 709.564 292.954 561.492C292.954 413.419 413.418 292.955 561.49 292.955C709.562 292.955 830.027 413.419 830.027 561.492C830.027 709.564 709.562 830.028 561.49 830.028Z" fill="#F9F9F9" fill-opacity="0.1"/>
<path d="M561.49 230.611C379.044 230.611 230.61 379.045 230.61 561.491C230.61 743.938 379.044 892.372 561.49 892.372C743.937 892.372 892.371 743.938 892.371 561.491C892.371 379.045 743.937 230.611 561.49 230.611ZM561.49 881.266C385.165 881.266 241.715 737.817 241.715 561.491C241.715 385.166 385.165 241.716 561.49 241.716C737.816 241.716 881.265 385.166 881.265 561.491C881.265 737.817 737.816 881.266 561.49 881.266Z" fill="#F9F9F9" fill-opacity="0.1"/>
<path d="M561.492 0C251.892 0 0 251.879 0 561.492C0 871.104 251.879 1122.98 561.492 1122.98C871.104 1122.98 1122.98 871.104 1122.98 561.492C1122.98 251.879 871.104 0 561.492 0ZM561.492 1111.87C258.013 1111.87 11.1051 864.971 11.1051 561.479C11.1051 257.987 258.013 11.1051 561.492 11.1051C864.971 11.1051 1111.88 258 1111.88 561.492C1111.88 864.983 864.983 1111.88 561.492 1111.88V1111.87Z" fill="#F9F9F9" fill-opacity="0.1"/>
<path d="M561.491 25.6313C266.018 25.6313 25.6313 266.018 25.6313 561.491C25.6313 856.964 266.018 1097.35 561.491 1097.35C856.964 1097.35 1097.35 856.964 1097.35 561.491C1097.35 266.018 856.964 25.6313 561.491 25.6313ZM1086.25 561.491C1086.25 850.843 850.843 1086.25 561.491 1086.25C272.139 1086.25 36.7364 850.843 36.7364 561.491C36.7364 272.139 272.139 36.7364 561.491 36.7364C850.843 36.7364 1086.25 272.139 1086.25 561.491Z" fill="#F9F9F9" fill-opacity="0.1"/>
<path d="M561.491 51.2505C280.144 51.2505 51.2505 280.144 51.2505 561.491C51.2505 842.837 280.144 1071.73 561.491 1071.73C842.837 1071.73 1071.73 842.837 1071.73 561.491C1071.73 280.144 842.837 51.2505 561.491 51.2505ZM1060.63 561.491C1060.63 836.716 836.716 1060.63 561.491 1060.63C286.265 1060.63 62.3556 836.716 62.3556 561.491C62.3556 286.265 286.265 62.3556 561.491 62.3556C836.716 62.3556 1060.63 286.265 1060.63 561.491Z" fill="#F9F9F9" fill-opacity="0.1"/>
<path d="M561.491 76.8696C294.271 76.8696 76.8696 294.271 76.8696 561.491C76.8696 828.71 294.271 1046.11 561.491 1046.11C828.71 1046.11 1046.11 828.71 1046.11 561.491C1046.11 294.271 828.71 76.8696 561.491 76.8696ZM1035.01 561.491C1035.01 822.589 822.589 1035.01 561.491 1035.01C300.392 1035.01 87.9747 822.589 87.9747 561.491C87.9747 300.392 300.392 87.9747 561.491 87.9747C822.589 87.9747 1035.01 300.392 1035.01 561.491Z" fill="#F9F9F9" fill-opacity="0.1"/>
<path d="M561.491 102.502C308.398 102.502 102.502 308.411 102.502 561.504C102.502 814.597 308.411 1020.51 561.491 1020.51C814.571 1020.51 1020.48 814.597 1020.48 561.504C1020.48 308.411 814.571 102.502 561.491 102.502ZM561.491 1009.39C314.519 1009.39 113.607 808.463 113.607 561.491C113.607 314.519 314.532 113.594 561.491 113.594C808.45 113.594 1009.37 314.519 1009.37 561.491C1009.37 808.463 808.45 1009.39 561.491 1009.39Z" fill="#F9F9F9" fill-opacity="0.1"/>
<path d="M561.49 128.121C322.524 128.121 128.121 322.538 128.121 561.491C128.121 800.444 322.524 994.861 561.49 994.861C800.456 994.861 994.86 800.444 994.86 561.491C994.86 322.538 800.444 128.121 561.49 128.121ZM561.49 983.756C328.645 983.756 139.226 794.323 139.226 561.491C139.226 328.658 328.658 139.226 561.49 139.226C794.323 139.226 983.755 328.658 983.755 561.491C983.755 794.323 794.323 983.756 561.49 983.756Z" fill="#F9F9F9" fill-opacity="0.1"/>
<path d="M561.491 153.74C336.651 153.74 153.74 336.652 153.74 561.491C153.74 786.33 336.651 969.242 561.491 969.242C786.33 969.242 969.241 786.33 969.241 561.491C969.241 336.652 786.33 153.74 561.491 153.74ZM561.491 958.137C342.785 958.137 164.845 780.197 164.845 561.491C164.845 342.785 342.785 164.846 561.491 164.846C780.197 164.846 958.136 342.785 958.136 561.491C958.136 780.197 780.209 958.137 561.491 958.137Z" fill="#F9F9F9" fill-opacity="0.1"/>
<path d="M561.49 179.359C350.778 179.359 179.359 350.778 179.359 561.49C179.359 772.203 350.778 943.622 561.49 943.622C772.203 943.622 943.622 772.203 943.622 561.49C943.622 350.778 772.203 179.359 561.49 179.359ZM932.517 561.49C932.517 766.069 766.082 932.517 561.49 932.517C356.898 932.517 190.464 766.082 190.464 561.49C190.464 356.898 356.898 190.464 561.49 190.464C766.082 190.464 932.517 356.898 932.517 561.49Z" fill="#F9F9F9" fill-opacity="0.1"/>
<path d="M561.49 204.991C364.917 204.991 204.991 364.917 204.991 561.49C204.991 758.063 364.917 917.99 561.49 917.99C758.064 917.99 917.99 758.063 917.99 561.49C917.99 364.917 758.064 204.991 561.49 204.991ZM561.49 906.897C371.038 906.897 216.096 751.956 216.096 561.503C216.096 371.051 371.038 216.109 561.49 216.109C751.943 216.109 906.885 371.051 906.885 561.503C906.885 751.956 751.943 906.897 561.49 906.897Z" fill="#F9F9F9" fill-opacity="0.1"/>
<path d="M561.491 256.23C393.172 256.23 256.23 393.172 256.23 561.491C256.23 729.811 393.172 866.752 561.491 866.752C729.811 866.752 866.752 729.811 866.752 561.491C866.752 393.172 729.811 256.23 561.491 256.23ZM561.491 855.647C399.292 855.647 267.336 723.69 267.336 561.491C267.336 399.292 399.292 267.336 561.491 267.336C723.69 267.336 855.647 399.292 855.647 561.491C855.647 723.69 723.69 855.647 561.491 855.647Z" fill="#F9F9F9" fill-opacity="0.1"/>
<path d="M561.491 512.461C534.452 512.461 512.461 534.452 512.461 561.491C512.461 588.531 534.452 610.521 561.491 610.521C588.531 610.521 610.521 588.531 610.521 561.491C610.521 534.452 588.531 512.461 561.491 512.461ZM561.491 599.416C540.572 599.416 523.566 582.397 523.566 561.491C523.566 540.585 540.585 523.566 561.491 523.566C582.397 523.566 599.416 540.585 599.416 561.491C599.416 582.397 582.397 599.416 561.491 599.416Z" fill="#F9F9F9" fill-opacity="0.1"/>
<path d="M551.496 561.491V560.458H539.126V561.491C539.126 574.106 549.392 584.372 562.008 584.372H563.041V572.002H562.008C556.21 572.002 551.496 567.288 551.496 561.491Z" fill="#F9F9F9" fill-opacity="0.1"/>
<path d="M562.021 538.609H560.988V550.979H562.021C567.819 550.979 572.532 555.693 572.532 561.491V562.524H584.903V561.491C584.903 548.875 574.637 538.609 562.021 538.609Z" fill="#F9F9F9" fill-opacity="0.1"/>
</svg>
