<svg width="60" height="19" viewBox="0 0 60 19" fill="none" xmlns="http://www.w3.org/2000/svg">
<path d="M0.412188 0.719999H2.92019V15.636H10.7442V18H0.412188V0.719999ZM18.5248 18.36C16.8288 18.36 15.3648 17.984 14.1328 17.232C12.9008 16.48 11.9608 15.428 11.3128 14.076C10.6728 12.716 10.3528 11.144 10.3528 9.36C10.3528 7.576 10.6728 6.008 11.3128 4.656C11.9608 3.296 12.9008 2.24 14.1328 1.488C15.3648 0.736 16.8288 0.36 18.5248 0.36C20.2208 0.36 21.6808 0.736 22.9048 1.488C24.1368 2.24 25.0728 3.296 25.7128 4.656C26.3608 6.008 26.6848 7.576 26.6848 9.36C26.6848 11.144 26.3608 12.716 25.7128 14.076C25.0728 15.428 24.1368 16.48 22.9048 17.232C21.6808 17.984 20.2208 18.36 18.5248 18.36ZM18.5248 15.972C19.7248 15.98 20.7328 15.712 21.5488 15.168C22.3728 14.624 22.9888 13.856 23.3968 12.864C23.8128 11.864 24.0208 10.696 24.0208 9.36C24.0208 8.024 23.8128 6.864 23.3968 5.88C22.9888 4.888 22.3728 4.12 21.5488 3.576C20.7328 3.032 19.7248 2.756 18.5248 2.748C17.3248 2.74 16.3128 3.008 15.4888 3.552C14.6728 4.096 14.0568 4.868 13.6408 5.868C13.2328 6.86 13.0248 8.024 13.0168 9.36C13.0088 10.696 13.2128 11.86 13.6288 12.852C14.0448 13.836 14.6648 14.6 15.4888 15.144C16.3128 15.688 17.3248 15.964 18.5248 15.972ZM35.1464 18.36C33.5944 18.36 32.2104 18 30.9944 17.28C29.7864 16.56 28.8384 15.524 28.1504 14.172C27.4624 12.812 27.1184 11.208 27.1184 9.36C27.1184 7.528 27.4544 5.936 28.1264 4.584C28.8064 3.224 29.7504 2.184 30.9584 1.464C32.1744 0.735999 33.5704 0.371999 35.1464 0.371999C37.1304 0.371999 38.7344 0.835999 39.9584 1.764C41.1904 2.684 42.0344 3.996 42.4904 5.7L39.9464 6.156C39.5864 5.1 39.0104 4.272 38.2184 3.672C37.4264 3.064 36.4504 2.756 35.2904 2.748C34.0904 2.74 33.0784 3.008 32.2544 3.552C31.4384 4.096 30.8224 4.868 30.4064 5.868C29.9984 6.86 29.7904 8.024 29.7824 9.36C29.7744 10.704 29.9784 11.872 30.3944 12.864C30.8184 13.856 31.4464 14.624 32.2784 15.168C33.1184 15.704 34.1504 15.972 35.3744 15.972C36.8224 15.972 37.9624 15.552 38.7944 14.712C39.6344 13.864 40.1424 12.64 40.3184 11.04H36.9584V9.024H42.9824C43.0144 9.288 43.0304 9.628 43.0304 10.044C43.0304 11.66 42.7184 13.096 42.0944 14.352C41.4784 15.608 40.5744 16.592 39.3824 17.304C38.1984 18.008 36.7864 18.36 35.1464 18.36ZM51.6342 18.36C49.9382 18.36 48.4742 17.984 47.2422 17.232C46.0102 16.48 45.0702 15.428 44.4222 14.076C43.7822 12.716 43.4622 11.144 43.4622 9.36C43.4622 7.576 43.7822 6.008 44.4222 4.656C45.0702 3.296 46.0102 2.24 47.2422 1.488C48.4742 0.736 49.9382 0.36 51.6342 0.36C53.3302 0.36 54.7902 0.736 56.0142 1.488C57.2462 2.24 58.1822 3.296 58.8222 4.656C59.4702 6.008 59.7942 7.576 59.7942 9.36C59.7942 11.144 59.4702 12.716 58.8222 14.076C58.1822 15.428 57.2462 16.48 56.0142 17.232C54.7902 17.984 53.3302 18.36 51.6342 18.36ZM51.6342 15.972C52.8342 15.98 53.8422 15.712 54.6582 15.168C55.4822 14.624 56.0982 13.856 56.5062 12.864C56.9222 11.864 57.1302 10.696 57.1302 9.36C57.1302 8.024 56.9222 6.864 56.5062 5.88C56.0982 4.888 55.4822 4.12 54.6582 3.576C53.8422 3.032 52.8342 2.756 51.6342 2.748C50.4342 2.74 49.4222 3.008 48.5982 3.552C47.7822 4.096 47.1662 4.868 46.7502 5.868C46.3422 6.86 46.1342 8.024 46.1262 9.36C46.1182 10.696 46.3222 11.86 46.7382 12.852C47.1542 13.836 47.7742 14.6 48.5982 15.144C49.4222 15.688 50.4342 15.964 51.6342 15.972Z" fill="#E1E4E6"/>
</svg>
