<svg width="121" height="14" viewBox="0 0 121 14" fill="none" xmlns="http://www.w3.org/2000/svg">
<path d="M55.2455 3.2334L52.6278 10.433L50.01 3.2334H47.3049L51.217 13.9933H54.0385L57.9528 3.2334H55.2455Z" fill="white"/>
<path d="M1.60953 4.77116C1.08583 5.25789 0.671453 5.85169 0.394164 6.51276C0.116874 7.17384 -0.0169237 7.88694 0.00171052 8.60431C-0.0154106 9.32648 0.118933 10.0442 0.395981 10.7105C0.67303 11.3768 1.08655 11.9768 1.60953 12.4713C2.68216 13.4769 4.2116 13.9865 6.15308 13.9865H7.48099V11.4657H6.15308C3.90034 11.4657 2.6105 10.4262 2.6105 8.61334C2.6105 6.80048 3.90034 5.76102 6.15308 5.76102H7.48099V3.2334H6.15308C4.20041 3.2334 2.67096 3.75199 1.60953 4.77116Z" fill="white"/>
<path d="M31.2984 3.229C29.8813 3.23079 28.5227 3.79842 27.5207 4.80739C26.5186 5.81636 25.9549 7.1843 25.9531 8.6112C25.9543 10.0385 26.5178 11.407 27.5199 12.4165C28.522 13.4259 29.8809 13.9939 31.2984 13.9957H36.6302V8.30905C36.5535 6.93695 35.9586 5.64633 34.9672 4.70178C33.9758 3.75722 32.6632 3.23029 31.2984 3.229ZM34.2095 8.6112V11.5424H31.2984C30.5263 11.5424 29.7858 11.2336 29.2399 10.6839C28.694 10.1342 28.3873 9.38861 28.3873 8.6112C28.3873 7.83379 28.694 7.08822 29.2399 6.53851C29.7858 5.98879 30.5263 5.67997 31.2984 5.67997C32.0704 5.67997 32.8109 5.98879 33.3568 6.53851C33.9028 7.08822 34.2095 7.83379 34.2095 8.6112Z" fill="white"/>
<path d="M118.681 10.1714C118.177 10.1714 117.694 10.3728 117.338 10.7314C116.982 11.09 116.782 11.5764 116.782 12.0835C116.782 12.5906 116.982 13.0769 117.338 13.4355C117.694 13.7941 118.177 13.9955 118.681 13.9955H120.575V11.9662C120.546 11.4803 120.334 11.0239 119.981 10.6903C119.629 10.3567 119.164 10.1711 118.681 10.1714Z" fill="white"/>
<path d="M11.7311 3.86423L11.5944 4.04235L11.1824 3.21484H8.94312V13.995H11.487V6.76389C11.4656 6.48748 11.5515 6.21347 11.7266 5.99951C11.89 5.82815 12.1744 5.74472 12.5708 5.74472H14.0465V3.21484H13.2179C12.5417 3.22837 12.058 3.44032 11.7311 3.86423Z" fill="white"/>
<path d="M42.6673 5.73395V3.20857H40.6205V0H38.0565V10.9493C38.0577 11.755 38.3761 12.5275 38.942 13.0972C39.5078 13.667 40.2749 13.9876 41.0751 13.9888H42.6673V11.4341H41.5297C41.2883 11.4335 41.0571 11.3365 40.8867 11.1645C40.7162 10.9925 40.6205 10.7594 40.6205 10.5164V5.73395H42.6673Z" fill="white"/>
<path d="M46.6085 3.25146H44.0803V13.9933H46.6085V3.25146Z" fill="white"/>
<path d="M114.003 4.45534C113.162 3.66005 112.048 3.22227 110.895 3.23324C109.737 3.21913 108.62 3.6581 107.777 4.45759L107.737 4.49818L107.695 4.45534C106.854 3.65884 105.74 3.22087 104.586 3.23324C103.941 3.23019 103.303 3.36626 102.714 3.63233V3.25127H100.186V13.9954H102.714V8.05174C102.741 6.52299 103.4 5.67969 104.586 5.67969C105.773 5.67969 106.481 6.57034 106.488 8.12164V13.9954H109.011V8.11712C109.011 6.53877 109.683 5.67743 110.888 5.67743C112.093 5.67743 112.789 6.57936 112.789 8.13742V13.9999H115.313V8.13742C115.319 6.5027 114.876 5.26255 114.003 4.45534Z" fill="white"/>
<path d="M76.0755 5.73395V3.20857H74.0288V0H71.467V10.9493C71.4676 11.7548 71.7855 12.5272 72.351 13.0971C72.9165 13.6669 73.6834 13.9876 74.4834 13.9888H76.0755V11.4341H74.9402C74.6987 11.4335 74.4672 11.3366 74.2964 11.1646C74.1256 10.9927 74.0294 10.7596 74.0288 10.5164V5.73395H76.0755Z" fill="white"/>
<path d="M64.8969 10.9223C64.4505 11.2768 63.9097 11.4902 63.3428 11.5356H63.1032C62.5895 11.5338 62.0852 11.396 61.6411 11.136C61.1969 10.876 60.8285 10.5029 60.5728 10.0542H68.2492L68.2738 9.95722C68.3795 9.54002 68.4352 9.11155 68.4395 8.68101V8.61336V8.04515L68.4216 8.06094C68.351 7.37885 68.1511 6.71674 67.8326 6.11053L67.8215 6.08799C67.8058 6.05642 67.7879 6.02486 67.7699 5.99555L67.7386 5.94142C67.7224 5.9089 67.7044 5.8773 67.6849 5.84672L67.6535 5.79487C67.1795 5.0105 66.5124 4.3626 65.7168 3.91386C64.9212 3.46513 64.0241 3.23077 63.1122 3.23342C62.9957 3.23342 62.8748 3.23341 62.7315 3.24919C61.399 3.35326 60.1528 3.95352 59.2362 4.93282C58.3195 5.91212 57.7981 7.20021 57.7737 8.54572V8.60885V9.18156L57.7938 9.16579C57.8634 9.84952 58.0633 10.5133 58.3828 11.1207V11.1387L58.4365 11.2334L58.4679 11.2898C58.4835 11.3214 58.5015 11.3507 58.5194 11.38L58.5507 11.4341C59.0255 12.2184 59.693 12.8661 60.4889 13.3148C61.2848 13.7635 62.1821 13.998 63.0943 13.9956C63.2085 13.9956 63.3294 13.9956 63.475 13.9798C64.6448 13.889 65.7526 13.4137 66.6279 12.6269L64.9081 10.8952L64.8969 10.9223ZM62.8614 5.69114H63.1032C63.6968 5.6886 64.2767 5.8701 64.7643 6.21097C65.2519 6.55184 65.6234 7.03557 65.8285 7.59645H60.3735C60.5654 7.07353 60.9013 6.61653 61.342 6.27906C61.7826 5.94159 62.3097 5.73765 62.8614 5.69114Z" fill="white"/>
<path d="M21.4991 10.9223C21.0527 11.2768 20.5119 11.4902 19.945 11.5356H19.7054C19.1917 11.5338 18.6874 11.396 18.2433 11.136C17.7991 10.876 17.4307 10.5029 17.175 10.0542H24.8514L24.876 9.95722C24.9817 9.54002 25.0374 9.11155 25.0417 8.68101V8.61336V8.04515L25.0238 8.06094C24.9532 7.37885 24.7533 6.71674 24.4349 6.11053V6.08799C24.4192 6.05642 24.4013 6.02486 24.3834 5.99555L24.3542 5.94142C24.3363 5.90985 24.3184 5.87829 24.2983 5.84672L24.2669 5.79487C23.7928 5.0105 23.1258 4.3626 22.3302 3.91386C21.5346 3.46513 20.6375 3.23077 19.7256 3.23342C19.6091 3.23342 19.4882 3.23341 19.3449 3.24919C18.0124 3.35326 16.7663 3.95352 15.8496 4.93282C14.9329 5.91212 14.4115 7.20021 14.3871 8.54572V8.60885V9.18156L14.4072 9.16579C14.4768 9.84952 14.6767 10.5133 14.9962 11.1207V11.1387L15.0499 11.2334L15.0813 11.2898C15.0969 11.3214 15.1149 11.3507 15.1328 11.38L15.1641 11.4341C15.6389 12.2184 16.3064 12.8661 17.1023 13.3148C17.8982 13.7635 18.7955 13.998 19.7077 13.9956C19.8219 13.9956 19.9316 13.9956 20.0884 13.9798C21.2582 13.889 22.366 13.4137 23.2413 12.6269L21.5215 10.8952L21.4991 10.9223ZM19.4636 5.69114H19.7054C20.299 5.6886 20.8789 5.8701 21.3665 6.21097C21.8541 6.55184 22.2256 7.03557 22.4307 7.59645H16.9757C17.169 7.07443 17.5053 6.61831 17.9457 6.28106C18.386 5.9438 18.9124 5.73924 19.4636 5.69114Z" fill="white"/>
<path d="M93.41 3.22852C91.9941 3.23209 90.6373 3.8005 89.6367 4.80928C88.6361 5.81806 88.0733 7.18498 88.0715 8.61071C88.0727 10.038 88.6362 11.4065 89.6383 12.416C90.6404 13.4254 91.9993 13.9934 93.4168 13.9952H98.7486V8.30856C98.6719 6.93529 98.076 5.64369 97.0832 4.69896C96.0904 3.75423 94.776 3.22808 93.41 3.22852ZM96.3211 8.61071V11.5419H93.41C92.638 11.5419 91.8975 11.2331 91.3516 10.6834C90.8056 10.1337 90.4989 9.38812 90.4989 8.61071C90.4989 7.8333 90.8056 7.08773 91.3516 6.53802C91.8975 5.9883 92.638 5.67948 93.41 5.67948C93.7925 5.67918 94.1713 5.75478 94.5248 5.90196C94.8782 6.04913 95.1994 6.265 95.47 6.53722C95.7405 6.80944 95.9551 7.13268 96.1016 7.48846C96.248 7.84424 96.3234 8.22559 96.3234 8.61071H96.3211Z" fill="white"/>
<path d="M83.6107 10.9223C83.1651 11.2768 82.625 11.4902 82.0589 11.5356H81.817C81.3035 11.5341 80.7994 11.3964 80.3556 11.1363C79.9118 10.8762 79.5438 10.503 79.2888 10.0542H86.9629L86.9876 9.95721C87.0933 9.54001 87.1489 9.11155 87.1533 8.681V8.61336V8.04514L87.1331 8.06093C87.0636 7.37863 86.8636 6.71632 86.5442 6.11052V6.08798C86.5285 6.05642 86.5106 6.02485 86.4927 5.99554L86.4636 5.94142L86.4098 5.84672L86.3785 5.79486C85.9037 5.01061 85.2362 4.36286 84.4403 3.91418C83.6444 3.46549 82.7471 3.23103 81.8349 3.23342C81.7207 3.23342 81.5998 3.2334 81.4542 3.24919C80.1211 3.3508 78.8737 3.95038 77.9569 4.93027C77.0401 5.91015 76.52 7.19963 76.4987 8.54572V8.60884V9.18156L76.5188 9.16578C76.5883 9.84951 76.7883 10.5133 77.1077 11.1207L77.1189 11.1387C77.1343 11.1713 77.1515 11.2029 77.1704 11.2334L77.2018 11.2898L77.2533 11.38L77.2869 11.4341C77.7609 12.2185 78.428 12.8664 79.2236 13.3151C80.0192 13.7638 80.9163 13.9982 81.8282 13.9956C81.9447 13.9956 82.0656 13.9956 82.2089 13.9798C83.3789 13.8895 84.4868 13.4141 85.3618 12.6269L83.642 10.8952L83.6107 10.9223ZM81.5752 5.69114H81.817C82.4106 5.68827 82.9907 5.86965 83.4784 6.21056C83.966 6.55148 84.3375 7.03538 84.5422 7.59644H79.0873C79.2807 7.0741 79.6174 6.61776 80.0582 6.28047C80.499 5.94319 81.0258 5.73883 81.5774 5.69114H81.5752Z" fill="white"/>
</svg>
