<svg width="579" height="265" viewBox="0 0 579 265" fill="none" xmlns="http://www.w3.org/2000/svg">
<g opacity="0.5" filter="url(#filter0_f_80_236)">
<path fill-rule="evenodd" clip-rule="evenodd" d="M460.342 168.33C459.765 166.888 459.477 165.446 459.477 164.004V123.632C459.477 123.632 459.477 123.344 459.188 123.344C459.188 123.344 458.9 123.055 457.746 123.344L450.249 124.785C449.96 124.785 449.383 125.074 449.383 126.227V164.581C446.211 166.888 442.751 168.907 438.137 168.907C433.811 168.907 431.216 168.042 431.216 161.409V123.92C430.928 123.632 430.351 123.632 429.774 123.632L422.565 125.074C422.276 125.074 421.7 125.362 421.7 126.516V161.697C421.7 168.907 423.141 177.558 436.695 177.558C441.886 177.558 447.653 174.674 449.96 171.214L450.249 172.079C450.325 172.231 450.401 172.403 450.493 172.611C450.749 173.192 451.13 174.053 451.979 175.539C453.421 177.846 453.997 178.135 454.574 177.846L461.784 174.097C461.88 174.001 462.008 173.937 462.136 173.873C462.392 173.745 462.649 173.617 462.649 173.232C462.649 173.107 462.594 173.036 462.509 172.925C462.398 172.781 462.235 172.568 462.072 172.079C461.909 171.426 461.561 170.773 461.185 170.068L461.185 170.067C460.896 169.527 460.592 168.956 460.342 168.33ZM493.216 123.055C487.16 123.055 481.97 126.516 479.086 128.823L478.221 129.399C477.644 127.381 476.779 125.074 475.337 123.632C474.472 122.767 473.895 123.055 473.607 123.344L468.128 126.227C467.839 126.227 467.551 126.516 467.551 127.092C467.551 127.381 467.839 127.958 468.416 128.534C471.012 132.86 471.012 136.032 471.012 138.339V196.302C471.012 197.744 473.318 197.456 473.895 197.167L479.086 195.725C479.951 195.437 479.951 194.572 479.951 194.284V172.944C481.393 173.809 485.719 176.404 491.774 176.404C498.695 176.404 511.384 173.521 511.384 149.297C511.095 125.939 498.695 123.055 493.216 123.055ZM490.909 168.618C487.16 168.618 482.835 166.888 479.951 165.446V136.609C482.835 134.59 487.16 131.706 491.198 131.706C500.714 131.706 501.291 140.934 501.291 149.874C501.579 159.39 501.002 168.618 490.909 168.618ZM459.477 94.2179V85.2783L440.732 67.6875L421.7 85.2783V94.2179L440.732 76.6271L459.477 94.2179ZM107.661 99.4092C107.661 98.8324 107.661 97.9673 106.796 97.9673H105.642L99.8746 99.4092C99.5863 99.4092 99.0095 99.6976 99.0095 100.851V128.535C92.3769 122.479 88.0513 122.479 86.6094 122.479C80.2652 122.479 67 125.363 67 149.875C67 172.944 79.4001 175.828 85.1676 175.828C94.6839 175.828 99.8746 170.926 99.8746 170.926C99.9522 171.275 100.025 171.635 100.097 171.993L100.097 171.993C100.56 174.297 101.011 176.538 102.758 175.54L107.084 172.944C107.199 172.829 107.407 172.714 107.615 172.598C107.926 172.425 108.237 172.252 108.237 172.079C108.237 171.925 108.196 171.131 108.136 169.969L108.136 169.968C107.97 166.783 107.661 160.829 107.661 157.661V99.4092ZM99.2979 165.158C99.2979 165.158 94.1071 169.772 86.0327 169.772C76.228 169.772 76.228 157.084 76.228 149.009C76.228 139.493 77.0931 129.112 88.0513 129.112C91.5118 129.112 95.8374 130.842 99.0095 132.572V165.158H99.2979ZM135.345 122.479C122.656 122.479 113.428 132.284 113.428 149.298C113.428 170.061 126.693 176.117 137.652 176.117C142.554 176.117 146.88 174.675 150.052 173.233C153.512 171.791 154.089 170.926 154.089 170.637V170.061L152.07 165.447C152.07 165.158 151.782 164.87 151.493 164.87H151.205C150.917 164.87 150.34 165.158 149.763 165.447C146.014 167.465 142.266 169.196 137.652 169.196C130.442 169.196 122.368 164.005 122.368 151.605V151.028H154.089C154.954 151.028 155.242 150.74 155.242 149.298V148.433C155.242 127.093 144.573 122.479 135.345 122.479ZM122.368 144.395C122.656 133.149 128.712 128.823 134.479 128.823C138.228 128.823 141.977 130.265 144.284 135.168C146.014 139.205 146.014 143.53 146.014 144.107C146.014 144.395 122.368 144.395 122.368 144.395ZM210.033 122.479C205.419 122.479 201.094 124.209 194.461 128.823C192.443 124.498 188.982 122.479 184.368 122.479C177.736 122.479 173.41 125.363 168.796 128.823C168.508 127.381 167.642 124.498 167.066 123.344C166.529 122.002 165.742 122.409 165.171 122.704L165.171 122.704C165.128 122.726 165.087 122.747 165.047 122.767L160.145 125.363C159.856 125.363 159.568 125.651 159.568 125.94C159.568 125.94 159.568 126.228 159.856 126.805C160.721 128.247 161.587 129.977 161.587 137.186V173.521C161.587 174.675 162.163 174.963 163.028 174.963H168.796C169.949 174.963 170.238 174.386 170.238 173.521V134.014C173.698 131.419 176.87 129.688 180.908 129.688C187.829 129.688 188.117 135.456 188.117 138.34V173.521C188.117 174.675 188.694 174.963 189.559 174.963H195.326C195.903 174.963 196.768 174.963 196.768 173.521V134.014L197.633 133.437C197.716 133.396 197.88 133.29 198.116 133.139L198.116 133.139C199.528 132.231 203.483 129.688 207.438 129.688C214.359 129.688 214.647 135.456 214.647 138.34V173.521C214.647 174.675 215.224 174.963 216.089 174.963H221.857C222.433 174.963 223.299 174.963 223.299 173.521V138.628C223.217 138.141 223.139 137.643 223.06 137.137C222.01 130.454 220.757 122.479 210.033 122.479ZM238.006 123.921H232.238C231.661 123.921 230.796 123.921 230.796 125.363V173.521C230.796 174.675 231.373 174.963 232.238 174.963H238.006C238.582 174.963 239.447 174.963 239.447 173.521V125.363C239.447 124.786 239.447 123.921 238.006 123.921ZM235.987 102.005C232.815 102.005 230.22 104.6 230.22 107.772C230.22 110.944 232.815 113.539 235.987 113.539C239.159 113.539 241.754 110.944 241.754 107.772C241.754 104.6 239.159 102.005 235.987 102.005ZM268.862 146.126C268.62 146.025 268.381 145.926 268.145 145.828C261.624 143.117 257.327 141.331 257.327 136.321C257.327 132.572 260.21 129.112 266.555 129.112C269.438 129.112 272.322 129.688 276.359 131.419C276.716 131.597 276.962 131.665 277.302 131.759C277.513 131.817 277.759 131.885 278.09 131.995C278.378 131.995 278.955 131.995 279.243 131.13L281.262 127.093C281.55 126.805 281.838 125.94 280.108 125.074C278.666 124.209 275.783 123.344 274.052 123.056C271.169 122.479 267.996 121.902 265.689 121.902C255.308 121.902 248.387 127.958 248.387 136.321C248.387 145.208 255.511 148.11 263.245 151.26L263.382 151.316L263.679 151.44C270.427 154.251 274.629 156.001 274.629 160.833C274.629 165.447 271.169 168.33 264.824 168.33C261.076 168.33 256.173 167.177 253.289 165.735C252.193 165.187 251.443 164.87 250.895 164.638L250.895 164.638C250.578 164.504 250.328 164.399 250.117 164.293H249.829C249.252 164.293 249.252 164.582 249.252 164.87L246.945 169.196V170.061C246.945 170.681 247.834 171.153 248.444 171.476C248.685 171.604 248.882 171.709 248.964 171.791C251.848 173.233 258.769 175.251 264.824 175.251C274.341 175.251 283.857 170.349 283.857 160.544C283.857 152.182 276.071 149.009 268.862 146.126ZM372.676 131.419L375.271 125.651C375.56 125.363 375.848 124.498 374.406 124.209C374.134 124.141 373.846 124.057 373.541 123.968C372.556 123.681 371.403 123.344 370.081 123.344C364.681 123.344 361.303 127.136 358.764 129.986C358.625 130.143 358.488 130.297 358.353 130.447C358.321 130.483 358.289 130.518 358.257 130.554L356.816 132.284C356.527 130.265 355.662 127.381 354.22 125.074C353.932 124.498 353.355 123.633 352.49 123.344H352.202C352.082 123.344 352.012 123.394 351.93 123.452C351.814 123.534 351.674 123.633 351.336 123.633L347.011 126.516C346.723 126.805 346.722 126.805 346.722 127.381C346.722 127.719 346.821 127.958 346.903 128.156C346.961 128.296 347.011 128.415 347.011 128.535L347.876 129.977C349.029 132.284 349.606 134.591 349.606 138.051V174.386C349.606 174.963 349.606 175.828 351.048 175.828H356.816C357.969 175.828 358.257 175.251 358.257 174.386V139.781L359.988 137.763C362.006 135.168 365.467 131.419 368.639 131.419C369.216 131.419 370.081 131.419 370.658 131.707C371.147 131.87 371.359 132.033 371.504 132.144C371.615 132.229 371.686 132.284 371.811 132.284C372.388 131.995 372.676 131.707 372.676 131.419ZM393.727 123.056C384.211 123.056 372.099 128.823 372.099 149.875C372.099 170.926 384.499 176.693 393.727 176.693C402.955 176.693 415.355 170.926 415.355 149.875C415.644 128.823 403.244 123.056 393.727 123.056ZM393.727 170.349C381.616 170.349 381.039 155.642 381.039 150.163C381.039 144.684 381.616 129.977 393.727 129.977C405.839 129.977 406.416 144.684 406.416 150.163C406.704 155.642 406.128 170.349 393.727 170.349ZM343.55 124.786C343.262 123.056 341.82 121.902 340.09 121.902C335.764 122.479 332.881 124.209 331.727 125.651C328.267 123.633 324.229 122.191 320.192 122.191C309.811 122.191 299.429 129.977 299.429 139.493C299.429 145.549 303.466 150.74 308.946 153.912C308.946 153.912 308.946 154.2 308.657 154.2C308.322 154.469 307.908 154.768 307.456 155.096L307.456 155.096C305.966 156.175 304.063 157.554 303.178 159.103C302.025 161.41 302.601 163.428 303.178 164.293C305.192 168.322 311.8 168.905 321.569 169.767L321.634 169.772L323.653 170.061C332.015 170.926 335.476 175.251 335.476 178.712C335.476 183.038 329.708 187.652 321.346 187.652C312.449 187.652 310.357 184.627 308.944 182.584C308.846 182.441 308.751 182.304 308.657 182.172C308.369 181.596 308.369 180.154 308.369 179.865C309.522 176.982 307.215 175.54 305.485 174.963C303.466 174.675 301.448 174.963 300.583 176.693C299.141 179.289 299.141 182.461 300.871 185.056C302.601 187.94 307.792 193.131 321.922 193.131H322.499C335.764 193.131 343.262 185.921 343.55 179C343.839 172.079 340.09 163.717 326.248 163.14C323.29 163.014 320.867 162.943 318.888 162.885L318.886 162.885C311.797 162.677 310.387 162.636 310.387 160.833C310.387 158.237 318.462 156.507 321.057 156.507C331.15 155.93 340.378 148.433 340.378 139.205C340.378 135.456 338.936 131.995 336.341 129.4C336.918 128.823 338.071 128.247 340.667 127.958C342.397 128.247 343.55 126.516 343.55 124.786ZM319.904 151.893C313.271 151.893 307.792 145.837 307.792 139.781C307.792 134.014 313.848 127.958 320.48 127.958C327.113 127.958 332.015 133.726 332.015 139.781C332.015 145.837 326.536 151.893 319.904 151.893ZM459.477 100.562V109.502L440.732 91.9109L421.7 109.502V100.562L440.732 83.2597L459.477 100.562Z" fill="url(#paint0_linear_80_236)"/>
</g>
<mask id="path-2-outside-1_80_236" maskUnits="userSpaceOnUse" x="102.922" y="77.4648" width="373" height="110" fill="black">
<rect fill="white" x="102.922" y="77.4648" width="373" height="110"/>
<path fill-rule="evenodd" clip-rule="evenodd" d="M431.901 162.383C431.42 161.181 431.18 159.979 431.18 158.776V125.113C431.18 125.113 431.18 124.872 430.939 124.872C430.939 124.872 430.699 124.632 429.737 124.872L423.485 126.075C423.245 126.075 422.764 126.315 422.764 127.277V159.257C420.119 161.181 417.234 162.864 413.386 162.864C409.779 162.864 407.615 162.143 407.615 156.612V125.353C407.375 125.113 406.894 125.113 406.413 125.113L400.402 126.315C400.161 126.315 399.68 126.556 399.68 127.517V156.853C399.68 162.864 400.883 170.078 412.184 170.078C416.512 170.078 421.321 167.673 423.245 164.788L423.485 165.509C423.549 165.636 423.612 165.78 423.689 165.953C423.903 166.438 424.22 167.156 424.928 168.395C426.13 170.318 426.611 170.559 427.092 170.318L433.103 167.192C433.184 167.112 433.29 167.059 433.397 167.005C433.611 166.899 433.825 166.792 433.825 166.471C433.825 166.367 433.78 166.308 433.708 166.215C433.616 166.095 433.48 165.917 433.344 165.509C433.208 164.965 432.918 164.42 432.604 163.832C432.364 163.381 432.11 162.905 431.901 162.383ZM459.313 124.632C454.263 124.632 449.935 127.517 447.531 129.441L446.809 129.922C446.328 128.239 445.607 126.315 444.405 125.113C443.683 124.392 443.203 124.632 442.962 124.872L438.393 127.277C438.153 127.277 437.913 127.517 437.913 127.998C437.913 128.239 438.153 128.72 438.634 129.201C440.798 132.807 440.798 135.452 440.798 137.376V185.707C440.798 186.91 442.722 186.669 443.203 186.429L447.531 185.226C448.252 184.986 448.252 184.265 448.252 184.024V166.231C449.454 166.952 453.061 169.116 458.111 169.116C463.882 169.116 474.462 166.711 474.462 146.513C474.221 127.037 463.882 124.632 459.313 124.632ZM457.389 162.624C454.263 162.624 450.657 161.181 448.252 159.979V135.933C450.657 134.25 454.263 131.846 457.63 131.846C465.565 131.846 466.046 139.54 466.046 146.994C466.286 154.929 465.805 162.624 457.389 162.624ZM431.18 100.587V93.1325L415.55 78.4648L399.68 93.1325V100.587L415.55 85.9189L431.18 100.587ZM137.826 104.915C137.826 104.434 137.826 103.712 137.105 103.712H136.143L131.334 104.915C131.093 104.915 130.612 105.155 130.612 106.117V129.201C125.082 124.151 121.475 124.151 120.273 124.151C114.983 124.151 103.922 126.556 103.922 146.994C103.922 166.23 114.261 168.635 119.07 168.635C127.005 168.635 131.334 164.547 131.334 164.547C131.398 164.839 131.459 165.138 131.519 165.437C131.905 167.358 132.282 169.227 133.738 168.395L137.345 166.23C137.441 166.134 137.614 166.038 137.787 165.942C138.047 165.798 138.307 165.653 138.307 165.509C138.307 165.38 138.272 164.719 138.222 163.749C138.084 161.093 137.826 156.128 137.826 153.486V104.915ZM130.853 159.738C130.853 159.738 126.525 163.585 119.792 163.585C111.616 163.585 111.616 153.005 111.616 146.273C111.616 138.338 112.338 129.681 121.475 129.681C124.36 129.681 127.967 131.124 130.612 132.567V159.738H130.853ZM160.91 124.151C150.33 124.151 142.635 132.326 142.635 146.513C142.635 163.826 153.696 168.875 162.833 168.875C166.921 168.875 170.528 167.673 173.173 166.471C176.058 165.269 176.539 164.547 176.539 164.307V163.826L174.856 159.979C174.856 159.738 174.615 159.498 174.375 159.498H174.134C173.894 159.498 173.413 159.738 172.932 159.979C169.806 161.662 166.68 163.105 162.833 163.105C156.822 163.105 150.089 158.776 150.089 148.437V147.956H176.539C177.26 147.956 177.501 147.715 177.501 146.513V145.792C177.501 127.998 168.604 124.151 160.91 124.151ZM150.089 142.425C150.33 133.048 155.379 129.441 160.188 129.441C163.314 129.441 166.44 130.643 168.364 134.731C169.806 138.097 169.806 141.704 169.806 142.185C169.806 142.425 150.089 142.425 150.089 142.425ZM223.187 124.151C219.34 124.151 215.733 125.594 210.203 129.441C208.519 125.834 205.634 124.151 201.787 124.151C196.256 124.151 192.649 126.556 188.802 129.441C188.562 128.239 187.84 125.834 187.359 124.872C186.912 123.753 186.256 124.092 185.78 124.339C185.744 124.357 185.71 124.375 185.676 124.391L181.589 126.556C181.348 126.556 181.108 126.796 181.108 127.036C181.108 127.036 181.108 127.277 181.348 127.758C182.069 128.96 182.791 130.403 182.791 136.414V166.711C182.791 167.673 183.272 167.914 183.993 167.914H188.802C189.764 167.914 190.004 167.433 190.004 166.711V133.769C192.89 131.605 195.535 130.162 198.901 130.162C204.672 130.162 204.913 134.971 204.913 137.376V166.711C204.913 167.673 205.394 167.914 206.115 167.914H210.924C211.405 167.914 212.126 167.914 212.126 166.711V133.769L212.848 133.288C212.916 133.254 213.054 133.166 213.25 133.039C214.428 132.282 217.725 130.162 221.023 130.162C226.794 130.162 227.034 134.971 227.034 137.376V166.711C227.034 167.673 227.515 167.914 228.237 167.914H233.046C233.527 167.914 234.248 167.914 234.248 166.711V137.616C234.18 137.211 234.115 136.796 234.049 136.375L234.049 136.373C233.173 130.801 232.128 124.151 223.187 124.151ZM246.511 125.353H241.702C241.221 125.353 240.5 125.353 240.5 126.556V166.711C240.5 167.673 240.981 167.914 241.702 167.914H246.511C246.992 167.914 247.713 167.914 247.713 166.711V126.556C247.713 126.075 247.713 125.353 246.511 125.353ZM244.828 107.079C242.183 107.079 240.019 109.243 240.019 111.888C240.019 114.533 242.183 116.697 244.828 116.697C247.473 116.697 249.637 114.533 249.637 111.888C249.637 109.243 247.473 107.079 244.828 107.079ZM272.24 143.868C272.038 143.784 271.839 143.702 271.643 143.62C266.205 141.359 262.622 139.87 262.622 135.693C262.622 132.567 265.026 129.681 270.316 129.681C272.721 129.681 275.125 130.162 278.492 131.605C278.789 131.754 278.994 131.81 279.278 131.889C279.453 131.937 279.659 131.994 279.934 132.086C280.175 132.086 280.656 132.086 280.896 131.365L282.579 127.998C282.82 127.758 283.06 127.036 281.617 126.315C280.415 125.594 278.011 124.872 276.568 124.632C274.163 124.151 271.518 123.67 269.595 123.67C260.938 123.67 255.168 128.72 255.168 135.693C255.168 143.103 261.108 145.523 267.556 148.15L267.671 148.196L267.918 148.299C273.545 150.643 277.049 152.102 277.049 156.131C277.049 159.979 274.163 162.383 268.873 162.383C265.747 162.383 261.66 161.421 259.255 160.219C258.341 159.762 257.716 159.498 257.259 159.304C256.994 159.193 256.786 159.105 256.61 159.017H256.37C255.889 159.017 255.889 159.257 255.889 159.498L253.965 163.105V163.826C253.965 164.343 254.706 164.736 255.215 165.006C255.416 165.113 255.58 165.201 255.648 165.269C258.053 166.471 263.824 168.154 268.873 168.154C276.808 168.154 284.743 164.066 284.743 155.891C284.743 148.918 278.251 146.273 272.24 143.868ZM358.803 131.605L360.967 126.796C361.208 126.556 361.448 125.834 360.246 125.594C360.019 125.537 359.778 125.467 359.525 125.393C358.703 125.153 357.741 124.872 356.639 124.872C352.136 124.872 349.32 128.034 347.203 130.411C347.059 130.572 346.918 130.73 346.781 130.884L345.578 132.326C345.338 130.643 344.616 128.239 343.414 126.315C343.174 125.834 342.693 125.113 341.971 124.872H341.731C341.631 124.872 341.573 124.914 341.505 124.962C341.408 125.03 341.291 125.113 341.01 125.113L337.403 127.517C337.162 127.758 337.162 127.758 337.162 128.239C337.162 128.52 337.245 128.72 337.313 128.885C337.362 129.001 337.403 129.101 337.403 129.201L338.124 130.403C339.086 132.326 339.567 134.25 339.567 137.135V167.433C339.567 167.914 339.567 168.635 340.769 168.635H345.578C346.54 168.635 346.781 168.154 346.781 167.433V138.578L348.223 136.895C349.906 134.731 352.792 131.605 355.437 131.605C355.918 131.605 356.639 131.605 357.12 131.845C357.528 131.982 357.705 132.118 357.826 132.21C357.918 132.281 357.977 132.326 358.082 132.326C358.563 132.086 358.803 131.846 358.803 131.605ZM376.356 124.632C368.421 124.632 358.322 129.441 358.322 146.994C358.322 164.547 368.662 169.356 376.356 169.356C384.051 169.356 394.39 164.547 394.39 146.994C394.631 129.441 384.291 124.632 376.356 124.632ZM376.356 164.066C366.257 164.066 365.776 151.803 365.776 147.235C365.776 142.666 366.257 130.403 376.356 130.403C386.455 130.403 386.936 142.666 386.936 147.235C387.177 151.803 386.696 164.066 376.356 164.066ZM334.517 126.075C334.277 124.632 333.075 123.67 331.632 123.67C328.025 124.151 325.621 125.594 324.659 126.796C321.773 125.113 318.407 123.911 315.041 123.911C306.384 123.911 297.728 130.403 297.728 138.338C297.728 143.387 301.094 147.715 305.663 150.36C305.663 150.36 305.663 150.601 305.422 150.601C305.143 150.825 304.798 151.075 304.421 151.348L304.421 151.348C303.179 152.247 301.592 153.397 300.854 154.689C299.892 156.612 300.373 158.295 300.854 159.017C302.533 162.376 308.043 162.862 316.189 163.581L316.243 163.585L317.926 163.826C324.899 164.547 327.785 168.154 327.785 171.04C327.785 174.646 322.976 178.494 316.002 178.494C308.584 178.494 306.84 175.972 305.662 174.268L305.662 174.267C305.58 174.149 305.501 174.034 305.422 173.925C305.182 173.444 305.182 172.242 305.182 172.001C306.144 169.597 304.22 168.395 302.777 167.914C301.094 167.673 299.411 167.914 298.69 169.356C297.487 171.52 297.487 174.165 298.93 176.33C300.373 178.734 304.701 183.062 316.483 183.062H316.964C328.025 183.062 334.277 177.051 334.517 171.28C334.758 165.509 331.632 158.536 320.09 158.055C317.623 157.95 315.603 157.891 313.952 157.843C308.041 157.669 306.865 157.635 306.865 156.131C306.865 153.967 313.598 152.525 315.762 152.525C324.178 152.044 331.872 145.792 331.872 138.097C331.872 134.971 330.67 132.086 328.506 129.922C328.987 129.441 329.949 128.96 332.113 128.72C333.556 128.96 334.517 127.517 334.517 126.075ZM314.8 148.677C309.27 148.677 304.701 143.628 304.701 138.578C304.701 133.769 309.751 128.72 315.281 128.72C320.811 128.72 324.899 133.529 324.899 138.578C324.899 143.628 320.331 148.677 314.8 148.677ZM431.18 105.877V113.331L415.55 98.663L399.68 113.331V105.877L415.55 91.4493L431.18 105.877Z"/>
</mask>
<path d="M431.901 162.383L431.329 162.612V162.612L431.901 162.383ZM431.18 125.113H431.796V125.113L431.18 125.113ZM430.939 124.872L430.504 125.308L430.684 125.488H430.939V124.872ZM429.737 124.872L429.853 125.477L429.87 125.474L429.886 125.47L429.737 124.872ZM423.485 126.075V126.691H423.544L423.602 126.68L423.485 126.075ZM422.764 159.257L423.126 159.755L423.38 159.571V159.257H422.764ZM407.615 125.353H408.231V125.098L408.051 124.918L407.615 125.353ZM406.413 125.113V124.497H406.352L406.292 124.509L406.413 125.113ZM400.402 126.315V126.931H400.463L400.523 126.919L400.402 126.315ZM423.245 164.788L423.829 164.593L423.431 163.398L422.733 164.446L423.245 164.788ZM423.485 165.509L422.901 165.704L422.915 165.745L422.934 165.785L423.485 165.509ZM423.689 165.953L424.252 165.704L423.689 165.953ZM424.928 168.395L424.393 168.7L424.399 168.711L424.406 168.721L424.928 168.395ZM427.092 170.318L427.368 170.869L427.376 170.865L427.092 170.318ZM433.103 167.192L433.388 167.739L433.472 167.695L433.539 167.628L433.103 167.192ZM433.397 167.005L433.673 167.556V167.556L433.397 167.005ZM433.708 166.215L433.22 166.59L433.22 166.59L433.708 166.215ZM433.344 165.509L432.746 165.659L432.752 165.682L432.76 165.704L433.344 165.509ZM432.604 163.832L433.148 163.542H433.148L432.604 163.832ZM447.531 129.441L447.872 129.953L447.895 129.939L447.915 129.922L447.531 129.441ZM446.809 129.922L446.217 130.091L446.449 130.902L447.151 130.434L446.809 129.922ZM444.405 125.113L444.84 124.677V124.677L444.405 125.113ZM442.962 124.872L443.249 125.417L443.332 125.374L443.398 125.308L442.962 124.872ZM438.393 127.277V127.893H438.546L438.68 127.822L438.393 127.277ZM438.634 129.201L439.162 128.884L439.123 128.819L439.069 128.765L438.634 129.201ZM443.203 186.429L443.038 185.835L442.98 185.851L442.927 185.878L443.203 186.429ZM447.531 185.226L447.696 185.82L447.711 185.816L447.725 185.811L447.531 185.226ZM448.252 166.231L448.569 165.703L447.636 165.143V166.231H448.252ZM474.462 146.513H475.077L475.077 146.506L474.462 146.513ZM448.252 159.979H447.636V160.359L447.977 160.53L448.252 159.979ZM448.252 135.933L447.899 135.429L447.636 135.613V135.933H448.252ZM466.046 146.994H465.43V147.004L465.43 147.013L466.046 146.994ZM431.18 93.1325H431.796V92.8659L431.601 92.6835L431.18 93.1325ZM431.18 100.587L430.758 101.036L431.796 102.009V100.587H431.18ZM415.55 78.4648L415.972 78.0158L415.554 77.6233L415.132 78.0126L415.55 78.4648ZM399.68 93.1325L399.262 92.6803L399.065 92.8631V93.1325H399.68ZM399.68 100.587H399.065V101.994L400.098 101.039L399.68 100.587ZM415.55 85.9189L415.972 85.4699L415.554 85.0774L415.132 85.4667L415.55 85.9189ZM136.143 103.712V103.097H136.067L135.993 103.115L136.143 103.712ZM131.334 104.915V105.53H131.409L131.483 105.512L131.334 104.915ZM130.612 129.201L130.197 129.655L131.228 130.597V129.201H130.612ZM131.334 164.547L131.935 164.414L131.7 163.355L130.911 164.1L131.334 164.547ZM131.519 165.437L132.123 165.316V165.316L131.519 165.437ZM133.738 168.395L134.044 168.929L134.055 168.923L133.738 168.395ZM137.345 166.23L137.662 166.759L137.727 166.72L137.78 166.666L137.345 166.23ZM137.787 165.942L138.087 166.48L138.087 166.48L137.787 165.942ZM138.222 163.749L137.607 163.781L138.222 163.749ZM130.853 159.738L131.262 160.198L132.473 159.122H130.853V159.738ZM130.612 132.567H131.228V132.201L130.907 132.026L130.612 132.567ZM130.612 159.738H129.996V160.354H130.612V159.738ZM173.173 166.471L172.936 165.902L172.927 165.906L172.918 165.91L173.173 166.471ZM176.539 163.826H177.155V163.697L177.103 163.579L176.539 163.826ZM174.856 159.979H174.24V160.107L174.292 160.225L174.856 159.979ZM172.932 159.979L172.657 159.428L172.648 159.432L172.64 159.436L172.932 159.979ZM150.089 147.956V147.34H149.473V147.956H150.089ZM150.089 142.425L149.473 142.41L149.457 143.041H150.089L150.089 142.425ZM168.364 134.731L168.93 134.488L168.925 134.478L168.921 134.469L168.364 134.731ZM210.203 129.441L209.645 129.701L209.954 130.364L210.554 129.946L210.203 129.441ZM188.802 129.441L188.198 129.562L188.39 130.52L189.172 129.934L188.802 129.441ZM187.359 124.872L186.788 125.101L186.797 125.125L186.809 125.148L187.359 124.872ZM185.78 124.339L185.497 123.791H185.497L185.78 124.339ZM185.676 124.391L185.401 123.841L185.394 123.844L185.388 123.847L185.676 124.391ZM181.589 126.556V127.171H181.742L181.877 127.1L181.589 126.556ZM181.108 127.036H180.492V127.036L181.108 127.036ZM181.348 127.758L180.797 128.033L180.808 128.054L180.82 128.075L181.348 127.758ZM190.004 133.769L189.635 133.276L189.389 133.461V133.769H190.004ZM212.126 133.769L211.785 133.257L211.51 133.44V133.769H212.126ZM212.848 133.288L212.572 132.737L212.538 132.755L212.506 132.776L212.848 133.288ZM213.25 133.039L212.917 132.521L213.25 133.039ZM234.248 137.616H234.864V137.565L234.855 137.515L234.248 137.616ZM234.049 136.375L234.657 136.279L234.657 136.279L234.049 136.375ZM234.049 136.373L233.44 136.469L233.441 136.469L234.049 136.373ZM271.643 143.62L271.406 144.188L271.406 144.188L271.643 143.62ZM272.24 143.868L272.003 144.437L272.011 144.44L272.24 143.868ZM278.492 131.605L278.767 131.054L278.751 131.046L278.734 131.039L278.492 131.605ZM279.278 131.889L279.442 131.295L279.278 131.889ZM279.934 132.086L279.74 132.67L279.834 132.702H279.934V132.086ZM280.896 131.365L280.345 131.089L280.326 131.128L280.312 131.17L280.896 131.365ZM282.579 127.998L282.144 127.563L282.073 127.633L282.028 127.723L282.579 127.998ZM281.617 126.315L281.301 126.843L281.321 126.855L281.342 126.866L281.617 126.315ZM276.568 124.632L276.447 125.236L276.457 125.238L276.467 125.239L276.568 124.632ZM267.556 148.15L267.324 148.72L267.556 148.15ZM267.671 148.196L267.908 147.628L267.903 147.626L267.671 148.196ZM267.918 148.299L267.682 148.868L267.682 148.868L267.918 148.299ZM257.259 159.304L257.019 159.872V159.872L257.259 159.304ZM256.61 159.017L256.886 158.466L256.756 158.401H256.61V159.017ZM255.889 159.498L256.432 159.788L256.505 159.652V159.498H255.889ZM253.965 163.105L253.422 162.815L253.349 162.951V163.105H253.965ZM255.215 165.006L254.926 165.55L254.926 165.55L255.215 165.006ZM255.648 165.269L255.213 165.704L255.284 165.775L255.373 165.819L255.648 165.269ZM360.967 126.796L360.532 126.36L360.452 126.44L360.406 126.543L360.967 126.796ZM358.803 131.605L358.242 131.352L358.187 131.473V131.605H358.803ZM360.246 125.594L360.097 126.191L360.111 126.195L360.125 126.198L360.246 125.594ZM359.525 125.393L359.352 125.984L359.525 125.393ZM347.203 130.411L346.743 130.001V130.001L347.203 130.411ZM346.781 130.884L346.323 130.472L346.315 130.48L346.307 130.489L346.781 130.884ZM345.578 132.326L344.969 132.414L345.165 133.785L346.051 132.721L345.578 132.326ZM343.414 126.315L342.863 126.59L342.876 126.617L342.892 126.641L343.414 126.315ZM341.971 124.872L342.166 124.288L342.071 124.257H341.971V124.872ZM341.505 124.962L341.149 124.459L341.149 124.459L341.505 124.962ZM341.01 125.113V124.497H340.823L340.668 124.6L341.01 125.113ZM337.403 127.517L337.061 127.005L337.01 127.039L336.967 127.082L337.403 127.517ZM337.313 128.885L336.744 129.12L336.744 129.12L337.313 128.885ZM337.403 129.201H336.787V129.371L336.875 129.517L337.403 129.201ZM338.124 130.403L338.675 130.127L338.664 130.106L338.652 130.086L338.124 130.403ZM346.781 138.578L346.313 138.177L346.165 138.35V138.578H346.781ZM348.223 136.895L348.691 137.296L348.7 137.285L348.709 137.273L348.223 136.895ZM357.12 131.845L356.845 132.396L356.884 132.416L356.925 132.43L357.12 131.845ZM357.826 132.21L358.201 131.722L358.201 131.722L357.826 132.21ZM358.082 132.326V132.942H358.227L358.357 132.877L358.082 132.326ZM394.39 146.994L393.775 146.986V146.994H394.39ZM386.936 147.235H386.321V147.251L386.321 147.267L386.936 147.235ZM331.632 123.67V123.054H331.591L331.551 123.06L331.632 123.67ZM334.517 126.075H335.133V126.024L335.125 125.973L334.517 126.075ZM324.659 126.796L324.348 127.328L324.808 127.596L325.14 127.181L324.659 126.796ZM305.663 150.36L306.279 150.36L306.279 150.005L305.971 149.827L305.663 150.36ZM305.422 150.601V149.985H305.206L305.038 150.12L305.422 150.601ZM304.421 151.348L304.06 150.849L304.05 150.856L304.041 150.863L304.421 151.348ZM304.421 151.348L304.782 151.846L304.792 151.839L304.801 151.832L304.421 151.348ZM300.854 154.689L300.319 154.383L300.311 154.398L300.303 154.413L300.854 154.689ZM300.854 159.017L301.405 158.741L301.387 158.707L301.366 158.675L300.854 159.017ZM316.189 163.581L316.243 162.967H316.243L316.189 163.581ZM316.243 163.585L316.33 162.976L316.314 162.973L316.297 162.972L316.243 163.585ZM317.926 163.826L317.839 164.436L317.851 164.437L317.863 164.438L317.926 163.826ZM305.662 174.268L306.169 173.918L306.166 173.915L305.662 174.268ZM305.662 174.267L305.155 174.618L305.157 174.62L305.662 174.267ZM305.422 173.925L304.872 174.2L304.893 174.244L304.921 174.283L305.422 173.925ZM305.182 172.001L304.61 171.773L304.566 171.883V172.001H305.182ZM302.777 167.914L302.972 167.329L302.92 167.312L302.865 167.304L302.777 167.914ZM298.69 169.356L299.228 169.655L299.235 169.644L299.241 169.632L298.69 169.356ZM298.93 176.33L299.458 176.013L299.451 176L299.443 175.988L298.93 176.33ZM320.09 158.055L320.064 158.67L320.064 158.67L320.09 158.055ZM313.952 157.843L313.934 158.458L313.952 157.843ZM315.762 152.525V153.14H315.78L315.797 153.139L315.762 152.525ZM328.506 129.922L328.071 129.486L327.635 129.922L328.071 130.357L328.506 129.922ZM332.113 128.72L332.214 128.112L332.13 128.098L332.045 128.108L332.113 128.72ZM431.18 113.331L430.758 113.78L431.796 114.753V113.331H431.18ZM431.18 105.877H431.796V105.607L431.598 105.424L431.18 105.877ZM415.55 98.663L415.972 98.2139L415.554 97.8214L415.132 98.2107L415.55 98.663ZM399.68 113.331H399.065V114.738L400.098 113.783L399.68 113.331ZM399.68 105.877L399.266 105.421L399.065 105.604V105.877H399.68ZM415.55 91.4493L415.968 90.9968L415.554 90.6142L415.136 90.9937L415.55 91.4493ZM430.564 158.776C430.564 160.063 430.822 161.343 431.329 162.612L432.473 162.155C432.019 161.019 431.796 159.895 431.796 158.776H430.564ZM430.564 125.113V158.776H431.796V125.113H430.564ZM430.939 125.488C430.892 125.488 430.815 125.475 430.737 125.422C430.662 125.373 430.621 125.311 430.599 125.268C430.579 125.228 430.572 125.194 430.569 125.177C430.567 125.166 430.566 125.156 430.565 125.147C430.565 125.142 430.565 125.136 430.564 125.131C430.564 125.128 430.564 125.125 430.564 125.122C430.564 125.121 430.564 125.119 430.564 125.118C430.564 125.117 430.564 125.116 430.564 125.115C430.564 125.115 430.564 125.115 430.564 125.114C430.564 125.114 430.564 125.114 430.564 125.114C430.564 125.113 430.564 125.113 431.18 125.113C431.796 125.113 431.796 125.113 431.796 125.112C431.796 125.112 431.796 125.112 431.796 125.112C431.796 125.111 431.796 125.111 431.796 125.11C431.796 125.11 431.796 125.109 431.796 125.108C431.796 125.106 431.796 125.104 431.796 125.102C431.796 125.098 431.795 125.094 431.795 125.09C431.795 125.081 431.794 125.07 431.794 125.059C431.792 125.036 431.789 125.007 431.784 124.974C431.773 124.911 431.751 124.818 431.701 124.717C431.649 124.614 431.562 124.492 431.42 124.398C431.274 124.3 431.107 124.257 430.939 124.257V125.488ZM429.886 125.47C430.313 125.363 430.525 125.378 430.598 125.39C430.633 125.396 430.633 125.4 430.611 125.389C430.601 125.384 430.585 125.375 430.567 125.362C430.557 125.355 430.547 125.347 430.537 125.338C430.532 125.334 430.526 125.329 430.521 125.324C430.518 125.322 430.515 125.319 430.512 125.316C430.511 125.315 430.51 125.314 430.508 125.312C430.507 125.311 430.507 125.311 430.506 125.31C430.506 125.31 430.505 125.309 430.505 125.309C430.504 125.308 430.504 125.308 430.939 124.872C431.375 124.437 431.374 124.437 431.374 124.436C431.374 124.436 431.373 124.435 431.373 124.435C431.372 124.434 431.371 124.433 431.371 124.433C431.369 124.431 431.368 124.43 431.366 124.428C431.363 124.425 431.36 124.423 431.357 124.42C431.35 124.414 431.343 124.407 431.336 124.401C431.322 124.389 431.306 124.376 431.288 124.363C431.252 124.338 431.211 124.312 431.162 124.288C431.065 124.239 430.946 124.199 430.8 124.175C430.513 124.127 430.123 124.141 429.588 124.275L429.886 125.47ZM423.602 126.68L429.853 125.477L429.621 124.268L423.369 125.47L423.602 126.68ZM423.38 127.277C423.38 126.896 423.474 126.75 423.508 126.709C423.545 126.665 423.554 126.691 423.485 126.691V125.459C423.177 125.459 422.825 125.605 422.561 125.921C422.294 126.242 422.148 126.696 422.148 127.277H423.38ZM423.38 159.257V127.277H422.148V159.257H423.38ZM413.386 163.48C417.432 163.48 420.45 161.702 423.126 159.755L422.402 158.759C419.788 160.66 417.035 162.248 413.386 162.248V163.48ZM407 156.612C407 159.424 407.543 161.221 408.742 162.275C409.924 163.313 411.587 163.48 413.386 163.48V162.248C411.579 162.248 410.357 162.054 409.555 161.35C408.77 160.66 408.231 159.331 408.231 156.612H407ZM407 125.353V156.612H408.231V125.353H407ZM406.413 125.729C406.665 125.729 406.859 125.73 407.017 125.753C407.184 125.776 407.202 125.811 407.18 125.789L408.051 124.918C407.789 124.656 407.446 124.57 407.191 124.533C406.929 124.496 406.642 124.497 406.413 124.497V125.729ZM400.523 126.919L406.534 125.717L406.292 124.509L400.281 125.711L400.523 126.919ZM400.296 127.517C400.296 127.137 400.391 126.99 400.424 126.95C400.461 126.905 400.47 126.931 400.402 126.931V125.699C400.093 125.699 399.741 125.845 399.478 126.161C399.211 126.482 399.065 126.936 399.065 127.517H400.296ZM400.296 156.853V127.517H399.065V156.853H400.296ZM412.184 169.462C406.674 169.462 403.773 167.714 402.206 165.377C400.603 162.986 400.296 159.845 400.296 156.853H399.065C399.065 159.872 399.359 163.343 401.183 166.063C403.042 168.835 406.392 170.694 412.184 170.694V169.462ZM422.733 164.446C421.85 165.77 420.267 167.03 418.347 167.961C416.434 168.889 414.241 169.462 412.184 169.462V170.694C414.455 170.694 416.831 170.065 418.885 169.069C420.932 168.076 422.716 166.691 423.757 165.129L422.733 164.446ZM424.07 165.315L423.829 164.593L422.661 164.983L422.901 165.704L424.07 165.315ZM424.252 165.704C424.177 165.535 424.107 165.376 424.036 165.234L422.934 165.785C422.99 165.896 423.047 166.025 423.126 166.202L424.252 165.704ZM425.463 168.089C424.769 166.875 424.461 166.178 424.252 165.704L423.126 166.202C423.345 166.698 423.671 167.436 424.393 168.7L425.463 168.089ZM426.817 169.767C426.774 169.789 426.781 169.776 426.807 169.78C426.823 169.782 426.783 169.783 426.671 169.691C426.427 169.492 426.052 169.031 425.45 168.068L424.406 168.721C425.006 169.682 425.473 170.303 425.891 170.645C426.109 170.823 426.354 170.959 426.633 170.999C426.922 171.041 427.17 170.968 427.368 170.869L426.817 169.767ZM432.819 166.646L426.808 169.772L427.376 170.865L433.388 167.739L432.819 166.646ZM433.122 166.455C433.035 166.498 432.832 166.593 432.668 166.757L433.539 167.628C433.531 167.635 433.533 167.631 433.557 167.617C433.584 167.601 433.615 167.585 433.673 167.556L433.122 166.455ZM433.209 166.471C433.209 166.481 433.208 166.467 433.219 166.44C433.23 166.413 433.246 166.393 433.256 166.383C433.263 166.375 433.262 166.379 433.238 166.394C433.226 166.401 433.211 166.409 433.191 166.419C433.171 166.43 433.15 166.441 433.122 166.455L433.673 167.556C433.76 167.513 433.963 167.417 434.127 167.254C434.324 167.057 434.441 166.793 434.441 166.471H433.209ZM433.22 166.59C433.24 166.616 433.248 166.626 433.253 166.634C433.258 166.641 433.253 166.635 433.245 166.62C433.237 166.603 433.226 166.578 433.219 166.548C433.211 166.517 433.209 166.491 433.209 166.471H434.441C434.441 166.132 434.257 165.918 434.197 165.84L433.22 166.59ZM432.76 165.704C432.924 166.197 433.101 166.435 433.22 166.59L434.197 165.84C434.154 165.784 434.119 165.737 434.078 165.666C434.037 165.594 433.985 165.485 433.928 165.314L432.76 165.704ZM432.061 164.122C432.384 164.728 432.632 165.202 432.746 165.659L433.941 165.36C433.783 164.728 433.452 164.113 433.148 163.542L432.061 164.122ZM431.329 162.612C431.552 163.17 431.822 163.675 432.061 164.122L433.148 163.542C432.905 163.088 432.667 162.64 432.473 162.155L431.329 162.612ZM447.915 129.922C450.295 128.018 454.483 125.248 459.313 125.248V124.016C454.044 124.016 449.575 127.017 447.146 128.96L447.915 129.922ZM447.151 130.434L447.872 129.953L447.189 128.929L446.468 129.41L447.151 130.434ZM443.969 125.548C445.05 126.629 445.738 128.415 446.217 130.091L447.402 129.753C446.919 128.063 446.164 126.001 444.84 124.677L443.969 125.548ZM443.398 125.308C443.451 125.255 443.484 125.248 443.503 125.248C443.523 125.248 443.676 125.255 443.969 125.548L444.84 124.677C444.412 124.25 443.965 124.016 443.503 124.016C443.042 124.016 442.714 124.25 442.527 124.437L443.398 125.308ZM438.68 127.822L443.249 125.417L442.675 124.328L438.107 126.732L438.68 127.822ZM438.528 127.998C438.528 127.856 438.564 127.816 438.555 127.827C438.551 127.833 438.536 127.85 438.507 127.866C438.477 127.882 438.438 127.893 438.393 127.893V126.661C437.66 126.661 437.297 127.353 437.297 127.998H438.528ZM439.069 128.765C438.864 128.56 438.718 128.362 438.628 128.204C438.524 128.023 438.528 127.957 438.528 127.998H437.297C437.297 128.281 437.421 128.575 437.558 128.815C437.708 129.077 437.923 129.361 438.198 129.636L439.069 128.765ZM441.414 137.376C441.414 135.411 441.411 132.632 439.162 128.884L438.106 129.517C440.185 132.982 440.182 135.494 440.182 137.376H441.414ZM441.414 185.707V137.376H440.182V185.707H441.414ZM442.927 185.878C442.889 185.897 442.75 185.944 442.532 185.978C442.324 186.009 442.094 186.02 441.888 185.997C441.673 185.973 441.542 185.919 441.479 185.871C441.444 185.845 441.414 185.816 441.414 185.707H440.182C440.182 186.2 440.392 186.592 440.733 186.851C441.045 187.089 441.426 187.185 441.752 187.221C442.087 187.258 442.428 187.239 442.716 187.195C442.993 187.153 443.276 187.081 443.478 186.98L442.927 185.878ZM447.366 184.633L443.038 185.835L443.367 187.022L447.696 185.82L447.366 184.633ZM447.636 184.024C447.636 184.143 447.633 184.283 447.585 184.409C447.548 184.508 447.49 184.591 447.336 184.642L447.725 185.811C448.293 185.622 448.595 185.224 448.739 184.842C448.872 184.487 448.868 184.146 448.868 184.024H447.636ZM447.636 166.231V184.024H448.868V166.231H447.636ZM458.111 168.5C453.236 168.5 449.75 166.411 448.569 165.703L447.935 166.759C449.158 167.492 452.886 169.732 458.111 169.732V168.5ZM473.846 146.513C473.846 156.511 471.229 161.969 468.031 164.938C464.827 167.913 460.921 168.5 458.111 168.5V169.732C461.071 169.732 465.341 169.116 468.869 165.84C472.404 162.558 475.077 156.714 475.077 146.513H473.846ZM459.313 125.248C461.5 125.248 465.052 125.824 468.086 128.715C471.114 131.6 473.727 136.888 473.846 146.521L475.077 146.506C474.956 136.662 472.279 131.009 468.935 127.823C465.597 124.642 461.695 124.016 459.313 124.016V125.248ZM447.977 160.53C450.398 161.74 454.113 163.24 457.389 163.24V162.008C454.414 162.008 450.916 160.622 448.528 159.428L447.977 160.53ZM447.636 135.933V159.979H448.868V135.933H447.636ZM457.63 131.23C455.809 131.23 453.966 131.877 452.305 132.707C450.638 133.541 449.104 134.586 447.899 135.429L448.605 136.438C449.805 135.598 451.276 134.599 452.856 133.809C454.441 133.017 456.084 132.461 457.63 132.461V131.23ZM466.662 146.994C466.662 143.284 466.548 139.381 465.387 136.401C464.801 134.895 463.935 133.59 462.653 132.665C461.367 131.737 459.717 131.23 457.63 131.23V132.461C459.511 132.461 460.895 132.916 461.932 133.664C462.972 134.414 463.714 135.499 464.24 136.848C465.303 139.579 465.43 143.25 465.43 146.994H466.662ZM457.389 163.24C459.589 163.24 461.326 162.736 462.676 161.804C464.025 160.873 464.933 159.552 465.537 158.009C466.732 154.96 466.781 150.93 466.661 146.976L465.43 147.013C465.551 150.994 465.48 154.778 464.39 157.56C463.852 158.933 463.077 160.031 461.976 160.791C460.876 161.55 459.398 162.008 457.389 162.008V163.24ZM430.564 93.1325V100.587H431.796V93.1325H430.564ZM415.129 78.9139L430.758 93.5816L431.601 92.6835L415.972 78.0158L415.129 78.9139ZM400.098 93.5848L415.968 78.9171L415.132 78.0126L399.262 92.6803L400.098 93.5848ZM400.296 100.587V93.1325H399.065V100.587H400.296ZM415.132 85.4667L399.262 100.134L400.098 101.039L415.968 86.3712L415.132 85.4667ZM431.601 100.138L415.972 85.4699L415.129 86.368L430.758 101.036L431.601 100.138ZM137.105 104.328C137.178 104.328 137.178 104.345 137.155 104.327C137.136 104.313 137.143 104.307 137.159 104.349C137.176 104.396 137.192 104.468 137.201 104.575C137.21 104.681 137.21 104.791 137.21 104.915H138.442C138.442 104.702 138.449 104.282 138.312 103.917C138.238 103.719 138.11 103.502 137.888 103.338C137.662 103.17 137.392 103.097 137.105 103.097V104.328ZM136.143 104.328H137.105V103.097H136.143V104.328ZM131.483 105.512L136.292 104.31L135.993 103.115L131.184 104.317L131.483 105.512ZM131.228 106.117C131.228 105.736 131.323 105.589 131.356 105.549C131.393 105.505 131.402 105.53 131.334 105.53V104.299C131.025 104.299 130.673 104.445 130.41 104.761C130.143 105.081 129.996 105.536 129.996 106.117H131.228ZM131.228 129.201V106.117H129.996V129.201H131.228ZM120.273 124.767C120.841 124.767 121.962 124.765 123.61 125.361C125.265 125.961 127.482 127.176 130.197 129.655L131.028 128.746C128.213 126.176 125.86 124.866 124.029 124.203C122.19 123.537 120.907 123.535 120.273 123.535V124.767ZM104.538 146.994C104.538 136.883 107.271 131.363 110.531 128.361C113.799 125.35 117.71 124.767 120.273 124.767V123.535C117.546 123.535 113.281 124.154 109.696 127.455C106.103 130.765 103.306 136.667 103.306 146.994H104.538ZM119.07 168.019C116.757 168.019 113.147 167.44 110.115 164.58C107.092 161.728 104.538 156.505 104.538 146.994H103.306C103.306 156.719 105.922 162.317 109.27 165.476C112.611 168.628 116.575 169.251 119.07 169.251V168.019ZM131.334 164.547C130.911 164.1 130.911 164.099 130.911 164.099C130.911 164.099 130.911 164.099 130.911 164.099C130.912 164.099 130.912 164.099 130.912 164.099C130.912 164.099 130.911 164.099 130.911 164.099C130.91 164.1 130.908 164.102 130.905 164.105C130.899 164.111 130.888 164.12 130.874 164.133C130.845 164.159 130.799 164.199 130.737 164.25C130.614 164.353 130.425 164.504 130.172 164.687C129.667 165.053 128.908 165.545 127.905 166.039C125.902 167.026 122.929 168.019 119.07 168.019V169.251C123.147 169.251 126.305 168.2 128.45 167.144C129.522 166.615 130.34 166.086 130.894 165.685C131.172 165.484 131.383 165.316 131.527 165.196C131.599 165.135 131.654 165.087 131.693 165.053C131.712 165.036 131.727 165.023 131.737 165.013C131.743 165.008 131.747 165.004 131.75 165.001C131.752 164.999 131.753 164.998 131.754 164.997C131.755 164.997 131.755 164.996 131.756 164.996C131.756 164.996 131.756 164.996 131.756 164.995C131.756 164.995 131.757 164.995 131.334 164.547ZM132.123 165.316C132.063 165.018 132.001 164.712 131.935 164.414L130.732 164.681C130.796 164.965 130.855 165.259 130.915 165.559L132.123 165.316ZM133.433 167.86C133.16 168.015 133.056 167.98 133.039 167.974C133.001 167.96 132.9 167.9 132.77 167.657C132.499 167.153 132.324 166.314 132.123 165.316L130.915 165.559C131.101 166.481 131.307 167.537 131.685 168.24C131.878 168.6 132.17 168.971 132.624 169.133C133.098 169.304 133.588 169.19 134.044 168.929L133.433 167.86ZM137.028 165.702L133.421 167.866L134.055 168.923L137.662 166.759L137.028 165.702ZM137.488 165.404C137.349 165.481 137.081 165.623 136.91 165.795L137.78 166.666C137.779 166.668 137.799 166.649 137.864 166.608C137.925 166.57 137.997 166.53 138.087 166.48L137.488 165.404ZM137.691 165.509C137.691 165.355 137.76 165.26 137.778 165.236C137.798 165.211 137.806 165.21 137.778 165.231C137.753 165.249 137.717 165.273 137.664 165.304C137.612 165.335 137.555 165.367 137.488 165.404L138.087 166.48C138.205 166.414 138.375 166.321 138.511 166.22C138.58 166.169 138.67 166.095 138.746 165.998C138.821 165.903 138.923 165.735 138.923 165.509H137.691ZM137.607 163.781C137.658 164.767 137.691 165.402 137.691 165.509H138.923C138.923 165.359 138.887 164.67 138.837 163.717L137.607 163.781ZM137.21 153.486C137.21 156.148 137.469 161.133 137.607 163.781L138.837 163.717C138.699 161.053 138.442 156.108 138.442 153.486H137.21ZM137.21 104.915V153.486H138.442V104.915H137.21ZM119.792 164.201C123.277 164.201 126.136 163.206 128.122 162.213C129.116 161.716 129.894 161.218 130.426 160.842C130.693 160.654 130.898 160.497 131.038 160.384C131.109 160.328 131.163 160.283 131.2 160.252C131.219 160.236 131.233 160.223 131.244 160.215C131.249 160.21 131.253 160.206 131.256 160.204C131.257 160.202 131.259 160.201 131.26 160.2C131.26 160.2 131.261 160.2 131.261 160.199C131.261 160.199 131.261 160.199 131.262 160.199C131.262 160.199 131.262 160.198 130.853 159.738C130.444 159.278 130.444 159.278 130.444 159.278C130.444 159.278 130.444 159.278 130.444 159.277C130.444 159.277 130.444 159.277 130.444 159.277C130.444 159.277 130.444 159.278 130.443 159.278C130.442 159.279 130.44 159.281 130.437 159.284C130.43 159.29 130.42 159.299 130.405 159.311C130.376 159.336 130.33 159.374 130.269 159.423C130.146 159.521 129.961 159.663 129.716 159.836C129.227 160.182 128.502 160.646 127.572 161.111C125.711 162.042 123.04 162.97 119.792 162.97V164.201ZM111.001 146.273C111.001 149.617 110.996 154.04 112.047 157.627C112.575 159.428 113.384 161.074 114.64 162.273C115.912 163.486 117.601 164.201 119.792 164.201V162.97C117.895 162.97 116.518 162.362 115.491 161.382C114.448 160.386 113.723 158.966 113.229 157.281C112.237 153.895 112.232 149.661 112.232 146.273H111.001ZM121.475 129.066C119.09 129.066 117.204 129.632 115.73 130.651C114.258 131.67 113.246 133.106 112.551 134.763C111.175 138.049 111.001 142.315 111.001 146.273H112.232C112.232 142.295 112.419 138.266 113.687 135.239C114.315 133.741 115.197 132.517 116.43 131.664C117.661 130.813 119.291 130.297 121.475 130.297V129.066ZM130.907 132.026C128.238 130.57 124.519 129.066 121.475 129.066V130.297C124.202 130.297 127.696 131.678 130.317 133.108L130.907 132.026ZM131.228 159.738V132.567H129.996V159.738H131.228ZM130.853 159.122H130.612V160.354H130.853V159.122ZM143.251 146.513C143.251 139.527 145.145 134.091 148.274 130.411C151.396 126.74 155.789 124.767 160.91 124.767V123.535C155.45 123.535 150.706 125.65 147.336 129.613C143.973 133.568 142.019 139.312 142.019 146.513H143.251ZM162.833 168.26C158.367 168.26 153.478 167.025 149.714 163.724C145.966 160.437 143.251 155.03 143.251 146.513H142.019C142.019 155.309 144.835 161.083 148.902 164.65C152.952 168.202 158.162 169.491 162.833 169.491V168.26ZM172.918 165.91C170.32 167.091 166.803 168.26 162.833 168.26V169.491C167.039 169.491 170.736 168.255 173.427 167.032L172.918 165.91ZM175.923 164.307C175.923 164.177 175.978 164.138 175.926 164.208C175.882 164.267 175.78 164.377 175.568 164.536C175.145 164.853 174.356 165.311 172.936 165.902L173.41 167.039C174.875 166.429 175.769 165.925 176.307 165.521C176.577 165.319 176.775 165.129 176.911 164.947C177.04 164.776 177.155 164.556 177.155 164.307H175.923ZM175.923 163.826V164.307H177.155V163.826H175.923ZM174.292 160.225L175.975 164.073L177.103 163.579L175.42 159.732L174.292 160.225ZM174.375 160.114C174.333 160.114 174.304 160.103 174.291 160.097C174.278 160.091 174.272 160.086 174.27 160.083C174.268 160.081 174.263 160.075 174.256 160.062C174.25 160.049 174.24 160.021 174.24 159.979H175.472C175.472 159.658 175.318 159.389 175.141 159.213C174.964 159.036 174.695 158.882 174.375 158.882V160.114ZM174.134 160.114H174.375V158.882H174.134V160.114ZM173.208 160.529C173.453 160.407 173.676 160.296 173.866 160.214C173.961 160.174 174.035 160.145 174.092 160.128C174.156 160.109 174.164 160.114 174.134 160.114V158.882C173.985 158.882 173.842 158.917 173.734 158.95C173.617 158.985 173.497 159.032 173.381 159.082C173.151 159.181 172.893 159.31 172.657 159.428L173.208 160.529ZM162.833 163.72C166.842 163.72 170.083 162.212 173.224 160.521L172.64 159.436C169.529 161.111 166.518 162.489 162.833 162.489V163.72ZM149.473 148.437C149.473 153.748 151.207 157.582 153.777 160.089C156.339 162.587 159.685 163.72 162.833 163.72V162.489C159.97 162.489 156.944 161.458 154.637 159.207C152.338 156.965 150.705 153.466 150.705 148.437H149.473ZM149.473 147.956V148.437H150.705V147.956H149.473ZM176.539 147.34H150.089V148.572H176.539V147.34ZM176.885 146.513C176.885 146.798 176.87 146.998 176.846 147.139C176.82 147.281 176.791 147.325 176.789 147.327C176.789 147.328 176.79 147.326 176.793 147.323C176.796 147.32 176.799 147.318 176.802 147.315C176.81 147.31 176.811 147.311 176.799 147.315C176.767 147.326 176.694 147.34 176.539 147.34V148.572C176.936 148.572 177.456 148.513 177.792 148.043C177.94 147.836 178.016 147.594 178.058 147.353C178.101 147.11 178.117 146.829 178.117 146.513H176.885ZM176.885 145.792V146.513H178.117V145.792H176.885ZM160.91 124.767C164.662 124.767 168.625 125.704 171.655 128.734C174.685 131.764 176.885 136.99 176.885 145.792H178.117C178.117 136.8 175.868 131.206 172.526 127.863C169.184 124.521 164.852 123.535 160.91 123.535V124.767ZM160.188 128.825C157.627 128.825 154.991 129.788 152.971 132.001C150.952 134.212 149.596 137.614 149.473 142.41L150.705 142.441C150.822 137.859 152.111 134.769 153.88 132.832C155.647 130.897 157.941 130.057 160.188 130.057V128.825ZM168.921 134.469C167.912 132.324 166.568 130.9 165.033 130.019C163.505 129.141 161.829 128.825 160.188 128.825V130.057C161.673 130.057 163.124 130.342 164.42 131.087C165.711 131.829 166.892 133.05 167.806 134.993L168.921 134.469ZM170.422 142.185C170.422 141.692 170.425 137.977 168.93 134.488L167.798 134.974C169.188 138.217 169.19 141.716 169.19 142.185H170.422ZM150.089 142.425C150.089 143.041 150.089 143.041 150.089 143.041C150.089 143.041 150.09 143.041 150.09 143.041C150.091 143.041 150.092 143.041 150.093 143.041C150.095 143.041 150.099 143.041 150.103 143.041C150.113 143.041 150.127 143.041 150.146 143.041C150.183 143.041 150.239 143.041 150.311 143.041C150.455 143.041 150.667 143.041 150.937 143.041C151.476 143.04 152.247 143.039 153.171 143.038C155.02 143.034 157.486 143.026 159.951 143.011C162.417 142.996 164.884 142.974 166.737 142.94C167.662 142.923 168.438 142.903 168.985 142.88C169.257 142.868 169.481 142.855 169.641 142.841C169.718 142.834 169.797 142.825 169.864 142.812C169.893 142.807 169.951 142.795 170.013 142.771C170.041 142.76 170.108 142.733 170.18 142.678C170.24 142.631 170.422 142.47 170.422 142.185H169.19C169.19 141.903 169.371 141.746 169.426 141.704C169.492 141.652 169.553 141.628 169.571 141.621C169.597 141.612 169.616 141.606 169.623 141.605C169.627 141.604 169.63 141.603 169.632 141.602C169.634 141.602 169.635 141.602 169.635 141.602C169.635 141.602 169.635 141.602 169.633 141.602C169.632 141.602 169.63 141.603 169.627 141.603C169.622 141.604 169.614 141.605 169.605 141.606C169.585 141.609 169.56 141.611 169.529 141.614C169.4 141.626 169.2 141.638 168.933 141.649C168.401 141.672 167.637 141.691 166.714 141.708C164.87 141.742 162.408 141.765 159.944 141.78C157.48 141.795 155.017 141.802 153.169 141.806C152.245 141.808 151.475 141.809 150.936 141.809C150.666 141.809 150.455 141.81 150.31 141.81C150.238 141.81 150.183 141.81 150.146 141.81C150.127 141.81 150.113 141.81 150.103 141.81C150.099 141.81 150.095 141.81 150.093 141.81C150.091 141.81 150.091 141.81 150.09 141.81C150.09 141.81 150.089 141.81 150.089 141.81C150.089 141.81 150.089 141.81 150.089 142.425ZM210.554 129.946C216.047 126.126 219.527 124.767 223.187 124.767V123.535C219.153 123.535 215.42 125.062 209.851 128.935L210.554 129.946ZM201.787 124.767C203.62 124.767 205.185 125.167 206.483 125.968C207.778 126.767 208.846 127.99 209.645 129.701L210.761 129.181C209.876 127.285 208.659 125.863 207.13 124.919C205.602 123.977 203.801 123.535 201.787 123.535V124.767ZM189.172 129.934C193.003 127.06 196.47 124.767 201.787 124.767V123.535C196.042 123.535 192.296 126.051 188.433 128.948L189.172 129.934ZM186.809 125.148C187.025 125.58 187.313 126.38 187.583 127.249C187.85 128.11 188.084 128.989 188.198 129.562L189.406 129.32C189.28 128.69 189.033 127.766 188.759 126.884C188.488 126.01 188.175 125.126 187.91 124.597L186.809 125.148ZM186.062 124.886C186.187 124.821 186.282 124.773 186.374 124.74C186.463 124.708 186.509 124.706 186.527 124.707C186.53 124.707 186.541 124.705 186.573 124.735C186.616 124.774 186.697 124.874 186.788 125.101L187.931 124.644C187.663 123.972 187.238 123.533 186.634 123.48C186.143 123.437 185.694 123.69 185.497 123.791L186.062 124.886ZM185.952 124.942C185.989 124.923 186.028 124.904 186.062 124.886L185.497 123.791C185.461 123.81 185.43 123.826 185.401 123.841L185.952 124.942ZM181.877 127.1L185.964 124.936L185.388 123.847L181.3 126.011L181.877 127.1ZM181.723 127.036C181.723 127.079 181.713 127.107 181.707 127.12C181.701 127.133 181.696 127.139 181.693 127.141C181.691 127.143 181.685 127.149 181.672 127.155C181.659 127.161 181.631 127.171 181.589 127.171V125.94C181.268 125.94 180.999 126.094 180.822 126.27C180.646 126.447 180.492 126.716 180.492 127.036H181.723ZM181.899 127.482C181.797 127.279 181.753 127.141 181.735 127.067C181.726 127.031 181.723 127.01 181.722 127.005C181.722 127.003 181.722 127.004 181.723 127.009C181.723 127.012 181.723 127.015 181.723 127.02C181.723 127.022 181.723 127.025 181.723 127.027C181.723 127.029 181.723 127.03 181.723 127.032C181.723 127.033 181.723 127.033 181.723 127.034C181.723 127.034 181.723 127.035 181.723 127.035C181.723 127.035 181.723 127.036 181.723 127.036C181.723 127.036 181.723 127.036 181.108 127.036C180.492 127.036 180.492 127.037 180.492 127.037C180.492 127.037 180.492 127.037 180.492 127.038C180.492 127.038 180.492 127.038 180.492 127.039C180.492 127.04 180.492 127.041 180.492 127.041C180.492 127.043 180.492 127.045 180.492 127.047C180.492 127.05 180.492 127.054 180.492 127.058C180.492 127.067 180.493 127.076 180.493 127.086C180.495 127.106 180.497 127.13 180.5 127.158C180.507 127.213 180.519 127.283 180.54 127.366C180.582 127.533 180.659 127.756 180.797 128.033L181.899 127.482ZM183.407 136.414C183.407 133.39 183.226 131.477 182.942 130.154C182.653 128.806 182.26 128.08 181.876 127.441L180.82 128.075C181.158 128.637 181.486 129.235 181.738 130.412C181.995 131.613 182.175 133.427 182.175 136.414H183.407ZM183.407 166.711V136.414H182.175V166.711H183.407ZM183.993 167.298C183.677 167.298 183.562 167.24 183.522 167.206C183.503 167.189 183.407 167.1 183.407 166.711H182.175C182.175 167.285 182.319 167.797 182.721 168.141C183.102 168.467 183.588 168.529 183.993 168.529V167.298ZM188.802 167.298H183.993V168.529H188.802V167.298ZM189.389 166.711C189.389 167.028 189.331 167.142 189.296 167.182C189.28 167.202 189.19 167.298 188.802 167.298V168.529C189.376 168.529 189.887 168.385 190.232 167.984C190.558 167.603 190.62 167.116 190.62 166.711H189.389ZM189.389 133.769V166.711H190.62V133.769H189.389ZM198.901 129.546C195.334 129.546 192.556 131.086 189.635 133.276L190.374 134.262C193.224 132.124 195.736 130.778 198.901 130.778V129.546ZM205.528 137.376C205.528 136.174 205.475 134.233 204.617 132.583C204.181 131.745 203.535 130.975 202.586 130.42C201.64 129.866 200.43 129.546 198.901 129.546V130.778C200.258 130.778 201.242 131.06 201.964 131.483C202.683 131.904 203.179 132.487 203.525 133.152C204.23 134.508 204.297 136.173 204.297 137.376H205.528ZM205.528 166.711V137.376H204.297V166.711H205.528ZM206.115 167.298C205.798 167.298 205.684 167.24 205.644 167.206C205.625 167.189 205.528 167.1 205.528 166.711H204.297C204.297 167.285 204.441 167.797 204.842 168.141C205.223 168.467 205.71 168.529 206.115 168.529V167.298ZM210.924 167.298H206.115V168.529H210.924V167.298ZM211.51 166.711C211.51 166.954 211.473 167.088 211.443 167.156C211.417 167.215 211.393 167.232 211.379 167.241C211.357 167.255 211.313 167.273 211.23 167.285C211.143 167.297 211.05 167.298 210.924 167.298V168.529C211.13 168.529 211.617 168.545 212.032 168.286C212.517 167.983 212.742 167.436 212.742 166.711H211.51ZM211.51 133.769V166.711H212.742V133.769H211.51ZM212.506 132.776L211.785 133.257L212.468 134.282L213.189 133.801L212.506 132.776ZM212.917 132.521C212.818 132.585 212.738 132.636 212.675 132.676C212.643 132.696 212.619 132.711 212.599 132.722C212.579 132.734 212.571 132.738 212.572 132.737L213.123 133.839C213.23 133.785 213.407 133.67 213.583 133.557L212.917 132.521ZM221.023 129.546C219.251 129.546 217.511 130.114 216.088 130.756C214.66 131.4 213.508 132.141 212.917 132.521L213.583 133.557C214.169 133.18 215.256 132.483 216.595 131.878C217.94 131.271 219.497 130.778 221.023 130.778V129.546ZM227.65 137.376C227.65 136.174 227.597 134.233 226.739 132.583C226.303 131.745 225.657 130.975 224.708 130.42C223.762 129.866 222.552 129.546 221.023 129.546V130.778C222.379 130.778 223.364 131.06 224.086 131.483C224.805 131.904 225.301 132.487 225.646 133.152C226.352 134.508 226.419 136.173 226.419 137.376H227.65ZM227.65 166.711V137.376H226.419V166.711H227.65ZM228.237 167.298C227.92 167.298 227.806 167.24 227.766 167.206C227.746 167.189 227.65 167.1 227.65 166.711H226.419C226.419 167.285 226.563 167.797 226.964 168.141C227.345 168.467 227.832 168.529 228.237 168.529V167.298ZM233.046 167.298H228.237V168.529H233.046V167.298ZM233.632 166.711C233.632 166.954 233.595 167.088 233.565 167.156C233.539 167.215 233.515 167.232 233.501 167.241C233.478 167.255 233.435 167.273 233.352 167.285C233.265 167.297 233.172 167.298 233.046 167.298V168.529C233.252 168.529 233.738 168.545 234.154 168.286C234.638 167.983 234.864 167.436 234.864 166.711H233.632ZM233.632 137.616V166.711H234.864V137.616H233.632ZM233.441 136.471C233.507 136.891 233.572 137.309 233.641 137.718L234.855 137.515C234.788 137.113 234.724 136.701 234.657 136.279L233.441 136.471ZM233.441 136.469L233.441 136.471L234.657 136.279L234.657 136.277L233.441 136.469ZM223.187 124.767C225.346 124.767 226.986 125.168 228.25 125.824C229.51 126.478 230.428 127.402 231.122 128.501C232.53 130.733 232.998 133.652 233.44 136.469L234.657 136.277C234.224 133.522 233.732 130.33 232.163 127.844C231.369 126.584 230.295 125.498 228.817 124.73C227.342 123.965 225.499 123.535 223.187 123.535V124.767ZM241.702 125.969H246.511V124.737H241.702V125.969ZM241.116 126.556C241.116 126.313 241.153 126.179 241.183 126.111C241.209 126.052 241.233 126.035 241.247 126.026C241.27 126.012 241.313 125.994 241.396 125.982C241.483 125.97 241.576 125.969 241.702 125.969V124.737C241.496 124.737 241.009 124.722 240.594 124.981C240.109 125.284 239.884 125.831 239.884 126.556H241.116ZM241.116 166.711V126.556H239.884V166.711H241.116ZM241.702 167.298C241.385 167.298 241.271 167.24 241.231 167.206C241.212 167.189 241.116 167.1 241.116 166.711H239.884C239.884 167.285 240.028 167.797 240.43 168.141C240.811 168.467 241.297 168.529 241.702 168.529V167.298ZM246.511 167.298H241.702V168.529H246.511V167.298ZM247.098 166.711C247.098 166.954 247.061 167.088 247.03 167.156C247.004 167.215 246.98 167.232 246.966 167.241C246.944 167.255 246.9 167.273 246.817 167.285C246.731 167.297 246.637 167.298 246.511 167.298V168.529C246.717 168.529 247.204 168.545 247.619 168.286C248.104 167.983 248.329 167.436 248.329 166.711H247.098ZM247.098 126.556V166.711H248.329V126.556H247.098ZM246.511 125.969C246.754 125.969 246.888 126.006 246.956 126.036C247.015 126.062 247.032 126.086 247.041 126.1C247.055 126.123 247.073 126.166 247.085 126.249C247.097 126.336 247.098 126.43 247.098 126.556H248.329C248.329 126.35 248.345 125.863 248.085 125.448C247.782 124.963 247.236 124.737 246.511 124.737V125.969ZM240.635 111.888C240.635 109.583 242.523 107.695 244.828 107.695V106.463C241.843 106.463 239.403 108.903 239.403 111.888H240.635ZM244.828 116.081C242.523 116.081 240.635 114.193 240.635 111.888H239.403C239.403 114.873 241.843 117.313 244.828 117.313V116.081ZM249.021 111.888C249.021 114.193 247.133 116.081 244.828 116.081V117.313C247.813 117.313 250.253 114.873 250.253 111.888H249.021ZM244.828 107.695C247.133 107.695 249.021 109.583 249.021 111.888H250.253C250.253 108.903 247.813 106.463 244.828 106.463V107.695ZM271.406 144.188C271.603 144.27 271.802 144.353 272.003 144.437L272.477 143.3C272.275 143.216 272.076 143.133 271.879 143.051L271.406 144.188ZM262.006 135.693C262.006 138.011 263.024 139.598 264.724 140.868C266.375 142.102 268.714 143.069 271.406 144.188L271.879 143.051C269.133 141.91 266.962 141.003 265.462 139.882C264.011 138.798 263.237 137.552 263.237 135.693H262.006ZM270.316 129.066C267.561 129.066 265.479 129.818 264.078 131.053C262.673 132.291 262.006 133.967 262.006 135.693H263.237C263.237 134.293 263.772 132.963 264.892 131.977C266.016 130.987 267.781 130.297 270.316 130.297V129.066ZM278.734 131.039C275.308 129.571 272.821 129.066 270.316 129.066V130.297C272.621 130.297 274.942 130.754 278.249 132.171L278.734 131.039ZM279.442 131.295C279.163 131.218 279.007 131.174 278.767 131.054L278.216 132.156C278.571 132.333 278.825 132.403 279.114 132.482L279.442 131.295ZM280.129 131.502C279.837 131.405 279.619 131.344 279.442 131.295L279.114 132.482C279.288 132.53 279.48 132.584 279.74 132.67L280.129 131.502ZM280.312 131.17C280.271 131.292 280.229 131.358 280.201 131.393C280.174 131.425 280.153 131.438 280.14 131.445C280.103 131.464 280.057 131.47 279.934 131.47V132.702C280.052 132.702 280.367 132.708 280.691 132.547C281.041 132.372 281.317 132.048 281.48 131.559L280.312 131.17ZM282.028 127.723L280.345 131.089L281.447 131.64L283.13 128.274L282.028 127.723ZM281.342 126.866C281.998 127.194 282.12 127.45 282.14 127.514C282.153 127.558 282.135 127.572 282.144 127.563L283.015 128.434C283.264 128.184 283.486 127.717 283.319 127.16C283.158 126.623 282.68 126.158 281.893 125.764L281.342 126.866ZM276.467 125.239C277.152 125.354 278.084 125.586 278.994 125.879C279.911 126.175 280.76 126.519 281.301 126.843L281.934 125.787C281.273 125.39 280.318 125.012 279.372 124.707C278.418 124.399 277.427 124.151 276.669 124.024L276.467 125.239ZM269.595 124.286C271.447 124.286 274.032 124.753 276.447 125.236L276.689 124.028C274.295 123.549 271.59 123.054 269.595 123.054V124.286ZM255.783 135.693C255.783 132.388 257.146 129.554 259.533 127.537C261.926 125.514 265.384 124.286 269.595 124.286V123.054C265.149 123.054 261.393 124.351 258.737 126.596C256.075 128.847 254.552 132.024 254.552 135.693H255.783ZM267.788 147.579C264.541 146.256 261.538 145.027 259.332 143.237C257.17 141.482 255.783 139.194 255.783 135.693H254.552C254.552 139.602 256.136 142.229 258.556 144.193C260.932 146.122 264.123 147.416 267.324 148.72L267.788 147.579ZM267.903 147.626L267.788 147.579L267.324 148.72L267.439 148.767L267.903 147.626ZM268.155 147.731L267.908 147.628L267.434 148.765L267.682 148.868L268.155 147.731ZM277.665 156.131C277.665 155.03 277.424 154.077 276.95 153.235C276.479 152.399 275.797 151.704 274.958 151.087C273.306 149.872 270.942 148.891 268.155 147.731L267.682 148.868C270.522 150.051 272.723 150.972 274.229 152.079C274.97 152.624 275.515 153.196 275.877 153.839C276.236 154.478 276.433 155.219 276.433 156.131H277.665ZM268.873 162.999C271.602 162.999 273.797 162.38 275.324 161.185C276.871 159.974 277.665 158.224 277.665 156.131H276.433C276.433 157.886 275.784 159.262 274.565 160.215C273.327 161.184 271.435 161.767 268.873 161.767V162.999ZM258.98 160.77C261.476 162.018 265.658 162.999 268.873 162.999V161.767C265.837 161.767 261.844 160.825 259.531 159.668L258.98 160.77ZM257.019 159.872C257.472 160.063 258.083 160.321 258.98 160.77L259.531 159.668C258.598 159.202 257.96 158.932 257.498 158.737L257.019 159.872ZM256.335 159.568C256.532 159.666 256.761 159.763 257.019 159.872L257.498 158.737C257.228 158.623 257.04 158.543 256.886 158.466L256.335 159.568ZM256.37 159.633H256.61V158.401H256.37V159.633ZM256.505 159.498C256.505 159.466 256.505 159.446 256.505 159.428C256.506 159.419 256.506 159.413 256.506 159.409C256.507 159.404 256.507 159.403 256.507 159.403C256.507 159.403 256.507 159.405 256.505 159.41C256.504 159.415 256.503 159.422 256.5 159.431C256.493 159.451 256.482 159.478 256.461 159.509C256.441 159.54 256.414 159.568 256.385 159.591C256.356 159.614 256.331 159.626 256.315 159.632C256.288 159.643 256.295 159.633 256.37 159.633V158.401C256.048 158.401 255.666 158.481 255.437 158.826C255.253 159.101 255.273 159.431 255.273 159.498H256.505ZM254.509 163.394L256.432 159.788L255.346 159.208L253.422 162.815L254.509 163.394ZM254.581 163.826V163.105H253.349V163.826H254.581ZM255.503 164.462C255.239 164.322 254.978 164.182 254.781 164.026C254.56 163.851 254.581 163.783 254.581 163.826H253.349C253.349 164.386 253.741 164.773 254.017 164.992C254.318 165.229 254.682 165.421 254.926 165.55L255.503 164.462ZM256.084 164.833C255.988 164.737 255.867 164.664 255.792 164.62C255.704 164.569 255.6 164.514 255.503 164.462L254.926 165.55C255.03 165.605 255.109 165.648 255.171 165.684C255.201 165.701 255.219 165.713 255.23 165.721C255.244 165.73 255.233 165.724 255.213 165.704L256.084 164.833ZM268.873 167.538C263.923 167.538 258.246 165.879 255.924 164.718L255.373 165.819C257.86 167.063 263.725 168.77 268.873 168.77V167.538ZM284.128 155.891C284.128 159.748 282.268 162.635 279.435 164.581C276.584 166.539 272.746 167.538 268.873 167.538V168.77C272.936 168.77 277.032 167.725 280.133 165.596C283.251 163.454 285.359 160.209 285.359 155.891H284.128ZM272.011 144.44C275.035 145.649 278.075 146.882 280.369 148.654C282.631 150.4 284.128 152.638 284.128 155.891H285.359C285.359 152.17 283.61 149.6 281.122 147.679C278.667 145.783 275.456 144.491 272.468 143.296L272.011 144.44ZM360.406 126.543L358.242 131.352L359.365 131.858L361.529 127.049L360.406 126.543ZM360.125 126.198C360.369 126.246 360.486 126.31 360.534 126.345C360.573 126.374 360.558 126.376 360.55 126.344C360.545 126.322 360.551 126.316 360.545 126.333C360.538 126.354 360.526 126.366 360.532 126.36L361.403 127.231C361.624 127.01 361.873 126.558 361.745 126.045C361.601 125.467 361.069 125.13 360.367 124.99L360.125 126.198ZM359.352 125.984C359.603 126.057 359.856 126.131 360.097 126.191L360.395 124.996C360.182 124.943 359.954 124.876 359.697 124.802L359.352 125.984ZM356.639 125.488C357.642 125.488 358.525 125.743 359.352 125.984L359.697 124.802C358.881 124.563 357.841 124.257 356.639 124.257V125.488ZM347.663 130.82C349.805 128.416 352.449 125.488 356.639 125.488V124.257C351.824 124.257 348.835 127.653 346.743 130.001L347.663 130.82ZM347.238 131.296C347.377 131.141 347.519 130.982 347.663 130.82L346.743 130.001C346.599 130.163 346.459 130.32 346.323 130.472L347.238 131.296ZM346.051 132.721L347.254 131.278L346.307 130.489L345.105 131.932L346.051 132.721ZM342.892 126.641C344.04 128.479 344.738 130.798 344.969 132.414L346.188 132.239C345.938 130.489 345.193 127.999 343.936 125.989L342.892 126.641ZM341.777 125.457C342.251 125.615 342.636 126.137 342.863 126.59L343.965 126.04C343.711 125.532 343.134 124.611 342.166 124.288L341.777 125.457ZM341.731 125.488H341.971V124.257H341.731V125.488ZM341.86 125.465C341.88 125.451 341.884 125.448 341.887 125.446C341.888 125.445 341.879 125.451 341.863 125.459C341.846 125.466 341.824 125.475 341.798 125.48C341.773 125.486 341.749 125.488 341.731 125.488V124.257C341.419 124.257 341.218 124.41 341.149 124.459L341.86 125.465ZM341.01 125.729C341.213 125.729 341.388 125.698 341.546 125.638C341.702 125.579 341.81 125.5 341.86 125.465L341.149 124.459C341.123 124.477 341.116 124.482 341.11 124.486C341.108 124.487 341.108 124.487 341.107 124.487C341.107 124.488 341.107 124.488 341.107 124.488C341.107 124.488 341.107 124.488 341.107 124.488C341.107 124.488 341.107 124.488 341.107 124.488C341.107 124.488 341.107 124.488 341.107 124.488C341.107 124.488 341.107 124.488 341.107 124.488C341.107 124.488 341.107 124.488 341.106 124.488C341.106 124.488 341.105 124.488 341.104 124.489C341.101 124.489 341.097 124.49 341.09 124.492C341.075 124.494 341.05 124.497 341.01 124.497V125.729ZM337.744 128.03L341.351 125.625L340.668 124.6L337.061 127.005L337.744 128.03ZM337.778 128.239C337.778 128.112 337.778 128.041 337.781 127.989C337.784 127.94 337.787 127.951 337.777 127.983C337.771 128.001 337.763 128.018 337.753 128.034C337.745 128.048 337.739 128.056 337.74 128.054C337.75 128.042 337.77 128.021 337.838 127.953L336.967 127.082C336.88 127.169 336.694 127.336 336.608 127.593C336.568 127.715 336.556 127.831 336.551 127.925C336.546 128.016 336.547 128.125 336.547 128.239H337.778ZM337.882 128.649C337.817 128.492 337.778 128.39 337.778 128.239H336.547C336.547 128.651 336.673 128.947 336.744 129.12L337.882 128.649ZM338.019 129.201C338.019 128.954 337.917 128.733 337.882 128.649L336.744 129.12C336.757 129.151 336.766 129.173 336.774 129.193C336.782 129.213 336.786 129.226 336.789 129.234C336.794 129.251 336.787 129.235 336.787 129.201H338.019ZM338.652 130.086L337.931 128.884L336.875 129.517L337.596 130.72L338.652 130.086ZM340.183 137.135C340.183 134.166 339.684 132.146 338.675 130.127L337.573 130.678C338.488 132.507 338.951 134.334 338.951 137.135H340.183ZM340.183 167.433V137.135H338.951V167.433H340.183ZM340.769 168.019C340.526 168.019 340.392 167.982 340.324 167.952C340.265 167.926 340.248 167.902 340.239 167.888C340.225 167.865 340.207 167.822 340.196 167.739C340.184 167.652 340.183 167.559 340.183 167.433H338.951C338.951 167.639 338.935 168.125 339.195 168.541C339.498 169.025 340.045 169.251 340.769 169.251V168.019ZM345.578 168.019H340.769V169.251H345.578V168.019ZM346.165 167.433C346.165 167.749 346.107 167.864 346.072 167.904C346.056 167.923 345.966 168.019 345.578 168.019V169.251C346.152 169.251 346.664 169.107 347.008 168.705C347.334 168.324 347.396 167.837 347.396 167.433H346.165ZM346.165 138.578V167.433H347.396V138.578H346.165ZM347.756 136.494L346.313 138.177L347.248 138.979L348.691 137.296L347.756 136.494ZM355.437 130.989C353.891 130.989 352.366 131.89 351.075 132.965C349.764 134.058 348.591 135.419 347.737 136.517L348.709 137.273C349.538 136.207 350.65 134.923 351.864 133.912C353.098 132.883 354.338 132.221 355.437 132.221V130.989ZM357.395 131.295C357.056 131.125 356.669 131.055 356.34 131.022C356.004 130.989 355.674 130.989 355.437 130.989V132.221C355.681 132.221 355.952 132.221 356.217 132.248C356.489 132.275 356.703 132.325 356.845 132.396L357.395 131.295ZM358.201 131.722C358.046 131.602 357.808 131.426 357.315 131.261L356.925 132.43C357.096 132.486 357.205 132.539 357.277 132.58C357.348 132.62 357.395 132.655 357.451 132.699L358.201 131.722ZM358.082 131.711C358.102 131.711 358.128 131.713 358.159 131.72C358.189 131.728 358.214 131.738 358.231 131.747C358.246 131.755 358.252 131.76 358.245 131.755C358.237 131.749 358.226 131.741 358.201 131.722L357.451 132.699C357.529 132.758 357.742 132.942 358.082 132.942V131.711ZM358.187 131.605C358.187 131.504 358.241 131.477 358.187 131.53C358.133 131.585 358.018 131.67 357.806 131.776L358.357 132.877C358.627 132.743 358.872 132.587 359.058 132.401C359.246 132.214 359.419 131.946 359.419 131.605H358.187ZM358.938 146.994C358.938 138.338 361.425 132.925 364.792 129.674C368.166 126.415 372.506 125.248 376.356 125.248V124.016C372.272 124.016 367.595 125.254 363.936 128.788C360.269 132.329 357.706 138.098 357.706 146.994H358.938ZM376.356 168.741C372.629 168.741 368.286 167.575 364.88 164.313C361.483 161.06 358.938 155.646 358.938 146.994H357.706C357.706 155.895 360.332 161.663 364.028 165.202C367.715 168.733 372.39 169.972 376.356 169.972V168.741ZM393.775 146.994C393.775 155.646 391.23 161.06 387.833 164.313C384.426 167.575 380.084 168.741 376.356 168.741V169.972C380.323 169.972 384.998 168.733 388.685 165.202C392.381 161.663 395.006 155.895 395.006 146.994H393.775ZM376.356 125.248C380.209 125.248 384.609 126.416 388.013 129.675C391.407 132.925 393.893 138.334 393.775 146.986L395.006 147.003C395.128 138.101 392.565 132.329 388.865 128.786C385.176 125.253 380.439 124.016 376.356 124.016V125.248ZM365.161 147.235C365.161 149.525 365.278 153.832 366.704 157.583C367.419 159.464 368.477 161.242 370.048 162.552C371.631 163.87 373.696 164.682 376.356 164.682V163.451C373.967 163.451 372.185 162.729 370.837 161.606C369.478 160.473 368.522 158.9 367.855 157.145C366.515 153.622 366.392 149.512 366.392 147.235H365.161ZM376.356 129.787C373.696 129.787 371.631 130.599 370.048 131.917C368.477 133.227 367.419 135.005 366.704 136.887C365.278 140.637 365.161 144.944 365.161 147.235H366.392C366.392 144.957 366.515 140.848 367.855 137.324C368.522 135.569 369.478 133.996 370.837 132.863C372.185 131.74 373.967 131.019 376.356 131.019V129.787ZM387.552 147.235C387.552 144.944 387.435 140.637 386.009 136.887C385.294 135.005 384.236 133.227 382.664 131.917C381.082 130.599 379.017 129.787 376.356 129.787V131.019C378.745 131.019 380.527 131.74 381.876 132.863C383.235 133.996 384.191 135.569 384.858 137.324C386.197 140.848 386.321 144.957 386.321 147.235H387.552ZM376.356 164.682C379.073 164.682 381.182 163.873 382.795 162.556C384.398 161.247 385.473 159.468 386.19 157.583C387.618 153.826 387.673 149.516 387.551 147.202L386.321 147.267C386.44 149.522 386.375 153.628 385.038 157.145C384.372 158.896 383.403 160.469 382.016 161.602C380.638 162.727 378.81 163.451 376.356 163.451V164.682ZM331.632 124.286C332.789 124.286 333.721 125.045 333.91 126.176L335.125 125.973C334.832 124.219 333.361 123.054 331.632 123.054V124.286ZM325.14 127.181C325.971 126.141 328.206 124.748 331.713 124.281L331.551 123.06C327.844 123.554 325.27 125.046 324.178 126.411L325.14 127.181ZM315.041 124.526C318.266 124.526 321.525 125.681 324.348 127.328L324.969 126.264C322.022 124.545 318.548 123.295 315.041 123.295V124.526ZM298.344 138.338C298.344 134.604 300.382 131.16 303.524 128.628C306.666 126.097 310.859 124.526 315.041 124.526V123.295C310.565 123.295 306.102 124.97 302.752 127.669C299.402 130.367 297.112 134.136 297.112 138.338H298.344ZM305.971 149.827C301.521 147.251 298.344 143.096 298.344 138.338H297.112C297.112 143.679 300.667 148.18 305.354 150.893L305.971 149.827ZM305.422 151.217C305.59 151.217 305.757 151.173 305.903 151.076C306.045 150.981 306.132 150.859 306.184 150.756C306.234 150.655 306.256 150.562 306.267 150.499C306.272 150.466 306.275 150.438 306.277 150.415C306.278 150.403 306.278 150.393 306.278 150.384C306.278 150.379 306.279 150.375 306.279 150.371C306.279 150.369 306.279 150.367 306.279 150.366C306.279 150.365 306.279 150.364 306.279 150.363C306.279 150.363 306.279 150.362 306.279 150.362C306.279 150.362 306.279 150.361 306.279 150.361C306.279 150.361 306.279 150.36 305.663 150.36C305.047 150.36 305.047 150.36 305.047 150.36C305.047 150.36 305.047 150.359 305.047 150.359C305.047 150.359 305.047 150.358 305.047 150.358C305.047 150.357 305.047 150.356 305.047 150.356C305.047 150.354 305.047 150.353 305.047 150.351C305.047 150.348 305.047 150.345 305.047 150.343C305.048 150.337 305.048 150.332 305.048 150.327C305.049 150.317 305.05 150.307 305.052 150.297C305.055 150.279 305.062 150.246 305.082 150.205C305.104 150.162 305.145 150.101 305.22 150.051C305.298 149.999 305.375 149.985 305.422 149.985V151.217ZM304.782 151.846C305.155 151.576 305.513 151.317 305.807 151.082L305.038 150.12C304.772 150.333 304.44 150.573 304.06 150.849L304.782 151.846ZM304.801 151.832L304.801 151.832L304.041 150.863L304.04 150.864L304.801 151.832ZM301.389 154.994C301.707 154.436 302.229 153.879 302.853 153.336C303.473 152.795 304.158 152.299 304.782 151.846L304.059 150.849C303.442 151.296 302.712 151.825 302.044 152.407C301.379 152.986 300.738 153.65 300.319 154.383L301.389 154.994ZM301.366 158.675C300.998 158.124 300.549 156.675 301.405 154.964L300.303 154.413C299.235 156.549 299.747 158.467 300.341 159.358L301.366 158.675ZM316.243 162.967C312.152 162.606 308.792 162.308 306.242 161.69C303.681 161.07 302.118 160.168 301.405 158.741L300.303 159.292C301.269 161.225 303.301 162.245 305.952 162.887C308.612 163.532 312.08 163.836 316.135 164.194L316.243 162.967ZM316.297 162.972L316.243 162.967L316.135 164.194L316.189 164.199L316.297 162.972ZM318.013 163.216L316.33 162.976L316.156 164.195L317.839 164.436L318.013 163.216ZM328.4 171.04C328.4 167.703 325.12 163.951 317.989 163.213L317.863 164.438C324.679 165.144 327.169 168.605 327.169 171.04H328.4ZM316.002 179.109C319.599 179.109 322.668 178.118 324.855 176.628C327.026 175.15 328.4 173.12 328.4 171.04H327.169C327.169 172.566 326.139 174.263 324.162 175.61C322.201 176.946 319.379 177.878 316.002 177.878V179.109ZM305.155 174.618C305.752 175.481 306.55 176.64 308.192 177.557C309.823 178.468 312.228 179.109 316.002 179.109V177.878C312.359 177.878 310.182 177.258 308.792 176.482C307.413 175.712 306.75 174.758 306.169 173.918L305.155 174.618ZM305.157 174.62L305.157 174.621L306.166 173.915L306.166 173.914L305.157 174.62ZM304.921 174.283C304.996 174.388 305.073 174.498 305.155 174.618L306.168 173.917C306.087 173.799 306.005 173.681 305.924 173.567L304.921 174.283ZM304.566 172.001C304.566 172.124 304.566 172.504 304.598 172.92C304.614 173.128 304.639 173.354 304.678 173.567C304.715 173.77 304.773 174.003 304.872 174.2L305.973 173.65C305.952 173.607 305.919 173.509 305.889 173.344C305.861 173.189 305.84 173.009 305.826 172.826C305.798 172.46 305.798 172.119 305.798 172.001H304.566ZM302.583 168.498C303.256 168.722 303.97 169.095 304.405 169.626C304.8 170.109 305.01 170.773 304.61 171.773L305.754 172.23C306.316 170.825 306.045 169.685 305.358 168.846C304.71 168.055 303.741 167.586 302.972 167.329L302.583 168.498ZM299.241 169.632C299.766 168.58 301.044 168.288 302.69 168.523L302.865 167.304C301.144 167.058 299.056 167.247 298.139 169.081L299.241 169.632ZM299.443 175.988C298.136 174.028 298.13 171.631 299.228 169.655L298.151 169.057C296.844 171.41 296.839 174.303 298.418 176.671L299.443 175.988ZM316.483 182.446C304.871 182.446 300.768 178.195 299.458 176.013L298.402 176.646C299.978 179.273 304.531 183.678 316.483 183.678V182.446ZM316.964 182.446H316.483V183.678H316.964V182.446ZM333.902 171.254C333.681 176.565 327.843 182.446 316.964 182.446V183.678C328.207 183.678 334.873 177.537 335.133 171.306L333.902 171.254ZM320.064 158.67C325.711 158.906 329.2 160.721 331.257 163.088C333.323 165.464 334.018 168.482 333.902 171.254L335.133 171.306C335.258 168.307 334.51 164.953 332.187 162.28C329.856 159.597 326.011 157.685 320.116 157.44L320.064 158.67ZM313.934 158.458C315.585 158.506 317.601 158.565 320.064 158.67L320.116 157.44C317.645 157.335 315.621 157.275 313.97 157.227L313.934 158.458ZM306.249 156.131C306.249 156.582 306.337 157.049 306.691 157.429C307.024 157.786 307.509 157.971 308.064 158.088C309.167 158.321 311.014 158.373 313.934 158.458L313.97 157.227C310.979 157.139 309.283 157.087 308.319 156.883C307.842 156.783 307.663 156.666 307.592 156.589C307.54 156.533 307.481 156.432 307.481 156.131H306.249ZM315.762 151.909C314.598 151.909 312.308 152.286 310.313 152.93C309.313 153.253 308.344 153.657 307.611 154.141C306.915 154.601 306.249 155.258 306.249 156.131H307.481C307.481 155.923 307.657 155.588 308.291 155.169C308.888 154.773 309.738 154.411 310.691 154.102C312.603 153.485 314.762 153.14 315.762 153.14V151.909ZM331.257 138.097C331.257 141.729 329.441 145.057 326.569 147.551C323.697 150.046 319.799 151.677 315.727 151.91L315.797 153.139C320.141 152.891 324.298 151.155 327.377 148.481C330.457 145.806 332.488 142.16 332.488 138.097H331.257ZM328.071 130.357C330.119 132.405 331.257 135.134 331.257 138.097H332.488C332.488 134.809 331.222 131.767 328.941 129.486L328.071 130.357ZM332.045 128.108C329.835 128.353 328.701 128.856 328.071 129.486L328.941 130.357C329.273 130.026 330.063 129.567 332.181 129.332L332.045 128.108ZM333.902 126.075C333.902 126.67 333.7 127.249 333.381 127.637C333.074 128.01 332.681 128.19 332.214 128.112L332.012 129.327C332.988 129.49 333.797 129.069 334.332 128.42C334.854 127.786 335.133 126.921 335.133 126.075H333.902ZM304.085 138.578C304.085 143.949 308.911 149.293 314.8 149.293V148.061C309.628 148.061 305.317 143.307 305.317 138.578H304.085ZM315.281 128.104C312.33 128.104 309.539 129.448 307.492 131.4C305.45 133.348 304.085 135.964 304.085 138.578H305.317C305.317 136.383 306.477 134.07 308.342 132.291C310.203 130.516 312.702 129.335 315.281 129.335V128.104ZM325.515 138.578C325.515 133.229 321.19 128.104 315.281 128.104V129.335C320.433 129.335 324.283 133.829 324.283 138.578H325.515ZM314.8 149.293C320.689 149.293 325.515 143.949 325.515 138.578H324.283C324.283 143.307 319.972 148.061 314.8 148.061V149.293ZM431.796 113.331V105.877H430.564V113.331H431.796ZM415.129 99.112L430.758 113.78L431.601 112.882L415.972 98.2139L415.129 99.112ZM400.098 113.783L415.968 99.1152L415.132 98.2107L399.262 112.878L400.098 113.783ZM399.065 105.877V113.331H400.296V105.877H399.065ZM415.136 90.9937L399.266 105.421L400.095 106.332L415.965 91.905L415.136 90.9937ZM431.598 105.424L415.968 90.9968L415.133 91.9018L430.762 106.329L431.598 105.424Z" fill="white" mask="url(#path-2-outside-1_80_236)"/>
<defs>
<filter id="filter0_f_80_236" x="0.133942" y="0.821442" width="578.116" height="263.447" filterUnits="userSpaceOnUse" color-interpolation-filters="sRGB">
<feFlood flood-opacity="0" result="BackgroundImageFix"/>
<feBlend mode="normal" in="SourceGraphic" in2="BackgroundImageFix" result="shape"/>
<feGaussianBlur stdDeviation="33.433" result="effect1_foregroundBlur_80_236"/>
</filter>
<linearGradient id="paint0_linear_80_236" x1="8.10105" y1="179.296" x2="225.682" y2="-112.302" gradientUnits="userSpaceOnUse">
<stop stop-color="#71C3FE"/>
<stop offset="1" stop-color="#9780FD"/>
</linearGradient>
</defs>
</svg>
