<svg width="72" height="56" viewBox="0 0 72 56" fill="none" xmlns="http://www.w3.org/2000/svg">
<path d="M45.8485 53.721L29.328 55.7442L0.781006 30.8292L17.3015 28.806L45.8485 53.721Z" fill="url(#paint0_linear_33_278)"/>
<path d="M29.328 56C29.2666 56 29.2078 55.977 29.1592 55.9361L0.609627 31.0211C0.532894 30.9546 0.504755 30.8497 0.53289 30.7525C0.563583 30.6553 0.645435 30.5862 0.745187 30.5735L17.2657 28.5503C17.3373 28.5426 17.4089 28.5631 17.4652 28.6117L46.0147 53.5267C46.0915 53.5932 46.1196 53.698 46.0915 53.7952C46.0608 53.8924 45.9789 53.9615 45.8792 53.9743L29.3587 55.9975C29.3587 55.9975 29.3382 55.9975 29.328 55.9975V56ZM1.3795 31.0134L29.4099 55.4757L45.2474 53.5369L17.2171 29.0746L1.3795 31.0134Z" fill="#01118C"/>
<path d="M45.8519 53.7245L70.7651 25.176L42.2166 0.262789L17.3034 28.8113L45.8519 53.7245Z" fill="url(#paint1_linear_33_278)"/>
<path d="M45.8486 53.9768C45.7872 53.9768 45.7284 53.9538 45.6798 53.9129L17.1302 28.9979C17.0228 28.9058 17.0125 28.7447 17.1046 28.6372L42.0196 0.0876659C42.0631 0.0365109 42.1271 0.0058189 42.1961 0.000703409C42.2652 -0.00441208 42.3317 0.018609 42.3828 0.0620907L70.9324 24.9771C71.0398 25.0692 71.0501 25.2303 70.958 25.3377L46.043 53.8873C45.9995 53.9385 45.9355 53.9692 45.8665 53.9743C45.8614 53.9743 45.8537 53.9743 45.8486 53.9743V53.9768ZM17.6622 28.783L45.8256 53.3604L70.4029 25.1971L42.2396 0.619678L17.6622 28.783Z" fill="#01118C"/>
<path d="M42.214 0.25647L25.6935 2.27965L0.781006 30.8292L17.3015 28.806L42.214 0.25647Z" fill="url(#paint2_linear_33_278)"/>
<path d="M0.780874 31.0849C0.686237 31.0849 0.599273 31.0338 0.555791 30.9494C0.507194 30.8548 0.519984 30.7422 0.589043 30.6604L25.5041 2.11079C25.545 2.0622 25.6038 2.03406 25.6652 2.02639L42.1857 0.00321319C42.2906 -0.00957555 42.3929 0.0441343 42.4415 0.136213C42.4901 0.23085 42.4773 0.343392 42.4082 0.42524L17.4932 28.9748C17.4523 29.0234 17.3934 29.0515 17.3321 29.0618L0.811566 31.0849C0.811566 31.0849 0.791105 31.0849 0.780874 31.0849ZM25.8238 2.52259L1.41264 30.4941L17.1735 28.563L41.5846 0.591492L25.8238 2.52259Z" fill="#01118C"/>
<defs>
<linearGradient id="paint0_linear_33_278" x1="-5.19227" y1="51.9839" x2="38.004" y2="23.7132" gradientUnits="userSpaceOnUse">
<stop stop-color="#71C3FE"/>
<stop offset="1" stop-color="#9780FD"/>
</linearGradient>
<linearGradient id="paint1_linear_33_278" x1="49.5038" y1="-0.0433517" x2="33.1838" y2="45.4246" gradientUnits="userSpaceOnUse">
<stop stop-color="#71C3FE"/>
<stop offset="1" stop-color="#9780FD"/>
</linearGradient>
<linearGradient id="paint2_linear_33_278" x1="-4.71055" y1="26.5615" x2="39.5671" y2="3.08727" gradientUnits="userSpaceOnUse">
<stop stop-color="#71C3FE"/>
<stop offset="1" stop-color="#9780FD"/>
</linearGradient>
</defs>
</svg>
