<svg width="112" height="72" viewBox="0 0 112 72" fill="none" xmlns="http://www.w3.org/2000/svg">
<path d="M66.8732 2.78428L93.703 0.40332L111.102 32.4657L84.2678 34.8466L66.8732 2.78428Z" fill="url(#paint0_linear_33_268)"/>
<path d="M84.2678 35.2489C84.123 35.2489 83.9862 35.1684 83.9138 35.0397L66.5192 2.97738C66.4549 2.85673 66.4549 2.71596 66.5192 2.5953C66.5836 2.47464 66.7042 2.39822 66.837 2.38615L93.6708 0.00118931C93.8357 -0.0108763 93.9845 0.0695689 94.061 0.210334L111.456 32.2727C111.52 32.3933 111.52 32.5341 111.456 32.6547C111.391 32.7754 111.271 32.8518 111.138 32.8639L84.3039 35.2489C84.3039 35.2489 84.2798 35.2489 84.2678 35.2489ZM67.5166 3.13021L84.4929 34.4203L110.454 32.1158L93.4778 0.825667L67.5166 3.13021Z" fill="#01118C"/>
<path d="M66.4716 2.99996L0 39.061L17.3929 71.1214L83.8644 35.0603L66.4716 2.99996Z" fill="url(#paint1_linear_33_268)"/>
<path d="M17.7984 71.3129C17.6536 71.3129 17.5169 71.2365 17.4445 71.1038L0.0498772 39.0414C-0.00240713 38.9489 -0.014406 38.8363 0.017769 38.7358C0.0499439 38.6352 0.118308 38.5468 0.210811 38.4985L66.6802 2.43438C66.8773 2.32981 67.1186 2.40222 67.2272 2.59527L84.6217 34.6576C84.674 34.7501 84.6861 34.8627 84.6539 34.9633C84.6218 35.0638 84.5534 35.1523 84.4609 35.2006L17.9915 71.2646C17.9311 71.2968 17.8668 71.3129 17.7984 71.3129ZM0.946746 39.0093L17.9593 70.3638L83.7208 34.6857L66.7083 3.33127L0.946746 39.0093Z" fill="#01118C"/>
<path d="M17.7944 70.9107L44.6283 68.5258L111.102 32.4657L84.2679 34.8466L17.7944 70.9107Z" fill="url(#paint2_linear_33_268)"/>
<path d="M17.7944 71.3129C17.6175 71.3129 17.4606 71.1963 17.4083 71.0273C17.352 70.8464 17.4325 70.6493 17.6014 70.5568L84.0708 34.4927C84.1191 34.4645 84.1713 34.4484 84.2276 34.4444L111.062 32.0595C111.251 32.0434 111.428 32.16 111.484 32.345C111.54 32.526 111.46 32.7231 111.291 32.8156L44.8214 68.8797C44.7731 68.9078 44.7209 68.9239 44.6646 68.9279L17.8306 71.3129C17.8306 71.3129 17.8065 71.3129 17.7944 71.3129ZM84.3844 35.2407L19.6927 70.3396L44.5076 68.1356L109.199 33.0368L84.3844 35.2407Z" fill="#01118C"/>
<defs>
<linearGradient id="paint0_linear_33_268" x1="61.0111" y1="30.0386" x2="109.361" y2="5.75102" gradientUnits="userSpaceOnUse">
<stop stop-color="#71C3FE"/>
<stop offset="1" stop-color="#9780FD"/>
</linearGradient>
<linearGradient id="paint1_linear_33_268" x1="6.15475" y1="71.4255" x2="36.8931" y2="-2.8742" gradientUnits="userSpaceOnUse">
<stop stop-color="#71C3FE"/>
<stop offset="1" stop-color="#9780FD"/>
</linearGradient>
<linearGradient id="paint2_linear_33_268" x1="5.42741" y1="65.5441" x2="72.6078" y2="1.75986" gradientUnits="userSpaceOnUse">
<stop stop-color="#71C3FE"/>
<stop offset="1" stop-color="#9780FD"/>
</linearGradient>
</defs>
</svg>
