<svg width="153" height="48" viewBox="0 0 153 48" fill="none" xmlns="http://www.w3.org/2000/svg">
<path d="M39.0769 6.16811C39.0769 6.16811 39.0769 6.16811 39.0674 6.15833C39.0293 6.11431 38.9866 6.08007 38.9438 6.04094C37.0905 4.36317 35.0375 3.01802 32.7708 2.00549C30.9602 1.1984 29.0831 0.640779 27.1347 0.317944C26.1843 0.161418 25.2291 0.0733717 24.2692 0.0342401C24.1932 0.0342401 24.1171 0.0146743 24.0411 0H22.8531C22.7533 0.0146743 22.663 0.0342401 22.5632 0.0391316C21.5795 0.0782631 20.6053 0.180983 19.6359 0.342401C17.4071 0.719042 15.2734 1.40874 13.2442 2.42616C7.40384 5.34635 3.03662 10.546 1.08824 16.8951C0.6653 18.2695 0.370667 19.6685 0.209094 21.1066C0.156821 21.5957 0.123556 22.0898 0.0760343 22.574C0.0570257 22.7697 0.0285129 22.9604 0 23.1512V24.8877C0.0237607 25.0638 0.0617779 25.2447 0.0712821 25.4208C0.632035 35.4385 7.29454 43.9888 16.5232 46.9285C17.8681 47.359 19.2414 47.6622 20.6386 47.8188C21.1375 47.8775 21.6365 47.9166 22.1355 47.9557C22.202 47.9606 22.2733 47.9802 22.3398 47.9949H24.5448C24.6113 47.9851 24.6826 47.9655 24.7539 47.9557C26.018 47.8921 27.2678 47.7112 28.5034 47.4323C32.4524 46.5323 35.9357 44.6834 38.9676 41.949C39.0151 41.9099 39.0531 41.8659 39.0769 41.8414C37.9364 40.6773 36.8101 39.518 35.6743 38.3636C31.7823 41.7289 27.2821 43.3676 22.164 43.0007C17.0317 42.6289 12.7548 40.4131 9.38548 36.4462C3.23621 29.2068 3.3265 18.3967 9.6516 11.2552C12.845 7.65022 16.8226 5.55179 21.5557 5.06265C26.8971 4.5148 31.6018 6.13876 35.6696 9.64593C36.8053 8.48177 37.9364 7.32249 39.0674 6.16322L39.0769 6.16811ZM50.3537 24.0219C50.3442 28.0084 47.1555 31.2661 43.2588 31.2612C39.3477 31.2563 36.1638 27.984 36.1781 23.9828C36.1923 19.9816 39.3715 16.7434 43.273 16.7483C47.1888 16.7532 50.3632 20.0109 50.3537 24.0219ZM55.1819 24.0121C55.1819 17.1347 49.7122 11.7982 43.273 11.7933C36.7911 11.7933 31.3594 17.1739 31.3451 23.9974C31.3309 30.7232 36.6913 36.2163 43.254 36.2163C49.8167 36.2163 55.1771 30.8259 55.1819 24.017V24.0121ZM77.9019 44.2529C81.1001 41.1175 82.5067 37.2679 82.1503 32.758C82.0267 31.2221 81.6228 29.7498 80.9908 28.3557C79.5176 25.1176 77.1843 22.7697 73.9909 21.3414C72.1138 20.5049 70.2224 19.7076 68.3358 18.8957C67.0765 18.3527 65.8599 17.7364 64.7432 16.9146C63.9401 16.3179 63.2843 15.589 62.8613 14.6646C62.2531 13.3439 62.1057 11.9547 62.3434 10.5362C62.6285 8.81928 63.4221 7.3763 64.7432 6.2904C66.8009 4.59796 69.0629 4.28001 71.4912 5.39037C73.7247 6.58878 74.9793 8.47688 75.3072 11.0302C75.3357 11.265 75.3452 11.4998 75.3642 11.7346C75.5876 11.7835 80.0166 11.7737 80.1686 11.7297C80.1686 11.7101 80.1782 11.6857 80.1782 11.6661C80.1782 11.6074 80.1782 11.5487 80.1782 11.49C80.1639 10.5704 80.0356 9.6655 79.8075 8.77036C78.6147 4.08436 74.6704 0.567408 69.9515 0.0831546C69.7567 0.0635888 69.5619 0.0342401 69.367 0.00978289H68.2218C68.1457 0.0244572 68.0697 0.044023 67.9937 0.0538059C67.604 0.10272 67.2048 0.132069 66.8151 0.200549C64.6719 0.596756 62.7758 1.53102 61.1696 3.03759C58.8315 5.22895 57.5865 7.95838 57.4201 11.1965C57.3679 12.2335 57.4582 13.2656 57.6625 14.283C58.133 16.5967 59.2164 18.5484 60.9415 20.1185C62.0155 21.0968 63.2273 21.8648 64.5008 22.5349C65.5938 23.1121 66.7391 23.5719 67.8701 24.061C69.3623 24.7018 70.8639 25.3181 72.3324 26.0078C75.9535 27.71 77.9779 31.7357 77.2413 35.7516C76.7899 38.2071 75.5638 40.193 73.5774 41.6409C71.3772 43.2404 68.9393 43.7002 66.3304 42.9224C63.2795 42.0224 60.8702 39.3028 60.1621 36.0451C60.1336 35.9081 60.1051 35.7711 60.0766 35.6293H55.2056C55.2104 35.7076 55.2056 35.776 55.2199 35.8347C55.2817 36.2212 55.334 36.6076 55.4195 36.9891C56.2083 40.6479 58.1282 43.5339 61.1458 45.6421C62.9754 46.9139 65.0093 47.6622 67.2095 47.9068C67.4329 47.9264 67.6562 47.9557 67.8844 47.9851H69.4953C69.5619 47.9704 69.6284 47.9557 69.6997 47.9411C70.2604 47.8628 70.8259 47.8188 71.3772 47.7014C73.8721 47.178 76.0723 46.0432 77.9114 44.2382L77.9019 44.2529ZM102.038 11.5732C102.043 10.453 102.052 9.32799 102.033 8.20784C102.029 7.72848 101.986 7.23934 101.905 6.76487C101.591 4.98438 100.779 3.47293 99.4909 2.23539C98.2505 1.04677 96.7821 0.327727 95.0904 0.088046C94.924 0.0684802 94.753 0.0391316 94.5914 0.00978289H93.4461C93.2275 0.044023 93.0137 0.0684802 92.7951 0.107612C90.7136 0.459796 89.0029 1.47722 87.696 3.17944C86.5508 4.66644 85.9995 6.36377 85.9853 8.25187C85.9805 8.9758 85.9853 9.69974 85.9853 10.4188C85.9853 11.309 86.0328 12.1993 86.1468 13.0846C86.3179 14.4395 86.6411 15.7553 87.1495 17.0173C87.7911 18.5973 88.7035 20.0011 89.7965 21.2876C90.6091 22.2463 91.493 23.1268 92.3817 24.0072C93.161 24.7801 93.9261 25.5578 94.6152 26.4138C95.7557 27.8323 96.5398 29.4172 96.9057 31.2172C97.11 32.2346 97.2003 33.2618 97.2051 34.3037C97.2098 35.8249 97.2098 37.356 97.2003 38.8821C97.2003 39.2734 97.1813 39.6647 97.129 40.0463C97.034 40.78 96.8011 41.455 96.3735 42.0518C95.3185 43.5143 93.3178 43.7148 92.0347 42.4871C91.6546 42.1251 91.3837 41.6849 91.1936 41.2006C90.9227 40.5109 90.823 39.7919 90.823 39.0533V30.9482C90.4523 30.8944 86.1421 30.9139 85.9853 30.9677V39.7088C85.9853 40.3544 86.0565 40.9952 86.1896 41.6213C86.8787 44.7861 89.4401 47.3003 92.5622 47.8726C92.8141 47.9166 93.066 47.9557 93.3131 47.9998H94.7957C94.848 47.9851 94.905 47.9606 94.9573 47.9557C95.4515 47.9117 95.9362 47.8286 96.4115 47.6867C99.2723 46.8209 101.083 44.9279 101.796 41.9539C101.976 41.2055 102.033 40.4425 102.038 39.6745V34.7635C102.038 33.751 101.995 32.7384 101.876 31.7308C101.729 30.4737 101.458 29.2411 101.045 28.0427C100.332 25.998 99.201 24.2127 97.7896 22.6034C96.7441 21.4147 95.6131 20.3142 94.4726 19.2185C93.812 18.5875 93.1562 17.9516 92.5622 17.2521C91.1699 15.6282 90.4808 13.7303 90.4238 11.5829C90.4 10.634 90.4048 9.68506 90.4048 8.74101C90.4048 8.11491 90.4903 7.49859 90.7184 6.9165C91.1033 5.89908 91.7639 5.15069 92.7951 4.8034C93.5412 4.55394 94.2968 4.56372 95.0476 4.78383C95.7937 4.99906 96.3497 5.46374 96.7013 6.16811C96.8059 6.37355 96.8867 6.58878 96.958 6.80889C97.1338 7.37141 97.1908 7.95349 97.1908 8.54046C97.1956 9.53343 97.1956 10.5215 97.1956 11.5145C97.1956 11.5976 97.2003 11.6808 97.2051 11.759H102.019C102.019 11.6906 102.024 11.6319 102.024 11.5781L102.038 11.5732ZM138.687 30.8846H117.145C120.742 24.1784 124.321 17.5016 127.923 10.7807C131.52 17.5016 135.099 24.1784 138.691 30.8846H138.687ZM153 47.9117C152.952 47.8237 152.895 47.7258 152.853 47.628C150.576 43.2795 148.295 38.9261 146.019 34.5727C143.505 29.7596 140.982 24.9513 138.463 20.1381C136.444 16.2787 134.424 12.4194 132.399 8.55514C130.988 5.85995 129.581 3.16476 128.165 0.47447C128.085 0.322835 128.018 0.166309 127.942 0.00978289H127.899C127.875 0.0733717 127.852 0.146743 127.823 0.205441C127.205 1.37939 126.592 2.55333 125.979 3.72239C121.736 11.8226 117.492 19.918 113.244 28.0182C109.794 34.6021 106.339 41.1958 102.884 47.7845C102.846 47.8481 102.827 47.9264 102.798 47.9998H108.354C108.382 47.9313 108.396 47.8628 108.43 47.8041C110.492 43.8029 112.559 39.7919 114.612 35.7907C114.683 35.6537 114.769 35.6146 114.907 35.6146H141.11C141.153 35.6929 141.191 35.7614 141.224 35.8298C143.268 39.8017 145.311 43.7735 147.354 47.7503C147.397 47.8286 147.44 47.9166 147.483 47.9998H152.805C152.853 47.9998 152.905 47.9949 152.952 47.9998C153.038 48.0046 152.976 47.9362 152.995 47.9117" fill="white"/>
</svg>
