<svg width="149" height="29" viewBox="0 0 149 29" fill="none" xmlns="http://www.w3.org/2000/svg">
<path fill-rule="evenodd" clip-rule="evenodd" d="M73.6825 22.2914L76.6764 13.0886L79.735 22.2914H83.9204L89.1355 6.36914H84.7253L81.8277 15.3172L78.8661 6.36914H74.4879L71.5898 15.3172L68.6282 6.36914H64.25L69.4979 22.2914H73.6825Z" fill="white"/>
<path fill-rule="evenodd" clip-rule="evenodd" d="M99.2798 5.8916C94.5802 5.8916 90.7485 9.68105 90.7485 14.3304C90.7485 18.9801 94.5802 22.7695 99.2798 22.7695C103.98 22.7695 107.811 18.9801 107.811 14.3304C107.812 9.68105 103.981 5.8916 99.2798 5.8916ZM99.2798 18.6292C96.8653 18.6292 94.9339 16.7191 94.9339 14.3304C94.9339 11.942 96.8657 10.0311 99.2798 10.0311C101.694 10.0311 103.626 11.942 103.626 14.3304C103.627 16.7191 101.695 18.6292 99.2798 18.6292Z" fill="white"/>
<path fill-rule="evenodd" clip-rule="evenodd" d="M119.886 10.0311V5.8916C118.277 5.8916 116.795 6.33708 115.54 7.10152V6.36943H111.355V22.2917H115.54V14.3303C115.54 11.942 117.472 10.0311 119.886 10.0311Z" fill="white"/>
<path d="M127.616 0H123.431V22.2921H127.616V0Z" fill="white"/>
<path fill-rule="evenodd" clip-rule="evenodd" d="M144.035 0.000488281V7.10157C142.78 6.33713 141.299 5.89165 139.689 5.89165C134.989 5.89165 131.158 9.68111 131.158 14.3304C131.158 18.9801 134.989 22.7696 139.689 22.7696C141.299 22.7696 142.78 22.3237 144.035 21.5916V22.2917H148.22V0.000488281H144.035ZM139.688 18.6296C137.274 18.6296 135.342 16.7191 135.342 14.3304C135.342 11.9421 137.274 10.0312 139.688 10.0312C142.102 10.0312 144.034 11.9421 144.034 14.3304C144.035 16.7191 142.103 18.6296 139.688 18.6296Z" fill="white"/>
<path fill-rule="evenodd" clip-rule="evenodd" d="M8.53133 5.8916C6.92109 5.8916 5.43999 6.33708 4.18543 7.06999V6.36943H0V28.6611H4.18543V21.5596C5.4406 22.3236 6.92166 22.7695 8.53133 22.7695C13.231 22.7695 17.0626 18.9801 17.0626 14.3304C17.0626 9.68105 13.231 5.8916 8.53133 5.8916ZM8.53133 18.6292C6.11656 18.6292 4.18543 16.7191 4.18543 14.3304C4.18543 11.942 6.11713 10.0311 8.53133 10.0311C10.9455 10.0311 12.8772 11.942 12.8772 14.3304C12.878 16.7191 10.9461 18.6292 8.53133 18.6292Z" fill="white"/>
<path fill-rule="evenodd" clip-rule="evenodd" d="M29.1392 5.8916C27.5297 5.8916 26.0487 6.33708 24.7929 7.06999V6.36943H20.6079V28.6611H24.7929V21.5596C26.0491 22.3236 27.5301 22.7695 29.1392 22.7695C33.8397 22.7695 37.6701 18.9801 37.6701 14.3304C37.6701 9.68105 33.8397 5.8916 29.1392 5.8916ZM29.1392 18.6292C26.7247 18.6292 24.7929 16.7191 24.7929 14.3304C24.7929 11.942 26.7251 10.0311 29.1392 10.0311C31.5533 10.0311 33.4851 11.942 33.4851 14.3304C33.4851 16.7191 31.5533 18.6292 29.1392 18.6292Z" fill="white"/>
<path fill-rule="evenodd" clip-rule="evenodd" d="M52.807 15.6785C52.5237 16.7222 51.8174 17.6774 50.7868 18.2662C48.6957 19.461 46.0564 18.7612 44.8498 16.6923C43.6415 14.6246 44.349 12.0143 46.4397 10.8204C47.4715 10.2308 48.6597 10.1034 49.7325 10.4109L50.8159 6.40856C48.7056 5.84884 46.3819 6.07199 44.3466 7.23483C40.2762 9.55969 38.8739 14.7364 41.2245 18.7633C43.5752 22.789 48.8075 24.1762 52.8783 21.8518C54.9141 20.6893 56.2869 18.8386 56.8528 16.7508L52.807 15.6785Z" fill="white"/>
<path fill-rule="evenodd" clip-rule="evenodd" d="M58.0605 11.4047C59.5747 11.4047 60.8022 10.1886 60.8022 8.68838C60.8022 7.18815 59.5747 5.97168 58.0605 5.97168C56.5464 5.97168 55.3188 7.18815 55.3188 8.68838C55.3188 10.1886 56.5464 11.4047 58.0605 11.4047Z" fill="white"/>
</svg>
