<svg width="48" height="39" viewBox="0 0 48 39" fill="none" xmlns="http://www.w3.org/2000/svg">
<path d="M48 0H35.5931L23.8978 11.3787L12.421 0H0V39H10.7442L23.9753 29.611L37.2488 39H48V0ZM13.4003 21.4241L9.31396 36.7132H2.33201V4.89832L13.4003 21.4241ZM15.2321 23.5105L21.9674 28.2085L12.1532 35.1518L15.2391 23.5105H15.2321ZM11.4417 2.2868L32.6975 23.3931L35.8468 35.1725L16.0916 21.3343L3.36768 2.2868H11.4417ZM45.675 4.90523V36.7132H38.7001L34.5997 21.4655L45.668 4.90523H45.675ZM25.5394 13.0023L36.5513 2.2868H44.6323L32.6975 20.1045L25.5324 13.0023H25.5394Z" fill="white"/>
</svg>
