<svg width="982" height="84" viewBox="0 0 982 84" fill="none" xmlns="http://www.w3.org/2000/svg">
<path d="M37.9038 46.592H36.3496L12.6712 0.783447H0V68.5583H12.6712V30.8914H14.1888L30.1329 61.7098H44.1388L60.0829 30.8914H61.6371V68.5583H74.2717V0.783447H61.6371L37.9038 46.592Z" fill="white"/>
<path d="M153.297 22.0212V18.688H140.663V68.5583H153.297V31.3104H171.929V18.688H158.838L153.297 22.0212Z" fill="white"/>
<path d="M226.929 18.688H211.79L198.643 37.4121H191.585V0.783447H178.914V68.5583H191.585V49.9799H198.643L211.79 68.5583H226.929L209.76 43.696L226.929 18.688Z" fill="white"/>
<path d="M296.062 0.255127H283.446V68.0482H309.41V55.4804H296.062V30.8003H309.41V18.1779H296.062V0.255127Z" fill="white"/>
<path d="M330.822 18.1777H318.151V68.0481H330.822V18.1777Z" fill="white"/>
<path d="M118.557 21.9665C114.9 19.8901 110.695 18.688 106.197 18.688C92.3737 18.688 81.1653 29.8533 81.1653 43.6232C81.1653 57.3931 92.3737 68.5583 106.197 68.5583C110.695 68.5583 114.9 67.3562 118.557 65.2798V68.5583H131.228V18.688H118.557V21.9665ZM106.197 55.9541C99.3767 55.9541 93.8365 50.4353 93.8365 43.6414C93.8365 36.8475 99.3767 31.3286 106.197 31.3286C113.017 31.3286 118.557 36.8475 118.557 43.6414C118.557 50.4353 113.017 55.9541 106.197 55.9541Z" fill="white"/>
<path d="M427.346 18.1777V21.4563C423.689 19.3799 419.483 18.1777 414.985 18.1777C401.162 18.1777 389.954 29.343 389.954 43.1129C389.954 56.8828 401.162 68.0481 414.985 68.0481C419.483 68.0481 423.707 66.8459 427.346 64.7695V70.9259H402.625V83.5483H440.017V18.1777H427.346ZM414.985 55.4257C408.165 55.4257 402.625 49.9068 402.625 43.1129C402.625 36.319 408.165 30.8001 414.985 30.8001C421.806 30.8001 427.346 36.319 427.346 43.1129C427.346 49.9068 421.806 55.4257 414.985 55.4257Z" fill="white"/>
<path d="M330.822 0.255127H318.151V8.97971H330.822V0.255127Z" fill="white"/>
<path d="M357.023 18.1777L351.483 21.4927V18.1777H338.848V68.0481H351.465V30.8001H366.568C369.493 30.8001 371.87 33.168 371.87 36.0822V68.0481H384.487V34.8983C384.487 25.6637 376.972 18.1777 367.701 18.1777H357.005H357.023Z" fill="white"/>
<path d="M277.76 47.6485V43.6232C277.76 29.234 267.466 18.688 252.436 18.688C237.406 18.688 226.819 29.234 226.819 43.6232C226.819 58.0123 237.351 68.4855 252.29 68.5583H263.334V55.7174H252.527C252.527 55.7174 252.472 55.7174 252.436 55.7174C247.243 55.7174 243.001 53.222 241.849 47.6667H277.76V47.6485ZM252.436 31.529C257.446 31.529 261.286 33.6418 262.931 38.5232H242.142C243.586 33.7329 247.444 31.529 252.454 31.529H252.436Z" fill="white"/>
<path d="M510.582 46.243H508.998L485.064 0H472.287V68.4382H485.064V30.3941H486.613L502.73 61.5086H516.849L532.966 30.3941H534.55V68.4382H547.292V0H534.55L510.582 46.243Z" fill="url(#paint0_linear_189_43)"/>
<path d="M678.947 18.0787V21.372C675.262 19.2794 670.991 18.0787 666.446 18.0787C652.499 18.0787 641.169 29.365 641.169 43.2585C641.169 57.152 652.499 68.4383 666.446 68.4383C670.991 68.4383 675.262 67.2376 678.947 65.145V68.4383H691.757V18.0787H678.947ZM666.446 55.7112C659.558 55.7112 653.945 50.1538 653.945 43.2585C653.945 36.3632 659.524 30.8058 666.446 30.8058C673.368 30.8058 678.947 36.3632 678.947 43.2585C678.947 50.1538 673.368 55.7112 666.446 55.7112Z" fill="url(#paint1_linear_189_43)"/>
<path d="M623.226 0H610.485V68.4382H636.691V55.7454H623.226V30.8401H636.691V18.0787H623.226V0Z" fill="url(#paint2_linear_189_43)"/>
<path d="M786.804 18.0787C780.192 18.0787 774.235 20.6173 769.723 24.7339C767.485 26.7922 765.625 29.2278 764.248 31.9379C762.526 35.3341 761.527 39.1762 761.527 43.2585C761.527 47.3408 762.526 51.1486 764.248 54.5791C765.625 57.3235 767.485 59.7591 769.723 61.7831C774.235 65.8997 780.227 68.4383 786.804 68.4383C800.751 68.4383 812.081 57.152 812.081 43.2585C812.081 29.365 800.751 18.0787 786.804 18.0787ZM786.804 55.7112C783.739 55.7112 780.95 54.6134 778.78 52.7952C776.06 50.4968 774.338 47.1006 774.338 43.2928C774.338 39.485 776.06 36.0545 778.78 33.7903C780.95 31.9722 783.739 30.8744 786.804 30.8744C793.692 30.8744 799.305 36.4318 799.305 43.3271C799.305 50.2224 793.726 55.7798 786.804 55.7798V55.7112Z" fill="url(#paint3_linear_189_43)"/>
<path d="M750.989 49.8448C746.96 53.5841 741.76 55.6767 736.285 55.6767C724.404 55.6767 714.761 46.0713 714.761 34.2361C714.761 22.401 724.404 12.7956 736.285 12.7956C742.277 12.7956 747.821 15.1969 751.954 19.5879L752.436 20.1025L761.527 11.046L761.079 10.5658C754.536 3.77341 745.72 0.0341797 736.285 0.0341797C717.344 0.0341797 701.916 15.4028 701.916 34.2704C701.916 53.1381 717.344 68.5067 736.285 68.5067C745.204 68.5067 753.641 65.1105 760.081 58.9699L760.563 58.4897L751.471 49.4332L750.989 49.8791V49.8448Z" fill="url(#paint4_linear_189_43)"/>
<path d="M834.431 18.0786L828.852 21.4405V18.0786H816.11V68.4382H828.852V30.8057H844.108C847.07 30.8057 849.446 33.207 849.446 36.123V68.4038H862.188V34.9223C862.188 25.5914 854.611 18.0443 845.244 18.0443H834.431V18.0786Z" fill="url(#paint5_linear_189_43)"/>
<path d="M900 12.6928V0H873.793V18.8334H867.629V31.3204H873.793V68.4382H886.535V31.5605H900V31.3204V18.8334H886.535V12.6928H900Z" fill="url(#paint6_linear_189_43)"/>
<path d="M605.25 47.3408V43.2585C605.25 28.7132 594.85 18.0787 579.663 18.0787C564.477 18.0787 553.801 28.7475 553.801 43.2585C553.801 57.7694 564.442 68.3697 579.526 68.4383H590.683V55.471H579.698C574.463 55.471 570.159 52.9668 568.988 47.3408H605.25ZM579.663 31.0803C584.726 31.0803 588.617 33.2072 590.27 38.1471H569.263C570.71 33.3101 574.601 31.0803 579.663 31.0803Z" fill="url(#paint7_linear_189_43)"/>
<path d="M919.13 78.46V74.49L926.94 67.51C927.27 67.2 927.51 66.9 927.67 66.62C927.83 66.34 927.9 65.95 927.9 65.46C927.9 64.89 927.68 64.41 927.24 64.01C926.8 63.61 926.24 63.41 925.57 63.41C924.86 63.41 924.29 63.63 923.87 64.07C923.45 64.51 923.24 65.11 923.24 65.88H918.86C918.86 63.84 919.49 62.18 920.75 60.92C922.01 59.66 923.66 59.03 925.71 59.03C927.76 59.03 929.36 59.63 930.59 60.84C931.82 62.05 932.43 63.59 932.43 65.47C932.43 66.66 932.17 67.65 931.64 68.44C931.11 69.23 930.28 70.12 929.15 71.08L925.73 74.09V74.23H932.58V78.48H919.13V78.46Z" fill="white"/>
<path d="M948.18 75.86C946.68 77.6 944.77 78.47 942.47 78.47C940.17 78.47 938.26 77.6 936.76 75.86C935.26 74.12 934.5 71.75 934.5 68.74C934.5 65.73 935.25 63.36 936.76 61.62C938.26 59.88 940.17 59.01 942.47 59.01C944.77 59.01 946.68 59.88 948.18 61.62C949.68 63.36 950.44 65.73 950.44 68.74C950.44 71.75 949.69 74.12 948.18 75.86ZM942.47 74.28C943.48 74.28 944.34 73.8 945.05 72.85C945.76 71.9 946.12 70.53 946.12 68.74C946.12 66.95 945.76 65.59 945.05 64.63C944.34 63.67 943.48 63.2 942.47 63.2C941.46 63.2 940.58 63.68 939.88 64.63C939.18 65.58 938.83 66.95 938.83 68.74C938.83 70.53 939.18 71.89 939.88 72.85C940.58 73.8 941.45 74.28 942.47 74.28Z" fill="white"/>
<path d="M952.43 78.46V74.49L960.24 67.51C960.57 67.2 960.81 66.9 960.97 66.62C961.13 66.34 961.2 65.95 961.2 65.46C961.2 64.89 960.98 64.41 960.54 64.01C960.1 63.61 959.54 63.41 958.87 63.41C958.16 63.41 957.59 63.63 957.17 64.07C956.75 64.51 956.54 65.11 956.54 65.88H952.16C952.16 63.84 952.79 62.18 954.05 60.92C955.31 59.66 956.96 59.03 959.01 59.03C961.06 59.03 962.66 59.63 963.89 60.84C965.12 62.05 965.73 63.59 965.73 65.47C965.73 66.66 965.47 67.65 964.94 68.44C964.41 69.23 963.58 70.12 962.45 71.08L959.03 74.09V74.23H965.88V78.48H952.46L952.43 78.46Z" fill="white"/>
<path d="M968.31 78.46V74.49L976.12 67.51C976.45 67.2 976.69 66.9 976.85 66.62C977.01 66.34 977.08 65.95 977.08 65.46C977.08 64.89 976.86 64.41 976.42 64.01C975.98 63.61 975.42 63.41 974.75 63.41C974.04 63.41 973.47 63.63 973.05 64.07C972.63 64.51 972.42 65.11 972.42 65.88H968.04C968.04 63.84 968.67 62.18 969.93 60.92C971.19 59.66 972.84 59.03 974.89 59.03C976.94 59.03 978.54 59.63 979.77 60.84C981 62.05 981.61 63.59 981.61 65.47C981.61 66.66 981.35 67.65 980.82 68.44C980.29 69.23 979.46 70.12 978.33 71.08L974.91 74.09V74.23H981.76V78.48H968.34L968.31 78.46Z" fill="white"/>
<path d="M906 81.47L913.53 56H917.64L910.11 81.47H906Z" fill="white"/>
<defs>
<linearGradient id="paint0_linear_189_43" x1="186.285" y1="34.202" x2="1294.58" y2="34.202" gradientUnits="userSpaceOnUse">
<stop stop-color="#54F6FF"/>
<stop offset="1" stop-color="#B943FC"/>
</linearGradient>
<linearGradient id="paint1_linear_189_43" x1="186.286" y1="43.2585" x2="1294.58" y2="43.2585" gradientUnits="userSpaceOnUse">
<stop stop-color="#54F6FF"/>
<stop offset="1" stop-color="#B943FC"/>
</linearGradient>
<linearGradient id="paint2_linear_189_43" x1="186.285" y1="-238.385" x2="1294.58" y2="-238.385" gradientUnits="userSpaceOnUse">
<stop stop-color="#54F6FF"/>
<stop offset="1" stop-color="#B943FC"/>
</linearGradient>
<linearGradient id="paint3_linear_189_43" x1="186.285" y1="43.2585" x2="1294.58" y2="43.2585" gradientUnits="userSpaceOnUse">
<stop stop-color="#54F6FF"/>
<stop offset="1" stop-color="#B943FC"/>
</linearGradient>
<linearGradient id="paint4_linear_189_43" x1="192.656" y1="-238.385" x2="1294.58" y2="-238.385" gradientUnits="userSpaceOnUse">
<stop stop-color="#54F6FF"/>
<stop offset="1" stop-color="#B943FC"/>
</linearGradient>
<linearGradient id="paint5_linear_189_43" x1="192.656" y1="43.2584" x2="1294.58" y2="43.2584" gradientUnits="userSpaceOnUse">
<stop stop-color="#54F6FF"/>
<stop offset="1" stop-color="#B943FC"/>
</linearGradient>
<linearGradient id="paint6_linear_189_43" x1="186.286" y1="-238.385" x2="1294.58" y2="-238.385" gradientUnits="userSpaceOnUse">
<stop stop-color="#54F6FF"/>
<stop offset="1" stop-color="#B943FC"/>
</linearGradient>
<linearGradient id="paint7_linear_189_43" x1="192.656" y1="43.2585" x2="1294.58" y2="43.2585" gradientUnits="userSpaceOnUse">
<stop stop-color="#54F6FF"/>
<stop offset="1" stop-color="#B943FC"/>
</linearGradient>
</defs>
</svg>
