<svg width="1376" height="810" viewBox="0 0 1376 810" fill="none" xmlns="http://www.w3.org/2000/svg">
<path fill-rule="evenodd" clip-rule="evenodd" d="M1376 0H0V810H1376V0ZM472.721 535.844C488.889 544.59 507.442 548.964 528.381 548.964C549.32 548.964 567.807 544.59 583.842 535.844C600.01 526.965 612.467 514.508 621.213 498.472C630.092 482.305 634.532 463.751 634.532 442.813V356.938C634.532 335.999 630.092 317.512 621.213 301.477C612.467 285.309 600.01 272.852 583.842 264.106C567.807 255.227 549.32 250.787 528.381 250.787C507.442 250.787 488.889 255.227 472.721 264.106C456.686 272.852 444.229 285.309 435.35 301.477C426.603 317.512 422.23 335.999 422.23 356.938V442.813C422.23 463.751 426.603 482.305 435.35 498.472C444.229 514.508 456.686 526.965 472.721 535.844ZM554.024 490.919C546.338 495.424 537.79 497.677 528.381 497.677C518.972 497.677 510.358 495.424 502.539 490.919C494.853 486.413 488.757 480.317 484.251 472.63C479.745 464.811 477.492 456.198 477.492 446.788V352.565C477.492 343.155 479.745 334.608 484.251 326.921C488.757 319.103 494.853 312.94 502.539 308.435C510.358 303.929 518.972 301.676 528.381 301.676C537.79 301.676 546.338 303.929 554.024 308.435C561.843 312.94 568.005 319.103 572.511 326.921C577.017 334.608 579.27 343.155 579.27 352.565V446.788C579.27 456.198 577.017 464.811 572.511 472.63C568.005 480.317 561.843 486.413 554.024 490.919ZM281.451 348.589L335.123 315.591V543H390.385V256.751H335.123L281.451 288.954V348.589ZM752.541 548.964C731.602 548.964 713.049 544.59 696.881 535.844C680.846 526.965 668.389 514.508 659.51 498.472C650.763 482.305 646.39 463.751 646.39 442.813V356.938C646.39 335.999 650.763 317.512 659.51 301.477C668.389 285.309 680.846 272.852 696.881 264.106C713.049 255.227 731.602 250.787 752.541 250.787C773.479 250.787 791.966 255.227 808.001 264.106C824.169 272.852 836.626 285.309 845.373 301.477C854.252 317.512 858.691 335.999 858.691 356.938V442.813C858.691 463.751 854.252 482.305 845.373 498.472C836.626 514.508 824.169 526.965 808.001 535.844C791.966 544.59 773.479 548.964 752.541 548.964ZM752.541 497.677C761.95 497.677 770.497 495.424 778.184 490.919C786.003 486.413 792.165 480.317 796.671 472.63C801.177 464.811 803.429 456.198 803.429 446.788V352.565C803.429 343.155 801.177 334.608 796.671 326.921C792.165 319.103 786.003 312.94 778.184 308.435C770.497 303.929 761.95 301.676 752.541 301.676C743.131 301.676 734.518 303.929 726.699 308.435C719.012 312.94 712.916 319.103 708.411 326.921C703.905 334.608 701.652 343.155 701.652 352.565V446.788C701.652 456.198 703.905 464.811 708.411 472.63C712.916 480.317 719.012 486.413 726.699 490.919C734.518 495.424 743.131 497.677 752.541 497.677ZM1083.01 402.961C1075.59 398.633 1066.53 396.469 1055.85 396.469C1046.75 396.469 1038.36 398.456 1030.67 402.431C1022.99 406.317 1016.81 411.749 1012.13 418.727C1008.24 411.749 1002.81 406.317 995.829 402.431C988.852 398.456 980.416 396.469 970.524 396.469C962.045 396.469 954.14 398.147 946.809 401.503C939.566 404.86 933.516 409.541 928.658 415.547V399.914H896.861V543H933.163V456.353C933.163 450.877 934.178 446.063 936.21 441.912C938.33 437.672 941.244 434.404 944.954 432.108C948.752 429.723 953.124 428.531 958.07 428.531C965.931 428.531 972.07 431.181 976.486 436.48C980.991 441.78 983.243 449.111 983.243 458.473V543H1019.28V456.353C1019.28 450.877 1020.3 446.063 1022.33 441.912C1024.45 437.672 1027.36 434.404 1031.07 432.108C1034.87 429.723 1039.24 428.531 1044.19 428.531C1052.05 428.531 1058.19 431.181 1062.6 436.48C1067.11 441.78 1069.36 449.111 1069.36 458.473V543H1105.4V448.934C1105.4 438.423 1103.5 429.237 1099.7 421.376C1095.99 413.427 1090.43 407.289 1083.01 402.961Z" fill="white"/>
</svg>
