<svg width="1374" height="810" viewBox="0 0 1374 810" fill="none" xmlns="http://www.w3.org/2000/svg">
<path fill-rule="evenodd" clip-rule="evenodd" d="M1404 -61H-90V820H1404V-61ZM446.149 491.714H329.662L393.67 435.656C407.85 423.332 418.253 413.658 424.879 406.634C431.505 399.478 436.674 391.328 440.384 382.183C444.228 372.907 446.149 361.444 446.149 347.794C446.149 328.843 441.908 312.013 433.427 297.303C424.945 282.593 413.283 271.196 398.441 263.112C383.598 254.895 366.9 250.787 348.347 250.787C328.071 250.787 310.181 254.696 294.676 262.515C279.17 270.334 267.111 281.466 258.497 295.911C250.015 310.356 245.775 327.253 245.775 346.601H301.434C301.169 338.65 302.958 331.228 306.801 324.337C310.645 317.446 316.078 311.946 323.102 307.838C330.258 303.73 338.276 301.676 347.155 301.676C355.769 301.676 363.322 303.664 369.816 307.639C376.442 311.483 381.544 316.85 385.122 323.741C388.701 330.5 390.49 338.252 390.49 346.999C390.49 360.516 382.273 374.563 365.84 389.141L245.775 495.689V542.602H446.149V491.714ZM500.423 535.844C516.591 544.59 535.144 548.964 556.082 548.964C577.021 548.964 595.508 544.59 611.543 535.844C627.711 526.965 640.168 514.508 648.915 498.472C657.794 482.305 662.233 463.751 662.233 442.813V356.938C662.233 335.999 657.794 317.512 648.915 301.477C640.168 285.309 627.711 272.852 611.543 264.106C595.508 255.227 577.021 250.787 556.082 250.787C535.144 250.787 516.591 255.227 500.423 264.106C484.388 272.852 471.93 285.309 463.051 301.477C454.305 317.512 449.932 335.999 449.932 356.938V442.813C449.932 463.751 454.305 482.305 463.051 498.472C471.93 514.508 484.388 526.965 500.423 535.844ZM581.726 490.919C574.039 495.424 565.492 497.677 556.082 497.677C546.673 497.677 538.059 495.424 530.24 490.919C522.554 486.413 516.458 480.317 511.952 472.63C507.446 464.812 505.194 456.198 505.194 446.788V352.565C505.194 343.155 507.446 334.608 511.952 326.921C516.458 319.103 522.554 312.94 530.24 308.434C538.059 303.929 546.673 301.676 556.082 301.676C565.492 301.676 574.039 303.929 581.726 308.434C589.544 312.94 595.707 319.103 600.213 326.921C604.718 334.608 606.971 343.155 606.971 352.565V446.788C606.971 456.198 604.718 464.812 600.213 472.63C595.707 480.317 589.544 486.413 581.726 490.919ZM724.582 535.844C740.75 544.59 759.303 548.964 780.242 548.964C801.181 548.964 819.668 544.59 835.703 535.844C851.871 526.965 864.328 514.508 873.074 498.472C881.953 482.305 886.393 463.751 886.393 442.813V356.938C886.393 335.999 881.953 317.512 873.074 301.477C864.328 285.309 851.871 272.852 835.703 264.106C819.668 255.227 801.181 250.787 780.242 250.787C759.303 250.787 740.75 255.227 724.582 264.106C708.547 272.852 696.09 285.309 687.211 301.477C678.464 317.512 674.091 335.999 674.091 356.938V442.813C674.091 463.751 678.464 482.305 687.211 498.472C696.09 514.508 708.547 526.965 724.582 535.844ZM805.885 490.919C798.199 495.424 789.651 497.677 780.242 497.677C770.833 497.677 762.219 495.424 754.4 490.919C746.714 486.413 740.618 480.317 736.112 472.63C731.606 464.812 729.353 456.198 729.353 446.788V352.565C729.353 343.155 731.606 334.608 736.112 326.921C740.618 319.103 746.714 312.94 754.4 308.434C762.219 303.929 770.833 301.676 780.242 301.676C789.651 301.676 798.199 303.929 805.885 308.434C813.704 312.94 819.866 319.103 824.372 326.921C828.878 334.608 831.131 343.155 831.131 352.565V446.788C831.131 456.198 828.878 464.812 824.372 472.63C819.866 480.317 813.704 486.413 805.885 490.919ZM1110.71 402.961C1103.29 398.633 1094.23 396.469 1083.55 396.469C1074.45 396.469 1066.06 398.456 1058.37 402.431C1050.69 406.317 1044.51 411.749 1039.83 418.727C1035.94 411.749 1030.51 406.317 1023.53 402.431C1016.55 398.456 1008.12 396.469 998.225 396.469C989.746 396.469 981.841 398.147 974.51 401.503C967.268 404.86 961.217 409.541 956.359 415.547V399.914H924.562V543H960.864V456.353C960.864 450.877 961.88 446.063 963.911 441.912C966.031 437.672 968.946 434.404 972.655 432.108C976.453 429.723 980.825 428.531 985.772 428.531C993.633 428.531 999.771 431.181 1004.19 436.48C1008.69 441.78 1010.94 449.111 1010.94 458.473V543H1046.98V456.353C1046.98 450.877 1048 446.063 1050.03 441.912C1052.15 437.672 1055.06 434.404 1058.77 432.108C1062.57 429.723 1066.94 428.531 1071.89 428.531C1079.75 428.531 1085.89 431.181 1090.3 436.48C1094.81 441.78 1097.06 449.111 1097.06 458.473V543H1133.1V448.934C1133.1 438.423 1131.2 429.237 1127.4 421.376C1123.69 413.427 1118.13 407.289 1110.71 402.961Z" fill="white"/>
</svg>
