<svg width="558" height="150" viewBox="0 0 558 150" fill="none" xmlns="http://www.w3.org/2000/svg">
<g opacity="0.5" filter="url(#filter0_f_90_168)">
<path fill-rule="evenodd" clip-rule="evenodd" d="M201.602 64.2112V53.1076H192.602V39H181.329V87.1423C181.334 90.685 182.734 94.0812 185.222 96.5863C187.71 99.0914 191.083 100.501 194.601 100.506H201.602V89.2738H196.6C195.539 89.2712 194.522 88.8449 193.773 88.0885C193.023 87.3321 192.602 86.3072 192.602 85.2388V64.2112H201.602ZM64.9788 56.7739L65.5795 55.9907C67.017 54.1269 69.1436 53.1949 72.1171 53.1355H75.7601V64.2589H69.2717C67.529 64.2589 66.2785 64.6257 65.5598 65.3792C64.7898 66.32 64.4122 67.5247 64.5063 68.7401V100.534H53.3214V53.1355H63.1672L64.9788 56.7739ZM135.004 60.1379C139.41 55.7016 145.383 53.2059 151.614 53.198C157.615 53.2037 163.386 55.5205 167.745 59.6735C172.104 63.8266 174.72 69.5012 175.057 75.5341V100.537H151.614C145.381 100.529 139.406 98.0322 135 93.5938C130.594 89.1554 128.117 83.1382 128.112 76.8626C128.119 70.5888 130.598 64.5742 135.004 60.1379ZM164.413 89.7508V76.8626C164.413 73.4445 163.065 70.1663 160.664 67.7493C158.264 65.3323 155.008 63.9745 151.614 63.9745C148.219 63.9745 144.963 65.3323 142.563 67.7493C140.162 70.1663 138.814 73.4445 138.814 76.8626C138.814 80.2808 140.162 83.5589 142.563 85.9759C144.963 88.3929 148.219 89.7508 151.614 89.7508H164.413ZM21.0769 59.9799C18.7742 62.12 16.9523 64.7308 15.7331 67.6374C14.5139 70.5441 13.9256 73.6795 14.0075 76.8336C13.9322 80.0089 14.5229 83.1644 15.7411 86.0942C16.9592 89.0239 18.7774 91.662 21.0769 93.8361C25.793 98.2578 32.5177 100.498 41.0541 100.498H46.8927V89.4145H41.0541C31.1492 89.4145 25.4779 84.8442 25.4779 76.8733C25.4779 68.9025 31.1492 64.3321 41.0541 64.3321H46.8927V53.2186H41.0541C32.4685 53.2186 25.7438 55.4988 21.0769 59.9799ZM256.905 53.2186L245.396 84.8739L233.886 53.2186H221.992L239.193 100.528H251.598L268.809 53.2186H256.905ZM535.82 83.7243C533.605 83.7243 531.482 84.6101 529.916 86.1867C528.35 87.7633 527.47 89.9017 527.47 92.1314C527.47 94.3611 528.35 96.4994 529.916 98.076C531.482 99.6526 533.605 100.538 535.82 100.538H544.149V91.6158C544.021 89.4793 543.088 87.4726 541.54 86.0058C539.991 84.5391 537.945 83.7229 535.82 83.7243ZM207.814 53.2985H218.93V100.529H207.814V53.2985ZM515.251 58.5909C511.553 55.0942 506.657 53.1693 501.585 53.2176C496.496 53.1555 491.582 55.0856 487.879 58.6008L487.702 58.7793L487.515 58.5909C483.82 55.0889 478.923 53.1632 473.849 53.2176C471.012 53.2041 468.205 53.8024 465.618 54.9723V53.2968H454.502V100.537H465.618V74.4037C465.736 67.682 468.63 63.9742 473.849 63.9742C479.067 63.9742 482.178 67.8902 482.208 74.711V100.537H493.304V74.6912C493.304 67.7514 496.258 63.9643 501.555 63.9643C506.852 63.9643 509.914 67.9299 509.914 74.7805V100.557H521.011V74.7805C521.04 67.5928 519.091 62.1401 515.251 58.5909ZM348.491 53.1076V64.2112H339.492V85.2388C339.495 86.3082 339.918 87.3329 340.669 88.0891C341.42 88.8452 342.437 89.2712 343.499 89.2738H348.491V100.506H341.491C337.973 100.501 334.601 99.0911 332.115 96.5857C329.629 94.0803 328.231 90.6841 328.228 87.1423V39H339.492V53.1076H348.491ZM299.341 87.0253C297.378 88.5843 295.001 89.5226 292.508 89.7219H291.455C289.196 89.7141 286.979 89.1082 285.026 87.9649C283.073 86.8217 281.453 85.1813 280.329 83.2085H314.081L314.189 82.7821C314.654 80.9478 314.898 79.0639 314.917 77.1708V76.8734V74.3751L314.839 74.4445C314.528 71.4455 313.649 68.5343 312.249 65.8689L312.2 65.7698C312.131 65.631 312.052 65.4922 311.974 65.3633L311.836 65.1253C311.764 64.9824 311.686 64.8434 311.599 64.709L311.462 64.481C309.377 61.0322 306.444 58.1835 302.946 56.2105C299.448 54.2375 295.504 53.207 291.494 53.2187H291.493C290.981 53.2187 290.45 53.2187 289.82 53.288C283.962 53.7456 278.482 56.3848 274.452 60.6907C270.421 64.9965 268.129 70.66 268.022 76.576V76.8536V79.3717L268.11 79.3024C268.416 82.3086 269.295 85.2271 270.7 87.8978V87.9771L270.936 88.3935L271.074 88.6413C271.142 88.7796 271.221 88.9081 271.299 89.0365L271.3 89.0378L271.438 89.2758C273.525 92.724 276.461 95.572 279.96 97.5448C283.459 99.5176 287.405 100.549 291.415 100.538C291.918 100.538 292.449 100.538 293.089 100.469C298.233 100.07 303.104 97.9796 306.952 94.5203L299.391 86.9064L299.341 87.0253ZM290.391 64.0249H291.455C294.065 64.0137 296.615 64.8117 298.758 66.3105C300.902 67.8092 302.536 69.9361 303.437 72.4022H279.453C280.296 70.103 281.773 68.0937 283.711 66.6099C285.648 65.1261 287.966 64.2294 290.391 64.0249ZM101.694 89.7219C104.187 89.5226 106.564 88.5843 108.527 87.0253L108.626 86.9064L116.188 94.5203C112.339 97.9796 107.468 100.07 102.325 100.469C101.635 100.538 101.153 100.538 100.651 100.538C96.6402 100.549 92.6947 99.5176 89.1953 97.5448C85.6959 95.572 82.7608 92.724 80.6735 89.2758L80.5357 89.0378L80.5347 89.0364C80.4563 88.908 80.3778 88.7796 80.3092 88.6413L80.1713 88.3935L79.935 87.9771V87.8978C78.5305 85.2271 77.6512 82.3086 77.3456 79.3024L77.257 79.3717V76.8536V76.576C77.3643 70.66 79.6568 64.9965 83.6873 60.6907C87.7178 56.3848 93.197 53.7456 99.0557 53.288C99.6854 53.2187 100.217 53.2187 100.728 53.2187H100.729C104.739 53.207 108.683 54.2375 112.182 56.2105C115.68 58.1835 118.613 61.0322 120.697 64.481L120.835 64.709C120.923 64.8478 121.002 64.9865 121.081 65.1253L121.209 65.3633C121.288 65.4922 121.366 65.631 121.435 65.7698V65.8689C122.835 68.5343 123.715 71.4455 124.025 74.4445L124.104 74.3751V76.8734V77.1708C124.085 79.0639 123.84 80.9478 123.375 82.7821L123.267 83.2085H89.5151C90.6394 85.1813 92.2592 86.8217 94.212 87.9649C96.1648 89.1082 98.382 89.7141 100.641 89.7219H101.694ZM100.641 64.0249H99.5775C97.154 64.2364 94.8397 65.1358 92.9035 66.6187C90.9672 68.1015 89.4884 70.107 88.6388 72.4022H112.623C111.722 69.9361 110.088 67.8092 107.944 66.3105C105.801 64.8117 103.251 64.0137 100.641 64.0249ZM424.709 53.1955C418.483 53.2112 412.517 55.7105 408.118 60.1459C403.718 64.5813 401.244 70.5915 401.236 76.8602C401.241 83.1357 403.719 89.1529 408.125 93.5913C412.531 98.0297 418.506 100.527 424.738 100.535H448.181V75.5317C447.844 69.4936 445.224 63.8147 440.859 59.6608C436.493 55.507 430.715 53.1936 424.709 53.1955ZM437.508 76.8602V89.7483H424.709C421.314 89.7483 418.058 88.3905 415.658 85.9735C413.257 83.5565 411.909 80.2783 411.909 76.8602C411.909 73.442 413.257 70.1639 415.658 67.7469C418.058 65.3299 421.314 63.972 424.709 63.972C426.39 63.9707 428.056 64.3031 429.61 64.9502C431.164 65.5973 432.576 66.5464 433.766 67.7433C434.955 68.9403 435.899 70.3615 436.543 71.9258C437.187 73.4901 437.518 75.1668 437.518 76.8602H437.508ZM374.8 89.7219C377.289 89.5224 379.664 88.584 381.623 87.0253L381.761 86.9063L389.323 94.5203C385.475 97.9814 380.604 100.072 375.46 100.469C374.829 100.538 374.298 100.538 373.786 100.538C369.776 100.55 365.832 99.5192 362.334 97.5462C358.836 95.5732 355.903 92.7245 353.818 89.2758L353.671 89.0378L353.444 88.6413L353.306 88.3934C353.223 88.2591 353.147 88.1201 353.08 87.9771L353.031 87.8977C351.626 85.2271 350.747 82.3086 350.441 79.3023L350.353 79.3717V76.8535V76.576C350.446 70.6575 352.733 64.9879 356.764 60.6794C360.795 56.371 366.28 53.7348 372.142 53.288C372.781 53.2187 373.312 53.2187 373.814 53.2187H373.815C377.826 53.2082 381.771 54.2391 385.271 56.2119C388.77 58.1847 391.705 61.0327 393.793 64.4809L393.93 64.7089L394.167 65.1253L394.295 65.3633C394.374 65.4922 394.452 65.6309 394.521 65.7697V65.8688C395.926 68.5324 396.805 71.4445 397.111 74.4445L397.199 74.3751V76.8734V77.1708C397.18 79.0639 396.936 80.9477 396.471 82.7821L396.362 83.2084H362.621C363.742 85.1818 365.359 86.8229 367.311 87.9663C369.262 89.1098 371.479 89.7153 373.737 89.7219H374.8ZM373.737 64.0249H372.683C370.258 64.2346 367.941 65.1331 366.003 66.6161C364.065 68.0991 362.585 70.1055 361.734 72.4022H385.719C384.819 69.9353 383.185 67.8076 381.041 66.3087C378.897 64.8097 376.347 64.0123 373.737 64.0249Z" fill="url(#paint0_linear_90_168)"/>
</g>
<g filter="url(#filter1_f_90_168)">
<path d="M207.36 56.7765H207.976V56.1606H207.36V56.7765ZM207.36 67.1253V67.7411H207.976V67.1253H207.36ZM198.973 56.7765H198.357V57.3923H198.973V56.7765ZM198.973 43.6279H199.589V43.0121H198.973V43.6279ZM188.466 43.6279V43.0121H187.85V43.6279H188.466ZM188.466 88.4975H187.85L187.85 88.4984L188.466 88.4975ZM200.836 100.953L200.835 101.569H200.836V100.953ZM207.36 100.953V101.569H207.976V100.953H207.36ZM207.36 90.4841H207.976V89.8682H207.36V90.4841ZM202.699 90.4841L202.697 91.0999H202.699V90.4841ZM198.973 67.1253V66.5095H198.357V67.1253H198.973ZM80.585 59.463L80.0974 59.0869L80.0963 59.0882L80.585 59.463ZM80.0252 60.1929L79.4739 60.4674L79.9136 61.3504L80.5139 60.5677L80.0252 60.1929ZM86.6782 56.8018V56.1859L86.6659 56.1861L86.6782 56.8018ZM90.0735 56.8018H90.6894V56.186H90.0735V56.8018ZM90.0735 67.1691V67.7849H90.6894V67.1691H90.0735ZM80.5666 68.2132L80.121 67.7882L80.1049 67.8051L80.0901 67.8232L80.5666 68.2132ZM79.5847 71.3456H80.2006V71.3218L80.1987 71.2981L79.5847 71.3456ZM79.5847 100.978V101.594H80.2006V100.978H79.5847ZM69.1602 100.978H68.5444V101.594H69.1602V100.978ZM69.1602 56.8018V56.186H68.5444V56.8018H69.1602ZM78.3367 56.8018L78.888 56.5274L78.7181 56.186H78.3367V56.8018ZM160.771 56.8599L160.771 56.2441L160.77 56.2441L160.771 56.8599ZM145.29 63.328L144.853 62.8941L144.853 62.8941L145.29 63.328ZM175.805 62.8952L175.38 63.3411V63.3411L175.805 62.8952ZM182.62 77.6776H183.236V77.6604L183.235 77.6433L182.62 77.6776ZM182.62 100.981V101.597H183.236V100.981H182.62ZM160.771 100.981L160.77 101.597H160.771V100.981ZM145.287 94.5096L144.85 94.9434L145.287 94.5096ZM138.866 78.9158L138.25 78.915V78.9163L138.866 78.9158ZM172.7 90.9278V91.5437H173.316V90.9278H172.7ZM169.206 70.422L168.769 70.856V70.856L169.206 70.422ZM152.335 87.4096L151.898 87.8435L152.335 87.4096ZM34.1272 70.3176L33.5593 70.0794L34.1272 70.3176ZM39.1077 63.1807L39.527 63.6318L39.5343 63.6249L39.1077 63.1807ZM32.519 78.8887L33.1346 78.9033L33.135 78.888L33.1346 78.8727L32.519 78.8887ZM34.1347 87.5197L33.566 87.7561H33.566L34.1347 87.5197ZM39.1077 94.7353L38.6846 95.1828L38.6865 95.1846L39.1077 94.7353ZM63.1686 100.945V101.56H63.7844V100.945H63.1686ZM63.1686 90.6143H63.7844V89.9984H63.1686V90.6143ZM63.1686 67.237V67.8529H63.7844V67.237H63.1686ZM63.1686 56.879H63.7844V56.2632H63.1686V56.879ZM248.177 86.3824L247.598 86.5928L248.177 88.1846L248.756 86.5928L248.177 86.3824ZM258.904 56.879V56.2632H258.473L258.326 56.6686L258.904 56.879ZM237.45 56.879L238.028 56.6686L237.881 56.2632H237.45V56.879ZM226.364 56.879V56.2632H225.485L225.786 57.0894L226.364 56.879ZM242.396 100.972L241.817 101.183L241.964 101.588H242.396V100.972ZM253.958 100.972V101.588H254.39L254.537 101.183L253.958 100.972ZM269.999 56.879L270.578 57.0895L270.878 56.2632H269.999V56.879ZM518.858 85.3107V85.9266H518.858L518.858 85.3107ZM526.621 100.982V101.598H527.237V100.982H526.621ZM526.621 92.6658H527.237V92.6474L527.236 92.629L526.621 92.6658ZM223.51 56.9535H224.126V56.3376H223.51V56.9535ZM213.15 56.9535V56.3376H212.534V56.9535H213.15ZM223.51 100.973V101.589H224.126V100.973H223.51ZM213.15 100.973H212.534V101.589H213.15V100.973ZM486.95 56.8789L486.943 57.4948L486.956 57.4947L486.95 56.8789ZM499.687 61.8869L499.264 62.3344L499.269 62.3392L499.687 61.8869ZM474.176 61.8962L473.752 61.4496L473.746 61.4558L473.739 61.4622L474.176 61.8962ZM474.011 62.0625L473.574 62.4965L474.011 62.9364L474.448 62.4965L474.011 62.0625ZM473.837 61.8869L474.274 61.453L474.267 61.4464L474.26 61.44L473.837 61.8869ZM461.1 56.8789L461.097 57.4948L461.106 57.4947L461.1 56.8789ZM453.428 58.5143H452.812V59.4685L453.682 59.0755L453.428 58.5143ZM453.428 56.9528H454.044V56.3369H453.428V56.9528ZM443.068 56.9528V56.3369H442.452V56.9528H443.068ZM443.068 100.981H442.452V101.597H443.068V100.981ZM453.428 100.981V101.597H454.044V100.981H453.428ZM453.428 76.6248L452.812 76.614V76.6248H453.428ZM468.891 76.9112H469.506L469.506 76.9086L468.891 76.9112ZM468.891 100.981H468.275V101.597H468.891V100.981ZM479.233 100.981V101.597H479.848V100.981H479.233ZM494.713 101H494.098V101.616H494.713V101ZM505.055 101V101.616H505.671V101H505.055ZM505.055 76.9759L504.44 76.9734V76.9759H505.055ZM344.264 67.1253V67.7411H344.88V67.1253H344.264ZM344.264 56.7765H344.88V56.1606H344.264V56.7765ZM335.877 67.1253V66.5095H335.261V67.1253H335.877ZM335.877 86.7234H335.261V86.7249L335.877 86.7234ZM336.973 89.3799L337.41 88.9459V88.9459L336.973 89.3799ZM339.612 90.4841L339.61 91.0999H339.612V90.4841ZM344.264 90.4841H344.88V89.8682H344.264V90.4841ZM344.264 100.953V101.569H344.88V100.953H344.264ZM337.74 100.953L337.739 101.569H337.74V100.953ZM329.001 97.2989L328.564 97.7327L329.001 97.2989ZM325.379 88.4975H324.763V88.4979L325.379 88.4975ZM325.379 43.6279V43.0121H324.763V43.6279H325.379ZM335.877 43.6279H336.493V43.0121H335.877V43.6279ZM335.877 56.7765H335.261V57.3923H335.877V56.7765ZM292.087 90.9008V91.5166H292.111L292.136 91.5147L292.087 90.9008ZM298.455 88.3875L298.838 88.8698L298.963 88.7705L299.024 88.623L298.455 88.3875ZM291.105 90.9008L291.103 91.5166H291.105V90.9008ZM285.113 89.2633L284.802 89.7947L285.113 89.2633ZM280.735 84.8302V84.2143H279.676L280.2 85.1351L280.735 84.8302ZM312.193 84.8302V85.446H312.672L312.789 84.9818L312.193 84.8302ZM312.294 84.4328L312.89 84.5844L312.891 84.5841L312.294 84.4328ZM312.973 79.203L313.588 79.2092V79.203H312.973ZM312.973 76.5973H313.588V75.2336L312.565 76.1353L312.973 76.5973ZM312.899 76.662L312.287 76.7253L312.41 77.9143L313.306 77.124L312.899 76.662ZM310.486 68.6693L309.934 68.9433L309.941 68.9557L310.486 68.6693ZM310.44 68.5769L310.991 68.3031V68.303L310.44 68.5769ZM310.229 68.1981L309.696 68.5067L309.7 68.513L309.703 68.5192L310.229 68.1981ZM310.1 67.9763L309.549 68.2511L309.558 68.2683L309.567 68.2849L310.1 67.9763ZM309.88 67.5883L309.353 67.9068L309.357 67.9137L309.362 67.9206L309.88 67.5883ZM309.752 67.3757L309.225 67.6943L309.225 67.6943L309.752 67.3757ZM301.815 59.6675L302.118 59.1311L301.815 59.6675ZM291.142 56.8791V57.4949L291.143 57.4949L291.142 56.8791ZM289.582 56.9437L289.63 57.5577L289.639 57.5569L289.649 57.5559L289.582 56.9437ZM275.258 63.8431L275.708 64.264L275.708 64.264L275.258 63.8431ZM269.265 78.6486L268.649 78.6374V78.6486H269.265ZM269.265 81.2542H268.649V82.5182L269.644 81.7392L269.265 81.2542ZM269.347 81.1896L269.96 81.1273L269.847 80.0165L268.968 80.7046L269.347 81.1896ZM271.761 89.2007H272.377V89.0486L272.306 88.914L271.761 89.2007ZM271.761 89.2746H271.145V89.4372L271.225 89.5786L271.761 89.2746ZM271.981 89.6627L272.519 89.3634L272.517 89.3587L271.981 89.6627ZM272.109 89.8937L272.661 89.6198L272.655 89.6069L272.648 89.5944L272.109 89.8937ZM272.32 90.2624L271.794 90.5835L271.797 90.5881L272.32 90.2624ZM272.321 90.2632L272.853 89.9545L272.848 89.9459L272.843 89.9375L272.321 90.2632ZM272.449 90.4851L271.916 90.7938L271.922 90.804L272.449 90.4851ZM280.392 98.1919L280.694 97.6555L280.392 98.1919ZM291.068 100.982V100.366L291.067 100.366L291.068 100.982ZM292.628 100.917L292.581 100.303L292.571 100.304L292.562 100.305L292.628 100.917ZM305.549 95.373L305.96 95.831L306.442 95.3983L305.986 94.939L305.549 95.373ZM298.501 88.2767L298.938 87.8427L298.286 87.186L297.932 88.0413L298.501 88.2767ZM291.105 66.9507V67.5665L291.108 67.5665L291.105 66.9507ZM290.114 66.9507V66.3349H290.088L290.062 66.337L290.114 66.9507ZM297.912 69.0809L297.559 69.5856L297.912 69.0809ZM302.273 74.7585V75.3743H303.154L302.851 74.5471L302.273 74.7585ZM279.919 74.7585L279.341 74.5464L279.037 75.3743H279.919V74.7585ZM283.887 69.36L283.513 68.871L283.513 68.871L283.887 69.36ZM120.614 88.3875L120.997 88.8698L121.047 88.8298L121.088 88.7801L120.614 88.3875ZM114.245 90.9008V91.5166H114.27L114.294 91.5147L114.245 90.9008ZM120.705 88.2767L121.142 87.8427L120.664 87.3609L120.231 87.8841L120.705 88.2767ZM127.753 95.373L128.165 95.831L128.646 95.3983L128.19 94.939L127.753 95.373ZM114.832 100.917L114.785 100.303L114.771 100.304L114.832 100.917ZM113.272 100.982V100.366L113.271 100.366L113.272 100.982ZM102.596 98.1919L102.293 98.7284L102.596 98.1919ZM94.6531 90.4851L94.12 90.7937L94.1263 90.804L94.6531 90.4851ZM94.5247 90.2632L95.0577 89.9546L95.0509 89.9433L94.5247 90.2632ZM94.5238 90.2618L95.05 89.9419L95.046 89.9354L94.5238 90.2618ZM94.5237 90.2617L93.9983 90.5829L94.0015 90.5881L94.5237 90.2617ZM94.3136 89.8937L94.8651 89.6198L94.8587 89.6069L94.8518 89.5943L94.3136 89.8937ZM94.1851 89.6627L94.7233 89.3633L94.7207 89.3587L94.1851 89.6627ZM93.9649 89.2746H93.349V89.4372L93.4293 89.5786L93.9649 89.2746ZM93.9649 89.2007H94.5807V89.0486L94.5099 88.914L93.9649 89.2007ZM91.5514 81.1896L92.1641 81.1273L92.0511 80.0163L91.1718 80.7047L91.5514 81.1896ZM91.4689 81.2542H90.853V82.5184L91.8485 81.7391L91.4689 81.2542ZM91.4689 78.6486L90.853 78.6374V78.6486H91.4689ZM97.4621 63.8431L97.9117 64.264V64.264L97.4621 63.8431ZM111.786 56.9437L111.834 57.5577L111.843 57.5569L111.853 57.5559L111.786 56.9437ZM113.346 56.8791V57.4949L113.347 57.4949L113.346 56.8791ZM124.019 59.6675L123.717 60.2039L124.019 59.6675ZM131.956 67.3757L131.429 67.6943L131.429 67.6944L131.956 67.3757ZM132.084 67.5883L131.557 67.9069L131.561 67.9133L131.565 67.9196L132.084 67.5883ZM132.314 67.9763L132.856 67.6845L132.849 67.6723L132.314 67.9763ZM132.433 68.1981L131.891 68.4898L131.899 68.5048L131.907 68.5193L132.433 68.1981ZM132.644 68.5769H133.26V68.4325L133.196 68.3031L132.644 68.5769ZM132.644 68.6693H132.028V68.8212L132.099 68.9557L132.644 68.6693ZM135.057 76.662L134.445 76.7253L134.568 77.914L135.465 77.1241L135.057 76.662ZM135.131 76.5973H135.747V75.234L134.724 76.1352L135.131 76.5973ZM135.131 79.203L135.747 79.2092V79.203H135.131ZM134.452 84.4328L135.049 84.5844L135.049 84.5841L134.452 84.4328ZM134.351 84.8302V85.446H134.83L134.948 84.9818L134.351 84.8302ZM102.894 84.8302V84.2143H101.834L102.359 85.1351L102.894 84.8302ZM107.271 89.2633L106.96 89.7947L107.271 89.2633ZM113.263 90.9008L113.261 91.5166H113.263V90.9008ZM112.272 66.9507V66.3349H112.245L112.219 66.3372L112.272 66.9507ZM113.263 66.9507V67.5665L113.266 67.5665L113.263 66.9507ZM102.077 74.7585L101.499 74.5447L101.192 75.3743H102.077V74.7585ZM124.431 74.7585V75.3743H125.312L125.009 74.5471L124.431 74.7585ZM120.07 69.0809L119.717 69.5856L120.07 69.0809ZM399.837 63.3358L399.4 62.9021V62.9021L399.837 63.3358ZM415.3 56.8579L415.3 56.2421L415.298 56.2421L415.3 56.8579ZM393.423 78.9138L392.807 78.9131V78.9143L393.423 78.9138ZM399.844 94.5076L400.281 94.0737L399.844 94.5076ZM415.328 100.979L415.327 101.595H415.328V100.979ZM437.177 100.979V101.595H437.793V100.979H437.177ZM437.177 77.6756H437.793V77.6585L437.792 77.6413L437.177 77.6756ZM430.352 62.8837L429.928 63.3298V63.3298L430.352 62.8837ZM427.229 90.9258V91.5417H427.845V90.9258H427.229ZM427.229 78.9138V78.298H426.614V78.9138H427.229ZM406.865 87.4076L407.302 86.9736V86.9736L406.865 87.4076ZM406.865 70.42L407.302 70.854V70.854L406.865 70.42ZM415.3 66.9018V67.5176H415.3L415.3 66.9018ZM427.239 78.9138V79.5297H427.854V78.9138H427.239ZM375.144 88.3875L375.527 88.8695L375.537 88.8618L375.546 88.8537L375.144 88.3875ZM368.784 90.9008V91.5166H368.809L368.834 91.5146L368.784 90.9008ZM375.272 88.2766L375.709 87.8427L375.305 87.4353L374.87 87.8104L375.272 88.2766ZM382.32 95.373L382.732 95.8308L383.213 95.3981L382.757 94.939L382.32 95.373ZM369.399 100.917L369.352 100.303L369.342 100.304L369.332 100.305L369.399 100.917ZM367.839 100.982V100.366L367.837 100.366L367.839 100.982ZM349.229 90.485L349.756 90.1664L349.752 90.1603L349.229 90.485ZM349.092 90.2632L348.557 90.5686L348.562 90.5784L348.568 90.5879L349.092 90.2632ZM348.88 89.8936L348.342 90.1929L348.346 90.1991L348.88 89.8936ZM348.752 89.6626L349.29 89.3634L349.283 89.3504L349.275 89.3378L348.752 89.6626ZM348.541 89.2746L349.098 89.0118L349.083 88.9799L349.064 88.9499L348.541 89.2746ZM348.495 89.2006L347.95 89.4873L347.96 89.5067L347.972 89.5253L348.495 89.2006ZM346.082 81.1896L346.694 81.1273L346.581 80.0164L345.702 80.7046L346.082 81.1896ZM345.999 81.2542H345.383V82.5182L346.379 81.7391L345.999 81.2542ZM345.999 78.6486L345.383 78.6388V78.6486H345.999ZM366.307 56.9437L366.353 57.5578L366.363 57.557L366.373 57.556L366.307 56.9437ZM367.867 56.8791V57.4949L367.868 57.4949L367.867 56.8791ZM378.543 59.6688L378.241 60.2053V60.2053L378.543 59.6688ZM386.486 67.3757L387.013 67.0572L387.013 67.0568L386.486 67.3757ZM386.614 67.5882L387.15 67.2843L387.146 67.2769L387.141 67.2697L386.614 67.5882ZM386.835 67.9763L387.377 67.6845L387.37 67.6723L386.835 67.9763ZM386.954 68.1981L386.412 68.4899L386.42 68.5048L386.428 68.5192L386.954 68.1981ZM387.165 68.5769H387.781V68.4324L387.717 68.303L387.165 68.5769ZM387.165 68.6693H386.549V68.8217L386.62 68.9565L387.165 68.6693ZM389.578 76.6619L388.966 76.7244L389.079 77.8354L389.958 77.1467L389.578 76.6619ZM389.661 76.5972H390.277V75.3325L389.281 76.1124L389.661 76.5972ZM389.661 79.2029L390.277 79.2091V79.2029H389.661ZM388.982 84.4328L389.579 84.5844L389.579 84.5841L388.982 84.4328ZM388.881 84.8301V85.446H389.36L389.478 84.9818L388.881 84.8301ZM357.433 84.8301V84.2143H356.375L356.898 85.1343L357.433 84.8301ZM367.793 90.9008L367.792 91.5166H367.793V90.9008ZM366.811 66.9507V66.3348H366.785L366.758 66.3371L366.811 66.9507ZM367.793 66.9507V67.5665L367.796 67.5665L367.793 66.9507ZM356.607 74.7585L356.03 74.5447L355.722 75.3743H356.607V74.7585ZM378.961 74.7585V75.3743H379.841L379.54 74.5473L378.961 74.7585ZM374.601 69.0792L374.954 68.5745L374.601 69.0792ZM206.744 56.7765V67.1253H207.976V56.7765H206.744ZM198.973 57.3923H207.36V56.1606H198.973V57.3923ZM198.357 43.6279V56.7765H199.589V43.6279H198.357ZM188.466 44.2438H198.973V43.0121H188.466V44.2438ZM189.082 88.4975V43.6279H187.85V88.4975H189.082ZM192.531 96.8655C190.327 94.6463 189.086 91.6368 189.082 88.4966L187.85 88.4984C187.855 91.9619 189.224 95.283 191.657 97.7334L192.531 96.8655ZM200.837 100.337C197.722 100.333 194.735 99.0846 192.531 96.8655L191.657 97.7334C194.091 100.184 197.391 101.564 200.835 101.569L200.837 100.337ZM207.36 100.337H200.836V101.569H207.36V100.337ZM206.744 90.4841V100.953H207.976V90.4841H206.744ZM202.699 91.0999H207.36V89.8682H202.699V91.0999ZM199.626 89.8127C200.439 90.6337 201.544 91.0971 202.697 91.0999L202.7 89.8682C201.876 89.8662 201.085 89.535 200.501 88.9459L199.626 89.8127ZM198.357 86.7234C198.357 87.8809 198.813 88.992 199.626 89.8127L200.501 88.9459C199.917 88.3567 199.589 87.5575 199.589 86.7234H198.357ZM198.357 67.1253V86.7234H199.589V67.1253H198.357ZM207.36 66.5095H198.973V67.7411H207.36V66.5095ZM80.0963 59.0882L79.5365 59.8181L80.5139 60.5677L81.0737 59.8377L80.0963 59.0882ZM86.6659 56.1861C83.7607 56.2442 81.5798 57.1647 80.0974 59.0869L81.0726 59.8391C82.2697 58.287 84.053 57.4703 86.6905 57.4175L86.6659 56.1861ZM90.0735 56.186H86.6782V57.4177H90.0735V56.186ZM90.6894 67.1691V56.8018H89.4577V67.1691H90.6894ZM84.0262 67.7849H90.0735V66.5533H84.0262V67.7849ZM81.0122 68.6383C81.5054 68.1213 82.4559 67.7849 84.0262 67.7849V66.5533C82.348 66.5533 80.9676 66.9007 80.121 67.7882L81.0122 68.6383ZM80.1987 71.2981C80.1232 70.323 80.4263 69.357 81.0432 68.6033L80.0901 67.8232C79.2717 68.8231 78.8708 70.1028 78.9707 71.3932L80.1987 71.2981ZM80.2006 100.978V71.3456H78.9689V100.978H80.2006ZM69.1602 101.594H79.5847V100.363H69.1602V101.594ZM68.5444 56.8018V100.978H69.776V56.8018H68.5444ZM78.3367 56.186H69.1602V57.4177H78.3367V56.186ZM80.5765 59.9184L78.888 56.5274L77.7855 57.0763L79.4739 60.4674L80.5765 59.9184ZM160.77 56.2441C154.798 56.2516 149.074 58.6436 144.853 62.8941L145.727 63.762C149.718 59.743 155.129 57.4829 160.771 57.4757L160.77 56.2441ZM176.23 62.4494C172.054 58.4701 166.523 56.2495 160.771 56.2441L160.77 57.4757C166.204 57.4809 171.432 59.5789 175.38 63.3411L176.23 62.4494ZM183.235 77.6433C182.912 71.8648 180.406 66.4286 176.23 62.4494L175.38 63.3411C179.329 67.1034 181.7 72.2449 182.005 77.712L183.235 77.6433ZM183.236 100.981V77.6776H182.004V100.981H183.236ZM160.771 101.597H182.62V100.365H160.771V101.597ZM144.85 94.9434C149.071 99.1959 154.797 101.589 160.77 101.597L160.771 100.365C155.127 100.358 149.715 98.0966 145.724 94.0757L144.85 94.9434ZM138.25 78.9163C138.255 84.927 140.628 90.6911 144.85 94.9434L145.724 94.0757C141.732 90.0547 139.487 84.6025 139.482 78.9153L138.25 78.9163ZM144.853 62.8941C140.632 67.1444 138.258 72.906 138.25 78.915L139.482 78.9166C139.489 73.2309 141.735 67.7811 145.727 63.762L144.853 62.8941ZM172.084 78.9158V90.9278H173.316V78.9158H172.084ZM168.769 70.856C170.891 72.9929 172.084 75.892 172.084 78.9158H173.316C173.316 75.5681 171.995 72.3566 169.643 69.9881L168.769 70.856ZM160.771 67.5196C163.77 67.5196 166.647 68.7193 168.769 70.856L169.643 69.9881C167.291 67.6194 164.099 66.288 160.771 66.288V67.5196ZM152.772 70.856C154.894 68.7193 157.771 67.5196 160.771 67.5196V66.288C157.442 66.288 154.251 67.6194 151.898 69.9881L152.772 70.856ZM149.457 78.9158C149.457 75.892 150.65 72.9929 152.772 70.856L151.898 69.9881C149.546 72.3566 148.225 75.5681 148.225 78.9158H149.457ZM152.772 86.9756C150.65 84.8387 149.457 81.9396 149.457 78.9158H148.225C148.225 82.2636 149.546 85.475 151.898 87.8435L152.772 86.9756ZM160.771 90.312C157.771 90.312 154.894 89.1124 152.772 86.9756L151.898 87.8435C154.251 90.2122 157.442 91.5437 160.771 91.5437V90.312ZM172.7 90.312H160.771V91.5437H172.7V90.312ZM34.6951 70.5558C35.7977 67.9273 37.4452 65.5666 39.527 63.6317L38.6885 62.7296C36.4781 64.7839 34.7294 67.2899 33.5593 70.0794L34.6951 70.5558ZM33.1346 78.8727C33.0605 76.02 33.5926 73.1844 34.6951 70.5558L33.5593 70.0794C32.3892 72.869 31.8247 75.8779 31.9033 78.9047L33.1346 78.8727ZM34.7033 87.2832C33.6011 84.6322 33.0665 81.7767 33.1346 78.9033L31.9033 78.8741C31.8311 81.9194 32.3976 84.946 33.566 87.7561L34.7033 87.2832ZM39.5308 94.2879C37.4506 92.321 35.8056 89.9343 34.7033 87.2832L33.566 87.7561C34.7344 90.5663 36.4785 93.097 38.6846 95.1828L39.5308 94.2879ZM57.7269 100.329C49.8756 100.329 43.7775 98.2693 39.5289 94.2861L38.6865 95.1846C43.229 99.4434 49.6661 101.56 57.7269 101.56V100.329ZM63.1686 100.329H57.7269V101.56H63.1686V100.329ZM62.5528 90.6143V100.945H63.7844V90.6143H62.5528ZM57.7269 91.2301H63.1686V89.9984H57.7269V91.2301ZM42.5938 78.9257C42.5938 82.799 43.9794 85.9088 46.6201 88.0355C49.2417 90.1467 53.0264 91.2301 57.7269 91.2301V89.9984C53.1958 89.9984 49.7219 88.952 47.3927 87.0762C45.0826 85.2158 43.8254 82.4813 43.8254 78.9257H42.5938ZM57.7269 66.6212C53.0264 66.6212 49.2417 67.7046 46.6201 69.8159C43.9794 71.9425 42.5938 75.0523 42.5938 78.9257H43.8254C43.8254 75.37 45.0826 72.6355 47.3927 70.7751C49.7219 68.8993 53.1958 67.8529 57.7269 67.8529V66.6212ZM63.1686 66.6212H57.7269V67.8529H63.1686V66.6212ZM62.5528 56.879V67.237H63.7844V56.879H62.5528ZM57.7269 57.4948H63.1686V56.2632H57.7269V57.4948ZM39.5343 63.6249C43.736 59.5905 49.8309 57.4948 57.7269 57.4948V56.2632C49.619 56.2632 43.1788 58.4179 38.6812 62.7364L39.5343 63.6249ZM248.756 86.5928L259.483 57.0894L258.326 56.6686L247.598 86.1719L248.756 86.5928ZM236.871 57.0894L247.598 86.5928L248.756 86.1719L238.028 56.6686L236.871 57.0894ZM226.364 57.4948H237.45V56.2632H226.364V57.4948ZM242.975 100.762L226.943 56.6686L225.786 57.0894L241.817 101.183L242.975 100.762ZM253.958 100.357H242.396V101.588H253.958V100.357ZM269.42 56.6685L253.38 100.762L254.537 101.183L270.578 57.0895L269.42 56.6685ZM258.904 57.4948H269.999V56.2632H258.904V57.4948ZM513.792 88.0397C515.136 86.6862 516.959 85.9266 518.858 85.9266V84.6949C516.629 84.6949 514.493 85.5864 512.918 87.1718L513.792 88.0397ZM511.692 93.1463C511.692 91.2302 512.448 89.3933 513.792 88.0397L512.918 87.1718C511.344 88.757 510.46 90.9062 510.46 93.1463H511.692ZM513.792 98.2529C512.448 96.8992 511.692 95.0625 511.692 93.1463H510.46C510.46 95.3864 511.344 97.5355 512.918 99.1208L513.792 98.2529ZM518.858 100.366C516.959 100.366 515.136 99.6064 513.792 98.2529L512.918 99.1208C514.493 100.706 516.629 101.598 518.858 101.598V100.366ZM526.621 100.366H518.858V101.598H526.621V100.366ZM526.005 92.6658V100.982H527.237V92.6658H526.005ZM523.765 87.8842C525.094 89.1433 525.896 90.8667 526.006 92.7026L527.236 92.629C527.107 90.4822 526.169 88.4651 524.612 86.9901L523.765 87.8842ZM518.858 85.9266C520.681 85.9254 522.437 86.6252 523.765 87.8842L524.612 86.9901C523.055 85.515 520.997 84.6935 518.857 84.6949L518.858 85.9266ZM223.51 56.3376H213.15V57.5693H223.51V56.3376ZM224.126 100.973V56.9535H222.895V100.973H224.126ZM213.15 101.589H223.51V100.357H213.15V101.589ZM212.534 56.9535V100.973H213.766V56.9535H212.534ZM486.956 57.4947C491.524 57.4513 495.933 59.1845 499.264 62.3344L500.11 61.4395C496.548 58.0713 491.832 56.2166 486.944 56.2631L486.956 57.4947ZM474.6 62.3428C477.936 59.1766 482.361 57.4388 486.943 57.4947L486.958 56.2631C482.054 56.2033 477.319 58.0633 473.752 61.4496L474.6 62.3428ZM474.448 62.4965L474.613 62.3302L473.739 61.4622L473.574 61.6285L474.448 62.4965ZM473.4 62.3209L473.574 62.4965L474.448 61.6286L474.274 61.453L473.4 62.3209ZM461.106 57.4947C465.675 57.4457 470.085 59.1795 473.413 62.3339L474.26 61.44C470.701 58.0664 465.982 56.2107 461.093 56.2631L461.106 57.4947ZM453.682 59.0755C456.013 58.0215 458.542 57.4826 461.097 57.4947L461.103 56.263C458.37 56.2501 455.667 56.8264 453.174 57.9532L453.682 59.0755ZM452.812 56.9528V58.5143H454.044V56.9528H452.812ZM443.068 57.5686H453.428V56.3369H443.068V57.5686ZM443.684 100.981V56.9528H442.452V100.981H443.684ZM453.428 100.366H443.068V101.597H453.428V100.366ZM452.812 76.6248V100.981H454.044V76.6248H452.812ZM461.1 66.2884C458.507 66.2884 456.427 67.2184 454.997 69.0344C453.587 70.8264 452.869 73.4076 452.812 76.614L454.044 76.6356C454.098 73.5772 454.783 71.2982 455.965 69.7961C457.129 68.318 458.829 67.5201 461.1 67.5201V66.2884ZM469.506 76.9086C469.492 73.6469 468.742 70.9947 467.294 69.1442C465.829 67.2734 463.701 66.2884 461.1 66.2884V67.5201C463.361 67.5201 465.116 68.36 466.324 69.9034C467.548 71.4672 468.261 73.8184 468.275 76.9139L469.506 76.9086ZM469.506 100.981V76.9112H468.275V100.981H469.506ZM479.233 100.366H468.891V101.597H479.233V100.366ZM478.617 76.8927V100.981H479.848V76.8927H478.617ZM486.923 66.2792C484.292 66.2792 482.177 67.2284 480.739 69.092C479.319 70.931 478.617 73.584 478.617 76.8927H479.848C479.848 73.7334 480.523 71.3876 481.714 69.8447C482.886 68.3265 484.616 67.5109 486.923 67.5109V66.2792ZM495.329 76.9759C495.329 73.7025 494.599 71.0314 493.157 69.1646C491.697 67.276 489.561 66.2792 486.923 66.2792V67.5109C489.221 67.5109 490.98 68.3621 492.182 69.9177C493.401 71.4951 494.098 73.8645 494.098 76.9759H495.329ZM495.329 101V76.9759H494.098V101H495.329ZM505.055 100.384H494.713V101.616H505.055V100.384ZM504.44 76.9759V101H505.671V76.9759H504.44ZM499.269 62.3392C502.68 65.4917 504.467 70.3812 504.44 76.9734L505.671 76.9784C505.699 70.1726 503.852 64.898 500.105 61.4347L499.269 62.3392ZM344.88 67.1253V56.7765H343.648V67.1253H344.88ZM335.877 67.7411H344.264V66.5095H335.877V67.7411ZM336.493 86.7234V67.1253H335.261V86.7234H336.493ZM337.41 88.9459C336.825 88.3566 336.495 87.5571 336.493 86.7219L335.261 86.7249C335.264 87.883 335.722 88.9937 336.536 89.8139L337.41 88.9459ZM339.613 89.8682C338.788 89.8662 337.995 89.5351 337.41 88.9459L336.536 89.8138C337.351 90.6342 338.456 91.0971 339.61 91.0999L339.613 89.8682ZM344.264 89.8682H339.612V91.0999H344.264V89.8682ZM344.88 100.953V90.4841H343.648V100.953H344.88ZM337.74 101.569H344.264V100.337H337.74V101.569ZM328.564 97.7327C330.996 100.184 334.296 101.564 337.739 101.569L337.741 100.337C334.627 100.333 331.641 99.0843 329.438 96.8651L328.564 97.7327ZM324.763 88.4979C324.766 91.9607 326.132 95.2819 328.564 97.7327L329.438 96.8651C327.236 94.6457 325.997 91.6363 325.995 88.497L324.763 88.4979ZM324.763 43.6279V88.4975H325.995V43.6279H324.763ZM335.877 43.0121H325.379V44.2438H335.877V43.0121ZM336.493 56.7765V43.6279H335.261V56.7765H336.493ZM344.264 56.1606H335.877V57.3923H344.264V56.1606ZM292.136 91.5147C294.581 91.3191 296.913 90.3986 298.838 88.8698L298.072 87.9053C296.338 89.2824 294.238 90.1109 292.038 90.2869L292.136 91.5147ZM291.105 91.5166H292.087V90.285H291.105V91.5166ZM284.802 89.7947C286.716 90.9151 288.889 91.509 291.103 91.5166L291.107 90.285C289.111 90.2781 287.151 89.7426 285.424 88.7318L284.802 89.7947ZM280.2 85.1351C281.302 87.0673 282.888 88.6744 284.802 89.7947L285.424 88.7318C283.698 87.721 282.265 86.2705 281.27 84.5252L280.2 85.1351ZM312.193 84.2143H280.735V85.446H312.193V84.2143ZM311.697 84.2812L311.596 84.6785L312.789 84.9818L312.89 84.5844L311.697 84.2812ZM312.357 79.1968C312.34 80.9122 312.118 82.6193 311.697 84.2815L312.891 84.5841C313.336 82.827 313.57 81.0224 313.588 79.2092L312.357 79.1968ZM312.357 78.9258V79.203H313.588V78.9258H312.357ZM312.357 76.5973V78.9258H313.588V76.5973H312.357ZM313.306 77.124L313.38 77.0593L312.565 76.1353L312.492 76.2L313.306 77.124ZM309.941 68.9557C311.209 71.3704 312.005 74.008 312.287 76.7253L313.512 76.5986C313.214 73.7256 312.372 70.9366 311.031 68.3829L309.941 68.9557ZM309.888 68.8508L309.934 68.9432L311.037 68.3954L310.991 68.3031L309.888 68.8508ZM309.703 68.5192C309.77 68.6282 309.834 68.7415 309.888 68.8508L310.991 68.303C310.917 68.1537 310.835 68.0083 310.754 67.877L309.703 68.5192ZM309.567 68.2849L309.696 68.5067L310.762 67.8895L310.633 67.6677L309.567 68.2849ZM309.362 67.9206C309.43 68.0273 309.493 68.1376 309.549 68.2511L310.652 67.7015C310.575 67.5485 310.491 67.3998 310.399 67.256L309.362 67.9206ZM309.225 67.6943L309.353 67.9068L310.407 67.2697L310.279 67.0572L309.225 67.6943ZM301.513 60.2039C304.68 61.9905 307.337 64.5704 309.225 67.6943L310.279 67.0572C308.281 63.7525 305.471 61.0223 302.118 59.1311L301.513 60.2039ZM291.143 57.4949C294.773 57.4844 298.345 58.4173 301.513 60.2039L302.118 59.1311C298.765 57.24 294.983 56.2521 291.14 56.2633L291.143 57.4949ZM291.141 57.4949H291.142V56.2633H291.141V57.4949ZM289.649 57.5559C290.198 57.4954 290.663 57.4949 291.141 57.4949V56.2633C290.665 56.2633 290.138 56.2628 289.514 56.3316L289.649 57.5559ZM275.708 64.264C279.359 60.3627 284.323 57.9721 289.63 57.5577L289.534 56.3298C283.919 56.7683 278.669 59.2974 274.808 63.4223L275.708 64.264ZM269.88 78.6597C269.978 73.2978 272.056 68.1654 275.708 64.264L274.808 63.4223C270.947 67.5471 268.752 72.9717 268.649 78.6374L269.88 78.6597ZM269.881 78.9073V78.6486H268.649V78.9073H269.881ZM269.881 81.2542V78.9073H268.649V81.2542H269.881ZM268.968 80.7046L268.885 80.7693L269.644 81.7392L269.727 81.6745L268.968 80.7046ZM272.306 88.914C271.034 86.4948 270.237 83.8509 269.96 81.1273L268.735 81.2519C269.028 84.1321 269.87 86.9284 271.216 89.4873L272.306 88.914ZM272.377 89.2746V89.2007H271.145V89.2746H272.377ZM272.517 89.3587L272.296 88.9707L271.225 89.5786L271.445 89.9666L272.517 89.3587ZM272.648 89.5944L272.519 89.3634L271.443 89.962L271.571 90.193L272.648 89.5944ZM272.845 89.9412C272.77 89.818 272.711 89.7208 272.661 89.6198L271.558 90.1676C271.636 90.3247 271.723 90.467 271.795 90.5835L272.845 89.9412ZM272.843 89.9375L272.843 89.9366L271.797 90.5881L271.798 90.589L272.843 89.9375ZM272.982 90.1764L272.853 89.9545L271.788 90.5719L271.916 90.7937L272.982 90.1764ZM280.694 97.6555C277.525 95.869 274.867 93.2897 272.976 90.1661L271.922 90.804C273.922 94.108 276.735 96.8375 280.089 98.7284L280.694 97.6555ZM291.067 100.366C287.435 100.375 283.863 99.4419 280.694 97.6555L280.089 98.7284C283.443 100.619 287.225 101.608 291.07 101.598L291.067 100.366ZM292.562 100.305C292.002 100.365 291.536 100.366 291.068 100.366V101.598C291.536 101.598 292.062 101.598 292.695 101.529L292.562 100.305ZM305.137 94.915C301.651 98.0488 297.239 99.9416 292.581 100.303L292.676 101.531C297.605 101.149 302.273 99.1455 305.96 95.831L305.137 94.915ZM298.064 88.7106L305.112 95.807L305.986 94.939L298.938 87.8427L298.064 88.7106ZM299.024 88.623L299.07 88.5121L297.932 88.0413L297.886 88.1521L299.024 88.623ZM291.105 66.3349H290.114V67.5665H291.105V66.3349ZM298.265 68.5762C296.163 67.1066 293.662 66.3239 291.102 66.3349L291.108 67.5665C293.413 67.5567 295.665 68.2614 297.559 69.5856L298.265 68.5762ZM302.851 74.5471C301.968 72.1306 300.367 70.0457 298.265 68.5762L297.559 69.5856C299.453 70.9099 300.897 72.7896 301.694 74.97L302.851 74.5471ZM279.919 75.3743H302.273V74.1427H279.919V75.3743ZM283.513 68.871C281.614 70.3253 280.167 72.2942 279.341 74.5464L280.497 74.9706C281.243 72.9371 282.549 71.1605 284.262 69.8489L283.513 68.871ZM290.062 66.337C287.684 66.5375 285.412 67.4167 283.513 68.871L284.262 69.8489C285.974 68.5373 288.022 67.745 290.166 67.5643L290.062 66.337ZM120.231 87.9053C118.496 89.2824 116.397 90.1109 114.196 90.2869L114.294 91.5147C116.739 91.3191 119.071 90.3986 120.997 88.8698L120.231 87.9053ZM120.231 87.8841L120.139 87.9949L121.088 88.7801L121.18 88.6693L120.231 87.8841ZM128.19 94.939L121.142 87.8427L120.268 88.7106L127.316 95.807L128.19 94.939ZM114.88 101.531C119.81 101.149 124.477 99.1455 128.165 95.831L127.341 94.915C123.855 98.0488 119.443 99.9416 114.785 100.303L114.88 101.531ZM113.272 101.598C113.743 101.598 114.219 101.598 114.894 101.53L114.771 100.304C114.161 100.366 113.737 100.366 113.272 100.366V101.598ZM102.293 98.7284C105.647 100.619 109.429 101.608 113.274 101.598L113.271 100.366C109.64 100.375 106.067 99.4419 102.898 97.6555L102.293 98.7284ZM94.1263 90.804C96.1264 94.108 98.9391 96.8375 102.293 98.7284L102.898 97.6555C99.7291 95.869 97.0707 93.2897 95.1799 90.1661L94.1263 90.804ZM93.9917 90.5718L94.1201 90.7936L95.186 90.1765L95.0576 89.9547L93.9917 90.5718ZM93.9976 90.5817L93.9985 90.5832L95.0509 89.9433L95.05 89.9419L93.9976 90.5817ZM94.0015 90.5881L94.0016 90.5882L95.046 89.9354L95.046 89.9353L94.0015 90.5881ZM93.762 90.1676C93.8399 90.3245 93.9273 90.4667 93.9983 90.5829L95.0492 89.9406C94.974 89.8175 94.9152 89.7205 94.8651 89.6198L93.762 90.1676ZM93.6469 89.962L93.7754 90.193L94.8518 89.5943L94.7233 89.3633L93.6469 89.962ZM93.4293 89.5786L93.6495 89.9666L94.7207 89.3587L94.5005 88.9707L93.4293 89.5786ZM93.349 89.2007V89.2746H94.5807V89.2007H93.349ZM90.9387 81.2519C91.2316 84.1321 92.074 86.9284 93.4198 89.4873L94.5099 88.914C93.2376 86.4948 92.441 83.8509 92.1641 81.1273L90.9387 81.2519ZM91.8485 81.7391L91.931 81.6745L91.1718 80.7047L91.0892 80.7693L91.8485 81.7391ZM90.853 78.9073V81.2542H92.0847V78.9073H90.853ZM90.853 78.6486V78.9073H92.0847V78.6486H90.853ZM97.0125 63.4223C93.1514 67.5471 90.9559 72.9717 90.8531 78.6374L92.0846 78.6598C92.1818 73.2978 94.2597 68.1654 97.9117 64.264L97.0125 63.4223ZM111.738 56.3298C106.123 56.7683 100.874 59.2974 97.0125 63.4223L97.9117 64.264C101.564 60.3627 106.527 57.9721 111.834 57.5577L111.738 56.3298ZM113.345 56.2633C112.869 56.2633 112.343 56.2628 111.718 56.3316L111.853 57.5559C112.403 57.4954 112.867 57.4949 113.345 57.4949V56.2633ZM113.346 56.2633H113.345V57.4949H113.346V56.2633ZM124.322 59.1311C120.969 57.24 117.188 56.2521 113.344 56.2633L113.347 57.4949C116.978 57.4844 120.549 58.4173 123.717 60.2039L124.322 59.1311ZM132.483 67.0572C130.486 63.7525 127.675 61.0223 124.322 59.1311L123.717 60.2039C126.884 61.9905 129.541 64.5704 131.429 67.6943L132.483 67.0572ZM132.611 67.2696L132.483 67.0571L131.429 67.6944L131.557 67.9069L132.611 67.2696ZM132.849 67.6723C132.777 67.545 132.696 67.4019 132.603 67.2569L131.565 67.9196C131.638 68.0334 131.704 68.1489 131.778 68.2803L132.849 67.6723ZM132.975 67.9064L132.856 67.6846L131.771 68.268L131.891 68.4898L132.975 67.9064ZM133.196 68.3031C133.121 68.1537 133.039 68.0083 132.958 67.877L131.907 68.5193C131.974 68.6282 132.038 68.7414 132.092 68.8508L133.196 68.3031ZM133.26 68.6693V68.5769H132.028V68.6693H133.26ZM135.67 76.5986C135.373 73.7256 134.531 70.9366 133.189 68.3829L132.099 68.9557C133.367 71.3704 134.164 74.008 134.445 76.7253L135.67 76.5986ZM134.724 76.1352L134.65 76.1999L135.465 77.1241L135.538 77.0594L134.724 76.1352ZM135.747 78.9258V76.5973H134.515V78.9258H135.747ZM135.747 79.203V78.9258H134.515V79.203H135.747ZM135.049 84.5841C135.494 82.827 135.728 81.0225 135.747 79.2092L134.515 79.1968C134.498 80.9122 134.276 82.6193 133.855 84.2815L135.049 84.5841ZM134.948 84.9818L135.049 84.5844L133.855 84.2812L133.754 84.6786L134.948 84.9818ZM102.894 85.446H134.351V84.2143H102.894V85.446ZM107.582 88.7318C105.856 87.721 104.423 86.2705 103.429 84.5252L102.359 85.1351C103.46 87.0673 105.047 88.6744 106.96 89.7947L107.582 88.7318ZM113.265 90.285C111.269 90.2781 109.309 89.7426 107.582 88.7318L106.96 89.7947C108.874 90.9151 111.047 91.509 113.261 91.5166L113.265 90.285ZM114.245 90.285H113.263V91.5166H114.245V90.285ZM112.272 67.5665H113.263V66.3349H112.272V67.5665ZM106.426 69.8571C108.138 68.546 110.184 67.7511 112.326 67.5642L112.219 66.3372C109.843 66.5445 107.575 67.4262 105.677 68.8792L106.426 69.8571ZM102.654 74.9723C103.406 72.9417 104.714 71.1681 106.426 69.8571L105.677 68.8792C103.78 70.3322 102.331 72.2969 101.499 74.5447L102.654 74.9723ZM124.431 74.1427H102.077V75.3743H124.431V74.1427ZM119.717 69.5856C121.611 70.9099 123.055 72.7896 123.853 74.97L125.009 74.5471C124.126 72.1306 122.525 70.0457 120.423 68.5762L119.717 69.5856ZM113.266 67.5665C115.571 67.5567 117.823 68.2614 119.717 69.5856L120.423 68.5762C118.321 67.1066 115.82 66.3239 113.261 66.3349L113.266 67.5665ZM400.274 63.7695C404.26 59.7513 409.663 57.488 415.302 57.4738L415.298 56.2421C409.332 56.2572 403.615 58.6525 399.4 62.9021L400.274 63.7695ZM394.039 78.9146C394.046 73.2336 396.289 67.7878 400.274 63.7695L399.4 62.9021C395.185 67.1516 392.815 72.9089 392.807 78.9131L394.039 78.9146ZM400.281 94.0737C396.289 90.0527 394.044 84.6005 394.039 78.9133L392.807 78.9143C392.812 84.925 395.185 90.6891 399.407 94.9414L400.281 94.0737ZM415.328 100.363C409.684 100.356 404.272 98.0946 400.281 94.0737L399.407 94.9414C403.628 99.194 409.353 101.587 415.327 101.595L415.328 100.363ZM437.177 100.363H415.328V101.595H437.177V100.363ZM436.561 77.6756V100.979H437.793V77.6756H436.561ZM429.928 63.3298C433.882 67.0928 436.256 72.2382 436.562 77.71L437.792 77.6413C437.469 71.8579 434.959 66.4175 430.777 62.4376L429.928 63.3298ZM415.3 57.4738C420.739 57.472 425.973 59.567 429.928 63.3298L430.777 62.4376C426.594 58.4576 421.056 56.2402 415.3 56.2421L415.3 57.4738ZM427.845 90.9258V78.9138H426.614V90.9258H427.845ZM415.3 91.5417H427.229V90.31H415.3V91.5417ZM406.428 87.8416C408.78 90.2102 411.971 91.5417 415.3 91.5417V90.31C412.301 90.31 409.424 89.1104 407.302 86.9736L406.428 87.8416ZM402.755 78.9138C402.755 82.2616 404.075 85.473 406.428 87.8416L407.302 86.9736C405.179 84.8368 403.986 81.9376 403.986 78.9138H402.755ZM406.428 69.9861C404.075 72.3546 402.755 75.5661 402.755 78.9138H403.986C403.986 75.89 405.179 72.9909 407.302 70.854L406.428 69.9861ZM415.3 66.286C411.971 66.286 408.78 67.6175 406.428 69.9861L407.302 70.854C409.424 68.7173 412.301 67.5176 415.3 67.5176V66.286ZM420.105 67.245C418.581 66.6106 416.948 66.2847 415.299 66.286L415.3 67.5176C416.786 67.5165 418.258 67.8102 419.631 68.382L420.105 67.245ZM424.178 69.9827C423.012 68.8097 421.628 67.8794 420.105 67.245L419.631 68.382C421.005 68.9539 422.253 69.7928 423.305 70.8509L424.178 69.9827ZM426.899 74.0805C426.268 72.5481 425.344 71.1556 424.178 69.9827L423.305 70.8509C424.356 71.9091 425.191 73.1658 425.76 74.5493L426.899 74.0805ZM427.854 78.9138C427.854 77.2553 427.53 75.6129 426.899 74.0805L425.76 74.5493C426.33 75.9328 426.623 77.4159 426.623 78.9138H427.854ZM427.229 79.5297H427.239V78.298H427.229V79.5297ZM374.76 87.9056C373.03 89.2823 370.933 90.1108 368.735 90.2869L368.834 91.5146C371.276 91.3189 373.605 90.3982 375.527 88.8695L374.76 87.9056ZM374.87 87.8104L374.741 87.9213L375.546 88.8537L375.675 88.7429L374.87 87.8104ZM382.757 94.939L375.709 87.8427L374.835 88.7106L381.883 95.8069L382.757 94.939ZM369.447 101.531C374.377 101.151 379.045 99.1472 382.732 95.8308L381.908 94.9151C378.423 98.0505 374.01 99.9435 369.352 100.303L369.447 101.531ZM367.839 101.597C368.316 101.597 368.842 101.598 369.467 101.529L369.332 100.305C368.782 100.365 368.317 100.366 367.839 100.366V101.597ZM356.863 98.7296C360.216 100.621 363.997 101.609 367.841 101.597L367.837 100.366C364.207 100.376 360.636 99.4434 357.468 97.6568L356.863 98.7296ZM348.702 90.8035C350.699 94.1083 353.51 96.8384 356.863 98.7296L357.468 97.6568C354.301 95.8702 351.644 93.2904 349.756 90.1665L348.702 90.8035ZM348.568 90.5879L348.706 90.8097L349.752 90.1603L349.615 89.9385L348.568 90.5879ZM348.346 90.1991L348.557 90.5686L349.626 89.9578L349.415 89.5882L348.346 90.1991ZM348.214 89.9619L348.342 90.1929L349.419 89.5944L349.29 89.3634L348.214 89.9619ZM347.984 89.5373C348.057 89.6919 348.139 89.8422 348.229 89.9874L349.275 89.3378C349.21 89.2327 349.151 89.1239 349.098 89.0118L347.984 89.5373ZM347.972 89.5253L348.018 89.5992L349.064 88.9499L349.018 88.876L347.972 89.5253ZM345.469 81.2519C345.762 84.132 346.604 86.9284 347.95 89.4873L349.04 88.914C347.768 86.4948 346.971 83.8508 346.694 81.1273L345.469 81.2519ZM346.379 81.7391L346.461 81.6745L345.702 80.7046L345.619 80.7692L346.379 81.7391ZM345.383 78.9072V81.2542H346.615V78.9072H345.383ZM345.383 78.6486V78.9072H346.615V78.6486H345.383ZM351.525 63.4119C347.663 67.5395 345.473 72.9703 345.383 78.6388L346.615 78.6583C346.7 73.2945 348.772 68.1569 352.424 64.2534L351.525 63.4119ZM366.26 56.3297C360.642 56.7578 355.387 59.2843 351.525 63.4119L352.424 64.2534C356.077 60.35 361.045 57.9624 366.353 57.5578L366.26 56.3297ZM367.866 56.2633C367.398 56.2633 366.873 56.2629 366.24 56.3315L366.373 57.556C366.932 57.4953 367.398 57.4949 367.866 57.4949V56.2633ZM367.867 56.2633H367.866V57.4949H367.867V56.2633ZM378.846 59.1323C375.492 57.2414 371.71 56.2532 367.865 56.2633L367.868 57.4949C371.5 57.4854 375.072 58.4188 378.241 60.2053L378.846 59.1323ZM387.013 67.0568C385.013 63.7527 382.2 61.0232 378.846 59.1323L378.241 60.2053C381.41 61.9917 384.068 64.5711 385.959 67.6946L387.013 67.0568ZM387.141 67.2697L387.013 67.0572L385.959 67.6943L386.087 67.9068L387.141 67.2697ZM387.37 67.6723L387.15 67.2843L386.079 67.8922L386.299 68.2803L387.37 67.6723ZM387.496 67.9063L387.377 67.6845L386.292 68.268L386.412 68.4899L387.496 67.9063ZM387.717 68.303C387.642 68.1537 387.56 68.0083 387.479 67.877L386.428 68.5192C386.495 68.6281 386.559 68.7414 386.613 68.8508L387.717 68.303ZM387.781 68.6693V68.5769H386.549V68.6693H387.781ZM390.191 76.5995C389.898 73.725 389.056 70.9346 387.71 68.3821L386.62 68.9565C387.892 71.3691 388.689 74.0068 388.966 76.7244L390.191 76.5995ZM389.281 76.1124L389.199 76.1771L389.958 77.1467L390.041 77.082L389.281 76.1124ZM390.277 78.9257V76.5972H389.045V78.9257H390.277ZM390.277 79.2029V78.9257H389.045V79.2029H390.277ZM389.579 84.5841C390.024 82.8269 390.259 81.0224 390.277 79.2091L389.045 79.1967C389.028 80.9122 388.806 82.6193 388.385 84.2815L389.579 84.5841ZM389.478 84.9818L389.579 84.5844L388.385 84.2811L388.284 84.6785L389.478 84.9818ZM357.433 85.446H388.881V84.2143H357.433V85.446ZM362.116 88.7332C360.391 87.7224 358.96 86.2714 357.968 84.5259L356.898 85.1343C357.996 87.0673 359.581 88.6753 361.493 89.7959L362.116 88.7332ZM367.795 90.2849C365.8 90.2792 363.841 89.7441 362.116 88.7332L361.493 89.7959C363.406 90.9166 365.578 91.5102 367.792 91.5166L367.795 90.2849ZM368.784 90.2849H367.793V91.5166H368.784V90.2849ZM366.811 67.5665H367.793V66.3348H366.811V67.5665ZM360.96 69.8548C362.673 68.5437 364.721 67.7495 366.864 67.5642L366.758 66.3371C364.381 66.5427 362.111 67.4235 360.211 68.8766L360.96 69.8548ZM357.185 74.9723C357.937 72.9405 359.246 71.166 360.96 69.8548L360.211 68.8766C358.312 70.3298 356.862 72.2954 356.03 74.5447L357.185 74.9723ZM378.961 74.1427H356.607V75.3743H378.961V74.1427ZM374.249 69.584C376.143 70.9083 377.587 72.7886 378.383 74.9696L379.54 74.5473C378.657 72.13 377.057 70.0443 374.954 68.5745L374.249 69.584ZM367.796 67.5665C370.101 67.5554 372.354 68.2596 374.249 69.584L374.954 68.5745C372.852 67.1047 370.351 66.3225 367.79 66.3348L367.796 67.5665Z" fill="white" fill-opacity="0.6"/>
</g>
<g style="mix-blend-mode:screen">
<mask id="path-3-outside-1_90_168" maskUnits="userSpaceOnUse" x="31.512" y="42.6279" width="496" height="59" fill="black">
<rect fill="white" x="31.512" y="42.6279" width="496" height="59"/>
<path fill-rule="evenodd" clip-rule="evenodd" d="M207.36 67.1253V56.7765H198.973V43.6279H188.466V88.4975C188.471 91.7994 189.775 94.9646 192.094 97.2994C194.413 99.6343 197.556 100.948 200.836 100.953H207.36V90.4841H202.699C201.71 90.4816 200.762 90.0843 200.063 89.3793C199.365 88.6743 198.973 87.7192 198.973 86.7234V67.1253H207.36ZM80.0252 60.1929L80.585 59.463C81.9248 57.7258 83.9069 56.8573 86.6782 56.8018H90.0735V67.1691H84.0262C82.402 67.1691 81.2365 67.511 80.5666 68.2132C79.849 69.09 79.497 70.2129 79.5847 71.3456V100.978H69.1602V56.8018H78.3367L80.0252 60.1929ZM145.29 63.328C149.396 59.1933 154.963 56.8672 160.771 56.8599C166.364 56.8652 171.743 59.0245 175.805 62.8952C179.868 66.766 182.306 72.0548 182.62 77.6776V100.981H160.771C154.962 100.974 149.393 98.6463 145.287 94.5096C141.18 90.3729 138.871 84.7648 138.866 78.9158C138.873 73.0685 141.184 67.4627 145.29 63.328ZM172.7 90.9278V78.9158C172.7 75.73 171.443 72.6747 169.206 70.422C166.969 68.1693 163.934 66.9038 160.771 66.9038C157.607 66.9038 154.572 68.1693 152.335 70.422C150.098 72.6747 148.841 75.73 148.841 78.9158C148.841 82.1016 150.098 85.1569 152.335 87.4096C154.572 89.6623 157.607 90.9278 160.771 90.9278H172.7ZM39.1077 63.1807C36.9616 65.1753 35.2635 67.6086 34.1272 70.3176C32.9909 73.0267 32.4426 75.9489 32.519 78.8887C32.4488 81.8481 32.9993 84.7891 34.1347 87.5197C35.27 90.2503 36.9646 92.709 39.1077 94.7353C43.5033 98.8564 49.7708 100.945 57.7269 100.945H63.1686V90.6143H57.7269C48.4953 90.6143 43.2096 86.3547 43.2096 78.9257C43.2096 71.4967 48.4953 67.237 57.7269 67.237H63.1686V56.879H57.7269C49.725 56.879 43.4574 59.0042 39.1077 63.1807ZM258.904 56.879L248.177 86.3824L237.45 56.879H226.364L242.396 100.972H253.958L269.999 56.879H258.904ZM518.858 85.3107C516.794 85.3107 514.815 86.1363 513.355 87.6057C511.896 89.0752 511.076 91.0682 511.076 93.1463C511.076 95.2244 511.896 97.2174 513.355 98.6868C514.815 100.156 516.794 100.982 518.858 100.982H526.621V92.6658C526.502 90.6745 525.632 88.8042 524.189 87.4372C522.746 86.0701 520.839 85.3095 518.858 85.3107ZM213.15 56.9535H223.51V100.973H213.15V56.9535ZM499.687 61.8869C496.241 58.6279 491.678 56.8339 486.95 56.8789C482.207 56.8211 477.627 58.6199 474.176 61.8962L474.011 62.0625L473.837 61.8869C470.393 58.623 465.829 56.8282 461.1 56.8789C458.456 56.8664 455.84 57.424 453.428 58.5143V56.9528H443.068V100.981H453.428V76.6248C453.538 70.3601 456.236 66.9043 461.1 66.9043C465.963 66.9043 468.863 70.5541 468.891 76.9112V100.981H479.233V76.8927C479.233 70.4247 481.986 66.895 486.923 66.895C491.859 66.895 494.713 70.5911 494.713 76.9759V101H505.055V76.9759C505.083 70.2769 503.266 65.1949 499.687 61.8869ZM344.264 56.7765V67.1253H335.877V86.7234C335.879 87.72 336.273 88.6752 336.973 89.3799C337.673 90.0846 338.622 90.4816 339.612 90.4841H344.264V100.953H337.74C334.461 100.948 331.319 99.6339 329.001 97.2989C326.684 94.9638 325.381 91.7985 325.379 88.4975V43.6279H335.877V56.7765H344.264ZM298.455 88.3875C296.626 89.8405 294.41 90.715 292.087 90.9008H291.105C289 90.8935 286.933 90.3288 285.113 89.2633C283.293 88.1977 281.783 86.6689 280.735 84.8302H312.193L312.294 84.4328C312.727 82.7231 312.955 80.9673 312.973 79.203V78.9258V76.5973L312.899 76.662C312.61 73.8668 311.791 71.1535 310.486 68.6693L310.44 68.5769C310.376 68.4476 310.302 68.3182 310.229 68.1981L310.1 67.9763C310.034 67.8431 309.96 67.7135 309.88 67.5883L309.752 67.3757C307.809 64.1614 305.075 61.5064 301.815 59.6675C298.555 57.8286 294.879 56.8682 291.142 56.8791H291.141C290.664 56.8791 290.168 56.8791 289.582 56.9437C284.121 57.3702 279.014 59.83 275.258 63.8431C271.501 67.8562 269.365 73.1348 269.265 78.6486V78.9073V81.2542L269.347 81.1896C269.632 83.9915 270.452 86.7116 271.761 89.2007V89.2746L271.981 89.6627L272.109 89.8937C272.174 90.0227 272.247 90.1425 272.32 90.2624L272.321 90.2632L272.449 90.4851C274.395 93.6989 277.13 96.3532 280.392 98.1919C283.653 100.031 287.33 100.991 291.068 100.982C291.536 100.982 292.032 100.982 292.628 100.917C297.422 100.545 301.962 98.5971 305.549 95.373L298.501 88.2767L298.455 88.3875ZM290.114 66.9507H291.105C293.537 66.9403 295.914 67.684 297.912 69.0809C299.91 70.4778 301.432 72.4601 302.273 74.7585H279.919C280.705 72.6156 282.082 70.7429 283.887 69.36C285.693 67.977 287.853 67.1413 290.114 66.9507ZM114.245 90.9008C116.568 90.715 118.784 89.8405 120.614 88.3875L120.705 88.2767L127.753 95.373C124.166 98.5971 119.626 100.545 114.832 100.917C114.19 100.982 113.74 100.982 113.272 100.982C109.534 100.991 105.857 100.031 102.596 98.1919C99.3341 96.3532 96.5986 93.6989 94.6531 90.4851L94.5247 90.2632L94.5238 90.2618L94.5237 90.2617C94.4506 90.1421 94.3775 90.0225 94.3136 89.8937L94.1851 89.6627L93.9649 89.2746V89.2007C92.6558 86.7116 91.8363 83.9915 91.5514 81.1896L91.4689 81.2542V78.9073V78.6486C91.5688 73.1348 93.7056 67.8562 97.4621 63.8431C101.219 59.83 106.325 57.3702 111.786 56.9437C112.373 56.8791 112.868 56.8791 113.345 56.8791H113.346C117.083 56.8682 120.759 57.8286 124.019 59.6675C127.279 61.5064 130.013 64.1614 131.956 67.3757L132.084 67.5883C132.167 67.7176 132.24 67.847 132.314 67.9763L132.433 68.1981C132.506 68.3182 132.58 68.4476 132.644 68.5769V68.6693C133.949 71.1535 134.768 73.8668 135.057 76.662L135.131 76.5973V78.9258V79.203C135.113 80.9673 134.885 82.7231 134.452 84.4328L134.351 84.8302H102.894C103.941 86.6689 105.451 88.1977 107.271 89.2633C109.091 90.3288 111.158 90.8935 113.263 90.9008H114.245ZM113.263 66.9507H112.272C110.013 67.1478 107.856 67.9861 106.052 69.3681C104.247 70.7502 102.869 72.6193 102.077 74.7585H124.431C123.591 72.4601 122.068 70.4778 120.07 69.0809C118.072 67.684 115.696 66.9403 113.263 66.9507ZM415.3 56.8579C409.498 56.8726 403.937 59.2019 399.837 63.3358C395.737 67.4697 393.43 73.0713 393.423 78.9138C393.428 84.7628 395.737 90.3709 399.844 94.5076C403.95 98.6443 409.519 100.972 415.328 100.979H437.177V77.6756C436.863 72.0481 434.421 66.7552 430.352 62.8837C426.284 59.0123 420.898 56.8561 415.3 56.8579ZM427.229 78.9138V90.9258H415.3C412.136 90.9258 409.102 89.6603 406.865 87.4076C404.627 85.1549 403.37 82.0996 403.37 78.9138C403.37 75.728 404.627 72.6727 406.865 70.42C409.102 68.1674 412.136 66.9018 415.3 66.9018C416.867 66.9006 418.42 67.2104 419.868 67.8135C421.316 68.4166 422.633 69.3012 423.741 70.4168C424.85 71.5323 425.73 72.8569 426.33 74.3149C426.93 75.7729 427.239 77.3356 427.239 78.9138H427.229ZM368.784 90.9008C371.104 90.7148 373.317 89.8402 375.144 88.3875L375.272 88.2766L382.32 95.373C378.734 98.5989 374.194 100.547 369.399 100.917C368.812 100.982 368.316 100.982 367.839 100.982C364.102 100.993 360.426 100.032 357.166 98.1932C353.905 96.3543 351.172 93.6993 349.229 90.485L349.092 90.2632L348.88 89.8936L348.752 89.6626C348.674 89.5375 348.604 89.4079 348.541 89.2746L348.495 89.2006C347.186 86.7116 346.367 83.9914 346.082 81.1896L345.999 81.2542V78.9072V78.6486C346.086 73.1324 348.218 67.8482 351.975 63.8327C355.732 59.8172 360.843 57.3601 366.307 56.9437C366.903 56.8791 367.398 56.8791 367.866 56.8791H367.867C371.605 56.8693 375.282 57.8301 378.543 59.6688C381.805 61.5075 384.54 64.1619 386.486 67.3757L386.614 67.5882L386.835 67.9763L386.954 68.1981C387.027 68.3182 387.101 68.4476 387.165 68.5769V68.6693C388.474 71.1518 389.293 73.8659 389.578 76.6619L389.661 76.5972V78.9257V79.2029C389.643 80.9673 389.415 82.7231 388.982 84.4328L388.881 84.8301H357.433C358.478 86.6694 359.986 88.1988 361.805 89.2646C363.623 90.3303 365.689 90.8947 367.793 90.9008H368.784ZM367.793 66.9507H366.811C364.551 67.1461 362.392 67.9836 360.586 69.3657C358.779 70.7479 357.4 72.618 356.607 74.7585H378.961C378.122 72.4593 376.6 70.4763 374.601 69.0792C372.603 67.6822 370.226 66.9389 367.793 66.9507Z"/>
</mask>
<path d="M207.36 56.7765H207.976V56.1606H207.36V56.7765ZM207.36 67.1253V67.7411H207.976V67.1253H207.36ZM198.973 56.7765H198.357V57.3923H198.973V56.7765ZM198.973 43.6279H199.589V43.0121H198.973V43.6279ZM188.466 43.6279V43.0121H187.85V43.6279H188.466ZM188.466 88.4975H187.85L187.85 88.4984L188.466 88.4975ZM200.836 100.953L200.835 101.569H200.836V100.953ZM207.36 100.953V101.569H207.976V100.953H207.36ZM207.36 90.4841H207.976V89.8682H207.36V90.4841ZM202.699 90.4841L202.697 91.0999H202.699V90.4841ZM198.973 67.1253V66.5095H198.357V67.1253H198.973ZM80.585 59.463L80.0974 59.0869L80.0963 59.0882L80.585 59.463ZM80.0252 60.1929L79.4739 60.4674L79.9136 61.3504L80.5139 60.5677L80.0252 60.1929ZM86.6782 56.8018V56.1859L86.6659 56.1861L86.6782 56.8018ZM90.0735 56.8018H90.6894V56.186H90.0735V56.8018ZM90.0735 67.1691V67.7849H90.6894V67.1691H90.0735ZM80.5666 68.2132L80.121 67.7882L80.1049 67.8051L80.0901 67.8232L80.5666 68.2132ZM79.5847 71.3456H80.2006V71.3218L80.1987 71.2981L79.5847 71.3456ZM79.5847 100.978V101.594H80.2006V100.978H79.5847ZM69.1602 100.978H68.5444V101.594H69.1602V100.978ZM69.1602 56.8018V56.186H68.5444V56.8018H69.1602ZM78.3367 56.8018L78.888 56.5274L78.7181 56.186H78.3367V56.8018ZM160.771 56.8599L160.771 56.2441L160.77 56.2441L160.771 56.8599ZM145.29 63.328L144.853 62.8941L144.853 62.8941L145.29 63.328ZM175.805 62.8952L175.38 63.3411V63.3411L175.805 62.8952ZM182.62 77.6776H183.236V77.6604L183.235 77.6433L182.62 77.6776ZM182.62 100.981V101.597H183.236V100.981H182.62ZM160.771 100.981L160.77 101.597H160.771V100.981ZM145.287 94.5096L144.85 94.9434L145.287 94.5096ZM138.866 78.9158L138.25 78.915V78.9163L138.866 78.9158ZM172.7 90.9278V91.5437H173.316V90.9278H172.7ZM169.206 70.422L168.769 70.856V70.856L169.206 70.422ZM152.335 87.4096L151.898 87.8435L152.335 87.4096ZM34.1272 70.3176L33.5593 70.0794L34.1272 70.3176ZM39.1077 63.1807L39.527 63.6318L39.5343 63.6249L39.1077 63.1807ZM32.519 78.8887L33.1346 78.9033L33.135 78.888L33.1346 78.8727L32.519 78.8887ZM34.1347 87.5197L33.566 87.7561H33.566L34.1347 87.5197ZM39.1077 94.7353L38.6846 95.1828L38.6865 95.1846L39.1077 94.7353ZM63.1686 100.945V101.56H63.7844V100.945H63.1686ZM63.1686 90.6143H63.7844V89.9984H63.1686V90.6143ZM63.1686 67.237V67.8529H63.7844V67.237H63.1686ZM63.1686 56.879H63.7844V56.2632H63.1686V56.879ZM248.177 86.3824L247.598 86.5928L248.177 88.1846L248.756 86.5928L248.177 86.3824ZM258.904 56.879V56.2632H258.473L258.326 56.6686L258.904 56.879ZM237.45 56.879L238.028 56.6686L237.881 56.2632H237.45V56.879ZM226.364 56.879V56.2632H225.485L225.786 57.0894L226.364 56.879ZM242.396 100.972L241.817 101.183L241.964 101.588H242.396V100.972ZM253.958 100.972V101.588H254.39L254.537 101.183L253.958 100.972ZM269.999 56.879L270.578 57.0895L270.878 56.2632H269.999V56.879ZM518.858 85.3107V85.9266H518.858L518.858 85.3107ZM526.621 100.982V101.598H527.237V100.982H526.621ZM526.621 92.6658H527.237V92.6474L527.236 92.629L526.621 92.6658ZM223.51 56.9535H224.126V56.3376H223.51V56.9535ZM213.15 56.9535V56.3376H212.534V56.9535H213.15ZM223.51 100.973V101.589H224.126V100.973H223.51ZM213.15 100.973H212.534V101.589H213.15V100.973ZM486.95 56.8789L486.943 57.4948L486.956 57.4947L486.95 56.8789ZM499.687 61.8869L499.264 62.3344L499.269 62.3392L499.687 61.8869ZM474.176 61.8962L473.752 61.4496L473.746 61.4558L473.739 61.4622L474.176 61.8962ZM474.011 62.0625L473.574 62.4965L474.011 62.9364L474.448 62.4965L474.011 62.0625ZM473.837 61.8869L474.274 61.453L474.267 61.4464L474.26 61.44L473.837 61.8869ZM461.1 56.8789L461.097 57.4948L461.106 57.4947L461.1 56.8789ZM453.428 58.5143H452.812V59.4685L453.682 59.0755L453.428 58.5143ZM453.428 56.9528H454.044V56.3369H453.428V56.9528ZM443.068 56.9528V56.3369H442.452V56.9528H443.068ZM443.068 100.981H442.452V101.597H443.068V100.981ZM453.428 100.981V101.597H454.044V100.981H453.428ZM453.428 76.6248L452.812 76.614V76.6248H453.428ZM468.891 76.9112H469.506L469.506 76.9086L468.891 76.9112ZM468.891 100.981H468.275V101.597H468.891V100.981ZM479.233 100.981V101.597H479.848V100.981H479.233ZM494.713 101H494.098V101.616H494.713V101ZM505.055 101V101.616H505.671V101H505.055ZM505.055 76.9759L504.44 76.9734V76.9759H505.055ZM344.264 67.1253V67.7411H344.88V67.1253H344.264ZM344.264 56.7765H344.88V56.1606H344.264V56.7765ZM335.877 67.1253V66.5095H335.261V67.1253H335.877ZM335.877 86.7234H335.261V86.7249L335.877 86.7234ZM336.973 89.3799L337.41 88.9459V88.9459L336.973 89.3799ZM339.612 90.4841L339.61 91.0999H339.612V90.4841ZM344.264 90.4841H344.88V89.8682H344.264V90.4841ZM344.264 100.953V101.569H344.88V100.953H344.264ZM337.74 100.953L337.739 101.569H337.74V100.953ZM329.001 97.2989L328.564 97.7327L329.001 97.2989ZM325.379 88.4975H324.763V88.4979L325.379 88.4975ZM325.379 43.6279V43.0121H324.763V43.6279H325.379ZM335.877 43.6279H336.493V43.0121H335.877V43.6279ZM335.877 56.7765H335.261V57.3923H335.877V56.7765ZM292.087 90.9008V91.5166H292.111L292.136 91.5147L292.087 90.9008ZM298.455 88.3875L298.838 88.8698L298.963 88.7705L299.024 88.623L298.455 88.3875ZM291.105 90.9008L291.103 91.5166H291.105V90.9008ZM285.113 89.2633L284.802 89.7947L285.113 89.2633ZM280.735 84.8302V84.2143H279.676L280.2 85.1351L280.735 84.8302ZM312.193 84.8302V85.446H312.672L312.789 84.9818L312.193 84.8302ZM312.294 84.4328L312.89 84.5844L312.891 84.5841L312.294 84.4328ZM312.973 79.203L313.588 79.2092V79.203H312.973ZM312.973 76.5973H313.588V75.2336L312.565 76.1353L312.973 76.5973ZM312.899 76.662L312.287 76.7253L312.41 77.9143L313.306 77.124L312.899 76.662ZM310.486 68.6693L309.934 68.9433L309.941 68.9557L310.486 68.6693ZM310.44 68.5769L310.991 68.3031V68.303L310.44 68.5769ZM310.229 68.1981L309.696 68.5067L309.7 68.513L309.703 68.5192L310.229 68.1981ZM310.1 67.9763L309.549 68.2511L309.558 68.2683L309.567 68.2849L310.1 67.9763ZM309.88 67.5883L309.353 67.9068L309.357 67.9137L309.362 67.9206L309.88 67.5883ZM309.752 67.3757L309.225 67.6943L309.225 67.6943L309.752 67.3757ZM301.815 59.6675L302.118 59.1311L301.815 59.6675ZM291.142 56.8791V57.4949L291.143 57.4949L291.142 56.8791ZM289.582 56.9437L289.63 57.5577L289.639 57.5569L289.649 57.5559L289.582 56.9437ZM275.258 63.8431L275.708 64.264L275.708 64.264L275.258 63.8431ZM269.265 78.6486L268.649 78.6374V78.6486H269.265ZM269.265 81.2542H268.649V82.5182L269.644 81.7392L269.265 81.2542ZM269.347 81.1896L269.96 81.1273L269.847 80.0165L268.968 80.7046L269.347 81.1896ZM271.761 89.2007H272.377V89.0486L272.306 88.914L271.761 89.2007ZM271.761 89.2746H271.145V89.4372L271.225 89.5786L271.761 89.2746ZM271.981 89.6627L272.519 89.3634L272.517 89.3587L271.981 89.6627ZM272.109 89.8937L272.661 89.6198L272.655 89.6069L272.648 89.5944L272.109 89.8937ZM272.32 90.2624L271.794 90.5835L271.797 90.5881L272.32 90.2624ZM272.321 90.2632L272.853 89.9545L272.848 89.9459L272.843 89.9375L272.321 90.2632ZM272.449 90.4851L271.916 90.7938L271.922 90.804L272.449 90.4851ZM280.392 98.1919L280.694 97.6555L280.392 98.1919ZM291.068 100.982V100.366L291.067 100.366L291.068 100.982ZM292.628 100.917L292.581 100.303L292.571 100.304L292.562 100.305L292.628 100.917ZM305.549 95.373L305.96 95.831L306.442 95.3983L305.986 94.939L305.549 95.373ZM298.501 88.2767L298.938 87.8427L298.286 87.186L297.932 88.0413L298.501 88.2767ZM291.105 66.9507V67.5665L291.108 67.5665L291.105 66.9507ZM290.114 66.9507V66.3349H290.088L290.062 66.337L290.114 66.9507ZM297.912 69.0809L297.559 69.5856L297.912 69.0809ZM302.273 74.7585V75.3743H303.154L302.851 74.5471L302.273 74.7585ZM279.919 74.7585L279.341 74.5464L279.037 75.3743H279.919V74.7585ZM283.887 69.36L283.513 68.871L283.513 68.871L283.887 69.36ZM120.614 88.3875L120.997 88.8698L121.047 88.8298L121.088 88.7801L120.614 88.3875ZM114.245 90.9008V91.5166H114.27L114.294 91.5147L114.245 90.9008ZM120.705 88.2767L121.142 87.8427L120.664 87.3609L120.231 87.8841L120.705 88.2767ZM127.753 95.373L128.165 95.831L128.646 95.3983L128.19 94.939L127.753 95.373ZM114.832 100.917L114.785 100.303L114.771 100.304L114.832 100.917ZM113.272 100.982V100.366L113.271 100.366L113.272 100.982ZM102.596 98.1919L102.293 98.7284L102.596 98.1919ZM94.6531 90.4851L94.12 90.7937L94.1263 90.804L94.6531 90.4851ZM94.5247 90.2632L95.0577 89.9546L95.0509 89.9433L94.5247 90.2632ZM94.5238 90.2618L95.05 89.9419L95.046 89.9354L94.5238 90.2618ZM94.5237 90.2617L93.9983 90.5829L94.0015 90.5881L94.5237 90.2617ZM94.3136 89.8937L94.8651 89.6198L94.8587 89.6069L94.8518 89.5943L94.3136 89.8937ZM94.1851 89.6627L94.7233 89.3633L94.7207 89.3587L94.1851 89.6627ZM93.9649 89.2746H93.349V89.4372L93.4293 89.5786L93.9649 89.2746ZM93.9649 89.2007H94.5807V89.0486L94.5099 88.914L93.9649 89.2007ZM91.5514 81.1896L92.1641 81.1273L92.0511 80.0163L91.1718 80.7047L91.5514 81.1896ZM91.4689 81.2542H90.853V82.5184L91.8485 81.7391L91.4689 81.2542ZM91.4689 78.6486L90.853 78.6374V78.6486H91.4689ZM97.4621 63.8431L97.9117 64.264V64.264L97.4621 63.8431ZM111.786 56.9437L111.834 57.5577L111.843 57.5569L111.853 57.5559L111.786 56.9437ZM113.346 56.8791V57.4949L113.347 57.4949L113.346 56.8791ZM124.019 59.6675L123.717 60.2039L124.019 59.6675ZM131.956 67.3757L131.429 67.6943L131.429 67.6944L131.956 67.3757ZM132.084 67.5883L131.557 67.9069L131.561 67.9133L131.565 67.9196L132.084 67.5883ZM132.314 67.9763L132.856 67.6845L132.849 67.6723L132.314 67.9763ZM132.433 68.1981L131.891 68.4898L131.899 68.5048L131.907 68.5193L132.433 68.1981ZM132.644 68.5769H133.26V68.4325L133.196 68.3031L132.644 68.5769ZM132.644 68.6693H132.028V68.8212L132.099 68.9557L132.644 68.6693ZM135.057 76.662L134.445 76.7253L134.568 77.914L135.465 77.1241L135.057 76.662ZM135.131 76.5973H135.747V75.234L134.724 76.1352L135.131 76.5973ZM135.131 79.203L135.747 79.2092V79.203H135.131ZM134.452 84.4328L135.049 84.5844L135.049 84.5841L134.452 84.4328ZM134.351 84.8302V85.446H134.83L134.948 84.9818L134.351 84.8302ZM102.894 84.8302V84.2143H101.834L102.359 85.1351L102.894 84.8302ZM107.271 89.2633L106.96 89.7947L107.271 89.2633ZM113.263 90.9008L113.261 91.5166H113.263V90.9008ZM112.272 66.9507V66.3349H112.245L112.219 66.3372L112.272 66.9507ZM113.263 66.9507V67.5665L113.266 67.5665L113.263 66.9507ZM102.077 74.7585L101.499 74.5447L101.192 75.3743H102.077V74.7585ZM124.431 74.7585V75.3743H125.312L125.009 74.5471L124.431 74.7585ZM120.07 69.0809L119.717 69.5856L120.07 69.0809ZM399.837 63.3358L399.4 62.9021V62.9021L399.837 63.3358ZM415.3 56.8579L415.3 56.2421L415.298 56.2421L415.3 56.8579ZM393.423 78.9138L392.807 78.9131V78.9143L393.423 78.9138ZM399.844 94.5076L400.281 94.0737L399.844 94.5076ZM415.328 100.979L415.327 101.595H415.328V100.979ZM437.177 100.979V101.595H437.793V100.979H437.177ZM437.177 77.6756H437.793V77.6585L437.792 77.6413L437.177 77.6756ZM430.352 62.8837L429.928 63.3298V63.3298L430.352 62.8837ZM427.229 90.9258V91.5417H427.845V90.9258H427.229ZM427.229 78.9138V78.298H426.614V78.9138H427.229ZM406.865 87.4076L407.302 86.9736V86.9736L406.865 87.4076ZM406.865 70.42L407.302 70.854V70.854L406.865 70.42ZM415.3 66.9018V67.5176H415.3L415.3 66.9018ZM427.239 78.9138V79.5297H427.854V78.9138H427.239ZM375.144 88.3875L375.527 88.8695L375.537 88.8618L375.546 88.8537L375.144 88.3875ZM368.784 90.9008V91.5166H368.809L368.834 91.5146L368.784 90.9008ZM375.272 88.2766L375.709 87.8427L375.305 87.4353L374.87 87.8104L375.272 88.2766ZM382.32 95.373L382.732 95.8308L383.213 95.3981L382.757 94.939L382.32 95.373ZM369.399 100.917L369.352 100.303L369.342 100.304L369.332 100.305L369.399 100.917ZM367.839 100.982V100.366L367.837 100.366L367.839 100.982ZM349.229 90.485L349.756 90.1664L349.752 90.1603L349.229 90.485ZM349.092 90.2632L348.557 90.5686L348.562 90.5784L348.568 90.5879L349.092 90.2632ZM348.88 89.8936L348.342 90.1929L348.346 90.1991L348.88 89.8936ZM348.752 89.6626L349.29 89.3634L349.283 89.3504L349.275 89.3378L348.752 89.6626ZM348.541 89.2746L349.098 89.0118L349.083 88.9799L349.064 88.9499L348.541 89.2746ZM348.495 89.2006L347.95 89.4873L347.96 89.5067L347.972 89.5253L348.495 89.2006ZM346.082 81.1896L346.694 81.1273L346.581 80.0164L345.702 80.7046L346.082 81.1896ZM345.999 81.2542H345.383V82.5182L346.379 81.7391L345.999 81.2542ZM345.999 78.6486L345.383 78.6388V78.6486H345.999ZM366.307 56.9437L366.353 57.5578L366.363 57.557L366.373 57.556L366.307 56.9437ZM367.867 56.8791V57.4949L367.868 57.4949L367.867 56.8791ZM378.543 59.6688L378.241 60.2053V60.2053L378.543 59.6688ZM386.486 67.3757L387.013 67.0572L387.013 67.0568L386.486 67.3757ZM386.614 67.5882L387.15 67.2843L387.146 67.2769L387.141 67.2697L386.614 67.5882ZM386.835 67.9763L387.377 67.6845L387.37 67.6723L386.835 67.9763ZM386.954 68.1981L386.412 68.4899L386.42 68.5048L386.428 68.5192L386.954 68.1981ZM387.165 68.5769H387.781V68.4324L387.717 68.303L387.165 68.5769ZM387.165 68.6693H386.549V68.8217L386.62 68.9565L387.165 68.6693ZM389.578 76.6619L388.966 76.7244L389.079 77.8354L389.958 77.1467L389.578 76.6619ZM389.661 76.5972H390.277V75.3325L389.281 76.1124L389.661 76.5972ZM389.661 79.2029L390.277 79.2091V79.2029H389.661ZM388.982 84.4328L389.579 84.5844L389.579 84.5841L388.982 84.4328ZM388.881 84.8301V85.446H389.36L389.478 84.9818L388.881 84.8301ZM357.433 84.8301V84.2143H356.375L356.898 85.1343L357.433 84.8301ZM367.793 90.9008L367.792 91.5166H367.793V90.9008ZM366.811 66.9507V66.3348H366.785L366.758 66.3371L366.811 66.9507ZM367.793 66.9507V67.5665L367.796 67.5665L367.793 66.9507ZM356.607 74.7585L356.03 74.5447L355.722 75.3743H356.607V74.7585ZM378.961 74.7585V75.3743H379.841L379.54 74.5473L378.961 74.7585ZM374.601 69.0792L374.954 68.5745L374.601 69.0792ZM206.744 56.7765V67.1253H207.976V56.7765H206.744ZM198.973 57.3923H207.36V56.1606H198.973V57.3923ZM198.357 43.6279V56.7765H199.589V43.6279H198.357ZM188.466 44.2438H198.973V43.0121H188.466V44.2438ZM189.082 88.4975V43.6279H187.85V88.4975H189.082ZM192.531 96.8655C190.327 94.6463 189.086 91.6368 189.082 88.4966L187.85 88.4984C187.855 91.9619 189.224 95.283 191.657 97.7334L192.531 96.8655ZM200.837 100.337C197.722 100.333 194.735 99.0846 192.531 96.8655L191.657 97.7334C194.091 100.184 197.391 101.564 200.835 101.569L200.837 100.337ZM207.36 100.337H200.836V101.569H207.36V100.337ZM206.744 90.4841V100.953H207.976V90.4841H206.744ZM202.699 91.0999H207.36V89.8682H202.699V91.0999ZM199.626 89.8127C200.439 90.6337 201.544 91.0971 202.697 91.0999L202.7 89.8682C201.876 89.8662 201.085 89.535 200.501 88.9459L199.626 89.8127ZM198.357 86.7234C198.357 87.8809 198.813 88.992 199.626 89.8127L200.501 88.9459C199.917 88.3567 199.589 87.5575 199.589 86.7234H198.357ZM198.357 67.1253V86.7234H199.589V67.1253H198.357ZM207.36 66.5095H198.973V67.7411H207.36V66.5095ZM80.0963 59.0882L79.5365 59.8181L80.5139 60.5677L81.0737 59.8377L80.0963 59.0882ZM86.6659 56.1861C83.7607 56.2442 81.5798 57.1647 80.0974 59.0869L81.0726 59.8391C82.2697 58.287 84.053 57.4703 86.6905 57.4175L86.6659 56.1861ZM90.0735 56.186H86.6782V57.4177H90.0735V56.186ZM90.6894 67.1691V56.8018H89.4577V67.1691H90.6894ZM84.0262 67.7849H90.0735V66.5533H84.0262V67.7849ZM81.0122 68.6383C81.5054 68.1213 82.4559 67.7849 84.0262 67.7849V66.5533C82.348 66.5533 80.9676 66.9007 80.121 67.7882L81.0122 68.6383ZM80.1987 71.2981C80.1232 70.323 80.4263 69.357 81.0432 68.6033L80.0901 67.8232C79.2717 68.8231 78.8708 70.1028 78.9707 71.3932L80.1987 71.2981ZM80.2006 100.978V71.3456H78.9689V100.978H80.2006ZM69.1602 101.594H79.5847V100.363H69.1602V101.594ZM68.5444 56.8018V100.978H69.776V56.8018H68.5444ZM78.3367 56.186H69.1602V57.4177H78.3367V56.186ZM80.5765 59.9184L78.888 56.5274L77.7855 57.0763L79.4739 60.4674L80.5765 59.9184ZM160.77 56.2441C154.798 56.2516 149.074 58.6436 144.853 62.8941L145.727 63.762C149.718 59.743 155.129 57.4829 160.771 57.4757L160.77 56.2441ZM176.23 62.4494C172.054 58.4701 166.523 56.2495 160.771 56.2441L160.77 57.4757C166.204 57.4809 171.432 59.5789 175.38 63.3411L176.23 62.4494ZM183.235 77.6433C182.912 71.8648 180.406 66.4286 176.23 62.4494L175.38 63.3411C179.329 67.1034 181.7 72.2449 182.005 77.712L183.235 77.6433ZM183.236 100.981V77.6776H182.004V100.981H183.236ZM160.771 101.597H182.62V100.365H160.771V101.597ZM144.85 94.9434C149.071 99.1959 154.797 101.589 160.77 101.597L160.771 100.365C155.127 100.358 149.715 98.0966 145.724 94.0757L144.85 94.9434ZM138.25 78.9163C138.255 84.927 140.628 90.6911 144.85 94.9434L145.724 94.0757C141.732 90.0547 139.487 84.6025 139.482 78.9153L138.25 78.9163ZM144.853 62.8941C140.632 67.1444 138.258 72.906 138.25 78.915L139.482 78.9166C139.489 73.2309 141.735 67.7811 145.727 63.762L144.853 62.8941ZM172.084 78.9158V90.9278H173.316V78.9158H172.084ZM168.769 70.856C170.891 72.9929 172.084 75.892 172.084 78.9158H173.316C173.316 75.5681 171.995 72.3566 169.643 69.9881L168.769 70.856ZM160.771 67.5196C163.77 67.5196 166.647 68.7193 168.769 70.856L169.643 69.9881C167.291 67.6194 164.099 66.288 160.771 66.288V67.5196ZM152.772 70.856C154.894 68.7193 157.771 67.5196 160.771 67.5196V66.288C157.442 66.288 154.251 67.6194 151.898 69.9881L152.772 70.856ZM149.457 78.9158C149.457 75.892 150.65 72.9929 152.772 70.856L151.898 69.9881C149.546 72.3566 148.225 75.5681 148.225 78.9158H149.457ZM152.772 86.9756C150.65 84.8387 149.457 81.9396 149.457 78.9158H148.225C148.225 82.2636 149.546 85.475 151.898 87.8435L152.772 86.9756ZM160.771 90.312C157.771 90.312 154.894 89.1124 152.772 86.9756L151.898 87.8435C154.251 90.2122 157.442 91.5437 160.771 91.5437V90.312ZM172.7 90.312H160.771V91.5437H172.7V90.312ZM34.6951 70.5558C35.7977 67.9273 37.4452 65.5666 39.527 63.6317L38.6885 62.7296C36.4781 64.7839 34.7294 67.2899 33.5593 70.0794L34.6951 70.5558ZM33.1346 78.8727C33.0605 76.02 33.5926 73.1844 34.6951 70.5558L33.5593 70.0794C32.3892 72.869 31.8247 75.8779 31.9033 78.9047L33.1346 78.8727ZM34.7033 87.2832C33.6011 84.6322 33.0665 81.7767 33.1346 78.9033L31.9033 78.8741C31.8311 81.9194 32.3976 84.946 33.566 87.7561L34.7033 87.2832ZM39.5308 94.2879C37.4506 92.321 35.8056 89.9343 34.7033 87.2832L33.566 87.7561C34.7344 90.5663 36.4785 93.097 38.6846 95.1828L39.5308 94.2879ZM57.7269 100.329C49.8756 100.329 43.7775 98.2693 39.5289 94.2861L38.6865 95.1846C43.229 99.4434 49.6661 101.56 57.7269 101.56V100.329ZM63.1686 100.329H57.7269V101.56H63.1686V100.329ZM62.5528 90.6143V100.945H63.7844V90.6143H62.5528ZM57.7269 91.2301H63.1686V89.9984H57.7269V91.2301ZM42.5938 78.9257C42.5938 82.799 43.9794 85.9088 46.6201 88.0355C49.2417 90.1467 53.0264 91.2301 57.7269 91.2301V89.9984C53.1958 89.9984 49.7219 88.952 47.3927 87.0762C45.0826 85.2158 43.8254 82.4813 43.8254 78.9257H42.5938ZM57.7269 66.6212C53.0264 66.6212 49.2417 67.7046 46.6201 69.8159C43.9794 71.9425 42.5938 75.0523 42.5938 78.9257H43.8254C43.8254 75.37 45.0826 72.6355 47.3927 70.7751C49.7219 68.8993 53.1958 67.8529 57.7269 67.8529V66.6212ZM63.1686 66.6212H57.7269V67.8529H63.1686V66.6212ZM62.5528 56.879V67.237H63.7844V56.879H62.5528ZM57.7269 57.4948H63.1686V56.2632H57.7269V57.4948ZM39.5343 63.6249C43.736 59.5905 49.8309 57.4948 57.7269 57.4948V56.2632C49.619 56.2632 43.1788 58.4179 38.6812 62.7364L39.5343 63.6249ZM248.756 86.5928L259.483 57.0894L258.326 56.6686L247.598 86.1719L248.756 86.5928ZM236.871 57.0894L247.598 86.5928L248.756 86.1719L238.028 56.6686L236.871 57.0894ZM226.364 57.4948H237.45V56.2632H226.364V57.4948ZM242.975 100.762L226.943 56.6686L225.786 57.0894L241.817 101.183L242.975 100.762ZM253.958 100.357H242.396V101.588H253.958V100.357ZM269.42 56.6685L253.38 100.762L254.537 101.183L270.578 57.0895L269.42 56.6685ZM258.904 57.4948H269.999V56.2632H258.904V57.4948ZM513.792 88.0397C515.136 86.6862 516.959 85.9266 518.858 85.9266V84.6949C516.629 84.6949 514.493 85.5864 512.918 87.1718L513.792 88.0397ZM511.692 93.1463C511.692 91.2302 512.448 89.3933 513.792 88.0397L512.918 87.1718C511.344 88.757 510.46 90.9062 510.46 93.1463H511.692ZM513.792 98.2529C512.448 96.8992 511.692 95.0625 511.692 93.1463H510.46C510.46 95.3864 511.344 97.5355 512.918 99.1208L513.792 98.2529ZM518.858 100.366C516.959 100.366 515.136 99.6064 513.792 98.2529L512.918 99.1208C514.493 100.706 516.629 101.598 518.858 101.598V100.366ZM526.621 100.366H518.858V101.598H526.621V100.366ZM526.005 92.6658V100.982H527.237V92.6658H526.005ZM523.765 87.8842C525.094 89.1433 525.896 90.8667 526.006 92.7026L527.236 92.629C527.107 90.4822 526.169 88.4651 524.612 86.9901L523.765 87.8842ZM518.858 85.9266C520.681 85.9254 522.437 86.6252 523.765 87.8842L524.612 86.9901C523.055 85.515 520.997 84.6935 518.857 84.6949L518.858 85.9266ZM223.51 56.3376H213.15V57.5693H223.51V56.3376ZM224.126 100.973V56.9535H222.895V100.973H224.126ZM213.15 101.589H223.51V100.357H213.15V101.589ZM212.534 56.9535V100.973H213.766V56.9535H212.534ZM486.956 57.4947C491.524 57.4513 495.933 59.1845 499.264 62.3344L500.11 61.4395C496.548 58.0713 491.832 56.2166 486.944 56.2631L486.956 57.4947ZM474.6 62.3428C477.936 59.1766 482.361 57.4388 486.943 57.4947L486.958 56.2631C482.054 56.2033 477.319 58.0633 473.752 61.4496L474.6 62.3428ZM474.448 62.4965L474.613 62.3302L473.739 61.4622L473.574 61.6285L474.448 62.4965ZM473.4 62.3209L473.574 62.4965L474.448 61.6286L474.274 61.453L473.4 62.3209ZM461.106 57.4947C465.675 57.4457 470.085 59.1795 473.413 62.3339L474.26 61.44C470.701 58.0664 465.982 56.2107 461.093 56.2631L461.106 57.4947ZM453.682 59.0755C456.013 58.0215 458.542 57.4826 461.097 57.4947L461.103 56.263C458.37 56.2501 455.667 56.8264 453.174 57.9532L453.682 59.0755ZM452.812 56.9528V58.5143H454.044V56.9528H452.812ZM443.068 57.5686H453.428V56.3369H443.068V57.5686ZM443.684 100.981V56.9528H442.452V100.981H443.684ZM453.428 100.366H443.068V101.597H453.428V100.366ZM452.812 76.6248V100.981H454.044V76.6248H452.812ZM461.1 66.2884C458.507 66.2884 456.427 67.2184 454.997 69.0344C453.587 70.8264 452.869 73.4076 452.812 76.614L454.044 76.6356C454.098 73.5772 454.783 71.2982 455.965 69.7961C457.129 68.318 458.829 67.5201 461.1 67.5201V66.2884ZM469.506 76.9086C469.492 73.6469 468.742 70.9947 467.294 69.1442C465.829 67.2734 463.701 66.2884 461.1 66.2884V67.5201C463.361 67.5201 465.116 68.36 466.324 69.9034C467.548 71.4672 468.261 73.8184 468.275 76.9139L469.506 76.9086ZM469.506 100.981V76.9112H468.275V100.981H469.506ZM479.233 100.366H468.891V101.597H479.233V100.366ZM478.617 76.8927V100.981H479.848V76.8927H478.617ZM486.923 66.2792C484.292 66.2792 482.177 67.2284 480.739 69.092C479.319 70.931 478.617 73.584 478.617 76.8927H479.848C479.848 73.7334 480.523 71.3876 481.714 69.8447C482.886 68.3265 484.616 67.5109 486.923 67.5109V66.2792ZM495.329 76.9759C495.329 73.7025 494.599 71.0314 493.157 69.1646C491.697 67.276 489.561 66.2792 486.923 66.2792V67.5109C489.221 67.5109 490.98 68.3621 492.182 69.9177C493.401 71.4951 494.098 73.8645 494.098 76.9759H495.329ZM495.329 101V76.9759H494.098V101H495.329ZM505.055 100.384H494.713V101.616H505.055V100.384ZM504.44 76.9759V101H505.671V76.9759H504.44ZM499.269 62.3392C502.68 65.4917 504.467 70.3812 504.44 76.9734L505.671 76.9784C505.699 70.1726 503.852 64.898 500.105 61.4347L499.269 62.3392ZM344.88 67.1253V56.7765H343.648V67.1253H344.88ZM335.877 67.7411H344.264V66.5095H335.877V67.7411ZM336.493 86.7234V67.1253H335.261V86.7234H336.493ZM337.41 88.9459C336.825 88.3566 336.495 87.5571 336.493 86.7219L335.261 86.7249C335.264 87.883 335.722 88.9937 336.536 89.8139L337.41 88.9459ZM339.613 89.8682C338.788 89.8662 337.995 89.5351 337.41 88.9459L336.536 89.8138C337.351 90.6342 338.456 91.0971 339.61 91.0999L339.613 89.8682ZM344.264 89.8682H339.612V91.0999H344.264V89.8682ZM344.88 100.953V90.4841H343.648V100.953H344.88ZM337.74 101.569H344.264V100.337H337.74V101.569ZM328.564 97.7327C330.996 100.184 334.296 101.564 337.739 101.569L337.741 100.337C334.627 100.333 331.641 99.0843 329.438 96.8651L328.564 97.7327ZM324.763 88.4979C324.766 91.9607 326.132 95.2819 328.564 97.7327L329.438 96.8651C327.236 94.6457 325.997 91.6363 325.995 88.497L324.763 88.4979ZM324.763 43.6279V88.4975H325.995V43.6279H324.763ZM335.877 43.0121H325.379V44.2438H335.877V43.0121ZM336.493 56.7765V43.6279H335.261V56.7765H336.493ZM344.264 56.1606H335.877V57.3923H344.264V56.1606ZM292.136 91.5147C294.581 91.3191 296.913 90.3986 298.838 88.8698L298.072 87.9053C296.338 89.2824 294.238 90.1109 292.038 90.2869L292.136 91.5147ZM291.105 91.5166H292.087V90.285H291.105V91.5166ZM284.802 89.7947C286.716 90.9151 288.889 91.509 291.103 91.5166L291.107 90.285C289.111 90.2781 287.151 89.7426 285.424 88.7318L284.802 89.7947ZM280.2 85.1351C281.302 87.0673 282.888 88.6744 284.802 89.7947L285.424 88.7318C283.698 87.721 282.265 86.2705 281.27 84.5252L280.2 85.1351ZM312.193 84.2143H280.735V85.446H312.193V84.2143ZM311.697 84.2812L311.596 84.6785L312.789 84.9818L312.89 84.5844L311.697 84.2812ZM312.357 79.1968C312.34 80.9122 312.118 82.6193 311.697 84.2815L312.891 84.5841C313.336 82.827 313.57 81.0224 313.588 79.2092L312.357 79.1968ZM312.357 78.9258V79.203H313.588V78.9258H312.357ZM312.357 76.5973V78.9258H313.588V76.5973H312.357ZM313.306 77.124L313.38 77.0593L312.565 76.1353L312.492 76.2L313.306 77.124ZM309.941 68.9557C311.209 71.3704 312.005 74.008 312.287 76.7253L313.512 76.5986C313.214 73.7256 312.372 70.9366 311.031 68.3829L309.941 68.9557ZM309.888 68.8508L309.934 68.9432L311.037 68.3954L310.991 68.3031L309.888 68.8508ZM309.703 68.5192C309.77 68.6282 309.834 68.7415 309.888 68.8508L310.991 68.303C310.917 68.1537 310.835 68.0083 310.754 67.877L309.703 68.5192ZM309.567 68.2849L309.696 68.5067L310.762 67.8895L310.633 67.6677L309.567 68.2849ZM309.362 67.9206C309.43 68.0273 309.493 68.1376 309.549 68.2511L310.652 67.7015C310.575 67.5485 310.491 67.3998 310.399 67.256L309.362 67.9206ZM309.225 67.6943L309.353 67.9068L310.407 67.2697L310.279 67.0572L309.225 67.6943ZM301.513 60.2039C304.68 61.9905 307.337 64.5704 309.225 67.6943L310.279 67.0572C308.281 63.7525 305.471 61.0223 302.118 59.1311L301.513 60.2039ZM291.143 57.4949C294.773 57.4844 298.345 58.4173 301.513 60.2039L302.118 59.1311C298.765 57.24 294.983 56.2521 291.14 56.2633L291.143 57.4949ZM291.141 57.4949H291.142V56.2633H291.141V57.4949ZM289.649 57.5559C290.198 57.4954 290.663 57.4949 291.141 57.4949V56.2633C290.665 56.2633 290.138 56.2628 289.514 56.3316L289.649 57.5559ZM275.708 64.264C279.359 60.3627 284.323 57.9721 289.63 57.5577L289.534 56.3298C283.919 56.7683 278.669 59.2974 274.808 63.4223L275.708 64.264ZM269.88 78.6597C269.978 73.2978 272.056 68.1654 275.708 64.264L274.808 63.4223C270.947 67.5471 268.752 72.9717 268.649 78.6374L269.88 78.6597ZM269.881 78.9073V78.6486H268.649V78.9073H269.881ZM269.881 81.2542V78.9073H268.649V81.2542H269.881ZM268.968 80.7046L268.885 80.7693L269.644 81.7392L269.727 81.6745L268.968 80.7046ZM272.306 88.914C271.034 86.4948 270.237 83.8509 269.96 81.1273L268.735 81.2519C269.028 84.1321 269.87 86.9284 271.216 89.4873L272.306 88.914ZM272.377 89.2746V89.2007H271.145V89.2746H272.377ZM272.517 89.3587L272.296 88.9707L271.225 89.5786L271.445 89.9666L272.517 89.3587ZM272.648 89.5944L272.519 89.3634L271.443 89.962L271.571 90.193L272.648 89.5944ZM272.845 89.9412C272.77 89.818 272.711 89.7208 272.661 89.6198L271.558 90.1676C271.636 90.3247 271.723 90.467 271.795 90.5835L272.845 89.9412ZM272.843 89.9375L272.843 89.9366L271.797 90.5881L271.798 90.589L272.843 89.9375ZM272.982 90.1764L272.853 89.9545L271.788 90.5719L271.916 90.7937L272.982 90.1764ZM280.694 97.6555C277.525 95.869 274.867 93.2897 272.976 90.1661L271.922 90.804C273.922 94.108 276.735 96.8375 280.089 98.7284L280.694 97.6555ZM291.067 100.366C287.435 100.375 283.863 99.4419 280.694 97.6555L280.089 98.7284C283.443 100.619 287.225 101.608 291.07 101.598L291.067 100.366ZM292.562 100.305C292.002 100.365 291.536 100.366 291.068 100.366V101.598C291.536 101.598 292.062 101.598 292.695 101.529L292.562 100.305ZM305.137 94.915C301.651 98.0488 297.239 99.9416 292.581 100.303L292.676 101.531C297.605 101.149 302.273 99.1455 305.96 95.831L305.137 94.915ZM298.064 88.7106L305.112 95.807L305.986 94.939L298.938 87.8427L298.064 88.7106ZM299.024 88.623L299.07 88.5121L297.932 88.0413L297.886 88.1521L299.024 88.623ZM291.105 66.3349H290.114V67.5665H291.105V66.3349ZM298.265 68.5762C296.163 67.1066 293.662 66.3239 291.102 66.3349L291.108 67.5665C293.413 67.5567 295.665 68.2614 297.559 69.5856L298.265 68.5762ZM302.851 74.5471C301.968 72.1306 300.367 70.0457 298.265 68.5762L297.559 69.5856C299.453 70.9099 300.897 72.7896 301.694 74.97L302.851 74.5471ZM279.919 75.3743H302.273V74.1427H279.919V75.3743ZM283.513 68.871C281.614 70.3253 280.167 72.2942 279.341 74.5464L280.497 74.9706C281.243 72.9371 282.549 71.1605 284.262 69.8489L283.513 68.871ZM290.062 66.337C287.684 66.5375 285.412 67.4167 283.513 68.871L284.262 69.8489C285.974 68.5373 288.022 67.745 290.166 67.5643L290.062 66.337ZM120.231 87.9053C118.496 89.2824 116.397 90.1109 114.196 90.2869L114.294 91.5147C116.739 91.3191 119.071 90.3986 120.997 88.8698L120.231 87.9053ZM120.231 87.8841L120.139 87.9949L121.088 88.7801L121.18 88.6693L120.231 87.8841ZM128.19 94.939L121.142 87.8427L120.268 88.7106L127.316 95.807L128.19 94.939ZM114.88 101.531C119.81 101.149 124.477 99.1455 128.165 95.831L127.341 94.915C123.855 98.0488 119.443 99.9416 114.785 100.303L114.88 101.531ZM113.272 101.598C113.743 101.598 114.219 101.598 114.894 101.53L114.771 100.304C114.161 100.366 113.737 100.366 113.272 100.366V101.598ZM102.293 98.7284C105.647 100.619 109.429 101.608 113.274 101.598L113.271 100.366C109.64 100.375 106.067 99.4419 102.898 97.6555L102.293 98.7284ZM94.1263 90.804C96.1264 94.108 98.9391 96.8375 102.293 98.7284L102.898 97.6555C99.7291 95.869 97.0707 93.2897 95.1799 90.1661L94.1263 90.804ZM93.9917 90.5718L94.1201 90.7936L95.186 90.1765L95.0576 89.9547L93.9917 90.5718ZM93.9976 90.5817L93.9985 90.5832L95.0509 89.9433L95.05 89.9419L93.9976 90.5817ZM94.0015 90.5881L94.0016 90.5882L95.046 89.9354L95.046 89.9353L94.0015 90.5881ZM93.762 90.1676C93.8399 90.3245 93.9273 90.4667 93.9983 90.5829L95.0492 89.9406C94.974 89.8175 94.9152 89.7205 94.8651 89.6198L93.762 90.1676ZM93.6469 89.962L93.7754 90.193L94.8518 89.5943L94.7233 89.3633L93.6469 89.962ZM93.4293 89.5786L93.6495 89.9666L94.7207 89.3587L94.5005 88.9707L93.4293 89.5786ZM93.349 89.2007V89.2746H94.5807V89.2007H93.349ZM90.9387 81.2519C91.2316 84.1321 92.074 86.9284 93.4198 89.4873L94.5099 88.914C93.2376 86.4948 92.441 83.8509 92.1641 81.1273L90.9387 81.2519ZM91.8485 81.7391L91.931 81.6745L91.1718 80.7047L91.0892 80.7693L91.8485 81.7391ZM90.853 78.9073V81.2542H92.0847V78.9073H90.853ZM90.853 78.6486V78.9073H92.0847V78.6486H90.853ZM97.0125 63.4223C93.1514 67.5471 90.9559 72.9717 90.8531 78.6374L92.0846 78.6598C92.1818 73.2978 94.2597 68.1654 97.9117 64.264L97.0125 63.4223ZM111.738 56.3298C106.123 56.7683 100.874 59.2974 97.0125 63.4223L97.9117 64.264C101.564 60.3627 106.527 57.9721 111.834 57.5577L111.738 56.3298ZM113.345 56.2633C112.869 56.2633 112.343 56.2628 111.718 56.3316L111.853 57.5559C112.403 57.4954 112.867 57.4949 113.345 57.4949V56.2633ZM113.346 56.2633H113.345V57.4949H113.346V56.2633ZM124.322 59.1311C120.969 57.24 117.188 56.2521 113.344 56.2633L113.347 57.4949C116.978 57.4844 120.549 58.4173 123.717 60.2039L124.322 59.1311ZM132.483 67.0572C130.486 63.7525 127.675 61.0223 124.322 59.1311L123.717 60.2039C126.884 61.9905 129.541 64.5704 131.429 67.6943L132.483 67.0572ZM132.611 67.2696L132.483 67.0571L131.429 67.6944L131.557 67.9069L132.611 67.2696ZM132.849 67.6723C132.777 67.545 132.696 67.4019 132.603 67.2569L131.565 67.9196C131.638 68.0334 131.704 68.1489 131.778 68.2803L132.849 67.6723ZM132.975 67.9064L132.856 67.6846L131.771 68.268L131.891 68.4898L132.975 67.9064ZM133.196 68.3031C133.121 68.1537 133.039 68.0083 132.958 67.877L131.907 68.5193C131.974 68.6282 132.038 68.7414 132.092 68.8508L133.196 68.3031ZM133.26 68.6693V68.5769H132.028V68.6693H133.26ZM135.67 76.5986C135.373 73.7256 134.531 70.9366 133.189 68.3829L132.099 68.9557C133.367 71.3704 134.164 74.008 134.445 76.7253L135.67 76.5986ZM134.724 76.1352L134.65 76.1999L135.465 77.1241L135.538 77.0594L134.724 76.1352ZM135.747 78.9258V76.5973H134.515V78.9258H135.747ZM135.747 79.203V78.9258H134.515V79.203H135.747ZM135.049 84.5841C135.494 82.827 135.728 81.0225 135.747 79.2092L134.515 79.1968C134.498 80.9122 134.276 82.6193 133.855 84.2815L135.049 84.5841ZM134.948 84.9818L135.049 84.5844L133.855 84.2812L133.754 84.6786L134.948 84.9818ZM102.894 85.446H134.351V84.2143H102.894V85.446ZM107.582 88.7318C105.856 87.721 104.423 86.2705 103.429 84.5252L102.359 85.1351C103.46 87.0673 105.047 88.6744 106.96 89.7947L107.582 88.7318ZM113.265 90.285C111.269 90.2781 109.309 89.7426 107.582 88.7318L106.96 89.7947C108.874 90.9151 111.047 91.509 113.261 91.5166L113.265 90.285ZM114.245 90.285H113.263V91.5166H114.245V90.285ZM112.272 67.5665H113.263V66.3349H112.272V67.5665ZM106.426 69.8571C108.138 68.546 110.184 67.7511 112.326 67.5642L112.219 66.3372C109.843 66.5445 107.575 67.4262 105.677 68.8792L106.426 69.8571ZM102.654 74.9723C103.406 72.9417 104.714 71.1681 106.426 69.8571L105.677 68.8792C103.78 70.3322 102.331 72.2969 101.499 74.5447L102.654 74.9723ZM124.431 74.1427H102.077V75.3743H124.431V74.1427ZM119.717 69.5856C121.611 70.9099 123.055 72.7896 123.853 74.97L125.009 74.5471C124.126 72.1306 122.525 70.0457 120.423 68.5762L119.717 69.5856ZM113.266 67.5665C115.571 67.5567 117.823 68.2614 119.717 69.5856L120.423 68.5762C118.321 67.1066 115.82 66.3239 113.261 66.3349L113.266 67.5665ZM400.274 63.7695C404.26 59.7513 409.663 57.488 415.302 57.4738L415.298 56.2421C409.332 56.2572 403.615 58.6525 399.4 62.9021L400.274 63.7695ZM394.039 78.9146C394.046 73.2336 396.289 67.7878 400.274 63.7695L399.4 62.9021C395.185 67.1516 392.815 72.9089 392.807 78.9131L394.039 78.9146ZM400.281 94.0737C396.289 90.0527 394.044 84.6005 394.039 78.9133L392.807 78.9143C392.812 84.925 395.185 90.6891 399.407 94.9414L400.281 94.0737ZM415.328 100.363C409.684 100.356 404.272 98.0946 400.281 94.0737L399.407 94.9414C403.628 99.194 409.353 101.587 415.327 101.595L415.328 100.363ZM437.177 100.363H415.328V101.595H437.177V100.363ZM436.561 77.6756V100.979H437.793V77.6756H436.561ZM429.928 63.3298C433.882 67.0928 436.256 72.2382 436.562 77.71L437.792 77.6413C437.469 71.8579 434.959 66.4175 430.777 62.4376L429.928 63.3298ZM415.3 57.4738C420.739 57.472 425.973 59.567 429.928 63.3298L430.777 62.4376C426.594 58.4576 421.056 56.2402 415.3 56.2421L415.3 57.4738ZM427.845 90.9258V78.9138H426.614V90.9258H427.845ZM415.3 91.5417H427.229V90.31H415.3V91.5417ZM406.428 87.8416C408.78 90.2102 411.971 91.5417 415.3 91.5417V90.31C412.301 90.31 409.424 89.1104 407.302 86.9736L406.428 87.8416ZM402.755 78.9138C402.755 82.2616 404.075 85.473 406.428 87.8416L407.302 86.9736C405.179 84.8368 403.986 81.9376 403.986 78.9138H402.755ZM406.428 69.9861C404.075 72.3546 402.755 75.5661 402.755 78.9138H403.986C403.986 75.89 405.179 72.9909 407.302 70.854L406.428 69.9861ZM415.3 66.286C411.971 66.286 408.78 67.6175 406.428 69.9861L407.302 70.854C409.424 68.7173 412.301 67.5176 415.3 67.5176V66.286ZM420.105 67.245C418.581 66.6106 416.948 66.2847 415.299 66.286L415.3 67.5176C416.786 67.5165 418.258 67.8102 419.631 68.382L420.105 67.245ZM424.178 69.9827C423.012 68.8097 421.628 67.8794 420.105 67.245L419.631 68.382C421.005 68.9539 422.253 69.7928 423.305 70.8509L424.178 69.9827ZM426.899 74.0805C426.268 72.5481 425.344 71.1556 424.178 69.9827L423.305 70.8509C424.356 71.9091 425.191 73.1658 425.76 74.5493L426.899 74.0805ZM427.854 78.9138C427.854 77.2553 427.53 75.6129 426.899 74.0805L425.76 74.5493C426.33 75.9328 426.623 77.4159 426.623 78.9138H427.854ZM427.229 79.5297H427.239V78.298H427.229V79.5297ZM374.76 87.9056C373.03 89.2823 370.933 90.1108 368.735 90.2869L368.834 91.5146C371.276 91.3189 373.605 90.3982 375.527 88.8695L374.76 87.9056ZM374.87 87.8104L374.741 87.9213L375.546 88.8537L375.675 88.7429L374.87 87.8104ZM382.757 94.939L375.709 87.8427L374.835 88.7106L381.883 95.8069L382.757 94.939ZM369.447 101.531C374.377 101.151 379.045 99.1472 382.732 95.8308L381.908 94.9151C378.423 98.0505 374.01 99.9435 369.352 100.303L369.447 101.531ZM367.839 101.597C368.316 101.597 368.842 101.598 369.467 101.529L369.332 100.305C368.782 100.365 368.317 100.366 367.839 100.366V101.597ZM356.863 98.7296C360.216 100.621 363.997 101.609 367.841 101.597L367.837 100.366C364.207 100.376 360.636 99.4434 357.468 97.6568L356.863 98.7296ZM348.702 90.8035C350.699 94.1083 353.51 96.8384 356.863 98.7296L357.468 97.6568C354.301 95.8702 351.644 93.2904 349.756 90.1665L348.702 90.8035ZM348.568 90.5879L348.706 90.8097L349.752 90.1603L349.615 89.9385L348.568 90.5879ZM348.346 90.1991L348.557 90.5686L349.626 89.9578L349.415 89.5882L348.346 90.1991ZM348.214 89.9619L348.342 90.1929L349.419 89.5944L349.29 89.3634L348.214 89.9619ZM347.984 89.5373C348.057 89.6919 348.139 89.8422 348.229 89.9874L349.275 89.3378C349.21 89.2327 349.151 89.1239 349.098 89.0118L347.984 89.5373ZM347.972 89.5253L348.018 89.5992L349.064 88.9499L349.018 88.876L347.972 89.5253ZM345.469 81.2519C345.762 84.132 346.604 86.9284 347.95 89.4873L349.04 88.914C347.768 86.4948 346.971 83.8508 346.694 81.1273L345.469 81.2519ZM346.379 81.7391L346.461 81.6745L345.702 80.7046L345.619 80.7692L346.379 81.7391ZM345.383 78.9072V81.2542H346.615V78.9072H345.383ZM345.383 78.6486V78.9072H346.615V78.6486H345.383ZM351.525 63.4119C347.663 67.5395 345.473 72.9703 345.383 78.6388L346.615 78.6583C346.7 73.2945 348.772 68.1569 352.424 64.2534L351.525 63.4119ZM366.26 56.3297C360.642 56.7578 355.387 59.2843 351.525 63.4119L352.424 64.2534C356.077 60.35 361.045 57.9624 366.353 57.5578L366.26 56.3297ZM367.866 56.2633C367.398 56.2633 366.873 56.2629 366.24 56.3315L366.373 57.556C366.932 57.4953 367.398 57.4949 367.866 57.4949V56.2633ZM367.867 56.2633H367.866V57.4949H367.867V56.2633ZM378.846 59.1323C375.492 57.2414 371.71 56.2532 367.865 56.2633L367.868 57.4949C371.5 57.4854 375.072 58.4188 378.241 60.2053L378.846 59.1323ZM387.013 67.0568C385.013 63.7527 382.2 61.0232 378.846 59.1323L378.241 60.2053C381.41 61.9917 384.068 64.5711 385.959 67.6946L387.013 67.0568ZM387.141 67.2697L387.013 67.0572L385.959 67.6943L386.087 67.9068L387.141 67.2697ZM387.37 67.6723L387.15 67.2843L386.079 67.8922L386.299 68.2803L387.37 67.6723ZM387.496 67.9063L387.377 67.6845L386.292 68.268L386.412 68.4899L387.496 67.9063ZM387.717 68.303C387.642 68.1537 387.56 68.0083 387.479 67.877L386.428 68.5192C386.495 68.6281 386.559 68.7414 386.613 68.8508L387.717 68.303ZM387.781 68.6693V68.5769H386.549V68.6693H387.781ZM390.191 76.5995C389.898 73.725 389.056 70.9346 387.71 68.3821L386.62 68.9565C387.892 71.3691 388.689 74.0068 388.966 76.7244L390.191 76.5995ZM389.281 76.1124L389.199 76.1771L389.958 77.1467L390.041 77.082L389.281 76.1124ZM390.277 78.9257V76.5972H389.045V78.9257H390.277ZM390.277 79.2029V78.9257H389.045V79.2029H390.277ZM389.579 84.5841C390.024 82.8269 390.259 81.0224 390.277 79.2091L389.045 79.1967C389.028 80.9122 388.806 82.6193 388.385 84.2815L389.579 84.5841ZM389.478 84.9818L389.579 84.5844L388.385 84.2811L388.284 84.6785L389.478 84.9818ZM357.433 85.446H388.881V84.2143H357.433V85.446ZM362.116 88.7332C360.391 87.7224 358.96 86.2714 357.968 84.5259L356.898 85.1343C357.996 87.0673 359.581 88.6753 361.493 89.7959L362.116 88.7332ZM367.795 90.2849C365.8 90.2792 363.841 89.7441 362.116 88.7332L361.493 89.7959C363.406 90.9166 365.578 91.5102 367.792 91.5166L367.795 90.2849ZM368.784 90.2849H367.793V91.5166H368.784V90.2849ZM366.811 67.5665H367.793V66.3348H366.811V67.5665ZM360.96 69.8548C362.673 68.5437 364.721 67.7495 366.864 67.5642L366.758 66.3371C364.381 66.5427 362.111 67.4235 360.211 68.8766L360.96 69.8548ZM357.185 74.9723C357.937 72.9405 359.246 71.166 360.96 69.8548L360.211 68.8766C358.312 70.3298 356.862 72.2954 356.03 74.5447L357.185 74.9723ZM378.961 74.1427H356.607V75.3743H378.961V74.1427ZM374.249 69.584C376.143 70.9083 377.587 72.7886 378.383 74.9696L379.54 74.5473C378.657 72.13 377.057 70.0443 374.954 68.5745L374.249 69.584ZM367.796 67.5665C370.101 67.5554 372.354 68.2596 374.249 69.584L374.954 68.5745C372.852 67.1047 370.351 66.3225 367.79 66.3348L367.796 67.5665Z" fill="white" mask="url(#path-3-outside-1_90_168)"/>
</g>
<defs>
<filter id="filter0_f_90_168" x="-41.7548" y="-16.7548" width="641.659" height="173.066" filterUnits="userSpaceOnUse" color-interpolation-filters="sRGB">
<feFlood flood-opacity="0" result="BackgroundImageFix"/>
<feBlend mode="normal" in="SourceGraphic" in2="BackgroundImageFix" result="shape"/>
<feGaussianBlur stdDeviation="27.8774" result="effect1_foregroundBlur_90_168"/>
</filter>
<filter id="filter1_f_90_168" x="10.9579" y="22.0739" width="537.217" height="100.48" filterUnits="userSpaceOnUse" color-interpolation-filters="sRGB">
<feFlood flood-opacity="0" result="BackgroundImageFix"/>
<feBlend mode="normal" in="SourceGraphic" in2="BackgroundImageFix" result="shape"/>
<feGaussianBlur stdDeviation="10.4692" result="effect1_foregroundBlur_90_168"/>
</filter>
<linearGradient id="paint0_linear_90_168" x1="-56.2664" y1="91.9638" x2="2.49687" y2="-106.017" gradientUnits="userSpaceOnUse">
<stop stop-color="#71C3FE"/>
<stop offset="1" stop-color="#9780FD"/>
</linearGradient>
</defs>
</svg>
