<svg width="558" height="150" viewBox="0 0 558 150" fill="none" xmlns="http://www.w3.org/2000/svg">
<g opacity="0.5" filter="url(#filter0_f_80_236)">
<path fill-rule="evenodd" clip-rule="evenodd" d="M443.342 100.642C442.765 99.2005 442.477 97.7587 442.477 96.3168V55.9445C442.477 55.9445 442.477 55.6561 442.188 55.6561C442.188 55.6561 441.9 55.3677 440.746 55.6561L433.249 57.098C432.96 57.098 432.383 57.3864 432.383 58.5399V96.8936C429.211 99.2006 425.751 101.219 421.137 101.219C416.811 101.219 414.216 100.354 414.216 93.7214V56.2329C413.928 55.9445 413.351 55.9445 412.774 55.9445L405.565 57.3864C405.276 57.3864 404.7 57.6747 404.7 58.8282V94.0098C404.7 101.219 406.141 109.87 419.695 109.87C424.886 109.87 430.653 106.987 432.96 103.526L433.249 104.391C433.325 104.543 433.401 104.716 433.493 104.924C433.749 105.505 434.13 106.365 434.979 107.852C436.421 110.159 436.997 110.447 437.574 110.159L444.784 106.41C444.88 106.314 445.008 106.25 445.136 106.186C445.392 106.057 445.649 105.929 445.649 105.545C445.649 105.42 445.594 105.349 445.509 105.238C445.398 105.093 445.235 104.881 445.072 104.391C444.909 103.738 444.561 103.085 444.185 102.38L444.185 102.38C443.896 101.839 443.592 101.268 443.342 100.642ZM476.216 55.3677C470.16 55.3677 464.97 58.8282 462.086 61.1352L461.221 61.712C460.644 59.6934 459.779 57.3864 458.337 55.9445C457.472 55.0794 456.895 55.3677 456.607 55.6561L451.128 58.5399C450.839 58.5399 450.551 58.8282 450.551 59.405C450.551 59.6933 450.839 60.2701 451.416 60.8468C454.012 65.1724 454.012 68.3446 454.012 70.6515V128.615C454.012 130.057 456.318 129.768 456.895 129.48L462.086 128.038C462.951 127.75 462.951 126.884 462.951 126.596V105.256C464.393 106.122 468.719 108.717 474.774 108.717C481.695 108.717 494.384 105.833 494.384 81.6098C494.095 58.2515 481.695 55.3677 476.216 55.3677ZM473.909 100.931C470.16 100.931 465.835 99.2005 462.951 97.7587V68.9213C465.835 66.9027 470.16 64.0189 474.198 64.0189C483.714 64.0189 484.291 73.2469 484.291 82.1865C484.579 91.7028 484.002 100.931 473.909 100.931ZM442.477 26.5304V17.5908L423.732 0L404.7 17.5908V26.5304L423.732 8.93958L442.477 26.5304ZM90.6607 31.7217C90.6607 31.1449 90.6607 30.2798 89.7956 30.2798H88.6421L82.8746 31.7217C82.5863 31.7217 82.0095 32.0101 82.0095 33.1635V60.8474C75.3769 54.7916 71.0513 54.7916 69.6094 54.7916C63.2652 54.7916 50 57.6753 50 82.1871C50 105.257 62.4001 108.141 68.1676 108.141C77.6839 108.141 82.8746 103.238 82.8746 103.238C82.9522 103.588 83.0246 103.947 83.0967 104.305L83.0967 104.306C83.5603 106.609 84.0114 108.851 85.7584 107.852L90.084 105.257C90.1993 105.142 90.4069 105.026 90.6146 104.911C90.926 104.738 91.2374 104.565 91.2374 104.392C91.2374 104.238 91.1962 103.444 91.1358 102.281L91.1357 102.281C90.9702 99.0956 90.6607 93.1417 90.6607 89.9731V31.7217ZM82.2979 97.4709C82.2979 97.4709 77.1071 102.085 69.0327 102.085C59.228 102.085 59.228 89.3964 59.228 81.3219C59.228 71.8056 60.0931 61.4242 71.0513 61.4242C74.5118 61.4242 78.8374 63.1544 82.0095 64.8847V97.4709H82.2979ZM118.345 54.7916C105.656 54.7916 96.4282 64.5963 96.4282 81.6103C96.4282 102.373 109.693 108.429 120.652 108.429C125.554 108.429 129.88 106.987 133.052 105.545C136.512 104.103 137.089 103.238 137.089 102.95V102.373L135.07 97.7592C135.07 97.4709 134.782 97.1825 134.493 97.1825H134.205C133.917 97.1825 133.34 97.4709 132.763 97.7592C129.014 99.7778 125.266 101.508 120.652 101.508C113.442 101.508 105.368 96.3174 105.368 83.9173V83.3405H137.089C137.954 83.3405 138.242 83.0522 138.242 81.6103V80.7452C138.242 59.4055 127.573 54.7916 118.345 54.7916ZM105.368 76.708C105.656 65.4614 111.712 61.1358 117.479 61.1358C121.228 61.1358 124.977 62.5777 127.284 67.48C129.014 71.5172 129.014 75.8428 129.014 76.4196C129.014 76.708 105.368 76.708 105.368 76.708ZM193.033 54.7916C188.419 54.7916 184.094 56.5218 177.461 61.1358C175.443 56.8102 171.982 54.7916 167.368 54.7916C160.736 54.7916 156.41 57.6753 151.796 61.1358C151.508 59.6939 150.642 56.8102 150.066 55.6567C149.529 54.3148 148.742 54.7213 148.171 55.0165L148.171 55.0166C148.128 55.0386 148.087 55.06 148.047 55.0799L143.145 57.6753C142.856 57.6753 142.568 57.9637 142.568 58.252C142.568 58.252 142.568 58.5404 142.856 59.1172C143.721 60.559 144.587 62.2893 144.587 69.4986V105.834C144.587 106.987 145.163 107.276 146.028 107.276H151.796C152.949 107.276 153.238 106.699 153.238 105.834V66.3265C156.698 63.7312 159.87 62.0009 163.908 62.0009C170.829 62.0009 171.117 67.7684 171.117 70.6521V105.834C171.117 106.987 171.694 107.276 172.559 107.276H178.326C178.903 107.276 179.768 107.276 179.768 105.834V66.3265L180.633 65.7498C180.716 65.7086 180.88 65.6027 181.116 65.4515L181.116 65.4513C182.528 64.5433 186.483 62.0009 190.438 62.0009C197.359 62.0009 197.647 67.7684 197.647 70.6521V105.834C197.647 106.987 198.224 107.276 199.089 107.276H204.857C205.433 107.276 206.299 107.276 206.299 105.834V70.9405C206.217 70.4535 206.139 69.9551 206.06 69.4492C205.01 62.7665 203.757 54.7916 193.033 54.7916ZM221.006 56.2334H215.238C214.661 56.2334 213.796 56.2334 213.796 57.6753V105.834C213.796 106.987 214.373 107.276 215.238 107.276H221.006C221.582 107.276 222.447 107.276 222.447 105.834V57.6753C222.447 57.0986 222.447 56.2334 221.006 56.2334ZM218.987 34.317C215.815 34.317 213.22 36.9124 213.22 40.0845C213.22 43.2566 215.815 45.852 218.987 45.852C222.159 45.852 224.754 43.2566 224.754 40.0845C224.754 36.9124 222.159 34.317 218.987 34.317ZM251.862 78.4382C251.62 78.3375 251.381 78.2383 251.145 78.1402C244.624 75.4295 240.327 73.6431 240.327 68.6335C240.327 64.8847 243.21 61.4242 249.555 61.4242C252.438 61.4242 255.322 62.0009 259.359 63.7311C259.716 63.9094 259.962 63.9775 260.302 64.0715C260.513 64.1297 260.759 64.1978 261.09 64.3079C261.378 64.3079 261.955 64.3079 262.243 63.4428L264.262 59.4055C264.55 59.1172 264.838 58.2521 263.108 57.3869C261.666 56.5218 258.783 55.6567 257.052 55.3683C254.169 54.7916 250.996 54.2148 248.689 54.2148C238.308 54.2148 231.387 60.2707 231.387 68.6335C231.387 77.5203 238.511 80.4225 246.245 83.5728L246.382 83.6289L246.679 83.7525C253.427 86.563 257.629 88.3133 257.629 93.1453C257.629 97.7593 254.169 100.643 247.824 100.643C244.076 100.643 239.173 99.4895 236.289 98.0476C235.193 97.4992 234.443 97.1825 233.895 96.9507L233.895 96.9506C233.578 96.8168 233.328 96.7113 233.117 96.6058H232.829C232.252 96.6058 232.252 96.8941 232.252 97.1825L229.945 101.508V102.373C229.945 102.993 230.834 103.465 231.444 103.789C231.685 103.917 231.882 104.022 231.964 104.103C234.848 105.545 241.769 107.564 247.824 107.564C257.341 107.564 266.857 102.662 266.857 92.8569C266.857 84.494 259.071 81.3219 251.862 78.4382ZM355.676 63.7311L358.271 57.9637C358.56 57.6753 358.848 56.8102 357.406 56.5218C357.134 56.4537 356.846 56.3696 356.541 56.2808C355.556 55.9933 354.403 55.6567 353.081 55.6567C347.681 55.6567 344.303 59.4487 341.764 62.2988C341.625 62.4554 341.488 62.6092 341.353 62.7593C341.321 62.7951 341.289 62.8307 341.257 62.866L339.816 64.5963C339.527 62.5777 338.662 59.6939 337.22 57.3869C336.932 56.8102 336.355 55.9451 335.49 55.6567H335.202C335.082 55.6567 335.012 55.7062 334.93 55.7641C334.814 55.8461 334.674 55.9451 334.336 55.9451L330.011 58.8288C329.723 59.1172 329.722 59.1172 329.722 59.6939C329.722 60.0318 329.821 60.2707 329.903 60.4686C329.961 60.6085 330.011 60.728 330.011 60.8474L330.876 62.2893C332.029 64.5963 332.606 66.9033 332.606 70.3638V106.699C332.606 107.276 332.606 108.141 334.048 108.141H339.816C340.969 108.141 341.257 107.564 341.257 106.699V72.094L342.988 70.0754C345.006 67.48 348.467 63.7311 351.639 63.7311C352.216 63.7311 353.081 63.7311 353.658 64.0195C354.147 64.1827 354.359 64.3458 354.504 64.4567C354.615 64.5419 354.686 64.5963 354.811 64.5963C355.388 64.3079 355.676 64.0195 355.676 63.7311ZM376.727 55.3683C367.211 55.3683 355.099 61.1358 355.099 82.1871C355.099 103.238 367.499 109.006 376.727 109.006C385.955 109.006 398.355 103.238 398.355 82.1871C398.644 61.1358 386.244 55.3683 376.727 55.3683ZM376.727 102.662C364.616 102.662 364.039 87.9546 364.039 82.4755C364.039 76.9964 364.616 62.2893 376.727 62.2893C388.839 62.2893 389.416 76.9964 389.416 82.4755C389.704 87.9546 389.128 102.662 376.727 102.662ZM326.55 57.0986C326.262 55.3683 324.82 54.2148 323.09 54.2148C318.764 54.7916 315.881 56.5218 314.727 57.9637C311.267 55.9451 307.229 54.5032 303.192 54.5032C292.811 54.5032 282.429 62.2893 282.429 71.8056C282.429 77.8615 286.466 83.0522 291.946 86.2243C291.946 86.2243 291.946 86.5127 291.657 86.5127C291.322 86.7812 290.908 87.0809 290.456 87.4082L290.456 87.4084C288.966 88.4874 287.063 89.8663 286.178 91.415C285.025 93.722 285.601 95.7406 286.178 96.6058C288.192 100.634 294.8 101.217 304.569 102.079L304.634 102.085L306.653 102.373C315.015 103.238 318.476 107.564 318.476 111.024C318.476 115.35 312.708 119.964 304.346 119.964C295.449 119.964 293.357 116.939 291.944 114.896C291.846 114.754 291.751 114.616 291.657 114.485C291.369 113.908 291.369 112.466 291.369 112.178C292.522 109.294 290.215 107.852 288.485 107.276C286.466 106.987 284.448 107.276 283.583 109.006C282.141 111.601 282.141 114.773 283.871 117.369C285.601 120.252 290.792 125.443 304.922 125.443H305.499C318.764 125.443 326.262 118.234 326.55 111.313C326.839 104.392 323.09 96.029 309.248 95.4523C306.29 95.3264 303.867 95.2555 301.888 95.1975L301.886 95.1975C294.797 94.9899 293.387 94.9486 293.387 93.1453C293.387 90.5499 301.462 88.8197 304.057 88.8197C314.15 88.2429 323.378 80.7452 323.378 71.5173C323.378 67.7684 321.936 64.3079 319.341 61.7125C319.918 61.1358 321.071 60.559 323.667 60.2707C325.397 60.559 326.55 58.8288 326.55 57.0986ZM302.904 84.2057C296.271 84.2057 290.792 78.1498 290.792 72.094C290.792 66.3265 296.848 60.2707 303.48 60.2707C310.113 60.2707 315.015 66.0381 315.015 72.094C315.015 78.1498 309.536 84.2057 302.904 84.2057ZM442.477 32.8746V41.8142L423.732 24.2234L404.7 41.8142V32.8746L423.732 15.5722L442.477 32.8746Z" fill="url(#paint0_linear_80_236)"/>
</g>
<mask id="path-2-outside-1_80_236" maskUnits="userSpaceOnUse" x="85.9219" y="9.77734" width="373" height="110" fill="black">
<rect fill="white" x="85.9219" y="9.77734" width="373" height="110"/>
<path fill-rule="evenodd" clip-rule="evenodd" d="M414.901 94.6958C414.42 93.4935 414.18 92.2913 414.18 91.089V57.4254C414.18 57.4254 414.18 57.185 413.939 57.185C413.939 57.185 413.699 56.9445 412.737 57.185L406.485 58.3873C406.245 58.3873 405.764 58.6277 405.764 59.5895V91.5699C403.119 93.4936 400.234 95.1767 396.386 95.1767C392.779 95.1767 390.615 94.4554 390.615 88.9249V57.6659C390.375 57.4254 389.894 57.4254 389.413 57.4254L383.402 58.6277C383.161 58.6277 382.68 58.8682 382.68 59.83V89.1654C382.68 95.1767 383.883 102.39 395.184 102.39C399.512 102.39 404.321 99.9858 406.245 97.1003L406.485 97.8217C406.549 97.9486 406.612 98.0922 406.689 98.2658C406.903 98.7502 407.22 99.4681 407.928 100.707C409.13 102.631 409.611 102.871 410.092 102.631L416.103 99.5049C416.184 99.4247 416.29 99.3713 416.397 99.3179C416.611 99.211 416.825 99.1042 416.825 98.7836C416.825 98.6791 416.78 98.6201 416.708 98.5276C416.616 98.4071 416.48 98.2298 416.344 97.8217C416.208 97.2772 415.918 96.7327 415.604 96.1446C415.364 95.6939 415.11 95.2175 414.901 94.6958ZM442.313 56.9445C437.263 56.9445 432.935 59.83 430.531 61.7536L429.809 62.2345C429.328 60.5513 428.607 58.6277 427.405 57.4254C426.683 56.7041 426.203 56.9445 425.962 57.185L421.393 59.5895C421.153 59.5895 420.913 59.83 420.913 60.3109C420.913 60.5513 421.153 61.0322 421.634 61.5131C423.798 65.12 423.798 67.765 423.798 69.6886V118.02C423.798 119.222 425.722 118.982 426.203 118.741L430.531 117.539C431.252 117.298 431.252 116.577 431.252 116.337V98.5431C432.454 99.2644 436.061 101.429 441.111 101.429C446.882 101.429 457.462 99.024 457.462 78.8259C457.221 59.3491 446.882 56.9445 442.313 56.9445ZM440.389 94.9363C437.263 94.9363 433.657 93.4935 431.252 92.2913V68.2459C433.657 66.5627 437.263 64.1581 440.63 64.1581C448.565 64.1581 449.046 71.8527 449.046 79.3068C449.286 87.2417 448.805 94.9363 440.389 94.9363ZM414.18 32.8991V25.445L398.55 10.7773L382.68 25.445V32.8991L398.55 18.2314L414.18 32.8991ZM120.826 37.2271C120.826 36.7462 120.826 36.0249 120.105 36.0249H119.143L114.334 37.2271C114.093 37.2271 113.612 37.4676 113.612 38.4294V61.513C108.082 56.4635 104.475 56.4635 103.273 56.4635C97.9828 56.4635 86.9219 58.868 86.9219 79.3066C86.9219 98.5429 97.2614 100.947 102.07 100.947C110.005 100.947 114.334 96.8598 114.334 96.8598C114.398 97.151 114.459 97.451 114.519 97.7497C114.905 99.6705 115.282 101.539 116.738 100.707L120.345 98.5429C120.441 98.4468 120.614 98.3506 120.787 98.2544C121.047 98.1101 121.307 97.9659 121.307 97.8216C121.307 97.6929 121.272 97.031 121.222 96.0613C121.084 93.4055 120.826 88.4409 120.826 85.7989V37.2271ZM113.853 92.0507C113.853 92.0507 109.525 95.8979 102.792 95.8979C94.6164 95.8979 94.6164 85.318 94.6164 78.5852C94.6164 70.6503 95.3378 61.9939 104.475 61.9939C107.36 61.9939 110.967 63.4366 113.612 64.8794V92.0507H113.853ZM143.91 56.4635C133.33 56.4635 125.635 64.6389 125.635 78.8257C125.635 96.1384 136.696 101.188 145.833 101.188C149.921 101.188 153.528 99.9857 156.173 98.7834C159.058 97.5811 159.539 96.8598 159.539 96.6193V96.1384L157.856 92.2911C157.856 92.0507 157.615 91.8102 157.375 91.8102H157.134C156.894 91.8102 156.413 92.0507 155.932 92.2911C152.806 93.9743 149.68 95.417 145.833 95.417C139.822 95.417 133.089 91.0889 133.089 80.7494V80.2684H159.539C160.26 80.2684 160.501 80.028 160.501 78.8257V78.1043C160.501 60.3107 151.604 56.4635 143.91 56.4635ZM133.089 74.738C133.33 65.3603 138.379 61.7535 143.188 61.7535C146.314 61.7535 149.44 62.9557 151.364 67.0435C152.806 70.4098 152.806 74.0166 152.806 74.4975C152.806 74.738 133.089 74.738 133.089 74.738ZM206.187 56.4635C202.34 56.4635 198.733 57.9062 193.203 61.7535C191.519 58.1466 188.634 56.4635 184.787 56.4635C179.256 56.4635 175.649 58.868 171.802 61.7535C171.562 60.5512 170.84 58.1467 170.359 57.1848C169.912 56.066 169.256 56.4049 168.78 56.6511C168.744 56.6694 168.71 56.6873 168.676 56.7039L164.589 58.868C164.348 58.868 164.108 59.1085 164.108 59.3489C164.108 59.3489 164.108 59.5894 164.348 60.0703C165.069 61.2726 165.791 62.7153 165.791 68.7266V99.0238C165.791 99.9857 166.272 100.226 166.993 100.226H171.802C172.764 100.226 173.004 99.7452 173.004 99.0238V66.0816C175.89 63.9176 178.535 62.4748 181.901 62.4748C187.672 62.4748 187.913 67.2839 187.913 69.6884V99.0238C187.913 99.9857 188.394 100.226 189.115 100.226H193.924C194.405 100.226 195.126 100.226 195.126 99.0238V66.0816L195.848 65.6007C195.916 65.5664 196.054 65.4781 196.25 65.3519C197.428 64.5948 200.725 62.4748 204.023 62.4748C209.794 62.4748 210.034 67.2839 210.034 69.6884V99.0238C210.034 99.9857 210.515 100.226 211.237 100.226H216.046C216.527 100.226 217.248 100.226 217.248 99.0238V69.9289C217.18 69.5235 217.115 69.1085 217.049 68.6875L217.049 68.6854C216.173 63.1132 215.128 56.4635 206.187 56.4635ZM229.511 57.6657H224.702C224.221 57.6657 223.5 57.6657 223.5 58.868V99.0238C223.5 99.9857 223.981 100.226 224.702 100.226H229.511C229.992 100.226 230.713 100.226 230.713 99.0238V58.868C230.713 58.3871 230.713 57.6657 229.511 57.6657ZM227.828 39.3912C225.183 39.3912 223.019 41.5553 223.019 44.2003C223.019 46.8453 225.183 49.0094 227.828 49.0094C230.473 49.0094 232.637 46.8453 232.637 44.2003C232.637 41.5553 230.473 39.3912 227.828 39.3912ZM255.24 76.1807C255.038 76.0968 254.839 76.014 254.643 75.9323C249.205 73.6719 245.622 72.1824 245.622 68.0053C245.622 64.8794 248.026 61.9939 253.316 61.9939C255.721 61.9939 258.125 62.4748 261.492 63.9175C261.789 64.0662 261.994 64.1229 262.278 64.2014C262.453 64.2499 262.659 64.3066 262.934 64.3985C263.175 64.3985 263.656 64.3985 263.896 63.6771L265.579 60.3107C265.82 60.0703 266.06 59.3489 264.617 58.6276C263.415 57.9062 261.011 57.1848 259.568 56.9444C257.163 56.4635 254.518 55.9826 252.595 55.9826C243.938 55.9826 238.168 61.0321 238.168 68.0053C238.168 75.4153 244.108 77.8353 250.556 80.4621L250.671 80.5089L250.918 80.6119C256.545 82.9554 260.049 84.4149 260.049 88.4439C260.049 92.2911 257.163 94.6957 251.873 94.6957C248.747 94.6957 244.66 93.7339 242.255 92.5316C241.341 92.0743 240.716 91.8102 240.259 91.6169C239.994 91.5053 239.786 91.4173 239.61 91.3293H239.37C238.889 91.3293 238.889 91.5698 238.889 91.8102L236.965 95.417V96.1384C236.965 96.6554 237.706 97.0488 238.215 97.3188C238.416 97.4256 238.58 97.513 238.648 97.5811C241.053 98.7834 246.824 100.467 251.873 100.467C259.808 100.467 267.743 96.3788 267.743 88.2034C267.743 81.2302 261.251 78.5852 255.24 76.1807ZM341.803 63.9175L343.967 59.1085C344.208 58.868 344.448 58.1466 343.246 57.9062C343.019 57.8494 342.778 57.7793 342.525 57.7052C341.703 57.4655 340.741 57.1848 339.639 57.1848C335.136 57.1848 332.32 60.3467 330.203 62.7232C330.059 62.8849 329.918 63.043 329.781 63.1962L328.578 64.6389C328.338 62.9557 327.616 60.5512 326.414 58.6276C326.174 58.1467 325.693 57.4253 324.971 57.1848H324.731C324.631 57.1848 324.573 57.2261 324.505 57.2744C324.408 57.3428 324.291 57.4253 324.01 57.4253L320.403 59.8298C320.162 60.0703 320.162 60.0703 320.162 60.5512C320.162 60.8329 320.245 61.0321 320.313 61.1971C320.362 61.3138 320.403 61.4134 320.403 61.513L321.124 62.7153C322.086 64.6389 322.567 66.5625 322.567 69.448V99.7452C322.567 100.226 322.567 100.947 323.769 100.947H328.578C329.54 100.947 329.781 100.467 329.781 99.7452V70.8907L331.223 69.2076C332.906 67.0435 335.792 63.9175 338.437 63.9175C338.918 63.9175 339.639 63.9175 340.12 64.158C340.528 64.294 340.705 64.4301 340.826 64.5226C340.918 64.5936 340.977 64.6389 341.082 64.6389C341.563 64.3985 341.803 64.158 341.803 63.9175ZM359.356 56.9444C351.421 56.9444 341.322 61.7535 341.322 79.3066C341.322 96.8598 351.662 101.669 359.356 101.669C367.051 101.669 377.39 96.8598 377.39 79.3066C377.631 61.7535 367.291 56.9444 359.356 56.9444ZM359.356 96.3789C349.257 96.3789 348.776 84.1157 348.776 79.5471C348.776 74.9785 349.257 62.7153 359.356 62.7153C369.455 62.7153 369.936 74.9785 369.936 79.5471C370.177 84.1157 369.696 96.3789 359.356 96.3789ZM317.517 58.3871C317.277 56.9444 316.075 55.9826 314.632 55.9826C311.025 56.4635 308.621 57.9062 307.659 59.1085C304.773 57.4253 301.407 56.223 298.041 56.223C289.384 56.223 280.728 62.7153 280.728 70.6503C280.728 75.6998 284.094 80.028 288.663 82.673C288.663 82.673 288.663 82.9134 288.422 82.9134C288.143 83.1373 287.798 83.3871 287.421 83.66L287.421 83.6603C286.179 84.56 284.592 85.7098 283.854 87.0011C282.892 88.9248 283.373 90.608 283.854 91.3293C285.533 94.6883 291.043 95.1744 299.189 95.8932L299.243 95.8979L300.926 96.1384C307.899 96.8598 310.785 100.467 310.785 103.352C310.785 106.959 305.976 110.806 299.002 110.806C291.584 110.806 289.84 108.284 288.662 106.58L288.662 106.58C288.58 106.461 288.501 106.347 288.422 106.237C288.182 105.757 288.182 104.554 288.182 104.314C289.144 101.909 287.22 100.707 285.777 100.226C284.094 99.9857 282.411 100.226 281.69 101.669C280.487 103.833 280.487 106.478 281.93 108.642C283.373 111.047 287.701 115.375 299.483 115.375H299.964C311.025 115.375 317.277 109.363 317.517 103.592C317.758 97.8216 314.632 90.8484 303.09 90.3675C300.623 90.2625 298.603 90.2034 296.952 90.1551C291.041 89.982 289.865 89.9476 289.865 88.4439C289.865 86.2798 296.598 84.8371 298.762 84.8371C307.178 84.3562 314.872 78.1043 314.872 70.4098C314.872 67.2839 313.67 64.3985 311.506 62.2344C311.987 61.7535 312.949 61.2726 315.113 61.0321C316.556 61.2726 317.517 59.8298 317.517 58.3871ZM297.8 80.9898C292.27 80.9898 287.701 75.9403 287.701 70.8907C287.701 66.0816 292.751 61.0321 298.281 61.0321C303.811 61.0321 307.899 65.8412 307.899 70.8907C307.899 75.9403 303.331 80.9898 297.8 80.9898ZM414.18 38.1891V45.6432L398.55 30.9755L382.68 45.6432V38.1891L398.55 23.7618L414.18 38.1891Z"/>
</mask>
<path d="M414.901 94.6958L414.329 94.9245V94.9245L414.901 94.6958ZM414.18 57.4254H414.796V57.4254L414.18 57.4254ZM413.939 57.185L413.504 57.6204L413.684 57.8008H413.939V57.185ZM412.737 57.185L412.853 57.7897L412.87 57.7865L412.886 57.7824L412.737 57.185ZM406.485 58.3873V59.0031H406.544L406.602 58.992L406.485 58.3873ZM405.764 91.5699L406.126 92.068L406.38 91.8835V91.5699H405.764ZM390.615 57.6659H391.231V57.4108L391.051 57.2304L390.615 57.6659ZM389.413 57.4254V56.8096H389.352L389.292 56.8216L389.413 57.4254ZM383.402 58.6277V59.2435H383.463L383.523 59.2316L383.402 58.6277ZM406.245 97.1003L406.829 96.9056L406.431 95.7109L405.733 96.7587L406.245 97.1003ZM406.485 97.8217L405.901 98.0164L405.915 98.058L405.934 98.0972L406.485 97.8217ZM406.689 98.2658L407.252 98.017L406.689 98.2658ZM407.928 100.707L407.393 101.013L407.399 101.023L407.406 101.034L407.928 100.707ZM410.092 102.631L410.368 103.182L410.376 103.177L410.092 102.631ZM416.103 99.5049L416.388 100.051L416.472 100.007L416.539 99.9404L416.103 99.5049ZM416.397 99.3179L416.673 99.8687V99.8687L416.397 99.3179ZM416.708 98.5276L416.22 98.9025L416.22 98.9026L416.708 98.5276ZM416.344 97.8217L415.746 97.9711L415.752 97.994L415.76 98.0164L416.344 97.8217ZM415.604 96.1446L416.148 95.8549H416.148L415.604 96.1446ZM430.531 61.7536L430.872 62.266L430.895 62.2512L430.915 62.2345L430.531 61.7536ZM429.809 62.2345L429.217 62.4037L429.449 63.2149L430.151 62.7469L429.809 62.2345ZM427.405 57.4254L427.84 56.99V56.99L427.405 57.4254ZM425.962 57.185L426.249 57.7299L426.332 57.6865L426.398 57.6204L425.962 57.185ZM421.393 59.5895V60.2054H421.546L421.68 60.1345L421.393 59.5895ZM421.634 61.5131L422.162 61.1963L422.123 61.1313L422.069 61.0777L421.634 61.5131ZM426.203 118.741L426.038 118.148L425.98 118.164L425.927 118.19L426.203 118.741ZM430.531 117.539L430.696 118.132L430.711 118.128L430.725 118.123L430.531 117.539ZM431.252 98.5431L431.569 98.015L430.636 97.4554V98.5431H431.252ZM457.462 78.8259H458.077L458.077 78.8183L457.462 78.8259ZM431.252 92.2913H430.636V92.6719L430.977 92.8421L431.252 92.2913ZM431.252 68.2459L430.899 67.7414L430.636 67.9252V68.2459H431.252ZM449.046 79.3068H448.43V79.3161L448.43 79.3254L449.046 79.3068ZM414.18 25.445H414.796V25.1784L414.601 24.996L414.18 25.445ZM414.18 32.8991L413.758 33.3482L414.796 34.3216V32.8991H414.18ZM398.55 10.7773L398.972 10.3283L398.554 9.9358L398.132 10.3251L398.55 10.7773ZM382.68 25.445L382.262 24.9928L382.065 25.1756V25.445H382.68ZM382.68 32.8991H382.065V34.3069L383.098 33.3514L382.68 32.8991ZM398.55 18.2314L398.972 17.7824L398.554 17.3899L398.132 17.7792L398.55 18.2314ZM119.143 36.0249V35.409H119.067L118.993 35.4274L119.143 36.0249ZM114.334 37.2271V37.843H114.409L114.483 37.8246L114.334 37.2271ZM113.612 61.513L113.197 61.9678L114.228 62.9092V61.513H113.612ZM114.334 96.8598L114.935 96.7262L114.7 95.6672L113.911 96.412L114.334 96.8598ZM114.519 97.7497L115.123 97.6282V97.6282L114.519 97.7497ZM116.738 100.707L117.044 101.242L117.055 101.235L116.738 100.707ZM120.345 98.5429L120.662 99.071L120.727 99.032L120.78 98.9784L120.345 98.5429ZM120.787 98.2544L121.087 98.7927L121.087 98.7927L120.787 98.2544ZM121.222 96.0613L120.607 96.0932L121.222 96.0613ZM113.853 92.0507L114.262 92.511L115.473 91.4349H113.853V92.0507ZM113.612 64.8794H114.228V64.5138L113.907 64.3387L113.612 64.8794ZM113.612 92.0507H112.996V92.6665H113.612V92.0507ZM156.173 98.7834L155.936 98.215L155.927 98.2187L155.918 98.2228L156.173 98.7834ZM159.539 96.1384H160.155V96.0096L160.103 95.8916L159.539 96.1384ZM157.856 92.2911H157.24V92.4199L157.292 92.538L157.856 92.2911ZM155.932 92.2911L155.657 91.7403L155.648 91.7445L155.64 91.7489L155.932 92.2911ZM133.089 80.2684V79.6526H132.473V80.2684H133.089ZM133.089 74.738L132.473 74.7222L132.457 75.3538H133.089L133.089 74.738ZM151.364 67.0435L151.93 66.8009L151.925 66.791L151.921 66.7812L151.364 67.0435ZM193.203 61.7535L192.645 62.0139L192.954 62.6767L193.554 62.259L193.203 61.7535ZM171.802 61.7535L171.198 61.8742L171.39 62.8324L172.172 62.2461L171.802 61.7535ZM170.359 57.1848L169.788 57.4136L169.797 57.4373L169.809 57.4603L170.359 57.1848ZM168.78 56.6511L168.497 56.104H168.497L168.78 56.6511ZM168.676 56.7039L168.401 56.1531L168.394 56.1563L168.388 56.1597L168.676 56.7039ZM164.589 58.868V59.4838H164.742L164.877 59.4123L164.589 58.868ZM164.108 59.3489H163.492V59.3489L164.108 59.3489ZM164.348 60.0703L163.797 60.3457L163.808 60.3668L163.82 60.3871L164.348 60.0703ZM173.004 66.0816L172.635 65.589L172.389 65.7737V66.0816H173.004ZM195.126 66.0816L194.785 65.5692L194.51 65.752V66.0816H195.126ZM195.848 65.6007L195.572 65.0499L195.538 65.0671L195.506 65.0883L195.848 65.6007ZM196.25 65.3519L195.917 64.8338L196.25 65.3519ZM217.248 69.9289H217.864V69.8779L217.855 69.8277L217.248 69.9289ZM217.049 68.6875L217.657 68.5919L217.657 68.5912L217.049 68.6875ZM217.049 68.6854L216.44 68.781L216.441 68.7817L217.049 68.6854ZM254.643 75.9323L254.406 76.5009L254.406 76.5009L254.643 75.9323ZM255.24 76.1807L255.003 76.7492L255.011 76.7525L255.24 76.1807ZM261.492 63.9175L261.767 63.3667L261.751 63.3586L261.734 63.3515L261.492 63.9175ZM262.278 64.2014L262.442 63.6078L262.278 64.2014ZM262.934 64.3985L262.74 64.9827L262.834 65.0143H262.934V64.3985ZM263.896 63.6771L263.345 63.4017L263.326 63.4408L263.312 63.4824L263.896 63.6771ZM265.579 60.3107L265.144 59.8753L265.073 59.9459L265.028 60.0353L265.579 60.3107ZM264.617 58.6276L264.301 59.1556L264.321 59.1678L264.342 59.1784L264.617 58.6276ZM259.568 56.9444L259.447 57.5482L259.457 57.5502L259.467 57.5518L259.568 56.9444ZM250.556 80.4621L250.324 81.0324L250.556 80.4621ZM250.671 80.5089L250.908 79.9404L250.903 79.9386L250.671 80.5089ZM250.918 80.6119L250.682 81.1804L250.682 81.1804L250.918 80.6119ZM240.259 91.6169L240.019 92.1842V92.1842L240.259 91.6169ZM239.61 91.3293L239.886 90.7785L239.756 90.7135H239.61V91.3293ZM238.889 91.8102L239.432 92.1L239.505 91.9642V91.8102H238.889ZM236.965 95.417L236.422 95.1272L236.349 95.2631V95.417H236.965ZM238.215 97.3188L237.926 97.8627L237.926 97.8627L238.215 97.3188ZM238.648 97.5811L238.213 98.0166L238.284 98.0873L238.373 98.132L238.648 97.5811ZM343.967 59.1085L343.532 58.673L343.452 58.7528L343.406 58.8558L343.967 59.1085ZM341.803 63.9175L341.242 63.6648L341.187 63.7854V63.9175H341.803ZM343.246 57.9062L343.097 58.5036L343.111 58.5072L343.125 58.5101L343.246 57.9062ZM342.525 57.7052L342.352 58.2964L342.525 57.7052ZM330.203 62.7232L329.743 62.3136V62.3136L330.203 62.7232ZM329.781 63.1962L329.323 62.7842L329.315 62.7929L329.307 62.8019L329.781 63.1962ZM328.578 64.6389L327.969 64.726L328.165 66.0973L329.051 65.0332L328.578 64.6389ZM326.414 58.6276L325.863 58.903L325.876 58.9291L325.892 58.954L326.414 58.6276ZM324.971 57.1848L325.166 56.6006L325.071 56.569H324.971V57.1848ZM324.505 57.2744L324.149 56.7716L324.149 56.7716L324.505 57.2744ZM324.01 57.4253V56.8095H323.823L323.668 56.9129L324.01 57.4253ZM320.403 59.8298L320.061 59.3174L320.01 59.3513L319.967 59.3944L320.403 59.8298ZM320.313 61.1971L319.744 61.4328L319.744 61.4328L320.313 61.1971ZM320.403 61.513H319.787V61.6836L319.875 61.8299L320.403 61.513ZM321.124 62.7153L321.675 62.4399L321.664 62.4187L321.652 62.3984L321.124 62.7153ZM329.781 70.8907L329.313 70.4899L329.165 70.6629V70.8907H329.781ZM331.223 69.2076L331.691 69.6083L331.7 69.5972L331.709 69.5856L331.223 69.2076ZM340.12 64.158L339.845 64.7088L339.884 64.7284L339.925 64.7422L340.12 64.158ZM340.826 64.5226L341.201 64.0341L341.201 64.034L340.826 64.5226ZM341.082 64.6389V65.2547H341.227L341.357 65.1897L341.082 64.6389ZM377.39 79.3066L376.775 79.2982V79.3066H377.39ZM369.936 79.5471H369.321V79.5633L369.321 79.5795L369.936 79.5471ZM314.632 55.9826V55.3667H314.591L314.551 55.3721L314.632 55.9826ZM317.517 58.3871H318.133V58.3361L318.125 58.2859L317.517 58.3871ZM307.659 59.1085L307.348 59.6404L307.808 59.9082L308.14 59.4932L307.659 59.1085ZM288.663 82.673L289.279 82.673L289.279 82.3179L288.971 82.14L288.663 82.673ZM288.422 82.9134V82.2976H288.206L288.038 82.4325L288.422 82.9134ZM287.421 83.66L287.06 83.1613L287.05 83.1684L287.041 83.1758L287.421 83.66ZM287.421 83.6603L287.782 84.159L287.792 84.1519L287.801 84.1445L287.421 83.6603ZM283.854 87.0011L283.319 86.6956L283.311 86.7104L283.303 86.7257L283.854 87.0011ZM283.854 91.3293L284.405 91.0539L284.387 91.0196L284.366 90.9877L283.854 91.3293ZM299.189 95.8932L299.243 95.2797H299.243L299.189 95.8932ZM299.243 95.8979L299.33 95.2883L299.314 95.2859L299.297 95.2845L299.243 95.8979ZM300.926 96.1384L300.839 96.748L300.851 96.7497L300.863 96.751L300.926 96.1384ZM288.662 106.58L289.169 106.23L289.166 106.227L288.662 106.58ZM288.662 106.58L288.155 106.93L288.157 106.933L288.662 106.58ZM288.422 106.237L287.872 106.513L287.893 106.556L287.921 106.595L288.422 106.237ZM288.182 104.314L287.61 104.085L287.566 104.195V104.314H288.182ZM285.777 100.226L285.972 99.6419L285.92 99.6243L285.865 99.6165L285.777 100.226ZM281.69 101.669L282.228 101.968L282.235 101.956L282.241 101.944L281.69 101.669ZM281.93 108.642L282.458 108.325L282.451 108.313L282.443 108.3L281.93 108.642ZM303.09 90.3675L303.064 90.9828L303.064 90.9828L303.09 90.3675ZM296.952 90.1551L296.934 90.7706L296.952 90.1551ZM298.762 84.8371V85.4529H298.78L298.797 85.4519L298.762 84.8371ZM311.506 62.2344L311.071 61.7989L310.635 62.2344L311.071 62.6698L311.506 62.2344ZM315.113 61.0321L315.214 60.4247L315.13 60.4106L315.045 60.42L315.113 61.0321ZM414.18 45.6432L413.758 46.0922L414.796 47.0656V45.6432H414.18ZM414.18 38.1891H414.796V37.9194L414.598 37.7366L414.18 38.1891ZM398.55 30.9755L398.972 30.5264L398.554 30.1339L398.132 30.5232L398.55 30.9755ZM382.68 45.6432H382.065V47.0509L383.098 46.0954L382.68 45.6432ZM382.68 38.1891L382.266 37.7334L382.065 37.9167V38.1891H382.68ZM398.55 23.7618L398.968 23.3093L398.554 22.9267L398.136 23.3062L398.55 23.7618ZM413.564 91.089C413.564 92.3755 413.822 93.6551 414.329 94.9245L415.473 94.4671C415.019 93.3319 414.796 92.2071 414.796 91.089H413.564ZM413.564 57.4254V91.089H414.796V57.4254H413.564ZM413.939 57.8008C413.892 57.8008 413.815 57.7871 413.737 57.735C413.662 57.6854 413.621 57.6237 413.599 57.5807C413.579 57.5401 413.572 57.507 413.569 57.4892C413.567 57.4788 413.566 57.4689 413.565 57.4591C413.565 57.4541 413.565 57.4488 413.564 57.4433C413.564 57.4406 413.564 57.4377 413.564 57.4348C413.564 57.4333 413.564 57.4318 413.564 57.4302C413.564 57.4295 413.564 57.4287 413.564 57.4279C413.564 57.4275 413.564 57.4271 413.564 57.4267C413.564 57.4265 413.564 57.4262 413.564 57.4261C413.564 57.4258 413.564 57.4255 414.18 57.4254C414.796 57.4254 414.796 57.4251 414.796 57.4248C414.796 57.4247 414.796 57.4243 414.796 57.4241C414.796 57.4237 414.796 57.4233 414.796 57.4229C414.796 57.422 414.796 57.4212 414.796 57.4203C414.796 57.4185 414.796 57.4167 414.796 57.4147C414.796 57.4109 414.795 57.4067 414.795 57.4021C414.795 57.3931 414.794 57.3827 414.794 57.3712C414.792 57.3482 414.789 57.3194 414.784 57.2865C414.773 57.2237 414.751 57.1304 414.701 57.0298C414.649 56.9266 414.562 56.8048 414.42 56.7101C414.274 56.6129 414.107 56.5692 413.939 56.5692V57.8008ZM412.886 57.7824C413.313 57.6758 413.525 57.6901 413.598 57.7023C413.633 57.7081 413.633 57.713 413.611 57.702C413.601 57.6966 413.585 57.6879 413.567 57.6744C413.557 57.6677 413.547 57.6599 413.537 57.6509C413.532 57.6464 413.526 57.6416 413.521 57.6366C413.518 57.634 413.515 57.6314 413.512 57.6287C413.511 57.6274 413.51 57.626 413.508 57.6246C413.507 57.6239 413.507 57.6233 413.506 57.6226C413.506 57.6222 413.505 57.6217 413.505 57.6215C413.504 57.621 413.504 57.6204 413.939 57.185C414.375 56.7495 414.374 56.749 414.374 56.7485C414.374 56.7483 414.373 56.7478 414.373 56.7474C414.372 56.7467 414.371 56.746 414.371 56.7453C414.369 56.7438 414.368 56.7424 414.366 56.7409C414.363 56.738 414.36 56.735 414.357 56.7321C414.35 56.7261 414.343 56.72 414.336 56.7138C414.322 56.7014 414.306 56.6887 414.288 56.6759C414.252 56.6502 414.211 56.6245 414.162 56.6004C414.065 56.5518 413.946 56.5116 413.8 56.4874C413.513 56.4394 413.123 56.4537 412.588 56.5875L412.886 57.7824ZM406.602 58.992L412.853 57.7897L412.621 56.5802L406.369 57.7825L406.602 58.992ZM406.38 59.5895C406.38 59.2088 406.474 59.062 406.508 59.0219C406.545 58.9775 406.554 59.0031 406.485 59.0031V57.7714C406.177 57.7714 405.825 57.9172 405.561 58.2335C405.294 58.5541 405.148 59.0085 405.148 59.5895H406.38ZM406.38 91.5699V59.5895H405.148V91.5699H406.38ZM396.386 95.7926C400.432 95.7926 403.45 94.0143 406.126 92.068L405.402 91.0719C402.788 92.9728 400.035 94.5609 396.386 94.5609V95.7926ZM390 88.9249C390 91.7367 390.543 93.5339 391.742 94.5873C392.924 95.626 394.587 95.7926 396.386 95.7926V94.5609C394.579 94.5609 393.357 94.3668 392.555 93.6622C391.77 92.9723 391.231 91.6436 391.231 88.9249H390ZM390 57.6659V88.9249H391.231V57.6659H390ZM389.413 58.0413C389.665 58.0413 389.859 58.0425 390.017 58.0651C390.184 58.0889 390.202 58.1232 390.18 58.1013L391.051 57.2304C390.789 56.9681 390.446 56.8822 390.191 56.8458C389.929 56.8084 389.642 56.8096 389.413 56.8096V58.0413ZM383.523 59.2316L389.534 58.0293L389.292 56.8216L383.281 58.0238L383.523 59.2316ZM383.296 59.83C383.296 59.4493 383.391 59.3025 383.424 59.2624C383.461 59.218 383.47 59.2435 383.402 59.2435V58.0119C383.093 58.0119 382.741 58.1576 382.478 58.4739C382.211 58.7945 382.065 59.2489 382.065 59.83H383.296ZM383.296 89.1654V59.83H382.065V89.1654H383.296ZM395.184 101.775C389.674 101.775 386.773 100.026 385.206 97.6891C383.603 95.2987 383.296 92.1573 383.296 89.1654H382.065C382.065 92.1849 382.359 95.6559 384.183 98.3751C386.042 101.148 389.392 103.006 395.184 103.006V101.775ZM405.733 96.7587C404.85 98.0825 403.267 99.3424 401.347 100.273C399.434 101.201 397.241 101.775 395.184 101.775V103.006C397.455 103.006 399.831 102.377 401.885 101.382C403.932 100.389 405.716 99.0036 406.757 97.4419L405.733 96.7587ZM407.07 97.627L406.829 96.9056L405.661 97.295L405.901 98.0164L407.07 97.627ZM407.252 98.017C407.177 97.8473 407.107 97.689 407.036 97.5463L405.934 98.0972C405.99 98.2082 406.047 98.3372 406.126 98.5147L407.252 98.017ZM408.463 100.402C407.769 99.1873 407.461 98.4901 407.252 98.017L406.126 98.5147C406.345 99.0103 406.671 99.7488 407.393 101.013L408.463 100.402ZM409.817 102.08C409.774 102.101 409.781 102.089 409.807 102.093C409.823 102.095 409.783 102.096 409.671 102.004C409.427 101.804 409.052 101.343 408.45 100.381L407.406 101.034C408.006 101.994 408.473 102.616 408.891 102.957C409.109 103.136 409.354 103.272 409.633 103.312C409.922 103.353 410.17 103.28 410.368 103.182L409.817 102.08ZM415.819 98.9585L409.808 102.084L410.376 103.177L416.388 100.051L415.819 98.9585ZM416.122 98.767C416.035 98.8107 415.832 98.9058 415.668 99.0694L416.539 99.9404C416.531 99.9478 416.533 99.944 416.557 99.9294C416.584 99.9137 416.615 99.8974 416.673 99.8687L416.122 98.767ZM416.209 98.7836C416.209 98.7938 416.208 98.7795 416.219 98.7528C416.23 98.7253 416.246 98.7055 416.256 98.6954C416.263 98.688 416.262 98.6918 416.238 98.7063C416.226 98.7133 416.211 98.7215 416.191 98.7318C416.171 98.7425 416.15 98.7532 416.122 98.767L416.673 99.8687C416.76 99.825 416.963 99.7299 417.127 99.5663C417.324 99.3694 417.441 99.1053 417.441 98.7836H416.209ZM416.22 98.9026C416.24 98.9281 416.248 98.9388 416.253 98.9469C416.258 98.9536 416.253 98.9472 416.245 98.9323C416.237 98.9155 416.226 98.891 416.219 98.8604C416.211 98.8299 416.209 98.8032 416.209 98.7836H417.441C417.441 98.4441 417.257 98.2302 417.197 98.1525L416.22 98.9026ZM415.76 98.0164C415.924 98.5095 416.101 98.7474 416.22 98.9025L417.197 98.1526C417.154 98.0963 417.119 98.0499 417.078 97.9788C417.037 97.9065 416.985 97.7972 416.928 97.627L415.76 98.0164ZM415.061 96.4343C415.384 97.04 415.632 97.5144 415.746 97.9711L416.941 97.6724C416.783 97.04 416.452 96.4255 416.148 95.8549L415.061 96.4343ZM414.329 94.9245C414.552 95.4822 414.822 95.9872 415.061 96.4343L416.148 95.8549C415.905 95.4005 415.667 94.9527 415.473 94.4671L414.329 94.9245ZM430.915 62.2345C433.295 60.3304 437.483 57.5604 442.313 57.5604V56.3287C437.044 56.3287 432.575 59.3295 430.146 61.2727L430.915 62.2345ZM430.151 62.7469L430.872 62.266L430.189 61.2412L429.468 61.7221L430.151 62.7469ZM426.969 57.8609C428.05 58.9419 428.738 60.7272 429.217 62.4037L430.402 62.0653C429.919 60.3755 429.164 58.3135 427.84 56.99L426.969 57.8609ZM426.398 57.6204C426.451 57.5673 426.484 57.5604 426.503 57.5604C426.523 57.5604 426.676 57.5673 426.969 57.8609L427.84 56.99C427.412 56.5622 426.965 56.3287 426.503 56.3287C426.042 56.3287 425.714 56.5622 425.527 56.7495L426.398 57.6204ZM421.68 60.1345L426.249 57.7299L425.675 56.64L421.107 59.0446L421.68 60.1345ZM421.528 60.3109C421.528 60.169 421.564 60.1282 421.555 60.1394C421.551 60.1453 421.536 60.1622 421.507 60.178C421.477 60.194 421.438 60.2054 421.393 60.2054V58.9737C420.66 58.9737 420.297 59.6657 420.297 60.3109H421.528ZM422.069 61.0777C421.864 60.872 421.718 60.6746 421.628 60.5163C421.524 60.3357 421.528 60.2691 421.528 60.3109H420.297C420.297 60.5931 420.421 60.8872 420.558 61.1274C420.708 61.3899 420.923 61.6734 421.198 61.9486L422.069 61.0777ZM424.414 69.6886C424.414 67.7235 424.411 64.945 422.162 61.1963L421.106 61.83C423.185 65.2949 423.182 67.8064 423.182 69.6886H424.414ZM424.414 118.02V69.6886H423.182V118.02H424.414ZM425.927 118.19C425.889 118.209 425.75 118.257 425.532 118.29C425.324 118.322 425.094 118.332 424.888 118.31C424.673 118.286 424.542 118.232 424.479 118.183C424.444 118.157 424.414 118.128 424.414 118.02H423.182C423.182 118.513 423.392 118.905 423.733 119.164C424.045 119.401 424.426 119.497 424.752 119.534C425.087 119.571 425.428 119.552 425.716 119.508C425.993 119.466 426.276 119.393 426.478 119.292L425.927 118.19ZM430.366 116.946L426.038 118.148L426.367 119.335L430.696 118.132L430.366 116.946ZM430.636 116.337C430.636 116.456 430.633 116.596 430.585 116.722C430.548 116.82 430.49 116.903 430.336 116.955L430.725 118.123C431.293 117.934 431.595 117.536 431.739 117.154C431.872 116.799 431.868 116.458 431.868 116.337H430.636ZM430.636 98.5431V116.337H431.868V98.5431H430.636ZM441.111 100.813C436.236 100.813 432.75 98.7239 431.569 98.015L430.935 99.0712C432.158 99.805 435.886 102.044 441.111 102.044V100.813ZM456.846 78.8259C456.846 88.8234 454.229 94.281 451.031 97.2502C447.827 100.226 443.921 100.813 441.111 100.813V102.044C444.071 102.044 448.341 101.429 451.869 98.1528C455.404 94.8702 458.077 89.0265 458.077 78.8259H456.846ZM442.313 57.5604C444.5 57.5604 448.052 58.1364 451.086 61.0272C454.114 63.9127 456.727 69.2004 456.846 78.8335L458.077 78.8183C457.956 68.9745 455.279 63.3216 451.935 60.1355C448.597 56.9549 444.695 56.3287 442.313 56.3287V57.5604ZM430.977 92.8421C433.398 94.0526 437.113 95.5521 440.389 95.5521V94.3204C437.414 94.3204 433.916 92.9345 431.528 91.7404L430.977 92.8421ZM430.636 68.2459V92.2913H431.868V68.2459H430.636ZM440.63 63.5423C438.809 63.5423 436.966 64.1895 435.305 65.02C433.638 65.8534 432.104 66.8981 430.899 67.7414L431.605 68.7504C432.805 67.9105 434.276 66.9113 435.856 66.1216C437.441 65.3291 439.084 64.774 440.63 64.774V63.5423ZM449.662 79.3068C449.662 75.5969 449.548 71.6937 448.387 68.7137C447.801 67.2079 446.935 65.9027 445.653 64.9775C444.367 64.0499 442.717 63.5423 440.63 63.5423V64.774C442.511 64.774 443.895 65.2282 444.932 65.9763C445.972 66.7267 446.714 67.8111 447.24 69.1607C448.303 71.8914 448.43 75.5625 448.43 79.3068H449.662ZM440.389 95.5521C442.589 95.5521 444.326 95.0483 445.676 94.1169C447.025 93.1857 447.933 91.8641 448.537 90.3218C449.732 87.2724 449.781 83.242 449.661 79.2881L448.43 79.3254C448.551 83.3065 448.48 87.0908 447.39 89.8725C446.852 91.2457 446.077 92.3437 444.976 93.1032C443.876 93.8624 442.398 94.3204 440.389 94.3204V95.5521ZM413.564 25.445V32.8991H414.796V25.445H413.564ZM398.129 11.2264L413.758 25.8941L414.601 24.996L398.972 10.3283L398.129 11.2264ZM383.098 25.8973L398.968 11.2296L398.132 10.3251L382.262 24.9928L383.098 25.8973ZM383.296 32.8991V25.445H382.065V32.8991H383.296ZM398.132 17.7792L382.262 32.4469L383.098 33.3514L398.968 18.6837L398.132 17.7792ZM414.601 32.4501L398.972 17.7824L398.129 18.6805L413.758 33.3482L414.601 32.4501ZM120.105 36.6407C120.178 36.6407 120.178 36.6572 120.155 36.64C120.136 36.6259 120.143 36.6195 120.159 36.6619C120.176 36.708 120.192 36.7809 120.201 36.8876C120.21 36.9933 120.21 37.1034 120.21 37.2271H121.442C121.442 37.0143 121.449 36.5942 121.312 36.2294C121.238 36.0314 121.11 35.8146 120.888 35.6502C120.662 35.4828 120.392 35.409 120.105 35.409V36.6407ZM119.143 36.6407H120.105V35.409H119.143V36.6407ZM114.483 37.8246L119.292 36.6223L118.993 35.4274L114.184 36.6297L114.483 37.8246ZM114.228 38.4294C114.228 38.0487 114.323 37.9019 114.356 37.8618C114.393 37.8174 114.402 37.843 114.334 37.843V36.6113C114.025 36.6113 113.673 36.7571 113.41 37.0734C113.143 37.394 112.996 37.8483 112.996 38.4294H114.228ZM114.228 61.513V38.4294H112.996V61.513H114.228ZM103.273 57.0793C103.841 57.0793 104.962 57.0773 106.61 57.6737C108.265 58.2731 110.482 59.4884 113.197 61.9678L114.028 61.0582C111.213 58.488 108.86 57.1786 107.029 56.5156C105.19 55.8497 103.907 55.8476 103.273 55.8476V57.0793ZM87.5377 79.3066C87.5377 69.1952 90.2715 63.6755 93.5308 60.6735C96.7995 57.6629 100.71 57.0793 103.273 57.0793V55.8476C100.546 55.8476 96.2806 56.4663 92.6964 59.7676C89.1027 63.0775 86.306 68.9794 86.306 79.3066H87.5377ZM102.07 100.332C99.7571 100.332 96.1468 99.7525 93.1154 96.8927C90.0917 94.0402 87.5377 88.8176 87.5377 79.3066H86.306C86.306 89.032 88.9218 94.6298 92.2702 97.7886C95.6108 100.94 99.5748 101.563 102.07 101.563V100.332ZM114.334 96.8598C113.911 96.412 113.911 96.4119 113.911 96.4117C113.911 96.4117 113.911 96.4115 113.911 96.4115C113.912 96.4114 113.912 96.4113 113.912 96.4113C113.912 96.4113 113.911 96.4115 113.911 96.412C113.91 96.4129 113.908 96.4148 113.905 96.4177C113.899 96.4234 113.888 96.4328 113.874 96.4457C113.845 96.4714 113.799 96.5111 113.737 96.5627C113.614 96.666 113.425 96.8168 113.172 96.9995C112.667 97.365 111.908 97.8574 110.905 98.3512C108.902 99.3383 105.929 100.332 102.07 100.332V101.563C106.147 101.563 109.305 100.513 111.45 99.456C112.522 98.9279 113.34 98.3984 113.894 97.9974C114.172 97.7969 114.383 97.6284 114.527 97.5081C114.599 97.4479 114.654 97.3998 114.693 97.3657C114.712 97.3486 114.727 97.3351 114.737 97.3253C114.743 97.3204 114.747 97.3165 114.75 97.3135C114.752 97.312 114.753 97.3108 114.754 97.3098C114.755 97.3092 114.755 97.3088 114.756 97.3084C114.756 97.3082 114.756 97.308 114.756 97.3079C114.756 97.3077 114.757 97.3075 114.334 96.8598ZM115.123 97.6282C115.063 97.3306 115.001 97.0245 114.935 96.7262L113.732 96.9934C113.796 97.2775 113.855 97.5714 113.915 97.8712L115.123 97.6282ZM116.433 100.172C116.16 100.328 116.056 100.293 116.039 100.286C116.001 100.273 115.9 100.212 115.77 99.9691C115.499 99.4655 115.324 98.6266 115.123 97.6282L113.915 97.8712C114.101 98.7935 114.307 99.8495 114.685 100.552C114.878 100.912 115.17 101.283 115.624 101.446C116.098 101.616 116.588 101.502 117.044 101.242L116.433 100.172ZM120.028 98.0149L116.421 100.179L117.055 101.235L120.662 99.071L120.028 98.0149ZM120.488 97.7161C120.349 97.7938 120.081 97.9356 119.91 98.1075L120.78 98.9784C120.779 98.9804 120.799 98.9617 120.864 98.9209C120.925 98.8828 120.997 98.8426 121.087 98.7927L120.488 97.7161ZM120.691 97.8216C120.691 97.6678 120.76 97.5722 120.778 97.5488C120.798 97.5238 120.806 97.5223 120.778 97.5431C120.753 97.5613 120.717 97.5853 120.664 97.6164C120.612 97.6473 120.555 97.6792 120.488 97.7161L121.087 98.7927C121.205 98.7268 121.375 98.634 121.511 98.5328C121.58 98.4815 121.67 98.4079 121.746 98.3108C121.821 98.2152 121.923 98.0475 121.923 97.8216H120.691ZM120.607 96.0932C120.658 97.0799 120.691 97.7141 120.691 97.8216H121.923C121.923 97.6717 121.887 96.9821 121.837 96.0293L120.607 96.0932ZM120.21 85.7989C120.21 88.461 120.469 93.4452 120.607 96.0932L121.837 96.0293C121.699 93.3657 121.442 88.4209 121.442 85.7989H120.21ZM120.21 37.2271V85.7989H121.442V37.2271H120.21ZM102.792 96.5138C106.277 96.5138 109.136 95.5182 111.122 94.5251C112.116 94.0283 112.894 93.5307 113.426 93.1549C113.693 92.967 113.898 92.8092 114.038 92.6969C114.109 92.6407 114.163 92.5959 114.2 92.5643C114.219 92.5485 114.233 92.536 114.244 92.527C114.249 92.5225 114.253 92.5189 114.256 92.5162C114.257 92.5149 114.259 92.5138 114.26 92.5129C114.26 92.5125 114.261 92.5121 114.261 92.5118C114.261 92.5116 114.261 92.5114 114.262 92.5113C114.262 92.5111 114.262 92.511 113.853 92.0507C113.444 91.5904 113.444 91.5903 113.444 91.5901C113.444 91.5901 113.444 91.59 113.444 91.59C113.444 91.5899 113.444 91.5898 113.444 91.5899C113.444 91.5899 113.444 91.5902 113.443 91.5907C113.442 91.5917 113.44 91.5937 113.437 91.5965C113.43 91.6021 113.42 91.6112 113.405 91.6235C113.376 91.6483 113.33 91.6861 113.269 91.7351C113.146 91.8332 112.961 91.976 112.716 92.1487C112.227 92.4943 111.502 92.9585 110.572 93.4235C108.711 94.3541 106.04 95.2821 102.792 95.2821V96.5138ZM94.0006 78.5852C94.0006 81.9296 93.9959 86.352 95.0474 89.9396C95.5753 91.7408 96.3839 93.3862 97.6403 94.5851C98.9122 95.7988 100.601 96.5138 102.792 96.5138V95.2821C100.895 95.2821 99.5181 94.6745 98.4906 93.6941C97.4476 92.6989 96.7233 91.2785 96.2293 89.5931C95.237 86.2075 95.2323 81.9736 95.2323 78.5852H94.0006ZM104.475 61.3781C102.09 61.3781 100.204 61.9443 98.7295 62.964C97.2575 63.9821 96.2459 65.4183 95.5513 67.076C94.1747 70.361 94.0006 74.6278 94.0006 78.5852H95.2323C95.2323 74.6077 95.4189 70.5788 96.6872 67.552C97.3151 66.0537 98.1971 64.8298 99.4302 63.9769C100.661 63.1256 102.291 62.6098 104.475 62.6098V61.3781ZM113.907 64.3387C111.238 62.883 107.519 61.3781 104.475 61.3781V62.6098C107.202 62.6098 110.696 63.9903 113.317 65.42L113.907 64.3387ZM114.228 92.0507V64.8794H112.996V92.0507H114.228ZM113.853 91.4349H113.612V92.6665H113.853V91.4349ZM126.251 78.8257C126.251 71.84 128.145 66.4032 131.274 62.7235C134.396 59.0523 138.789 57.0793 143.91 57.0793V55.8476C138.45 55.8476 133.706 57.9623 130.336 61.9256C126.973 65.8804 125.019 71.6246 125.019 78.8257H126.251ZM145.833 100.572C141.367 100.572 136.478 99.3371 132.714 96.0361C128.966 92.7493 126.251 87.3424 126.251 78.8257H125.019C125.019 87.6217 127.835 93.396 131.902 96.9621C135.952 100.514 141.162 101.804 145.833 101.804V100.572ZM155.918 98.2228C153.32 99.4038 149.803 100.572 145.833 100.572V101.804C150.039 101.804 153.736 100.568 156.427 99.344L155.918 98.2228ZM158.923 96.6193C158.923 96.4899 158.978 96.4506 158.926 96.5203C158.882 96.5791 158.78 96.6895 158.568 96.848C158.145 97.1652 157.356 97.6231 155.936 98.215L156.41 99.3519C157.875 98.7414 158.769 98.2375 159.307 97.8333C159.577 97.6312 159.775 97.441 159.911 97.2593C160.04 97.0886 160.155 96.8689 160.155 96.6193H158.923ZM158.923 96.1384V96.6193H160.155V96.1384H158.923ZM157.292 92.538L158.975 96.3852L160.103 95.8916L158.42 92.0443L157.292 92.538ZM157.375 92.426C157.333 92.426 157.304 92.4157 157.291 92.4096C157.278 92.4035 157.272 92.3982 157.27 92.396C157.268 92.3938 157.263 92.388 157.256 92.375C157.25 92.3619 157.24 92.3335 157.24 92.2911H158.472C158.472 91.9706 158.318 91.7016 158.141 91.525C157.964 91.3484 157.695 91.1944 157.375 91.1944V92.426ZM157.134 92.426H157.375V91.1944H157.134V92.426ZM156.208 92.8419C156.453 92.7194 156.676 92.6081 156.866 92.5265C156.961 92.4861 157.035 92.4579 157.092 92.4407C157.156 92.4212 157.164 92.426 157.134 92.426V91.1944C156.985 91.1944 156.842 91.2293 156.734 91.2624C156.617 91.2978 156.497 91.3447 156.381 91.3945C156.151 91.4932 155.893 91.6224 155.657 91.7403L156.208 92.8419ZM145.833 96.0329C149.842 96.0329 153.083 94.5247 156.224 92.8333L155.64 91.7489C152.529 93.4239 149.518 94.8012 145.833 94.8012V96.0329ZM132.473 80.7494C132.473 86.0601 134.207 89.8946 136.777 92.4014C139.339 94.8999 142.685 96.0329 145.833 96.0329V94.8012C142.97 94.8012 139.944 93.7701 137.637 91.5196C135.338 89.2774 133.705 85.7781 133.705 80.7494H132.473ZM132.473 80.2684V80.7494H133.705V80.2684H132.473ZM159.539 79.6526H133.089V80.8842H159.539V79.6526ZM159.885 78.8257C159.885 79.1106 159.87 79.3105 159.846 79.4513C159.82 79.5936 159.791 79.6373 159.789 79.64C159.789 79.6402 159.79 79.6384 159.793 79.6357C159.796 79.6329 159.799 79.6301 159.802 79.6278C159.81 79.6227 159.811 79.6239 159.799 79.6278C159.767 79.6383 159.694 79.6526 159.539 79.6526V80.8842C159.936 80.8842 160.456 80.8258 160.792 80.3559C160.94 80.1481 161.016 79.9063 161.058 79.6654C161.101 79.4229 161.117 79.142 161.117 78.8257H159.885ZM159.885 78.1043V78.8257H161.117V78.1043H159.885ZM143.91 57.0793C147.662 57.0793 151.625 58.017 154.655 61.0468C157.685 64.0766 159.885 69.3025 159.885 78.1043H161.117C161.117 69.1126 158.868 63.5181 155.526 60.1758C152.184 56.8336 147.852 55.8476 143.91 55.8476V57.0793ZM143.188 61.1376C140.627 61.1376 137.991 62.1007 135.971 64.3139C133.952 66.5245 132.596 69.9268 132.473 74.7222L133.705 74.7538C133.822 70.1715 135.111 67.0815 136.88 65.1443C138.647 63.2096 140.941 62.3693 143.188 62.3693V61.1376ZM151.921 66.7812C150.912 64.6368 149.568 63.213 148.033 62.3316C146.505 61.4532 144.829 61.1376 143.188 61.1376V62.3693C144.673 62.3693 146.124 62.6548 147.42 63.3996C148.711 64.1412 149.892 65.3624 150.806 67.3057L151.921 66.7812ZM153.422 74.4975C153.422 74.0049 153.425 70.29 151.93 66.8009L150.798 67.286C152.188 70.5297 152.19 74.0283 152.19 74.4975H153.422ZM133.089 74.738C133.089 75.3538 133.089 75.3538 133.089 75.3538C133.089 75.3538 133.09 75.3538 133.09 75.3538C133.091 75.3538 133.092 75.3538 133.093 75.3538C133.095 75.3538 133.099 75.3538 133.103 75.3538C133.113 75.3538 133.127 75.3538 133.146 75.3538C133.183 75.3538 133.239 75.3538 133.311 75.3538C133.455 75.3537 133.667 75.3536 133.937 75.3534C134.476 75.3529 135.247 75.352 136.171 75.3501C138.02 75.3463 140.486 75.3388 142.951 75.3238C145.417 75.3087 147.884 75.2862 149.737 75.2523C150.662 75.2354 151.438 75.2155 151.985 75.1922C152.257 75.1806 152.481 75.1677 152.641 75.1531C152.718 75.1461 152.797 75.1372 152.864 75.1245C152.893 75.1191 152.951 75.1074 153.013 75.0835C153.041 75.0729 153.108 75.0454 153.18 74.99C153.24 74.9437 153.422 74.7829 153.422 74.4975H152.19C152.19 74.2159 152.371 74.0588 152.426 74.0162C152.492 73.9645 152.553 73.9408 152.571 73.9338C152.597 73.924 152.616 73.919 152.623 73.9172C152.627 73.916 152.63 73.9153 152.632 73.9149C152.634 73.9145 152.635 73.9143 152.635 73.9143C152.635 73.9143 152.635 73.9144 152.633 73.9146C152.632 73.9149 152.63 73.9152 152.627 73.9156C152.622 73.9164 152.614 73.9174 152.605 73.9186C152.585 73.921 152.56 73.9237 152.529 73.9266C152.4 73.9384 152.2 73.9502 151.933 73.9616C151.401 73.9843 150.637 74.0039 149.714 74.0208C147.87 74.0546 145.408 74.0771 142.944 74.0921C140.48 74.1071 138.017 74.1147 136.169 74.1184C135.245 74.1203 134.475 74.1212 133.936 74.1217C133.666 74.1219 133.455 74.122 133.31 74.1221C133.238 74.1221 133.183 74.1222 133.146 74.1222C133.127 74.1222 133.113 74.1222 133.103 74.1222C133.099 74.1222 133.095 74.1222 133.093 74.1222C133.091 74.1222 133.091 74.1222 133.09 74.1222C133.09 74.1222 133.089 74.1222 133.089 74.1222C133.089 74.1222 133.089 74.1222 133.089 74.738ZM193.554 62.259C199.047 58.4383 202.527 57.0793 206.187 57.0793V55.8476C202.153 55.8476 198.42 57.3741 192.851 61.2479L193.554 62.259ZM184.787 57.0793C186.62 57.0793 188.185 57.4795 189.483 58.28C190.778 59.0794 191.846 60.3025 192.645 62.0139L193.761 61.493C192.876 59.5976 191.659 58.1757 190.13 57.2318C188.602 56.289 186.801 55.8476 184.787 55.8476V57.0793ZM172.172 62.2461C176.003 59.3725 179.47 57.0793 184.787 57.0793V55.8476C179.042 55.8476 175.296 58.3635 171.433 61.2608L172.172 62.2461ZM169.809 57.4603C170.025 57.8927 170.313 58.6926 170.583 59.5615C170.85 60.4223 171.084 61.3018 171.198 61.8742L172.406 61.6327C172.28 61.0029 172.033 60.079 171.759 59.1964C171.488 58.3221 171.175 57.4388 170.91 56.9094L169.809 57.4603ZM169.062 57.1982C169.187 57.1337 169.282 57.0855 169.374 57.0525C169.463 57.0201 169.509 57.018 169.527 57.0196C169.53 57.0198 169.541 57.0174 169.573 57.0473C169.616 57.087 169.697 57.1868 169.788 57.4136L170.931 56.9561C170.663 56.2846 170.238 55.8452 169.634 55.7925C169.143 55.7498 168.694 56.0021 168.497 56.104L169.062 57.1982ZM168.952 57.2547C168.989 57.2359 169.028 57.2162 169.062 57.1982L168.497 56.104C168.461 56.1227 168.43 56.1386 168.401 56.1531L168.952 57.2547ZM164.877 59.4123L168.964 57.2482L168.388 56.1597L164.3 58.3237L164.877 59.4123ZM164.723 59.3489C164.723 59.3913 164.713 59.4197 164.707 59.4328C164.701 59.4457 164.696 59.4515 164.693 59.4538C164.691 59.456 164.685 59.4613 164.672 59.4674C164.659 59.4735 164.631 59.4838 164.589 59.4838V58.2522C164.268 58.2522 163.999 58.4062 163.822 58.5828C163.646 58.7594 163.492 59.0284 163.492 59.3489H164.723ZM164.899 59.7949C164.797 59.5912 164.753 59.453 164.735 59.3799C164.726 59.3433 164.723 59.3225 164.722 59.3176C164.722 59.3151 164.722 59.3165 164.723 59.3218C164.723 59.3244 164.723 59.328 164.723 59.3325C164.723 59.3347 164.723 59.3372 164.723 59.34C164.723 59.3413 164.723 59.3428 164.723 59.3443C164.723 59.345 164.723 59.3458 164.723 59.3465C164.723 59.3469 164.723 59.3473 164.723 59.3477C164.723 59.3479 164.723 59.3482 164.723 59.3483C164.723 59.3486 164.723 59.3489 164.108 59.3489C163.492 59.3489 163.492 59.3492 163.492 59.3495C163.492 59.3496 163.492 59.3499 163.492 59.3501C163.492 59.3506 163.492 59.351 163.492 59.3514C163.492 59.3522 163.492 59.3531 163.492 59.3539C163.492 59.3556 163.492 59.3574 163.492 59.3593C163.492 59.3629 163.492 59.3668 163.492 59.371C163.492 59.3793 163.493 59.3885 163.493 59.3986C163.495 59.4189 163.497 59.4428 163.5 59.4704C163.507 59.5256 163.519 59.595 163.54 59.6786C163.582 59.8459 163.659 60.0684 163.797 60.3457L164.899 59.7949ZM166.407 68.7266C166.407 65.7025 166.226 63.7897 165.942 62.466C165.653 61.1181 165.26 60.3929 164.876 59.7534L163.82 60.3871C164.158 60.9499 164.486 61.5473 164.738 62.7241C164.995 63.9252 165.175 65.7394 165.175 68.7266H166.407ZM166.407 99.0238V68.7266H165.175V99.0238H166.407ZM166.993 99.6103C166.677 99.6103 166.562 99.5522 166.522 99.5181C166.503 99.5015 166.407 99.4121 166.407 99.0238H165.175C165.175 99.5974 165.319 100.109 165.721 100.453C166.102 100.78 166.588 100.842 166.993 100.842V99.6103ZM171.802 99.6103H166.993V100.842H171.802V99.6103ZM172.389 99.0238C172.389 99.3404 172.331 99.4549 172.296 99.4947C172.28 99.514 172.19 99.6103 171.802 99.6103V100.842C172.376 100.842 172.887 100.698 173.232 100.296C173.558 99.9153 173.62 99.4286 173.62 99.0238H172.389ZM172.389 66.0816V99.0238H173.62V66.0816H172.389ZM181.901 61.859C178.334 61.859 175.556 63.3984 172.635 65.589L173.374 66.5743C176.224 64.4368 178.736 63.0907 181.901 63.0907V61.859ZM188.528 69.6884C188.528 68.4864 188.475 66.545 187.617 64.8958C187.181 64.0574 186.535 63.2879 185.586 62.7324C184.64 62.1781 183.43 61.859 181.901 61.859V63.0907C183.258 63.0907 184.242 63.3727 184.964 63.7952C185.683 64.2166 186.179 64.7996 186.525 65.4641C187.23 66.8205 187.297 68.486 187.297 69.6884H188.528ZM188.528 99.0238V69.6884H187.297V99.0238H188.528ZM189.115 99.6103C188.798 99.6103 188.684 99.5522 188.644 99.5181C188.625 99.5015 188.528 99.4121 188.528 99.0238H187.297C187.297 99.5974 187.441 100.109 187.842 100.453C188.223 100.78 188.71 100.842 189.115 100.842V99.6103ZM193.924 99.6103H189.115V100.842H193.924V99.6103ZM194.51 99.0238C194.51 99.2666 194.473 99.4008 194.443 99.4688C194.417 99.5277 194.393 99.5448 194.379 99.5536C194.357 99.5677 194.313 99.5858 194.23 99.5974C194.143 99.6094 194.05 99.6103 193.924 99.6103V100.842C194.13 100.842 194.617 100.858 195.032 100.598C195.517 100.295 195.742 99.7484 195.742 99.0238H194.51ZM194.51 66.0816V99.0238H195.742V66.0816H194.51ZM195.506 65.0883L194.785 65.5692L195.468 66.594L196.189 66.1131L195.506 65.0883ZM195.917 64.8338C195.818 64.8977 195.738 64.9489 195.675 64.9884C195.643 65.0081 195.619 65.0232 195.599 65.0345C195.579 65.0466 195.571 65.0505 195.572 65.0499L196.123 66.1516C196.23 66.098 196.407 65.983 196.583 65.8699L195.917 64.8338ZM204.023 61.859C202.251 61.859 200.511 62.426 199.088 63.0681C197.66 63.7129 196.508 64.4537 195.917 64.8338L196.583 65.8699C197.169 65.493 198.256 64.7952 199.595 64.1907C200.94 63.5836 202.497 63.0907 204.023 63.0907V61.859ZM210.65 69.6884C210.65 68.4864 210.597 66.545 209.739 64.8958C209.303 64.0574 208.657 63.2879 207.708 62.7324C206.762 62.1781 205.552 61.859 204.023 61.859V63.0907C205.379 63.0907 206.364 63.3727 207.086 63.7952C207.805 64.2166 208.301 64.7996 208.646 65.4641C209.352 66.8205 209.419 68.486 209.419 69.6884H210.65ZM210.65 99.0238V69.6884H209.419V99.0238H210.65ZM211.237 99.6103C210.92 99.6103 210.806 99.5522 210.766 99.5181C210.746 99.5015 210.65 99.4121 210.65 99.0238H209.419C209.419 99.5974 209.563 100.109 209.964 100.453C210.345 100.78 210.832 100.842 211.237 100.842V99.6103ZM216.046 99.6103H211.237V100.842H216.046V99.6103ZM216.632 99.0238C216.632 99.2666 216.595 99.4008 216.565 99.4688C216.539 99.5277 216.515 99.5448 216.501 99.5536C216.478 99.5677 216.435 99.5858 216.352 99.5974C216.265 99.6094 216.172 99.6103 216.046 99.6103V100.842C216.252 100.842 216.738 100.858 217.154 100.598C217.638 100.295 217.864 99.7484 217.864 99.0238H216.632ZM216.632 69.9289V99.0238H217.864V69.9289H216.632ZM216.441 68.7831C216.507 69.2036 216.572 69.6214 216.641 70.0301L217.855 69.8277C217.788 69.4255 217.724 69.0135 217.657 68.5919L216.441 68.7831ZM216.441 68.7817L216.441 68.7837L217.657 68.5912L217.657 68.5892L216.441 68.7817ZM206.187 57.0793C208.346 57.0793 209.986 57.4805 211.25 58.1362C212.51 58.7901 213.428 59.7142 214.122 60.8135C215.53 63.045 215.998 65.9647 216.44 68.781L217.657 68.5899C217.224 65.834 216.732 62.6427 215.163 60.1563C214.369 58.8966 213.295 57.81 211.817 57.043C210.342 56.2777 208.499 55.8476 206.187 55.8476V57.0793ZM224.702 58.2816H229.511V57.0499H224.702V58.2816ZM224.116 58.868C224.116 58.6253 224.153 58.4911 224.183 58.4231C224.209 58.3642 224.233 58.3471 224.247 58.3383C224.27 58.3242 224.313 58.3061 224.396 58.2945C224.483 58.2825 224.576 58.2816 224.702 58.2816V57.0499C224.496 57.0499 224.009 57.0343 223.594 57.2938C223.109 57.5968 222.884 58.1435 222.884 58.868H224.116ZM224.116 99.0238V58.868H222.884V99.0238H224.116ZM224.702 99.6103C224.385 99.6103 224.271 99.5522 224.231 99.5181C224.212 99.5015 224.116 99.4121 224.116 99.0238H222.884C222.884 99.5974 223.028 100.109 223.43 100.453C223.811 100.78 224.297 100.842 224.702 100.842V99.6103ZM229.511 99.6103H224.702V100.842H229.511V99.6103ZM230.098 99.0238C230.098 99.2666 230.061 99.4008 230.03 99.4688C230.004 99.5277 229.98 99.5448 229.966 99.5536C229.944 99.5677 229.9 99.5858 229.817 99.5974C229.731 99.6094 229.637 99.6103 229.511 99.6103V100.842C229.717 100.842 230.204 100.858 230.619 100.598C231.104 100.295 231.329 99.7484 231.329 99.0238H230.098ZM230.098 58.868V99.0238H231.329V58.868H230.098ZM229.511 58.2816C229.754 58.2816 229.888 58.3185 229.956 58.3487C230.015 58.3749 230.032 58.3988 230.041 58.4129C230.055 58.4354 230.073 58.4788 230.085 58.562C230.097 58.6486 230.098 58.7421 230.098 58.868H231.329C231.329 58.6621 231.345 58.1753 231.085 57.7601C230.782 57.2753 230.236 57.0499 229.511 57.0499V58.2816ZM223.635 44.2003C223.635 41.8954 225.523 40.0071 227.828 40.0071V38.7754C224.843 38.7754 222.403 41.2152 222.403 44.2003H223.635ZM227.828 48.3936C225.523 48.3936 223.635 46.5052 223.635 44.2003H222.403C222.403 47.1854 224.843 49.6252 227.828 49.6252V48.3936ZM232.021 44.2003C232.021 46.5052 230.133 48.3936 227.828 48.3936V49.6252C230.813 49.6252 233.253 47.1854 233.253 44.2003H232.021ZM227.828 40.0071C230.133 40.0071 232.021 41.8954 232.021 44.2003H233.253C233.253 41.2152 230.813 38.7754 227.828 38.7754V40.0071ZM254.406 76.5009C254.603 76.5827 254.802 76.6653 255.003 76.7492L255.477 75.6122C255.275 75.5282 255.076 75.4453 254.879 75.3636L254.406 76.5009ZM245.006 68.0053C245.006 70.3232 246.024 71.9104 247.724 73.1809C249.375 74.4142 251.714 75.3819 254.406 76.5009L254.879 75.3636C252.133 74.2223 249.962 73.315 248.462 72.1942C247.011 71.1106 246.237 69.8644 246.237 68.0053H245.006ZM253.316 61.3781C250.561 61.3781 248.479 62.1307 247.078 63.3653C245.673 64.6031 245.006 66.2792 245.006 68.0053H246.237C246.237 66.6055 246.772 65.2759 247.892 64.2895C249.016 63.2999 250.781 62.6098 253.316 62.6098V61.3781ZM261.734 63.3515C258.308 61.8832 255.821 61.3781 253.316 61.3781V62.6098C255.621 62.6098 257.942 63.0664 261.249 64.4836L261.734 63.3515ZM262.442 63.6078C262.163 63.5306 262.007 63.4867 261.767 63.3667L261.216 64.4684C261.571 64.6456 261.825 64.7152 262.114 64.7949L262.442 63.6078ZM263.129 63.8142C262.837 63.717 262.619 63.6568 262.442 63.6078L262.114 64.7949C262.288 64.843 262.48 64.8962 262.74 64.9827L263.129 63.8142ZM263.312 63.4824C263.271 63.6043 263.229 63.6707 263.201 63.7051C263.174 63.7377 263.153 63.7507 263.14 63.7575C263.103 63.776 263.057 63.7826 262.934 63.7826V65.0143C263.052 65.0143 263.367 65.0209 263.691 64.8591C264.041 64.6841 264.317 64.3606 264.48 63.8718L263.312 63.4824ZM265.028 60.0353L263.345 63.4017L264.447 63.9525L266.13 60.5861L265.028 60.0353ZM264.342 59.1784C264.998 59.5061 265.12 59.7621 265.14 59.8264C265.153 59.8708 265.135 59.8841 265.144 59.8753L266.015 60.7462C266.264 60.497 266.486 60.0293 266.319 59.4725C266.158 58.9358 265.68 58.4703 264.893 58.0767L264.342 59.1784ZM259.467 57.5518C260.152 57.666 261.084 57.8982 261.994 58.1917C262.911 58.4876 263.76 58.8312 264.301 59.1556L264.934 58.0995C264.273 57.7025 263.318 57.3248 262.372 57.0195C261.418 56.7119 260.427 56.4632 259.669 56.3369L259.467 57.5518ZM252.595 56.5984C254.447 56.5984 257.032 57.0651 259.447 57.5482L259.689 56.3405C257.295 55.8618 254.59 55.3667 252.595 55.3667V56.5984ZM238.783 68.0053C238.783 64.7007 240.146 61.8668 242.533 59.8493C244.926 57.826 248.384 56.5984 252.595 56.5984V55.3667C248.149 55.3667 244.393 56.6639 241.737 58.9087C239.075 61.1592 237.552 64.3367 237.552 68.0053H238.783ZM250.788 79.8917C247.541 78.5687 244.538 77.3397 242.332 75.5493C240.17 73.7944 238.783 71.5063 238.783 68.0053H237.552C237.552 71.9144 239.136 74.5412 241.556 76.5056C243.932 78.4343 247.123 79.7286 250.324 81.0324L250.788 79.8917ZM250.903 79.9386L250.788 79.8917L250.324 81.0324L250.439 81.0792L250.903 79.9386ZM251.155 80.0434L250.908 79.9404L250.434 81.0774L250.682 81.1804L251.155 80.0434ZM260.665 88.4439C260.665 87.342 260.424 86.3894 259.95 85.5479C259.479 84.7112 258.797 84.0161 257.958 83.3997C256.306 82.1843 253.942 81.2039 251.155 80.0434L250.682 81.1804C253.522 82.3633 255.723 83.2845 257.229 84.3919C257.97 84.9369 258.515 85.5086 258.877 86.1519C259.236 86.7905 259.433 87.5312 259.433 88.4439H260.665ZM251.873 95.3115C254.602 95.3115 256.797 94.6926 258.324 93.4975C259.871 92.2868 260.665 90.5367 260.665 88.4439H259.433C259.433 90.1983 258.784 91.5741 257.565 92.5275C256.327 93.4965 254.435 94.0798 251.873 94.0798V95.3115ZM241.98 93.0824C244.476 94.3302 248.658 95.3115 251.873 95.3115V94.0798C248.837 94.0798 244.844 93.1375 242.531 91.9808L241.98 93.0824ZM240.019 92.1842C240.472 92.3757 241.083 92.6338 241.98 93.0824L242.531 91.9808C241.598 91.5147 240.96 91.2447 240.498 91.0497L240.019 92.1842ZM239.335 91.8801C239.532 91.9788 239.761 92.0751 240.019 92.1842L240.498 91.0497C240.228 90.9356 240.04 90.8558 239.886 90.7785L239.335 91.8801ZM239.37 91.9451H239.61V90.7135H239.37V91.9451ZM239.505 91.8102C239.505 91.7784 239.505 91.7582 239.505 91.7401C239.506 91.7317 239.506 91.7257 239.506 91.7213C239.507 91.7169 239.507 91.715 239.507 91.715C239.507 91.715 239.507 91.7177 239.505 91.7224C239.504 91.7271 239.503 91.7345 239.5 91.7439C239.493 91.763 239.482 91.7906 239.461 91.8212C239.441 91.8526 239.414 91.8808 239.385 91.9037C239.356 91.9261 239.331 91.9384 239.315 91.9446C239.288 91.9552 239.295 91.9451 239.37 91.9451V90.7135C239.048 90.7135 238.666 90.7938 238.437 91.138C238.253 91.4134 238.273 91.7432 238.273 91.8102H239.505ZM237.509 95.7068L239.432 92.1L238.346 91.5204L236.422 95.1272L237.509 95.7068ZM237.581 96.1384V95.417H236.349V96.1384H237.581ZM238.503 96.7749C238.239 96.6346 237.978 96.4941 237.781 96.3382C237.56 96.1632 237.581 96.0956 237.581 96.1384H236.349C236.349 96.6981 236.741 97.0858 237.017 97.3043C237.318 97.5418 237.682 97.7331 237.926 97.8627L238.503 96.7749ZM239.084 97.1457C238.988 97.0498 238.867 96.9766 238.792 96.9328C238.704 96.8814 238.6 96.8264 238.503 96.7749L237.926 97.8627C238.03 97.918 238.109 97.9601 238.171 97.9962C238.201 98.0137 238.219 98.0257 238.23 98.0332C238.244 98.0424 238.233 98.0366 238.213 98.0166L239.084 97.1457ZM251.873 99.8508C246.923 99.8508 241.246 98.1914 238.924 97.0303L238.373 98.132C240.86 99.3754 246.725 101.082 251.873 101.082V99.8508ZM267.128 88.2034C267.128 92.0606 265.268 94.9476 262.435 96.8932C259.584 98.8514 255.746 99.8508 251.873 99.8508V101.082C255.936 101.082 260.032 100.038 263.133 97.9084C266.251 95.7663 268.359 92.5217 268.359 88.2034H267.128ZM255.011 76.7525C258.035 77.962 261.075 79.1949 263.369 80.9663C265.631 82.7124 267.128 84.951 267.128 88.2034H268.359C268.359 84.4827 266.61 81.9121 264.122 79.9914C261.667 78.0958 258.456 76.804 255.468 75.6089L255.011 76.7525ZM343.406 58.8558L341.242 63.6648L342.365 64.1703L344.529 59.3612L343.406 58.8558ZM343.125 58.5101C343.369 58.5589 343.486 58.6221 343.534 58.6575C343.573 58.6862 343.558 58.6887 343.55 58.6567C343.545 58.6342 343.551 58.6284 343.545 58.6458C343.538 58.6665 343.526 58.6784 343.532 58.673L344.403 59.5439C344.624 59.3224 344.873 58.8706 344.745 58.358C344.601 57.7795 344.069 57.4428 343.367 57.3023L343.125 58.5101ZM342.352 58.2964C342.603 58.3697 342.856 58.4434 343.097 58.5036L343.395 57.3088C343.182 57.2554 342.954 57.1889 342.697 57.114L342.352 58.2964ZM339.639 57.8007C340.642 57.8007 341.525 58.0551 342.352 58.2964L342.697 57.114C341.881 56.8759 340.841 56.569 339.639 56.569V57.8007ZM330.663 63.1328C332.805 60.728 335.449 57.8007 339.639 57.8007V56.569C334.824 56.569 331.835 59.9654 329.743 62.3136L330.663 63.1328ZM330.238 63.6082C330.377 63.4536 330.519 63.2943 330.663 63.1328L329.743 62.3136C329.599 62.4755 329.459 62.6324 329.323 62.7842L330.238 63.6082ZM329.051 65.0332L330.254 63.5904L329.307 62.8019L328.105 64.2447L329.051 65.0332ZM325.892 58.954C327.04 60.7913 327.738 63.1105 327.969 64.726L329.188 64.5518C328.938 62.801 328.193 60.3111 326.936 58.3012L325.892 58.954ZM324.777 57.7691C325.251 57.9272 325.636 58.4492 325.863 58.903L326.965 58.3522C326.711 57.8441 326.134 56.9234 325.166 56.6006L324.777 57.7691ZM324.731 57.8007H324.971V56.569H324.731V57.8007ZM324.86 57.7773C324.88 57.7636 324.884 57.7603 324.887 57.7585C324.888 57.7579 324.879 57.7638 324.863 57.7711C324.846 57.7789 324.824 57.787 324.798 57.7929C324.773 57.7987 324.749 57.8007 324.731 57.8007V56.569C324.419 56.569 324.218 56.7227 324.149 56.7716L324.86 57.7773ZM324.01 58.0411C324.213 58.0411 324.388 58.011 324.546 57.9509C324.702 57.8915 324.81 57.8125 324.86 57.7773L324.149 56.7716C324.123 56.7899 324.116 56.7949 324.11 56.7987C324.108 56.7993 324.108 56.7997 324.107 56.8C324.107 56.8001 324.107 56.8002 324.107 56.8002C324.107 56.8003 324.107 56.8003 324.107 56.8003C324.107 56.8003 324.107 56.8003 324.107 56.8003C324.107 56.8002 324.107 56.8002 324.107 56.8002C324.107 56.8001 324.107 56.8001 324.107 56.8001C324.107 56.8001 324.107 56.8002 324.106 56.8004C324.106 56.8005 324.105 56.8008 324.104 56.8012C324.101 56.8018 324.097 56.8029 324.09 56.8041C324.075 56.8065 324.05 56.8095 324.01 56.8095V58.0411ZM320.744 60.3422L324.351 57.9377L323.668 56.9129L320.061 59.3174L320.744 60.3422ZM320.778 60.5512C320.778 60.4244 320.778 60.3532 320.781 60.3018C320.784 60.2521 320.787 60.2633 320.777 60.2951C320.771 60.3131 320.763 60.3308 320.753 60.3465C320.745 60.361 320.739 60.3682 320.74 60.3663C320.75 60.3541 320.77 60.3335 320.838 60.2653L319.967 59.3944C319.88 59.4815 319.694 59.6488 319.608 59.9056C319.568 60.0276 319.556 60.1439 319.551 60.237C319.546 60.3284 319.547 60.4376 319.547 60.5512H320.778ZM320.882 60.9614C320.817 60.8043 320.778 60.7021 320.778 60.5512H319.547C319.547 60.9637 319.673 61.2599 319.744 61.4328L320.882 60.9614ZM321.019 61.513C321.019 61.2665 320.917 61.0459 320.882 60.9614L319.744 61.4328C319.757 61.4632 319.766 61.4853 319.774 61.5058C319.782 61.5257 319.786 61.5383 319.789 61.5465C319.794 61.5638 319.787 61.5479 319.787 61.513H321.019ZM321.652 62.3984L320.931 61.1962L319.875 61.8299L320.596 63.0321L321.652 62.3984ZM323.183 69.448C323.183 66.4784 322.684 64.4587 321.675 62.4399L320.573 62.9907C321.488 64.8192 321.951 66.6467 321.951 69.448H323.183ZM323.183 99.7452V69.448H321.951V99.7452H323.183ZM323.769 100.332C323.526 100.332 323.392 100.295 323.324 100.264C323.265 100.238 323.248 100.214 323.239 100.2C323.225 100.178 323.207 100.134 323.196 100.051C323.184 99.9646 323.183 99.8711 323.183 99.7452H321.951C321.951 99.9511 321.935 100.438 322.195 100.853C322.498 101.338 323.045 101.563 323.769 101.563V100.332ZM328.578 100.332H323.769V101.563H328.578V100.332ZM329.165 99.7452C329.165 100.062 329.107 100.176 329.072 100.216C329.056 100.235 328.966 100.332 328.578 100.332V101.563C329.152 101.563 329.664 101.419 330.008 101.018C330.334 100.637 330.396 100.15 330.396 99.7452H329.165ZM329.165 70.8907V99.7452H330.396V70.8907H329.165ZM330.756 68.8068L329.313 70.4899L330.248 71.2915L331.691 69.6083L330.756 68.8068ZM338.437 63.3017C336.891 63.3017 335.366 64.2024 334.075 65.2779C332.764 66.3702 331.591 67.7313 330.737 68.8295L331.709 69.5856C332.538 68.5197 333.65 67.2358 334.864 66.2241C336.098 65.1956 337.338 64.5334 338.437 64.5334V63.3017ZM340.395 63.6072C340.056 63.4376 339.669 63.3677 339.34 63.3348C339.004 63.3013 338.674 63.3017 338.437 63.3017V64.5334C338.681 64.5334 338.952 64.5338 339.217 64.5604C339.489 64.5876 339.703 64.638 339.845 64.7088L340.395 63.6072ZM341.201 64.034C341.046 63.9149 340.808 63.7381 340.315 63.5738L339.925 64.7422C340.096 64.799 340.205 64.8514 340.277 64.8923C340.348 64.9327 340.395 64.9679 340.451 65.0111L341.201 64.034ZM341.082 64.0231C341.102 64.0231 341.128 64.0254 341.159 64.0329C341.189 64.0405 341.214 64.0509 341.231 64.0595C341.246 64.0671 341.252 64.0722 341.245 64.0675C341.237 64.0618 341.226 64.0537 341.201 64.0341L340.451 65.0111C340.529 65.0707 340.742 65.2547 341.082 65.2547V64.0231ZM341.187 63.9175C341.187 63.8169 341.241 63.7897 341.187 63.8428C341.133 63.8971 341.018 63.9824 340.806 64.0881L341.357 65.1897C341.627 65.055 341.872 64.8998 342.058 64.7137C342.246 64.5263 342.419 64.2587 342.419 63.9175H341.187ZM341.938 79.3066C341.938 70.65 344.425 65.2373 347.792 61.986C351.166 58.7272 355.506 57.5602 359.356 57.5602V56.3285C355.272 56.3285 350.595 57.5661 346.936 61.1001C343.269 64.6416 340.706 70.41 340.706 79.3066H341.938ZM359.356 101.053C355.629 101.053 351.286 99.8876 347.88 96.6254C344.483 93.3722 341.938 87.9588 341.938 79.3066H340.706C340.706 88.2076 343.332 93.9753 347.028 97.5149C350.715 101.046 355.39 102.285 359.356 102.285V101.053ZM376.775 79.3066C376.775 87.9588 374.23 93.3722 370.833 96.6254C367.426 99.8876 363.084 101.053 359.356 101.053V102.285C363.323 102.285 367.998 101.046 371.685 97.5149C375.381 93.9753 378.006 88.2076 378.006 79.3066H376.775ZM359.356 57.5602C363.209 57.5602 367.609 58.7281 371.013 61.9878C374.407 65.2377 376.893 70.6466 376.775 79.2982L378.006 79.315C378.128 70.4135 375.565 64.6413 371.865 61.0983C368.176 57.5652 363.439 56.3285 359.356 56.3285V57.5602ZM348.161 79.5471C348.161 81.8379 348.278 86.1446 349.704 89.8951C350.419 91.7769 351.477 93.5549 353.048 94.8645C354.631 96.183 356.696 96.9947 359.356 96.9947V95.763C356.967 95.763 355.185 95.0419 353.837 93.9183C352.478 92.7857 351.522 91.2124 350.855 89.4574C349.515 85.9341 349.392 81.8249 349.392 79.5471H348.161ZM359.356 62.0994C356.696 62.0994 354.631 62.9112 353.048 64.2297C351.477 65.5393 350.419 67.3173 349.704 69.1991C348.278 72.9495 348.161 77.2563 348.161 79.5471H349.392C349.392 77.2693 349.515 73.1601 350.855 69.6368C351.522 67.8818 352.478 66.3084 353.837 65.1759C355.185 64.0523 356.967 63.3311 359.356 63.3311V62.0994ZM370.552 79.5471C370.552 77.2563 370.435 72.9495 369.009 69.1991C368.294 67.3173 367.236 65.5393 365.664 64.2297C364.082 62.9112 362.017 62.0994 359.356 62.0994V63.3311C361.745 63.3311 363.527 64.0523 364.876 65.1759C366.235 66.3084 367.191 67.8817 367.858 69.6368C369.197 73.1601 369.321 77.2693 369.321 79.5471H370.552ZM359.356 96.9947C362.073 96.9947 364.182 96.1855 365.795 94.8684C367.398 93.5592 368.473 91.7803 369.19 89.8951C370.618 86.1382 370.673 81.828 370.551 79.5147L369.321 79.5795C369.44 81.8348 369.375 85.9405 368.038 89.4574C367.372 91.209 366.403 92.7814 365.016 93.9144C363.638 95.0394 361.81 95.763 359.356 95.763V96.9947ZM314.632 56.5984C315.789 56.5984 316.721 57.3572 316.91 58.4884L318.125 58.2859C317.832 56.5316 316.361 55.3667 314.632 55.3667V56.5984ZM308.14 59.4932C308.971 58.4537 311.206 57.0606 314.713 56.593L314.551 55.3721C310.844 55.8664 308.27 57.3587 307.178 58.7238L308.14 59.4932ZM298.041 56.8389C301.266 56.8389 304.525 57.9933 307.348 59.6404L307.969 58.5765C305.022 56.8573 301.548 55.6072 298.041 55.6072V56.8389ZM281.344 70.6503C281.344 66.9169 283.382 63.4723 286.524 60.9406C289.666 58.4097 293.859 56.8389 298.041 56.8389V55.6072C293.565 55.6072 289.102 57.2825 285.752 59.9814C282.402 62.6796 280.112 66.4487 280.112 70.6503H281.344ZM288.971 82.14C284.521 79.5636 281.344 75.4081 281.344 70.6503H280.112C280.112 75.9915 283.667 80.4924 288.354 83.2059L288.971 82.14ZM288.422 83.5293C288.59 83.5293 288.757 83.4855 288.903 83.3883C289.045 83.2936 289.132 83.1717 289.184 83.0686C289.234 82.9679 289.256 82.8747 289.267 82.8118C289.272 82.7789 289.275 82.7501 289.277 82.7272C289.278 82.7156 289.278 82.7052 289.278 82.6962C289.278 82.6917 289.279 82.6875 289.279 82.6836C289.279 82.6817 289.279 82.6798 289.279 82.6781C289.279 82.6772 289.279 82.6763 289.279 82.6755C289.279 82.675 289.279 82.6746 289.279 82.6742C289.279 82.674 289.279 82.6737 289.279 82.6736C289.279 82.6733 289.279 82.673 288.663 82.673C288.047 82.6729 288.047 82.6726 288.047 82.6723C288.047 82.6722 288.047 82.6719 288.047 82.6717C288.047 82.6713 288.047 82.6709 288.047 82.6705C288.047 82.6698 288.047 82.669 288.047 82.6682C288.047 82.6667 288.047 82.6652 288.047 82.6637C288.047 82.6607 288.047 82.6579 288.047 82.6551C288.048 82.6496 288.048 82.6444 288.048 82.6394C288.049 82.6296 288.05 82.6196 288.052 82.6093C288.055 82.5915 288.062 82.5583 288.082 82.5178C288.104 82.4748 288.145 82.4131 288.22 82.3634C288.298 82.3113 288.375 82.2976 288.422 82.2976V83.5293ZM287.782 84.1588C288.155 83.8886 288.513 83.6293 288.807 83.3943L288.038 82.4325C287.772 82.6452 287.44 82.8857 287.06 83.1613L287.782 84.1588ZM287.801 84.1445L287.801 84.1443L287.041 83.1758L287.04 83.176L287.801 84.1445ZM284.389 87.3067C284.707 86.7486 285.229 86.1915 285.853 85.6482C286.473 85.1079 287.158 84.6113 287.782 84.159L287.059 83.1616C286.442 83.6089 285.712 84.1371 285.044 84.7195C284.379 85.2989 283.738 85.9624 283.319 86.6956L284.389 87.3067ZM284.366 90.9877C283.998 90.4361 283.549 88.9878 284.405 87.2765L283.303 86.7257C282.235 88.8618 282.747 90.7798 283.341 91.6709L284.366 90.9877ZM299.243 95.2797C295.152 94.9188 291.792 94.6207 289.242 94.0028C286.681 93.3825 285.118 92.4803 284.405 91.0539L283.303 91.6047C284.269 93.5373 286.301 94.5577 288.952 95.1999C291.612 95.8445 295.08 96.1488 299.135 96.5066L299.243 95.2797ZM299.297 95.2845L299.243 95.2797L299.135 96.5066L299.189 96.5114L299.297 95.2845ZM301.013 95.5288L299.33 95.2883L299.156 96.5076L300.839 96.748L301.013 95.5288ZM311.4 103.352C311.4 100.015 308.12 96.2635 300.989 95.5258L300.863 96.751C307.679 97.4561 310.169 100.918 310.169 103.352H311.4ZM299.002 111.422C302.599 111.422 305.668 110.43 307.855 108.941C310.026 107.462 311.4 105.433 311.4 103.352H310.169C310.169 104.878 309.139 106.576 307.162 107.923C305.201 109.258 302.379 110.19 299.002 110.19V111.422ZM288.155 106.931C288.752 107.793 289.55 108.953 291.192 109.87C292.823 110.781 295.228 111.422 299.002 111.422V110.19C295.359 110.19 293.182 109.57 291.792 108.794C290.413 108.024 289.75 107.071 289.169 106.23L288.155 106.931ZM288.157 106.933L288.157 106.933L289.166 106.227L289.166 106.227L288.157 106.933ZM287.921 106.595C287.996 106.7 288.073 106.811 288.155 106.93L289.168 106.23C289.087 106.112 289.005 105.993 288.924 105.88L287.921 106.595ZM287.566 104.314C287.566 104.436 287.566 104.817 287.598 105.233C287.614 105.44 287.639 105.666 287.678 105.879C287.715 106.083 287.773 106.315 287.872 106.513L288.973 105.962C288.952 105.919 288.919 105.821 288.889 105.657C288.861 105.501 288.84 105.321 288.826 105.138C288.798 104.773 288.798 104.432 288.798 104.314H287.566ZM285.583 100.81C286.256 101.035 286.97 101.408 287.405 101.939C287.8 102.422 288.01 103.086 287.61 104.085L288.754 104.543C289.316 103.138 289.045 101.998 288.358 101.159C287.71 100.367 286.741 99.8983 285.972 99.6419L285.583 100.81ZM282.241 101.944C282.766 100.893 284.044 100.601 285.69 100.836L285.865 99.6165C284.144 99.3707 282.056 99.5596 281.139 101.393L282.241 101.944ZM282.443 108.3C281.136 106.34 281.13 103.944 282.228 101.968L281.151 101.37C279.844 103.722 279.839 106.615 281.418 108.984L282.443 108.3ZM299.483 114.759C287.871 114.759 283.768 110.508 282.458 108.325L281.402 108.959C282.978 111.585 287.531 115.991 299.483 115.991V114.759ZM299.964 114.759H299.483V115.991H299.964V114.759ZM316.902 103.567C316.681 108.878 310.843 114.759 299.964 114.759V115.991C311.207 115.991 317.873 109.849 318.133 103.618L316.902 103.567ZM303.064 90.9828C308.711 91.2181 312.2 93.0334 314.257 95.4002C316.323 97.7769 317.018 100.795 316.902 103.567L318.133 103.618C318.258 100.619 317.51 97.2652 315.187 94.5923C312.856 91.9096 309.011 89.9979 303.116 89.7522L303.064 90.9828ZM296.934 90.7706C298.585 90.8189 300.601 90.878 303.064 90.9828L303.116 89.7522C300.645 89.6471 298.621 89.5878 296.97 89.5395L296.934 90.7706ZM289.249 88.4439C289.249 88.895 289.337 89.362 289.691 89.7411C290.024 90.0989 290.509 90.2835 291.064 90.401C292.167 90.6338 294.014 90.6851 296.934 90.7706L296.97 89.5395C293.979 89.4519 292.283 89.3995 291.319 89.1959C290.842 89.0952 290.663 88.9784 290.592 88.9015C290.54 88.8458 290.481 88.7446 290.481 88.4439H289.249ZM298.762 84.2212C297.598 84.2212 295.308 84.5982 293.313 85.2429C292.313 85.566 291.344 85.9696 290.611 86.4536C289.915 86.9138 289.249 87.5704 289.249 88.4439H290.481C290.481 88.2353 290.657 87.9 291.291 87.4811C291.888 87.0859 292.738 86.7231 293.691 86.4149C295.603 85.7973 297.762 85.4529 298.762 85.4529V84.2212ZM314.257 70.4098C314.257 74.0418 312.441 77.3691 309.569 79.8636C306.697 82.359 302.799 83.9895 298.727 84.2222L298.797 85.4519C303.141 85.2037 307.298 83.4679 310.377 80.7935C313.457 78.1183 315.488 74.4724 315.488 70.4098H314.257ZM311.071 62.6698C313.119 64.7178 314.257 67.4464 314.257 70.4098H315.488C315.488 67.1215 314.222 64.0791 311.941 61.7989L311.071 62.6698ZM315.045 60.42C312.835 60.6656 311.701 61.1687 311.071 61.7989L311.941 62.6698C312.273 62.3383 313.063 61.8795 315.181 61.6442L315.045 60.42ZM316.902 58.3871C316.902 58.983 316.7 59.5613 316.381 59.9493C316.074 60.3222 315.681 60.5024 315.214 60.4247L315.012 61.6396C315.988 61.8022 316.797 61.3813 317.332 60.7323C317.854 60.0984 318.133 59.234 318.133 58.3871H316.902ZM287.085 70.8907C287.085 76.2615 291.911 81.6056 297.8 81.6056V80.374C292.628 80.374 288.317 75.619 288.317 70.8907H287.085ZM298.281 60.4163C295.33 60.4163 292.539 61.7601 290.492 63.7124C288.45 65.6604 287.085 68.2769 287.085 70.8907H288.317C288.317 68.6955 289.477 66.3826 291.342 64.6036C293.203 62.8288 295.702 61.6479 298.281 61.6479V60.4163ZM308.515 70.8907C308.515 65.5411 304.19 60.4163 298.281 60.4163V61.6479C303.433 61.6479 307.283 66.1413 307.283 70.8907H308.515ZM297.8 81.6056C303.689 81.6056 308.515 76.2615 308.515 70.8907H307.283C307.283 75.619 302.972 80.374 297.8 80.374V81.6056ZM414.796 45.6432V38.1891H413.564V45.6432H414.796ZM398.129 31.4245L413.758 46.0922L414.601 45.1941L398.972 30.5264L398.129 31.4245ZM383.098 46.0954L398.968 31.4277L398.132 30.5232L382.262 45.1909L383.098 46.0954ZM382.065 38.1891V45.6432H383.296V38.1891H382.065ZM398.136 23.3062L382.266 37.7334L383.095 38.6448L398.965 24.2175L398.136 23.3062ZM414.598 37.7366L398.968 23.3093L398.133 24.2143L413.762 38.6416L414.598 37.7366Z" fill="white" mask="url(#path-2-outside-1_80_236)"/>
<defs>
<filter id="filter0_f_80_236" x="-16.8661" y="-66.8661" width="578.116" height="263.447" filterUnits="userSpaceOnUse" color-interpolation-filters="sRGB">
<feFlood flood-opacity="0" result="BackgroundImageFix"/>
<feBlend mode="normal" in="SourceGraphic" in2="BackgroundImageFix" result="shape"/>
<feGaussianBlur stdDeviation="33.433" result="effect1_foregroundBlur_80_236"/>
</filter>
<linearGradient id="paint0_linear_80_236" x1="-8.89895" y1="111.608" x2="208.682" y2="-179.989" gradientUnits="userSpaceOnUse">
<stop stop-color="#71C3FE"/>
<stop offset="1" stop-color="#9780FD"/>
</linearGradient>
</defs>
</svg>
