<svg width="93" height="44" viewBox="0 0 93 44" fill="none" xmlns="http://www.w3.org/2000/svg">
<path d="M0.520936 34V0.399998H7.72094V34H0.520936ZM33.4141 30.928C31.0461 33.296 28.0061 34.48 24.2941 34.48C20.5821 34.48 17.5261 33.296 15.1261 30.928C12.7581 28.528 11.5741 25.472 11.5741 21.76C11.5741 18.048 12.7581 15.008 15.1261 12.64C17.5261 10.24 20.5821 9.04 24.2941 9.04C28.0061 9.04 31.0461 10.24 33.4141 12.64C35.8141 15.008 37.0141 18.048 37.0141 21.76C37.0141 25.472 35.8141 28.528 33.4141 30.928ZM20.3101 26.128C21.3661 27.216 22.6941 27.76 24.2941 27.76C25.8941 27.76 27.2061 27.216 28.2301 26.128C29.2861 25.008 29.8141 23.552 29.8141 21.76C29.8141 19.968 29.2861 18.528 28.2301 17.44C27.2061 16.32 25.8941 15.76 24.2941 15.76C22.6941 15.76 21.3661 16.32 20.3101 17.44C19.2861 18.528 18.7741 19.968 18.7741 21.76C18.7741 23.552 19.2861 25.008 20.3101 26.128ZM39.8753 34.96H47.3153C47.4433 35.44 47.7153 35.888 48.1313 36.304C48.9953 37.168 50.2433 37.6 51.8753 37.6C53.4113 37.6 54.5953 37.2 55.4273 36.4C56.2593 35.6 56.6753 34.48 56.6753 33.04V30.16H56.4353C55.9873 30.672 55.5073 31.072 54.9953 31.36C53.7793 32.16 52.3393 32.56 50.6753 32.56C47.3793 32.56 44.6753 31.472 42.5633 29.296C40.4513 27.088 39.3953 24.256 39.3953 20.8C39.3953 17.344 40.4513 14.528 42.5633 12.352C44.6753 10.144 47.3793 9.04 50.6753 9.04C52.4993 9.04 54.0833 9.52 55.4273 10.48C55.9713 10.896 56.4673 11.376 56.9153 11.92H57.1553L57.6353 9.52H63.8753V33.04C63.8753 36.464 62.8513 39.12 60.8033 41.008C58.7553 42.896 55.7793 43.84 51.8753 43.84C47.1073 43.84 43.6993 42.368 41.6513 39.424C40.6913 38.08 40.0993 36.592 39.8753 34.96ZM48.0353 24.4C48.9953 25.36 50.1953 25.84 51.6353 25.84C53.0753 25.84 54.2753 25.36 55.2353 24.4C56.1953 23.44 56.6753 22.24 56.6753 20.8C56.6753 19.36 56.1953 18.16 55.2353 17.2C54.2753 16.24 53.0753 15.76 51.6353 15.76C50.1953 15.76 48.9953 16.24 48.0353 17.2C47.0753 18.16 46.5953 19.36 46.5953 20.8C46.5953 22.24 47.0753 23.44 48.0353 24.4ZM89.3378 30.928C86.9698 33.296 83.9298 34.48 80.2178 34.48C76.5058 34.48 73.4498 33.296 71.0498 30.928C68.6818 28.528 67.4978 25.472 67.4978 21.76C67.4978 18.048 68.6818 15.008 71.0498 12.64C73.4498 10.24 76.5058 9.04 80.2178 9.04C83.9298 9.04 86.9698 10.24 89.3378 12.64C91.7378 15.008 92.9378 18.048 92.9378 21.76C92.9378 25.472 91.7378 28.528 89.3378 30.928ZM76.2338 26.128C77.2898 27.216 78.6178 27.76 80.2178 27.76C81.8178 27.76 83.1298 27.216 84.1538 26.128C85.2098 25.008 85.7378 23.552 85.7378 21.76C85.7378 19.968 85.2098 18.528 84.1538 17.44C83.1298 16.32 81.8178 15.76 80.2178 15.76C78.6178 15.76 77.2898 16.32 76.2338 17.44C75.2098 18.528 74.6978 19.968 74.6978 21.76C74.6978 23.552 75.2098 25.008 76.2338 26.128Z" fill="#fff"/>
</svg>
