<svg width="278" height="226" viewBox="0 0 278 226" fill="none" xmlns="http://www.w3.org/2000/svg">
<path opacity="0.1" d="M278 0L206.144 0L138.408 65.9383L71.9381 0L0 0L0 226H62.2266L138.857 171.592L215.733 226H278V0ZM77.6099 124.15L53.9433 212.748H13.5062L13.5062 28.3851L77.6099 124.15ZM88.219 136.241L127.228 163.465L70.3875 203.7L88.2598 136.241H88.219ZM66.2663 13.2517L189.373 135.56L207.613 203.82L93.1971 123.629L19.5045 13.2517L66.2663 13.2517ZM264.535 28.4252V212.748H224.138L200.39 124.39L264.494 28.4252H264.535ZM147.916 75.3467L211.693 13.2517L258.496 13.2517L189.373 116.503L147.875 75.3467H147.916Z" fill="url(#paint0_linear_62_11)"/>
<defs>
<linearGradient id="paint0_linear_62_11" x1="-36.8463" y1="194.452" x2="272.184" y2="45.7448" gradientUnits="userSpaceOnUse">
<stop stop-color="#71C3FE"/>
<stop offset="1" stop-color="#9780FD"/>
</linearGradient>
</defs>
</svg>
