<svg width="33" height="33" viewBox="0 0 33 33" fill="none" xmlns="http://www.w3.org/2000/svg">
<path d="M16.5 33C25.6127 33 33 25.6127 33 16.5C33 7.3873 25.6127 0 16.5 0C7.3873 0 0 7.3873 0 16.5C0 25.6127 7.3873 33 16.5 33Z" fill="#0090FF"/>
<path d="M10.0394 18.9081L11.8707 24.9115C11.9022 25.0062 12.0413 24.9908 12.051 24.8913L12.5267 19.9508C12.5291 19.9273 12.5396 19.9055 12.5574 19.8901L21.3198 12.286C21.4039 12.2116 21.3077 12.0797 21.2114 12.1371L10.0807 18.7989C10.0426 18.8208 10.0257 18.8669 10.0402 18.9081H10.0394Z" fill="#CAD9EC"/>
<path d="M12.0504 24.9111L23.9003 11.416L12.5293 19.9139L12.0504 24.9111Z" fill="#B2C2D3"/>
<path d="M5.47687 16.5017L23.665 9.25594C24.1244 9.07314 24.6024 9.47514 24.5005 9.95884L21.312 25.1242C21.1939 25.6872 20.5306 25.9363 20.0712 25.5901L12.5302 19.9143L21.1931 12.239L10.0162 18.8369L5.50598 17.381C5.08942 17.2467 5.07001 16.6635 5.47687 16.5017Z" fill="#FDFFFC"/>
</svg>
