<svg width="272" height="1123" viewBox="0 0 272 1123" fill="none" xmlns="http://www.w3.org/2000/svg">
<path d="M561.489 230.611C379.043 230.611 230.609 379.045 230.609 561.491C230.609 743.938 379.043 892.372 561.489 892.372C743.936 892.372 892.37 743.938 892.37 561.491C892.37 379.045 743.936 230.611 561.489 230.611V230.611ZM561.489 881.266C385.164 881.266 241.714 737.817 241.714 561.491C241.714 385.166 385.164 241.716 561.489 241.716C737.815 241.716 881.264 385.166 881.264 561.491C881.264 737.817 737.815 881.266 561.489 881.266Z" fill="#F9F9F9" fill-opacity="0.1"/>
<path d="M561.492 0C251.892 0 0 251.879 0 561.492C0 871.104 251.879 1122.98 561.492 1122.98C871.104 1122.98 1122.98 871.104 1122.98 561.492C1122.98 251.879 871.104 0 561.492 0V0ZM561.492 1111.87C258.013 1111.87 11.1051 864.971 11.1051 561.479C11.1051 257.987 258.013 11.1051 561.492 11.1051C864.971 11.1051 1111.88 258 1111.88 561.492C1111.88 864.983 864.983 1111.88 561.492 1111.88V1111.87Z" fill="#F9F9F9" fill-opacity="0.1"/>
<path d="M561.492 25.6312C266.019 25.6312 25.6328 266.018 25.6328 561.491C25.6328 856.964 266.019 1097.35 561.492 1097.35C856.965 1097.35 1097.35 856.964 1097.35 561.491C1097.35 266.018 856.965 25.6312 561.492 25.6312V25.6312ZM1086.25 561.491C1086.25 850.843 850.844 1086.25 561.492 1086.25C272.14 1086.25 36.7379 850.843 36.7379 561.491C36.7379 272.138 272.14 36.7363 561.492 36.7363C850.844 36.7363 1086.25 272.138 1086.25 561.491V561.491Z" fill="#F9F9F9" fill-opacity="0.1"/>
<path d="M561.49 51.2506C280.144 51.2506 51.25 280.145 51.25 561.491C51.25 842.837 280.144 1071.73 561.49 1071.73C842.836 1071.73 1071.73 842.837 1071.73 561.491C1071.73 280.145 842.836 51.2506 561.49 51.2506V51.2506ZM1060.63 561.491C1060.63 836.716 836.716 1060.63 561.49 1060.63C286.265 1060.63 62.3551 836.716 62.3551 561.491C62.3551 286.265 286.265 62.3557 561.49 62.3557C836.716 62.3557 1060.63 286.265 1060.63 561.491V561.491Z" fill="#F9F9F9" fill-opacity="0.1"/>
<path d="M561.492 76.8696C294.273 76.8696 76.8711 294.271 76.8711 561.491C76.8711 828.71 294.273 1046.11 561.492 1046.11C828.712 1046.11 1046.11 828.71 1046.11 561.491C1046.11 294.271 828.712 76.8696 561.492 76.8696V76.8696ZM1035.01 561.491C1035.01 822.589 822.591 1035.01 561.492 1035.01C300.393 1035.01 87.9762 822.589 87.9762 561.491C87.9762 300.392 300.393 87.9747 561.492 87.9747C822.591 87.9747 1035.01 300.392 1035.01 561.491V561.491Z" fill="#F9F9F9" fill-opacity="0.1"/>
<path d="M561.493 102.502C308.4 102.502 102.504 308.411 102.504 561.504C102.504 814.597 308.413 1020.51 561.493 1020.51C814.573 1020.51 1020.48 814.597 1020.48 561.504C1020.48 308.411 814.573 102.502 561.493 102.502V102.502ZM561.493 1009.39C314.521 1009.39 113.609 808.463 113.609 561.491C113.609 314.519 314.534 113.594 561.493 113.594C808.452 113.594 1009.38 314.519 1009.38 561.491C1009.38 808.463 808.452 1009.39 561.493 1009.39Z" fill="#F9F9F9" fill-opacity="0.1"/>
<path d="M561.491 128.121C322.525 128.121 128.121 322.538 128.121 561.491C128.121 800.444 322.525 994.861 561.491 994.861C800.457 994.861 994.861 800.444 994.861 561.491C994.861 322.538 800.444 128.121 561.491 128.121V128.121ZM561.491 983.756C328.645 983.756 139.226 794.323 139.226 561.491C139.226 328.658 328.658 139.226 561.491 139.226C794.323 139.226 983.756 328.658 983.756 561.491C983.756 794.323 794.323 983.756 561.491 983.756Z" fill="#F9F9F9" fill-opacity="0.1"/>
<path d="M561.493 153.74C336.653 153.74 153.742 336.652 153.742 561.491C153.742 786.33 336.653 969.242 561.493 969.242C786.332 969.242 969.243 786.33 969.243 561.491C969.243 336.652 786.332 153.74 561.493 153.74ZM561.493 958.137C342.787 958.137 164.847 780.197 164.847 561.491C164.847 342.785 342.787 164.846 561.493 164.846C780.198 164.846 958.138 342.785 958.138 561.491C958.138 780.197 780.211 958.137 561.493 958.137V958.137Z" fill="#F9F9F9" fill-opacity="0.1"/>
<path d="M561.491 179.359C350.778 179.359 179.359 350.778 179.359 561.49C179.359 772.203 350.778 943.622 561.491 943.622C772.203 943.622 943.622 772.203 943.622 561.49C943.622 350.778 772.203 179.359 561.491 179.359V179.359ZM932.517 561.49C932.517 766.069 766.083 932.517 561.491 932.517C356.899 932.517 190.464 766.082 190.464 561.49C190.464 356.898 356.899 190.464 561.491 190.464C766.083 190.464 932.517 356.898 932.517 561.49Z" fill="#F9F9F9" fill-opacity="0.1"/>
<path d="M561.491 204.991C364.918 204.991 204.992 364.917 204.992 561.49C204.992 758.063 364.918 917.99 561.491 917.99C758.065 917.99 917.991 758.063 917.991 561.49C917.991 364.917 758.065 204.991 561.491 204.991V204.991ZM561.491 906.898C371.039 906.898 216.097 751.956 216.097 561.503C216.097 371.051 371.039 216.109 561.491 216.109C751.944 216.109 906.886 371.051 906.886 561.503C906.886 751.956 751.944 906.898 561.491 906.898Z" fill="#F9F9F9" fill-opacity="0.1"/>
<path d="M561.491 256.23C393.172 256.23 256.23 393.172 256.23 561.491C256.23 729.811 393.172 866.752 561.491 866.752C729.811 866.752 866.752 729.811 866.752 561.491C866.752 393.172 729.811 256.23 561.491 256.23ZM561.491 855.647C399.292 855.647 267.336 723.69 267.336 561.491C267.336 399.292 399.292 267.335 561.491 267.335C723.69 267.335 855.647 399.292 855.647 561.491C855.647 723.69 723.69 855.647 561.491 855.647V855.647Z" fill="#F9F9F9" fill-opacity="0.1"/>
</svg>
