<svg width="172" height="28" viewBox="0 0 172 28" fill="none" xmlns="http://www.w3.org/2000/svg">
<g clip-path="url(#clip0_509_333)">
<path d="M108.171 12.2524V27.0741H122.199C124.696 27.0741 126.705 25.0554 126.705 22.551V16.7756C126.705 14.2711 124.696 12.2524 122.199 12.2524H108.171ZM112.607 15.9713H120.704C121.543 15.9713 122.215 16.6029 122.215 17.3801V21.9464C122.215 22.7291 121.543 23.3552 120.704 23.3552H112.607V15.9713Z" fill="#364DE7"/>
<path d="M133.556 12.2524H128.806V27.0741H133.556V12.2524Z" fill="#364DE7"/>
<path d="M134.986 12.2524L142.341 27.0741H148.407L155.676 12.2524H150.725L145.374 23.339L139.953 12.2524H134.981H134.986Z" fill="#364DE7"/>
<path d="M156.504 12.2632V27.0686H172V23.5171H160.962V21.1637H168.209V17.9036H160.962V15.75H172V12.2632H156.504Z" fill="#364DE7"/>
<path d="M101.59 27.0741H106.741L98.958 12.2524H92.8053L84.9357 27.0741H90.1081L91.3809 24.5642H100.323L101.596 27.0741H101.59ZM98.736 21.3203H92.984L95.86 15.6961L98.736 21.3203Z" fill="#2A2A29"/>
<path d="M12.3054 12.2524V16.0307H18.4094V27.0741H23.1593V16.0307H29.2687V12.2524H12.3054Z" fill="#2A2A29"/>
<path d="M31.2727 12.2632V27.0686H46.7682V23.5171H35.7302V21.1637H42.977V17.9036H35.7302V15.75H46.7682V12.2632H31.2727Z" fill="#2A2A29"/>
<path d="M65.5243 18.9238V16.781C65.5243 14.5302 63.8995 12.6734 61.7547 12.3226C61.5164 12.2848 61.2727 12.2578 61.0181 12.2578H48.7668V27.0795H53.2785V23.4469H59.5233L60.3411 27.0633H65.0911L64.0132 22.3026C64.9394 21.4768 65.5243 20.2732 65.5243 18.9238ZM53.2785 19.7334V15.9659H59.5233C60.3628 15.9713 61.0344 16.6028 61.0344 17.3855V18.4326H61.029C60.9694 19.1613 60.3194 19.728 59.5233 19.728H53.2785V19.7334Z" fill="#2A2A29"/>
<path d="M84.2858 18.9238V16.781C84.2858 14.5302 82.661 12.6734 80.5162 12.3226C80.2779 12.2848 80.0342 12.2578 79.7796 12.2578H67.5283V27.0795H72.04V23.4469H78.2847L79.1026 27.0633H83.8525L82.7747 22.3026C83.7009 21.4768 84.2858 20.2732 84.2858 18.9238ZM72.04 19.7334V15.9659H78.2847C79.1242 15.9713 79.7959 16.6028 79.7959 17.3855V18.4326H79.7904C79.7309 19.1613 79.0809 19.728 78.2847 19.728H72.04V19.7334Z" fill="#2A2A29"/>
<path d="M0 8.02078C0 12.4522 3.60714 16.0415 8.04837 16.0415V12.2578C5.69777 12.2578 3.79129 10.3579 3.79129 8.01538H0V8.02078Z" fill="#364DE7"/>
<path d="M12.3054 8.02075H16.1021C16.1021 3.59476 12.495 0 8.04834 0V3.78368C10.3989 3.78368 12.3054 5.68361 12.3054 8.02615V8.02075Z" fill="#364DE7"/>
</g>
<defs>
<clipPath id="clip0_509_333">
<rect width="172" height="27.0741" fill="white"/>
</clipPath>
</defs>
</svg>
